G04 #@! TF.FileFunction,Copper,L2,Bot,Signal*
%FSLAX46Y46*%
G04 Gerber Fmt 4.6, Leading zero omitted, Abs format (unit mm)*
G04 Created by KiCad (PCBNEW 4.0.7) date Tue Feb  6 08:28:50 2018*
%MOMM*%
%LPD*%
G01*
G04 APERTURE LIST*
%ADD10C,0.100000*%
%ADD11R,0.750000X0.800000*%
%ADD12R,0.900000X0.500000*%
%ADD13R,1.000760X1.000760*%
%ADD14R,1.600000X0.550000*%
%ADD15R,0.550000X1.600000*%
%ADD16R,0.600000X2.000000*%
%ADD17R,0.600000X1.500000*%
%ADD18R,0.800000X0.750000*%
%ADD19R,1.900000X1.500000*%
%ADD20C,1.450000*%
%ADD21R,1.350000X0.400000*%
%ADD22O,1.900000X1.200000*%
%ADD23R,1.900000X1.200000*%
%ADD24R,0.500000X2.000000*%
%ADD25C,2.000000*%
%ADD26R,2.400000X0.700000*%
%ADD27C,0.600000*%
%ADD28C,0.200000*%
%ADD29C,0.250000*%
%ADD30C,0.254000*%
G04 APERTURE END LIST*
D10*
D11*
X99270000Y-95310000D03*
X99270000Y-96810000D03*
X104620000Y-67595000D03*
X104620000Y-69095000D03*
D12*
X101450000Y-90380000D03*
X101450000Y-88880000D03*
D13*
X99369120Y-93749740D03*
X95670880Y-87750260D03*
X95670880Y-93749740D03*
X99369120Y-87750260D03*
D14*
X110280000Y-92110000D03*
X110280000Y-92910000D03*
X110280000Y-93710000D03*
X110280000Y-94510000D03*
X110280000Y-95310000D03*
X110280000Y-96110000D03*
X110280000Y-96910000D03*
X110280000Y-97710000D03*
D15*
X108830000Y-99160000D03*
X108030000Y-99160000D03*
X107230000Y-99160000D03*
X106430000Y-99160000D03*
X105630000Y-99160000D03*
X104830000Y-99160000D03*
X104030000Y-99160000D03*
X103230000Y-99160000D03*
D14*
X101780000Y-97710000D03*
X101780000Y-96910000D03*
X101780000Y-96110000D03*
X101780000Y-95310000D03*
X101780000Y-94510000D03*
X101780000Y-93710000D03*
X101780000Y-92910000D03*
X101780000Y-92110000D03*
D15*
X103230000Y-90660000D03*
X104030000Y-90660000D03*
X104830000Y-90660000D03*
X105630000Y-90660000D03*
X106430000Y-90660000D03*
X107230000Y-90660000D03*
X108030000Y-90660000D03*
X108830000Y-90660000D03*
D16*
X129600000Y-100620000D03*
X128330000Y-100620000D03*
X127060000Y-100620000D03*
X125790000Y-100620000D03*
X124520000Y-100620000D03*
X123250000Y-100620000D03*
X121980000Y-100620000D03*
X120710000Y-100620000D03*
X119440000Y-100620000D03*
X119440000Y-91220000D03*
X120710000Y-91220000D03*
X121980000Y-91220000D03*
X123250000Y-91220000D03*
X124520000Y-91220000D03*
X125790000Y-91220000D03*
X127060000Y-91220000D03*
X128330000Y-91220000D03*
X129600000Y-91220000D03*
D17*
X135615000Y-71010000D03*
X134345000Y-71010000D03*
X133075000Y-71010000D03*
X131805000Y-71010000D03*
X130535000Y-71010000D03*
X129265000Y-71010000D03*
X127995000Y-71010000D03*
X126725000Y-71010000D03*
X126725000Y-65610000D03*
X127995000Y-65610000D03*
X129265000Y-65610000D03*
X130535000Y-65610000D03*
X131805000Y-65610000D03*
X133075000Y-65610000D03*
X134345000Y-65610000D03*
X135615000Y-65610000D03*
D11*
X123695000Y-69095000D03*
X123695000Y-67595000D03*
D17*
X101955000Y-71020000D03*
X100685000Y-71020000D03*
X99415000Y-71020000D03*
X98145000Y-71020000D03*
X96875000Y-71020000D03*
X95605000Y-71020000D03*
X94335000Y-71020000D03*
X93065000Y-71020000D03*
X93065000Y-65620000D03*
X94335000Y-65620000D03*
X95605000Y-65620000D03*
X96875000Y-65620000D03*
X98145000Y-65620000D03*
X99415000Y-65620000D03*
X100685000Y-65620000D03*
X101955000Y-65620000D03*
D18*
X84410000Y-70580000D03*
X85910000Y-70580000D03*
D19*
X84270000Y-76620000D03*
D20*
X86970000Y-80120000D03*
D21*
X86970000Y-78270000D03*
X86970000Y-78920000D03*
X86970000Y-76320000D03*
X86970000Y-76970000D03*
X86970000Y-77620000D03*
D20*
X86970000Y-75120000D03*
D19*
X84270000Y-78620000D03*
D22*
X84270000Y-81120000D03*
X84270000Y-74120000D03*
D23*
X84270000Y-74720000D03*
X84270000Y-80520000D03*
D24*
X93770000Y-92370000D03*
X93770000Y-89070000D03*
X92770000Y-92370000D03*
X92770000Y-89070000D03*
X91770000Y-92370000D03*
X91770000Y-89070000D03*
D25*
X87240600Y-66016027D03*
X85363660Y-68252876D03*
X85363660Y-68252876D03*
X87240600Y-66016027D03*
D26*
X114370000Y-97800000D03*
X114370000Y-99000000D03*
X114370000Y-96600000D03*
D27*
X112170000Y-99410000D03*
X109990000Y-99410000D03*
X117770000Y-102110000D03*
X123320000Y-103370000D03*
X118570000Y-104380000D03*
X103890000Y-93220000D03*
X97130000Y-87910000D03*
X98810000Y-68880000D03*
X98780000Y-67090000D03*
X102840000Y-67060000D03*
X88200000Y-77680000D03*
X103220000Y-96300000D03*
X125700000Y-65620000D03*
X131800000Y-68120000D03*
X90020000Y-89460000D03*
X97480000Y-95480000D03*
X93770000Y-67680000D03*
X95870000Y-68650000D03*
X90070000Y-93470000D03*
X90050000Y-91550000D03*
X110495000Y-102670000D03*
X125790000Y-66890000D03*
X130510000Y-66770000D03*
X97510000Y-68060000D03*
X111080000Y-69730000D03*
X89820000Y-85770000D03*
X92970000Y-85770000D03*
X96120000Y-85770000D03*
X99270000Y-85770000D03*
X102420000Y-85770000D03*
X105570000Y-85770000D03*
X108745000Y-85770000D03*
X111895000Y-85770000D03*
X115070000Y-85770000D03*
X118220000Y-85770000D03*
X121420000Y-85770000D03*
X124595000Y-85770000D03*
X127770000Y-85745000D03*
X130920000Y-85770000D03*
X134120000Y-85745000D03*
X137295000Y-85745000D03*
X101730000Y-99700000D03*
X93770000Y-95810000D03*
X95520000Y-67790000D03*
X105880000Y-68450000D03*
X92770000Y-95190000D03*
X96470000Y-95200000D03*
X105200000Y-88030000D03*
X112170000Y-87850000D03*
X135210000Y-67760000D03*
X105320000Y-92210000D03*
X105320000Y-94510000D03*
X105230000Y-97580000D03*
X103220000Y-92520000D03*
X104550000Y-92580000D03*
X102680000Y-88690000D03*
X119440000Y-88960000D03*
X123240000Y-64320000D03*
X100350000Y-97450000D03*
X90820000Y-88480000D03*
X94340000Y-67090000D03*
X128150000Y-64140000D03*
X135160000Y-64150000D03*
X135770000Y-67080000D03*
X134340000Y-67070000D03*
X135610000Y-69500000D03*
X134360000Y-69500000D03*
X133080000Y-69520000D03*
X131810000Y-69350000D03*
X130550000Y-68900000D03*
X129260000Y-68430000D03*
X127980000Y-68000000D03*
X118630000Y-93760000D03*
X123360000Y-96090000D03*
X89820000Y-72395000D03*
X92970000Y-72395000D03*
X96120000Y-72395000D03*
X99270000Y-72395000D03*
X102420000Y-72395000D03*
X105570000Y-72395000D03*
X108745000Y-72395000D03*
X111895000Y-72395000D03*
X115070000Y-72395000D03*
X118220000Y-72395000D03*
X121420000Y-72395000D03*
X124570000Y-72370000D03*
X127770000Y-72370000D03*
X130945000Y-72370000D03*
X134110000Y-72370000D03*
X137270000Y-72370000D03*
X89820000Y-74295000D03*
X92970000Y-74295000D03*
X96120000Y-74295000D03*
X99270000Y-74295000D03*
X102420000Y-74295000D03*
X105570000Y-74295000D03*
X108745000Y-74295000D03*
X111895000Y-74295000D03*
X115110000Y-74290000D03*
X118210000Y-74290000D03*
X121410000Y-74290000D03*
X124510000Y-74290000D03*
X127710000Y-74290000D03*
X130910000Y-74290000D03*
X134110000Y-74290000D03*
X137310000Y-74290000D03*
X89820000Y-76220000D03*
X92970000Y-76220000D03*
X96120000Y-76220000D03*
X99270000Y-76220000D03*
X102420000Y-76220000D03*
X105570000Y-76220000D03*
X108745000Y-76220000D03*
X111895000Y-76220000D03*
X115070000Y-76220000D03*
X118245000Y-76220000D03*
X121395000Y-76220000D03*
X124595000Y-76220000D03*
X127745000Y-76220000D03*
X130920000Y-76220000D03*
X134095000Y-76245000D03*
X137270000Y-76220000D03*
X89820000Y-78120000D03*
X92970000Y-78120000D03*
X96120000Y-78120000D03*
X99270000Y-78120000D03*
X102420000Y-78120000D03*
X105570000Y-78120000D03*
X108745000Y-78120000D03*
X111895000Y-78120000D03*
X115045000Y-78120000D03*
X118220000Y-78120000D03*
X121420000Y-78120000D03*
X124570000Y-78120000D03*
X127745000Y-78120000D03*
X130920000Y-78145000D03*
X134095000Y-78145000D03*
X137270000Y-78120000D03*
X89820000Y-80020000D03*
X92970000Y-80020000D03*
X96120000Y-80020000D03*
X99270000Y-80020000D03*
X102420000Y-80020000D03*
X105570000Y-80020000D03*
X108745000Y-80045000D03*
X111895000Y-80020000D03*
X115045000Y-80045000D03*
X118220000Y-80045000D03*
X121395000Y-80045000D03*
X124595000Y-80020000D03*
X127745000Y-80045000D03*
X130920000Y-80020000D03*
X134095000Y-80020000D03*
X137270000Y-80020000D03*
X89820000Y-81920000D03*
X92970000Y-81920000D03*
X96120000Y-81920000D03*
X99270000Y-81920000D03*
X102420000Y-81920000D03*
X105595000Y-81920000D03*
X108745000Y-81920000D03*
X111920000Y-81920000D03*
X115070000Y-81945000D03*
X118245000Y-81945000D03*
X121420000Y-81945000D03*
X124595000Y-81945000D03*
X127745000Y-81945000D03*
X130945000Y-81945000D03*
X134095000Y-81945000D03*
X137270000Y-81945000D03*
X89820000Y-83845000D03*
X92970000Y-83845000D03*
X96120000Y-83845000D03*
X99270000Y-83845000D03*
X102420000Y-83845000D03*
X105570000Y-83845000D03*
X108770000Y-83845000D03*
X111920000Y-83845000D03*
X115070000Y-83845000D03*
X118220000Y-83845000D03*
X121420000Y-83845000D03*
X124570000Y-83845000D03*
X127745000Y-83845000D03*
X130945000Y-83845000D03*
X134120000Y-83845000D03*
X137270000Y-83845000D03*
X111920000Y-69750000D03*
X101970000Y-68880000D03*
X100690000Y-69340000D03*
X99420000Y-69550000D03*
X98160000Y-69540000D03*
X96880000Y-69510000D03*
X95600000Y-69520000D03*
X91390000Y-67640000D03*
X92930000Y-67700000D03*
X94350000Y-69490000D03*
X110560000Y-88560000D03*
X97130000Y-92730000D03*
X84440000Y-71630000D03*
D28*
X110280000Y-93710000D02*
X111300000Y-93710000D01*
X116000000Y-97800000D02*
X114370000Y-97800000D01*
X116300000Y-97500000D02*
X116000000Y-97800000D01*
X116300000Y-96100000D02*
X116300000Y-97500000D01*
X115880000Y-95680000D02*
X116300000Y-96100000D01*
X115310000Y-95680000D02*
X115880000Y-95680000D01*
X113270000Y-95680000D02*
X115310000Y-95680000D01*
X111300000Y-93710000D02*
X113270000Y-95680000D01*
X109990000Y-99410000D02*
X112170000Y-99410000D01*
X118800000Y-102110000D02*
X119440000Y-101470000D01*
X117770000Y-102110000D02*
X118800000Y-102110000D01*
X119440000Y-101470000D02*
X119440000Y-100620000D01*
X120590000Y-103370000D02*
X123320000Y-103370000D01*
X119800000Y-104160000D02*
X120590000Y-103370000D01*
X118790000Y-104160000D02*
X119800000Y-104160000D01*
X118570000Y-104380000D02*
X118790000Y-104160000D01*
X103680000Y-93430000D02*
X103680000Y-95310000D01*
X103890000Y-93220000D02*
X103680000Y-93430000D01*
X98145000Y-68545000D02*
X98475000Y-68545000D01*
X96970260Y-87750260D02*
X95670880Y-87750260D01*
X97130000Y-87910000D02*
X96970260Y-87750260D01*
X98475000Y-68545000D02*
X98810000Y-68880000D01*
X119440000Y-100620000D02*
X119440000Y-99690000D01*
X98780000Y-67090000D02*
X98145000Y-66455000D01*
X98145000Y-65620000D02*
X98145000Y-66455000D01*
X103375000Y-67595000D02*
X104620000Y-67595000D01*
X102840000Y-67060000D02*
X103375000Y-67595000D01*
X87930000Y-76970000D02*
X86970000Y-76970000D01*
X88200000Y-77680000D02*
X88200000Y-77240000D01*
X88200000Y-77240000D02*
X87930000Y-76970000D01*
X103680000Y-95840000D02*
X103680000Y-95310000D01*
X103220000Y-96300000D02*
X103680000Y-95840000D01*
X123695000Y-69095000D02*
X122755000Y-69095000D01*
X122755000Y-69095000D02*
X122580000Y-68920000D01*
X122580000Y-68920000D02*
X122580000Y-66800000D01*
X122580000Y-66800000D02*
X123760000Y-65620000D01*
X123760000Y-65620000D02*
X125700000Y-65620000D01*
X131805000Y-68115000D02*
X131805000Y-66945000D01*
X131800000Y-68120000D02*
X131805000Y-68115000D01*
X90530000Y-87630000D02*
X92770000Y-87630000D01*
X89930000Y-88230000D02*
X90530000Y-87630000D01*
X89930000Y-89370000D02*
X89930000Y-88230000D01*
X90020000Y-89460000D02*
X89930000Y-89370000D01*
X110280000Y-95310000D02*
X109130000Y-95310000D01*
X109110000Y-93710000D02*
X110280000Y-93710000D01*
X108720000Y-94100000D02*
X109110000Y-93710000D01*
X108720000Y-94900000D02*
X108720000Y-94100000D01*
X109130000Y-95310000D02*
X108720000Y-94900000D01*
X101780000Y-94510000D02*
X102880000Y-94510000D01*
X102880000Y-94510000D02*
X103680000Y-95310000D01*
X103680000Y-95310000D02*
X110280000Y-95310000D01*
X97650000Y-95310000D02*
X99270000Y-95310000D01*
X97480000Y-95480000D02*
X97650000Y-95310000D01*
X95870000Y-68650000D02*
X96240000Y-68650000D01*
X96240000Y-68650000D02*
X96330000Y-68740000D01*
X96330000Y-68740000D02*
X97890000Y-68740000D01*
X98145000Y-68485000D02*
X98145000Y-68545000D01*
X98145000Y-68545000D02*
X98145000Y-65620000D01*
X97890000Y-68740000D02*
X98145000Y-68485000D01*
X93345000Y-68745000D02*
X95775000Y-68745000D01*
X88204573Y-66980000D02*
X87240600Y-66016027D01*
X93070000Y-66980000D02*
X88204573Y-66980000D01*
X93770000Y-67680000D02*
X93070000Y-66980000D01*
X95775000Y-68745000D02*
X95870000Y-68650000D01*
X86970000Y-76320000D02*
X86160000Y-76320000D01*
X85730000Y-75890000D02*
X85730000Y-70760000D01*
X86160000Y-76320000D02*
X85730000Y-75890000D01*
X85730000Y-70760000D02*
X85910000Y-70580000D01*
X95670880Y-87750260D02*
X94530260Y-87750260D01*
X94530260Y-87750260D02*
X94310000Y-87530000D01*
X94310000Y-87530000D02*
X92870000Y-87530000D01*
X92870000Y-87530000D02*
X92770000Y-87630000D01*
X92770000Y-87630000D02*
X92770000Y-89070000D01*
X131805000Y-65610000D02*
X131805000Y-66945000D01*
X127230000Y-67820000D02*
X127230000Y-69110000D01*
X127670000Y-67380000D02*
X127230000Y-67820000D01*
X131370000Y-67380000D02*
X127670000Y-67380000D01*
X131805000Y-66945000D02*
X131370000Y-67380000D01*
X93065000Y-71020000D02*
X93065000Y-69025000D01*
X93065000Y-69025000D02*
X93345000Y-68745000D01*
X93345000Y-68745000D02*
X93350000Y-68740000D01*
X126725000Y-69615000D02*
X126725000Y-71010000D01*
X127240000Y-69100000D02*
X127230000Y-69110000D01*
X127230000Y-69110000D02*
X126725000Y-69615000D01*
X85910000Y-70580000D02*
X85910000Y-70160000D01*
X85910000Y-70160000D02*
X87240600Y-68829400D01*
X87240600Y-68829400D02*
X87240600Y-66016027D01*
X86970000Y-76320000D02*
X86970000Y-76970000D01*
X101780000Y-94510000D02*
X100780000Y-94510000D01*
X99980000Y-95310000D02*
X99270000Y-95310000D01*
X100780000Y-94510000D02*
X99980000Y-95310000D01*
X101780000Y-95310000D02*
X100800000Y-95310000D01*
X99980000Y-96810000D02*
X99270000Y-96810000D01*
X100080000Y-96710000D02*
X99980000Y-96810000D01*
X100080000Y-96030000D02*
X100080000Y-96710000D01*
X100800000Y-95310000D02*
X100080000Y-96030000D01*
X90050000Y-93450000D02*
X90050000Y-91550000D01*
X90070000Y-93470000D02*
X90050000Y-93450000D01*
X86970000Y-78920000D02*
X87600000Y-78920000D01*
X87600000Y-78920000D02*
X88070000Y-79390000D01*
X88070000Y-89570000D02*
X90050000Y-91550000D01*
X88070000Y-79390000D02*
X88070000Y-89570000D01*
X108372500Y-102547500D02*
X108495000Y-102670000D01*
X108495000Y-102670000D02*
X110495000Y-102670000D01*
X108372500Y-102547500D02*
X108367500Y-102547500D01*
X130535000Y-65610000D02*
X130535000Y-66745000D01*
X125085000Y-67595000D02*
X124975000Y-67595000D01*
X125790000Y-66890000D02*
X125085000Y-67595000D01*
X130535000Y-66745000D02*
X130510000Y-66770000D01*
X111080000Y-69730000D02*
X111080000Y-69440000D01*
X111080000Y-69440000D02*
X111410000Y-69110000D01*
X111410000Y-69110000D02*
X112210000Y-69110000D01*
X112210000Y-69110000D02*
X112640000Y-69540000D01*
X112640000Y-69540000D02*
X112640000Y-70780000D01*
X112640000Y-70780000D02*
X112850000Y-70990000D01*
X112850000Y-70990000D02*
X124650000Y-70990000D01*
X124650000Y-70990000D02*
X125350000Y-70290000D01*
X125350000Y-70290000D02*
X125350000Y-67970000D01*
X125350000Y-67970000D02*
X124975000Y-67595000D01*
X124975000Y-67595000D02*
X123695000Y-67595000D01*
X96875000Y-65620000D02*
X96875000Y-67425000D01*
X96875000Y-67425000D02*
X97510000Y-68060000D01*
X106430000Y-99160000D02*
X106430000Y-100610000D01*
X106430000Y-100610000D02*
X108367500Y-102547500D01*
X110445000Y-69095000D02*
X104620000Y-69095000D01*
X111080000Y-69730000D02*
X110445000Y-69095000D01*
X108367500Y-102547500D02*
X108380000Y-102560000D01*
X120710000Y-91220000D02*
X120710000Y-87310000D01*
X121420000Y-86600000D02*
X121420000Y-85770000D01*
X120710000Y-87310000D02*
X121420000Y-86600000D01*
D29*
X89820000Y-85770000D02*
X92970000Y-85770000D01*
X92970000Y-85770000D02*
X96120000Y-85770000D01*
X96120000Y-85770000D02*
X99270000Y-85770000D01*
X99270000Y-85770000D02*
X102420000Y-85770000D01*
X102420000Y-85770000D02*
X105570000Y-85770000D01*
X105570000Y-85770000D02*
X108745000Y-85770000D01*
X108745000Y-85770000D02*
X111895000Y-85770000D01*
X111895000Y-85770000D02*
X115070000Y-85770000D01*
X115070000Y-85770000D02*
X118220000Y-85770000D01*
X118220000Y-85770000D02*
X121420000Y-85770000D01*
X121420000Y-85770000D02*
X124595000Y-85770000D01*
X124620000Y-85745000D02*
X127770000Y-85745000D01*
X124595000Y-85770000D02*
X124620000Y-85745000D01*
X127795000Y-85770000D02*
X130920000Y-85770000D01*
X127770000Y-85745000D02*
X127795000Y-85770000D01*
X130945000Y-85745000D02*
X134120000Y-85745000D01*
X130920000Y-85770000D02*
X130945000Y-85745000D01*
X137295000Y-85745000D02*
X134120000Y-85745000D01*
D28*
X93770000Y-92370000D02*
X93770000Y-95810000D01*
X102270000Y-99160000D02*
X103230000Y-99160000D01*
X101730000Y-99700000D02*
X102270000Y-99160000D01*
X125150000Y-63540000D02*
X125330000Y-63360000D01*
X125150000Y-63540000D02*
X122140000Y-66550000D01*
X122140000Y-66550000D02*
X122140000Y-70400000D01*
X122140000Y-70400000D02*
X121970000Y-70570000D01*
X129265000Y-65610000D02*
X129265000Y-64095000D01*
X106100000Y-68670000D02*
X105880000Y-68450000D01*
X112380000Y-68670000D02*
X106100000Y-68670000D01*
X113070000Y-69360000D02*
X112380000Y-68670000D01*
X113070000Y-70230002D02*
X113070000Y-69360000D01*
X113409998Y-70570000D02*
X113070000Y-70230002D01*
X121970000Y-70570000D02*
X113409998Y-70570000D01*
X129265000Y-63965000D02*
X129265000Y-64095000D01*
X128660000Y-63360000D02*
X129265000Y-63965000D01*
X125330000Y-63360000D02*
X128660000Y-63360000D01*
X91950000Y-69990000D02*
X91950000Y-68560000D01*
X95000000Y-68310000D02*
X95520000Y-67790000D01*
X92200000Y-68310000D02*
X95000000Y-68310000D01*
X91950000Y-68560000D02*
X92200000Y-68310000D01*
X95520000Y-67790000D02*
X95520000Y-65705000D01*
X95520000Y-65705000D02*
X95605000Y-65620000D01*
X91200000Y-90710000D02*
X89960000Y-90710000D01*
X93770000Y-92370000D02*
X93770000Y-91010000D01*
X93470000Y-90710000D02*
X93770000Y-91010000D01*
X91200000Y-90710000D02*
X93470000Y-90710000D01*
X89180000Y-71800000D02*
X89180000Y-86450000D01*
X89350000Y-71630000D02*
X89180000Y-71800000D01*
X91360000Y-71630000D02*
X89350000Y-71630000D01*
X91950000Y-71040000D02*
X91360000Y-71630000D01*
X91950000Y-69960000D02*
X91950000Y-69990000D01*
X91950000Y-69990000D02*
X91950000Y-71040000D01*
X89180000Y-89930000D02*
X89180000Y-86450000D01*
X89960000Y-90710000D02*
X89180000Y-89930000D01*
X95520000Y-67790000D02*
X95605000Y-67705000D01*
X97240000Y-96330000D02*
X97240000Y-96250000D01*
X95040000Y-95310000D02*
X94640000Y-94910000D01*
X94640000Y-94910000D02*
X94640000Y-89940000D01*
X94640000Y-89940000D02*
X93770000Y-89070000D01*
X95570000Y-95840000D02*
X95040000Y-95310000D01*
X96830000Y-95840000D02*
X95570000Y-95840000D01*
X97240000Y-96250000D02*
X96830000Y-95840000D01*
X101780000Y-97710000D02*
X101780000Y-98350000D01*
X97240000Y-98230000D02*
X97240000Y-96330000D01*
X97240000Y-96330000D02*
X97240000Y-96290000D01*
X98990000Y-99980000D02*
X97240000Y-98230000D01*
X100150000Y-99980000D02*
X98990000Y-99980000D01*
X101780000Y-98350000D02*
X100150000Y-99980000D01*
X99369120Y-93749740D02*
X99369120Y-91550880D01*
X100540000Y-90380000D02*
X101450000Y-90380000D01*
X99369120Y-91550880D02*
X100540000Y-90380000D01*
X96470000Y-95200000D02*
X96470000Y-94960000D01*
X92770000Y-92370000D02*
X92770000Y-95190000D01*
X97680260Y-93749740D02*
X99369120Y-93749740D01*
X96470000Y-94960000D02*
X97680260Y-93749740D01*
X101450000Y-90380000D02*
X101450000Y-89780000D01*
X101450000Y-89780000D02*
X101600000Y-89630000D01*
X101600000Y-89630000D02*
X102290000Y-89630000D01*
X102290000Y-89630000D02*
X102590000Y-89330000D01*
X102590000Y-89330000D02*
X106100000Y-89330000D01*
X106100000Y-89330000D02*
X106430000Y-89660000D01*
X106430000Y-89660000D02*
X106430000Y-90660000D01*
X91770000Y-95730000D02*
X91770000Y-95800000D01*
X104030000Y-100440000D02*
X103970000Y-100500000D01*
X103970000Y-100500000D02*
X98880000Y-100500000D01*
X98880000Y-100500000D02*
X96760000Y-98380000D01*
X104030000Y-99160000D02*
X104030000Y-100440000D01*
X91770000Y-93990000D02*
X91770000Y-92370000D01*
X91770000Y-93990000D02*
X91770000Y-95730000D01*
X96760000Y-96830000D02*
X96760000Y-98380000D01*
X96360000Y-96430000D02*
X96760000Y-96830000D01*
X92400000Y-96430000D02*
X96360000Y-96430000D01*
X91770000Y-95800000D02*
X92400000Y-96430000D01*
X104030000Y-97950000D02*
X104860000Y-97950000D01*
X105200000Y-88030000D02*
X105380000Y-87850000D01*
X105380000Y-87850000D02*
X112170000Y-87850000D01*
X135210000Y-67760000D02*
X135180000Y-67730000D01*
X135180000Y-67730000D02*
X133860000Y-67730000D01*
X133860000Y-67730000D02*
X133075000Y-66945000D01*
X133075000Y-65610000D02*
X133075000Y-66945000D01*
X104030000Y-97950000D02*
X104030000Y-99160000D01*
X105320000Y-94510000D02*
X105320000Y-92210000D01*
X104860000Y-97950000D02*
X105230000Y-97580000D01*
X104490000Y-92520000D02*
X103220000Y-92520000D01*
X104550000Y-92580000D02*
X104490000Y-92520000D01*
X102490000Y-88880000D02*
X102680000Y-88690000D01*
X102490000Y-88880000D02*
X101450000Y-88880000D01*
X119440000Y-91220000D02*
X119440000Y-88960000D01*
X101955000Y-65620000D02*
X102430000Y-65620000D01*
X121720000Y-65840000D02*
X123240000Y-64320000D01*
X121720000Y-69950000D02*
X121720000Y-65840000D01*
X121580000Y-70090000D02*
X121720000Y-69950000D01*
X113780000Y-70090000D02*
X121580000Y-70090000D01*
X113660000Y-69970000D02*
X113780000Y-70090000D01*
X113660000Y-69070000D02*
X113660000Y-69970000D01*
X112790000Y-68200000D02*
X113660000Y-69070000D01*
X106940000Y-68200000D02*
X112790000Y-68200000D01*
X105350000Y-66610000D02*
X106940000Y-68200000D01*
X103420000Y-66610000D02*
X105350000Y-66610000D01*
X102430000Y-65620000D02*
X103420000Y-66610000D01*
X100890000Y-96910000D02*
X101780000Y-96910000D01*
X100350000Y-97450000D02*
X100890000Y-96910000D01*
X94335000Y-65620000D02*
X94335000Y-67085000D01*
X91410000Y-89070000D02*
X91770000Y-89070000D01*
X90820000Y-88480000D02*
X91410000Y-89070000D01*
X94335000Y-67085000D02*
X94340000Y-67090000D01*
X127995000Y-65610000D02*
X127995000Y-64295000D01*
X127995000Y-64295000D02*
X128150000Y-64140000D01*
X135615000Y-64605000D02*
X135615000Y-65610000D01*
X135160000Y-64150000D02*
X135615000Y-64605000D01*
X94335000Y-65620000D02*
X94335000Y-64415000D01*
X101955000Y-64385000D02*
X101955000Y-65620000D01*
X101810000Y-64240000D02*
X101955000Y-64385000D01*
X94510000Y-64240000D02*
X101810000Y-64240000D01*
X94335000Y-64415000D02*
X94510000Y-64240000D01*
X135770000Y-67080000D02*
X135615000Y-66925000D01*
X135615000Y-66925000D02*
X135615000Y-65610000D01*
X110280000Y-96110000D02*
X111550000Y-96110000D01*
X111420000Y-94510000D02*
X110280000Y-94510000D01*
X111820000Y-94910000D02*
X111420000Y-94510000D01*
X111820000Y-95840000D02*
X111820000Y-94910000D01*
X111550000Y-96110000D02*
X111820000Y-95840000D01*
X101780000Y-96910000D02*
X107860000Y-96910000D01*
X107860000Y-96910000D02*
X108660000Y-96110000D01*
X108660000Y-96110000D02*
X110280000Y-96110000D01*
X134345000Y-67065000D02*
X134345000Y-65610000D01*
X134340000Y-67070000D02*
X134345000Y-67065000D01*
X135615000Y-69505000D02*
X135610000Y-69500000D01*
X135615000Y-71010000D02*
X135615000Y-69505000D01*
X134345000Y-71010000D02*
X134345000Y-69515000D01*
X134345000Y-69515000D02*
X134360000Y-69500000D01*
X133075000Y-71010000D02*
X133075000Y-69525000D01*
X133075000Y-69525000D02*
X133080000Y-69520000D01*
X131805000Y-71010000D02*
X131805000Y-69355000D01*
X131805000Y-69355000D02*
X131810000Y-69350000D01*
X130535000Y-71010000D02*
X130535000Y-68915000D01*
X130535000Y-68915000D02*
X130550000Y-68900000D01*
X129265000Y-71010000D02*
X129265000Y-68435000D01*
X129265000Y-68435000D02*
X129260000Y-68430000D01*
X127995000Y-71010000D02*
X127995000Y-68015000D01*
X127995000Y-68015000D02*
X127980000Y-68000000D01*
X110280000Y-92110000D02*
X111710000Y-92110000D01*
X123030000Y-97380000D02*
X125790000Y-100140000D01*
X118920000Y-97380000D02*
X123030000Y-97380000D01*
X118630000Y-97090000D02*
X118920000Y-97380000D01*
X118630000Y-95910000D02*
X118630000Y-97090000D01*
X117340000Y-94620000D02*
X118630000Y-95910000D01*
X113470000Y-94620000D02*
X117340000Y-94620000D01*
X112910000Y-94060000D02*
X113470000Y-94620000D01*
X112910000Y-93310000D02*
X112910000Y-94060000D01*
X111710000Y-92110000D02*
X112910000Y-93310000D01*
X125790000Y-100140000D02*
X125790000Y-100620000D01*
X118200000Y-96090000D02*
X118200000Y-97270000D01*
X110280000Y-92910000D02*
X111920000Y-92910000D01*
X112480000Y-93470000D02*
X111920000Y-92910000D01*
X112480000Y-94230000D02*
X112480000Y-93470000D01*
X113320000Y-95070000D02*
X112480000Y-94230000D01*
X117180000Y-95070000D02*
X113320000Y-95070000D01*
X118200000Y-96090000D02*
X117180000Y-95070000D01*
X124520000Y-99500000D02*
X122850000Y-97830000D01*
X124520000Y-99500000D02*
X124520000Y-100620000D01*
X122840000Y-97840000D02*
X122850000Y-97830000D01*
X118770000Y-97840000D02*
X122840000Y-97840000D01*
X118200000Y-97270000D02*
X118770000Y-97840000D01*
X108830000Y-99160000D02*
X108830000Y-100730000D01*
X123250000Y-99390000D02*
X123250000Y-100620000D01*
X122630000Y-98770000D02*
X123250000Y-99390000D01*
X118910000Y-98770000D02*
X122630000Y-98770000D01*
X118299998Y-99380002D02*
X118910000Y-98770000D01*
X118299998Y-100620002D02*
X118299998Y-99380002D01*
X118010000Y-100910000D02*
X118299998Y-100620002D01*
X117360000Y-100910000D02*
X118010000Y-100910000D01*
X116330002Y-101939998D02*
X117360000Y-100910000D01*
X114410000Y-101939998D02*
X116330002Y-101939998D01*
X113550002Y-101080000D02*
X114410000Y-101939998D01*
X109180000Y-101080000D02*
X113550002Y-101080000D01*
X108830000Y-100730000D02*
X109180000Y-101080000D01*
X114230000Y-102340000D02*
X116530000Y-102340000D01*
X113390000Y-101500000D02*
X114230000Y-102340000D01*
X117170000Y-101700000D02*
X117550000Y-101320000D01*
X117550000Y-101320000D02*
X118540000Y-101320000D01*
X118540000Y-101320000D02*
X118700000Y-101160000D01*
X118700000Y-101160000D02*
X118700000Y-99560000D01*
X118700000Y-99560000D02*
X119080000Y-99180000D01*
X119080000Y-99180000D02*
X121860000Y-99180000D01*
X121860000Y-99180000D02*
X121980000Y-99300000D01*
X121980000Y-100620000D02*
X121980000Y-99300000D01*
X108030000Y-101020000D02*
X108030000Y-99160000D01*
X108510000Y-101500000D02*
X112900000Y-101500000D01*
X108030000Y-101020000D02*
X108510000Y-101500000D01*
X112900000Y-101500000D02*
X113390000Y-101500000D01*
X116530000Y-102340000D02*
X117170000Y-101700000D01*
X107230000Y-99160000D02*
X107230000Y-100810000D01*
X119280000Y-102810000D02*
X120710000Y-101380000D01*
X114090000Y-102810000D02*
X119280000Y-102810000D01*
X113190000Y-101910000D02*
X114090000Y-102810000D01*
X108330000Y-101910000D02*
X113190000Y-101910000D01*
X107230000Y-100810000D02*
X108330000Y-101910000D01*
X120710000Y-101380000D02*
X120710000Y-100620000D01*
X110150000Y-89950000D02*
X110150000Y-90130000D01*
X107230000Y-89520000D02*
X107930000Y-88820000D01*
X107930000Y-88820000D02*
X109770000Y-88820000D01*
X109770000Y-88820000D02*
X110150000Y-89200000D01*
X110150000Y-89200000D02*
X110150000Y-89950000D01*
X107230000Y-90660000D02*
X107230000Y-89520000D01*
X118219998Y-93349998D02*
X118630000Y-93760000D01*
X114240000Y-93349998D02*
X118219998Y-93349998D01*
X114142848Y-93252846D02*
X114240000Y-93349998D01*
X114142848Y-92752848D02*
X114142848Y-93252846D01*
X112019998Y-90629998D02*
X114142848Y-92752848D01*
X110649998Y-90629998D02*
X112019998Y-90629998D01*
X110150000Y-90130000D02*
X110649998Y-90629998D01*
X111850000Y-91030000D02*
X111850000Y-91044312D01*
X119450000Y-95920000D02*
X119620000Y-96090000D01*
X119620000Y-96090000D02*
X123360000Y-96090000D01*
X110220000Y-90780000D02*
X110220002Y-90780000D01*
X108030000Y-89530000D02*
X108030000Y-90660000D01*
X108310000Y-89250000D02*
X108030000Y-89530000D01*
X109470000Y-89250000D02*
X108310000Y-89250000D01*
X109690000Y-89470000D02*
X109470000Y-89250000D01*
X109690000Y-90250000D02*
X109690000Y-89470000D01*
X110220000Y-90780000D02*
X109690000Y-90250000D01*
X117660000Y-93750000D02*
X119450000Y-95540000D01*
X114230000Y-93750000D02*
X117660000Y-93750000D01*
X110470002Y-91030000D02*
X111850000Y-91030000D01*
X110220002Y-90780000D02*
X110470002Y-91030000D01*
X119450000Y-95540000D02*
X119450000Y-95920000D01*
X113840000Y-93750000D02*
X114230000Y-93750000D01*
X113742846Y-93652846D02*
X113840000Y-93750000D01*
X113742846Y-92937158D02*
X113742846Y-93652846D01*
X111850000Y-91044312D02*
X113742846Y-92937158D01*
X108830000Y-90660000D02*
X109340000Y-90660000D01*
X126530000Y-99200000D02*
X127060000Y-99730000D01*
X125460000Y-99200000D02*
X126530000Y-99200000D01*
X123210000Y-96950000D02*
X125460000Y-99200000D01*
X119360000Y-96950000D02*
X123210000Y-96950000D01*
X119040000Y-96630000D02*
X119360000Y-96950000D01*
X119040000Y-95720000D02*
X119040000Y-96630000D01*
X117500000Y-94180000D02*
X119040000Y-95720000D01*
X113630002Y-94180000D02*
X117500000Y-94180000D01*
X113342844Y-93892842D02*
X113630002Y-94180000D01*
X113342844Y-93102844D02*
X113342844Y-93892842D01*
X111690000Y-91450000D02*
X113342844Y-93102844D01*
X110130000Y-91450000D02*
X111690000Y-91450000D01*
X109340000Y-90660000D02*
X110130000Y-91450000D01*
X127060000Y-99730000D02*
X127060000Y-100620000D01*
X99415000Y-65620000D02*
X99415000Y-67555000D01*
X126725000Y-68015000D02*
X126725000Y-65610000D01*
X125840000Y-68900000D02*
X126725000Y-68015000D01*
X125840000Y-70520000D02*
X125840000Y-68900000D01*
X124890000Y-71470000D02*
X125840000Y-70520000D01*
X103320000Y-71470000D02*
X124890000Y-71470000D01*
X103040000Y-71190000D02*
X103320000Y-71470000D01*
X103040000Y-68790000D02*
X103040000Y-71190000D01*
X102490000Y-68240000D02*
X103040000Y-68790000D01*
X100100000Y-68240000D02*
X102490000Y-68240000D01*
X99415000Y-67555000D02*
X100100000Y-68240000D01*
X129600000Y-91220000D02*
X129600000Y-89460000D01*
X140930000Y-76030000D02*
X137270000Y-72370000D01*
X140930000Y-86900000D02*
X140930000Y-76030000D01*
X138770000Y-89060000D02*
X140930000Y-86900000D01*
X130000000Y-89060000D02*
X138770000Y-89060000D01*
X129600000Y-89460000D02*
X130000000Y-89060000D01*
D29*
X89820000Y-72395000D02*
X92970000Y-72395000D01*
X92970000Y-72395000D02*
X96120000Y-72395000D01*
X96120000Y-72395000D02*
X99270000Y-72395000D01*
X99270000Y-72395000D02*
X102420000Y-72395000D01*
X102420000Y-72395000D02*
X105570000Y-72395000D01*
X105570000Y-72395000D02*
X108745000Y-72395000D01*
X108745000Y-72395000D02*
X111895000Y-72395000D01*
X111895000Y-72395000D02*
X115070000Y-72395000D01*
X115070000Y-72395000D02*
X118220000Y-72395000D01*
X118220000Y-72395000D02*
X121420000Y-72395000D01*
X121445000Y-72370000D02*
X124570000Y-72370000D01*
X121420000Y-72395000D02*
X121445000Y-72370000D01*
X124570000Y-72370000D02*
X127770000Y-72370000D01*
X127770000Y-72370000D02*
X130945000Y-72370000D01*
X130945000Y-72370000D02*
X134110000Y-72370000D01*
X137270000Y-72370000D02*
X134110000Y-72370000D01*
D28*
X128330000Y-91220000D02*
X128330000Y-89040000D01*
X140490000Y-77470000D02*
X137310000Y-74290000D01*
X140490000Y-86690000D02*
X140490000Y-77470000D01*
X138550000Y-88630000D02*
X140490000Y-86690000D01*
X128740000Y-88630000D02*
X138550000Y-88630000D01*
X128330000Y-89040000D02*
X128740000Y-88630000D01*
D29*
X89820000Y-74295000D02*
X92970000Y-74295000D01*
X92970000Y-74295000D02*
X96120000Y-74295000D01*
X96120000Y-74295000D02*
X99270000Y-74295000D01*
X99270000Y-74295000D02*
X102420000Y-74295000D01*
X102420000Y-74295000D02*
X105570000Y-74295000D01*
X105570000Y-74295000D02*
X108745000Y-74295000D01*
X108745000Y-74295000D02*
X111895000Y-74295000D01*
X111900000Y-74290000D02*
X115110000Y-74290000D01*
X111895000Y-74295000D02*
X111900000Y-74290000D01*
X118210000Y-74290000D02*
X115110000Y-74290000D01*
X121410000Y-74290000D02*
X118210000Y-74290000D01*
X124510000Y-74290000D02*
X121410000Y-74290000D01*
X127710000Y-74290000D02*
X124510000Y-74290000D01*
X130910000Y-74290000D02*
X127710000Y-74290000D01*
X134110000Y-74290000D02*
X130910000Y-74290000D01*
X137310000Y-74290000D02*
X134110000Y-74290000D01*
D28*
X127060000Y-91220000D02*
X127060000Y-88600000D01*
X140070000Y-79020000D02*
X137270000Y-76220000D01*
X140070000Y-86490000D02*
X140070000Y-79020000D01*
X138380000Y-88180000D02*
X140070000Y-86490000D01*
X127480000Y-88180000D02*
X138380000Y-88180000D01*
X127060000Y-88600000D02*
X127480000Y-88180000D01*
D29*
X89820000Y-76220000D02*
X92970000Y-76220000D01*
X92970000Y-76220000D02*
X96120000Y-76220000D01*
X96120000Y-76220000D02*
X99270000Y-76220000D01*
X99270000Y-76220000D02*
X102420000Y-76220000D01*
X102420000Y-76220000D02*
X105570000Y-76220000D01*
X105570000Y-76220000D02*
X108745000Y-76220000D01*
X108745000Y-76220000D02*
X111895000Y-76220000D01*
X111895000Y-76220000D02*
X115070000Y-76220000D01*
X115070000Y-76220000D02*
X118245000Y-76220000D01*
X118245000Y-76220000D02*
X121395000Y-76220000D01*
X121395000Y-76220000D02*
X124595000Y-76220000D01*
X124595000Y-76220000D02*
X127745000Y-76220000D01*
X127745000Y-76220000D02*
X130920000Y-76220000D01*
X130945000Y-76245000D02*
X134095000Y-76245000D01*
X130920000Y-76220000D02*
X130945000Y-76245000D01*
X137245000Y-76245000D02*
X134095000Y-76245000D01*
X137270000Y-76220000D02*
X137245000Y-76245000D01*
D28*
X125790000Y-91220000D02*
X125790000Y-87980000D01*
X139640000Y-80490000D02*
X137270000Y-78120000D01*
X139640000Y-86300000D02*
X139640000Y-80490000D01*
X138180000Y-87760000D02*
X139640000Y-86300000D01*
X126010000Y-87760000D02*
X138180000Y-87760000D01*
X125790000Y-87980000D02*
X126010000Y-87760000D01*
D29*
X89820000Y-78120000D02*
X92970000Y-78120000D01*
X92970000Y-78120000D02*
X96120000Y-78120000D01*
X96120000Y-78120000D02*
X99270000Y-78120000D01*
X99270000Y-78120000D02*
X102420000Y-78120000D01*
X102420000Y-78120000D02*
X105570000Y-78120000D01*
X105570000Y-78120000D02*
X108745000Y-78120000D01*
X111895000Y-78120000D02*
X108745000Y-78120000D01*
X111895000Y-78120000D02*
X115045000Y-78120000D01*
X115045000Y-78120000D02*
X118220000Y-78120000D01*
X121420000Y-78120000D02*
X118220000Y-78120000D01*
X121420000Y-78120000D02*
X124570000Y-78120000D01*
X127745000Y-78120000D02*
X124570000Y-78120000D01*
X127770000Y-78145000D02*
X130920000Y-78145000D01*
X127745000Y-78120000D02*
X127770000Y-78145000D01*
X134095000Y-78145000D02*
X130920000Y-78145000D01*
X137245000Y-78145000D02*
X134095000Y-78145000D01*
X137270000Y-78120000D02*
X137245000Y-78145000D01*
D28*
X124520000Y-91220000D02*
X124520000Y-87620004D01*
X137270000Y-80370000D02*
X137270000Y-80020000D01*
X139220000Y-82320000D02*
X137270000Y-80370000D01*
X139220000Y-86120000D02*
X139220000Y-82320000D01*
X138019996Y-87320004D02*
X139220000Y-86120000D01*
X124820000Y-87320004D02*
X138019996Y-87320004D01*
X124520000Y-87620004D02*
X124820000Y-87320004D01*
D29*
X89820000Y-80020000D02*
X92970000Y-80020000D01*
X92970000Y-80020000D02*
X96120000Y-80020000D01*
X96120000Y-80020000D02*
X99270000Y-80020000D01*
X99270000Y-80020000D02*
X102420000Y-80020000D01*
X102420000Y-80020000D02*
X105570000Y-80020000D01*
X105595000Y-80045000D02*
X108745000Y-80045000D01*
X105570000Y-80020000D02*
X105595000Y-80045000D01*
X108770000Y-80020000D02*
X111895000Y-80020000D01*
X108745000Y-80045000D02*
X108770000Y-80020000D01*
X111920000Y-80045000D02*
X115045000Y-80045000D01*
X111895000Y-80020000D02*
X111920000Y-80045000D01*
X115045000Y-80045000D02*
X118220000Y-80045000D01*
X118220000Y-80045000D02*
X121395000Y-80045000D01*
X121420000Y-80020000D02*
X124595000Y-80020000D01*
X121395000Y-80045000D02*
X121420000Y-80020000D01*
X124620000Y-80045000D02*
X127745000Y-80045000D01*
X124595000Y-80020000D02*
X124620000Y-80045000D01*
X127770000Y-80020000D02*
X130920000Y-80020000D01*
X127745000Y-80045000D02*
X127770000Y-80020000D01*
X130920000Y-80020000D02*
X134095000Y-80020000D01*
X137270000Y-80020000D02*
X134095000Y-80020000D01*
D28*
X123250000Y-91220000D02*
X123250000Y-87390000D01*
X137270000Y-82370000D02*
X137270000Y-81945000D01*
X138720000Y-83820000D02*
X137270000Y-82370000D01*
X138720000Y-86020000D02*
X138720000Y-83820000D01*
X137819998Y-86920002D02*
X138720000Y-86020000D01*
X123719998Y-86920002D02*
X137819998Y-86920002D01*
X123250000Y-87390000D02*
X123719998Y-86920002D01*
D29*
X89820000Y-81920000D02*
X92970000Y-81920000D01*
X92970000Y-81920000D02*
X96120000Y-81920000D01*
X96120000Y-81920000D02*
X99270000Y-81920000D01*
X99270000Y-81920000D02*
X102420000Y-81920000D01*
X102420000Y-81920000D02*
X105595000Y-81920000D01*
X105595000Y-81920000D02*
X108745000Y-81920000D01*
X108745000Y-81920000D02*
X111920000Y-81920000D01*
X111945000Y-81945000D02*
X115070000Y-81945000D01*
X111920000Y-81920000D02*
X111945000Y-81945000D01*
X115070000Y-81945000D02*
X118245000Y-81945000D01*
X118245000Y-81945000D02*
X121420000Y-81945000D01*
X121420000Y-81945000D02*
X124595000Y-81945000D01*
X124595000Y-81945000D02*
X127745000Y-81945000D01*
X127745000Y-81945000D02*
X130945000Y-81945000D01*
X130945000Y-81945000D02*
X134095000Y-81945000D01*
X137270000Y-81945000D02*
X134095000Y-81945000D01*
D28*
X121980000Y-91220000D02*
X121980000Y-87380000D01*
X137645000Y-83845000D02*
X137270000Y-83845000D01*
X138220000Y-84420000D02*
X137645000Y-83845000D01*
X138220000Y-85920000D02*
X138220000Y-84420000D01*
X137620000Y-86520000D02*
X138220000Y-85920000D01*
X136920000Y-86520000D02*
X137620000Y-86520000D01*
X122840000Y-86520000D02*
X136920000Y-86520000D01*
X121980000Y-87380000D02*
X122840000Y-86520000D01*
D29*
X89820000Y-83845000D02*
X92970000Y-83845000D01*
X92970000Y-83845000D02*
X96120000Y-83845000D01*
X96120000Y-83845000D02*
X99270000Y-83845000D01*
X99270000Y-83845000D02*
X102420000Y-83845000D01*
X102420000Y-83845000D02*
X105570000Y-83845000D01*
X105570000Y-83845000D02*
X108770000Y-83845000D01*
X108770000Y-83845000D02*
X111920000Y-83845000D01*
X111920000Y-83845000D02*
X115070000Y-83845000D01*
X115070000Y-83845000D02*
X118220000Y-83845000D01*
X118220000Y-83845000D02*
X121420000Y-83845000D01*
X121420000Y-83845000D02*
X124570000Y-83845000D01*
X124570000Y-83845000D02*
X127745000Y-83845000D01*
X127745000Y-83845000D02*
X130945000Y-83845000D01*
X130945000Y-83845000D02*
X134120000Y-83845000D01*
X137270000Y-83845000D02*
X134120000Y-83845000D01*
D28*
X100685000Y-67665000D02*
X100685000Y-67075000D01*
X100840000Y-67820000D02*
X100685000Y-67665000D01*
X102660000Y-67820000D02*
X100840000Y-67820000D01*
X103450000Y-68610000D02*
X102660000Y-67820000D01*
X103450000Y-70630000D02*
X103450000Y-68610000D01*
X103850000Y-71030000D02*
X103450000Y-70630000D01*
X111700000Y-71030000D02*
X103850000Y-71030000D01*
X111890000Y-70840000D02*
X111700000Y-71030000D01*
X111890000Y-69780000D02*
X111890000Y-70840000D01*
X111920000Y-69750000D02*
X111890000Y-69780000D01*
X100685000Y-67075000D02*
X100685000Y-65620000D01*
X100690000Y-67080000D02*
X100685000Y-67075000D01*
X101955000Y-71020000D02*
X101955000Y-68895000D01*
X101955000Y-68895000D02*
X101970000Y-68880000D01*
X100685000Y-71020000D02*
X100685000Y-69345000D01*
X100685000Y-69345000D02*
X100690000Y-69340000D01*
X99415000Y-71020000D02*
X99415000Y-69555000D01*
X99415000Y-69555000D02*
X99420000Y-69550000D01*
X98145000Y-71020000D02*
X98145000Y-69555000D01*
X98145000Y-69555000D02*
X98160000Y-69540000D01*
X96875000Y-71020000D02*
X96875000Y-69515000D01*
X96875000Y-69515000D02*
X96880000Y-69510000D01*
X95605000Y-71020000D02*
X95605000Y-69525000D01*
X95605000Y-69525000D02*
X95600000Y-69520000D01*
X92870000Y-67640000D02*
X91390000Y-67640000D01*
X92930000Y-67700000D02*
X92870000Y-67640000D01*
X94335000Y-71020000D02*
X94335000Y-69505000D01*
X94335000Y-69505000D02*
X94350000Y-69490000D01*
X110075688Y-88560000D02*
X110560000Y-88560000D01*
X109925688Y-88410000D02*
X110075688Y-88560000D01*
X107774312Y-88410000D02*
X109925688Y-88410000D01*
X107344312Y-88840000D02*
X107774312Y-88410000D01*
X106470000Y-88840000D02*
X107344312Y-88840000D01*
X97130000Y-91500000D02*
X97680000Y-90950000D01*
X97680000Y-90950000D02*
X98860000Y-90950000D01*
X104850000Y-88840000D02*
X106470000Y-88840000D01*
X103990000Y-87980000D02*
X104850000Y-88840000D01*
X100690000Y-87980000D02*
X103990000Y-87980000D01*
X100450000Y-88220000D02*
X100690000Y-87980000D01*
X100450000Y-89360000D02*
X100450000Y-88220000D01*
X98860000Y-90950000D02*
X100450000Y-89360000D01*
X97130000Y-91500000D02*
X97130000Y-92730000D01*
X84410000Y-70580000D02*
X84410000Y-69206536D01*
X84410000Y-69206536D02*
X85363660Y-68252876D01*
X84440000Y-71630000D02*
X84410000Y-71600000D01*
X84410000Y-71600000D02*
X84410000Y-70580000D01*
X105630000Y-99160000D02*
X105630000Y-100400000D01*
X111540000Y-103280000D02*
X119440000Y-103280000D01*
X119440000Y-103280000D02*
X120510000Y-102210000D01*
X120510000Y-102210000D02*
X129270000Y-102210000D01*
X129270000Y-102210000D02*
X129600000Y-101880000D01*
X129600000Y-101880000D02*
X129600000Y-100620000D01*
X108510000Y-103280000D02*
X111540000Y-103280000D01*
X105630000Y-100400000D02*
X108510000Y-103280000D01*
X104830000Y-99160000D02*
X104830000Y-100210000D01*
X128330000Y-99220000D02*
X128510000Y-99040000D01*
X128510000Y-99040000D02*
X130050000Y-99040000D01*
X130050000Y-99040000D02*
X130420000Y-99410000D01*
X130420000Y-99410000D02*
X130420000Y-101710000D01*
X130420000Y-101710000D02*
X129500000Y-102630000D01*
X129500000Y-102630000D02*
X120710000Y-102630000D01*
X120710000Y-102630000D02*
X119620000Y-103720000D01*
X119620000Y-103720000D02*
X111740000Y-103720000D01*
X128330000Y-99220000D02*
X128330000Y-100620000D01*
X108340000Y-103720000D02*
X111740000Y-103720000D01*
X104830000Y-100210000D02*
X108340000Y-103720000D01*
X110280000Y-96910000D02*
X112000000Y-96910000D01*
X112310000Y-96600000D02*
X114370000Y-96600000D01*
X112000000Y-96910000D02*
X112310000Y-96600000D01*
X110280000Y-97710000D02*
X111420000Y-97710000D01*
X112710000Y-99000000D02*
X114370000Y-99000000D01*
X111420000Y-97710000D02*
X112710000Y-99000000D01*
D30*
G36*
X130657216Y-59345944D02*
X131096292Y-59362648D01*
X131532568Y-59390308D01*
X131965679Y-59428820D01*
X132395682Y-59478020D01*
X132822332Y-59537780D01*
X133245545Y-59607958D01*
X133665236Y-59688439D01*
X134081218Y-59779072D01*
X134493284Y-59879697D01*
X134901491Y-59990260D01*
X135305597Y-60110532D01*
X135705450Y-60240461D01*
X136100932Y-60379831D01*
X136491965Y-60528578D01*
X136878336Y-60686530D01*
X137259970Y-60853560D01*
X137636679Y-61029572D01*
X138008387Y-61214370D01*
X138374967Y-61407875D01*
X138736227Y-61609873D01*
X139092045Y-61820306D01*
X139442302Y-62039025D01*
X139786847Y-62265884D01*
X140125566Y-62500747D01*
X140458297Y-62743500D01*
X140784957Y-62993977D01*
X141105339Y-63252062D01*
X141419327Y-63517583D01*
X141726865Y-63790503D01*
X142027694Y-64070520D01*
X142321763Y-64357689D01*
X142608880Y-64651734D01*
X142888968Y-64952580D01*
X143161838Y-65260061D01*
X143427381Y-65574075D01*
X143685436Y-65894449D01*
X143935929Y-66221099D01*
X144178656Y-66553866D01*
X144413522Y-66892559D01*
X144640381Y-67237133D01*
X144859102Y-67587393D01*
X145069546Y-67943230D01*
X145271570Y-68304454D01*
X145465068Y-68671021D01*
X145649864Y-69042728D01*
X145825842Y-69419453D01*
X145992884Y-69801117D01*
X146150832Y-70187476D01*
X146299578Y-70578477D01*
X146438986Y-70973985D01*
X146568869Y-71373819D01*
X146689176Y-71777911D01*
X146799699Y-72186079D01*
X146900373Y-72598254D01*
X146990994Y-73014177D01*
X147071448Y-73433851D01*
X147141662Y-73857135D01*
X147201418Y-74283761D01*
X147250613Y-74713719D01*
X147289103Y-75146913D01*
X147316790Y-75583116D01*
X147333494Y-76022193D01*
X147339064Y-76463323D01*
X147324328Y-77333560D01*
X147280571Y-78184152D01*
X147208487Y-79016555D01*
X147108690Y-79831463D01*
X146981865Y-80629623D01*
X146828652Y-81411584D01*
X146649682Y-82178105D01*
X146445568Y-82929861D01*
X146216967Y-83667512D01*
X145964434Y-84391777D01*
X145688597Y-85103249D01*
X145390083Y-85802634D01*
X145069436Y-86490555D01*
X144727286Y-87167674D01*
X144364209Y-87834590D01*
X143980816Y-88491946D01*
X143577690Y-89140410D01*
X143155425Y-89780487D01*
X142714674Y-90412849D01*
X142256009Y-91038056D01*
X141780022Y-91656727D01*
X141287349Y-92269435D01*
X140778622Y-92876830D01*
X140254474Y-93479422D01*
X139715529Y-94077814D01*
X139162381Y-94672609D01*
X138595733Y-95264385D01*
X138016165Y-95853736D01*
X137424368Y-96441235D01*
X136821516Y-97026960D01*
X135581830Y-98198668D01*
X134304218Y-99371770D01*
X132993300Y-100551638D01*
X130291851Y-102951180D01*
X130291340Y-102951854D01*
X130290611Y-102952286D01*
X127901831Y-105093000D01*
X100450061Y-105093000D01*
X99524736Y-104272210D01*
X99523933Y-104271740D01*
X99523368Y-104271003D01*
X98148047Y-103062902D01*
X98148046Y-103062901D01*
X95464909Y-100703864D01*
X94168019Y-99543661D01*
X92907014Y-98389132D01*
X91686019Y-97234474D01*
X91093293Y-96656718D01*
X90512022Y-96076671D01*
X89943261Y-95494167D01*
X89387701Y-94908607D01*
X88845907Y-94319388D01*
X88318448Y-93725792D01*
X87805921Y-93127289D01*
X87308880Y-92523181D01*
X86827888Y-91912814D01*
X86363566Y-91295537D01*
X85916434Y-90670743D01*
X85487056Y-90037755D01*
X85076010Y-89395948D01*
X84683828Y-88744659D01*
X84311053Y-88083143D01*
X83958201Y-87410777D01*
X83625917Y-86726948D01*
X83314646Y-86030820D01*
X83024981Y-85321803D01*
X82757457Y-84599125D01*
X82512657Y-83862155D01*
X82291101Y-83110040D01*
X82093415Y-82342227D01*
X81920155Y-81557848D01*
X81771851Y-80756204D01*
X81649168Y-79936626D01*
X81552672Y-79098307D01*
X81482980Y-78240650D01*
X81440731Y-77362807D01*
X81426482Y-76463541D01*
X81432084Y-76022192D01*
X81448790Y-75583082D01*
X81476445Y-75146905D01*
X81514960Y-74713759D01*
X81564160Y-74283756D01*
X81587096Y-74120000D01*
X82967982Y-74120000D01*
X82986594Y-74213569D01*
X82986594Y-75320000D01*
X83009395Y-75441179D01*
X83081012Y-75552474D01*
X83143367Y-75595079D01*
X83087526Y-75631012D01*
X83012862Y-75740286D01*
X82986594Y-75870000D01*
X82986594Y-77370000D01*
X83009395Y-77491179D01*
X83081012Y-77602474D01*
X83105681Y-77619330D01*
X83087526Y-77631012D01*
X83012862Y-77740286D01*
X82986594Y-77870000D01*
X82986594Y-79370000D01*
X83009395Y-79491179D01*
X83081012Y-79602474D01*
X83143367Y-79645079D01*
X83087526Y-79681012D01*
X83012862Y-79790286D01*
X82986594Y-79920000D01*
X82986594Y-81026431D01*
X82967982Y-81120000D01*
X83038546Y-81474748D01*
X83239494Y-81775488D01*
X83540234Y-81976436D01*
X83894982Y-82047000D01*
X84645018Y-82047000D01*
X84999766Y-81976436D01*
X85300506Y-81775488D01*
X85501454Y-81474748D01*
X85572018Y-81120000D01*
X85553406Y-81026431D01*
X85553406Y-79920000D01*
X85530605Y-79798821D01*
X85458988Y-79687526D01*
X85396633Y-79644921D01*
X85452474Y-79608988D01*
X85527138Y-79499714D01*
X85553406Y-79370000D01*
X85553406Y-77870000D01*
X85530605Y-77748821D01*
X85458988Y-77637526D01*
X85434319Y-77620670D01*
X85452474Y-77608988D01*
X85527138Y-77499714D01*
X85553406Y-77370000D01*
X85553406Y-75870000D01*
X85530605Y-75748821D01*
X85458988Y-75637526D01*
X85396633Y-75594921D01*
X85452474Y-75558988D01*
X85527138Y-75449714D01*
X85553406Y-75320000D01*
X85553406Y-74213569D01*
X85572018Y-74120000D01*
X85501454Y-73765252D01*
X85300506Y-73464512D01*
X84999766Y-73263564D01*
X84645018Y-73193000D01*
X83894982Y-73193000D01*
X83540234Y-73263564D01*
X83239494Y-73464512D01*
X83038546Y-73765252D01*
X82967982Y-74120000D01*
X81587096Y-74120000D01*
X81623918Y-73857117D01*
X81694099Y-73433856D01*
X81774579Y-73014198D01*
X81865209Y-72598237D01*
X81965851Y-72186069D01*
X82076362Y-71777948D01*
X82196679Y-71373818D01*
X82326562Y-70973985D01*
X82465970Y-70578477D01*
X82608049Y-70205000D01*
X83676594Y-70205000D01*
X83676594Y-70955000D01*
X83699395Y-71076179D01*
X83771012Y-71187474D01*
X83880286Y-71262138D01*
X83914148Y-71268995D01*
X83908765Y-71274369D01*
X83813109Y-71504735D01*
X83812891Y-71754171D01*
X83908145Y-71984703D01*
X84084369Y-72161235D01*
X84314735Y-72256891D01*
X84564171Y-72257109D01*
X84794703Y-72161855D01*
X84971235Y-71985631D01*
X85066891Y-71755265D01*
X85067109Y-71505829D01*
X84999727Y-71342753D01*
X85150302Y-71493327D01*
X85383691Y-71590000D01*
X85624250Y-71590000D01*
X85783000Y-71431250D01*
X85783000Y-70707000D01*
X86037000Y-70707000D01*
X86037000Y-71431250D01*
X86195750Y-71590000D01*
X86436309Y-71590000D01*
X86669698Y-71493327D01*
X86848327Y-71314699D01*
X86945000Y-71081310D01*
X86945000Y-70865750D01*
X86786250Y-70707000D01*
X86037000Y-70707000D01*
X85783000Y-70707000D01*
X85763000Y-70707000D01*
X85763000Y-70453000D01*
X85783000Y-70453000D01*
X85783000Y-69728750D01*
X86037000Y-69728750D01*
X86037000Y-70453000D01*
X86786250Y-70453000D01*
X86945000Y-70294250D01*
X86945000Y-70078690D01*
X86848327Y-69845301D01*
X86669698Y-69666673D01*
X86436309Y-69570000D01*
X86195750Y-69570000D01*
X86037000Y-69728750D01*
X85783000Y-69728750D01*
X85632046Y-69577796D01*
X86114363Y-69378507D01*
X86487979Y-69005542D01*
X86690429Y-68517991D01*
X86690889Y-67990078D01*
X86489817Y-67503445D01*
X86493371Y-67506210D01*
X86997961Y-67665306D01*
X87245072Y-67524303D01*
X87137821Y-66298414D01*
X87226459Y-66209776D01*
X87148158Y-66131475D01*
X87378186Y-66131475D01*
X87498105Y-67502165D01*
X87765947Y-67598116D01*
X88331397Y-67276645D01*
X88730783Y-66763256D01*
X88889879Y-66258666D01*
X88748876Y-66011555D01*
X87378186Y-66131475D01*
X87148158Y-66131475D01*
X87046851Y-66030168D01*
X86904063Y-66172956D01*
X85754462Y-66273532D01*
X85658511Y-66541374D01*
X85954022Y-67061162D01*
X85628775Y-66926107D01*
X85100862Y-66925647D01*
X84612957Y-67127245D01*
X84239341Y-67500210D01*
X84036891Y-67987761D01*
X84036431Y-68515674D01*
X84171091Y-68841575D01*
X84108065Y-68904601D01*
X84015503Y-69043130D01*
X83982999Y-69206536D01*
X83983000Y-69206541D01*
X83983000Y-69876674D01*
X83888821Y-69894395D01*
X83777526Y-69966012D01*
X83702862Y-70075286D01*
X83676594Y-70205000D01*
X82608049Y-70205000D01*
X82614716Y-70187476D01*
X82772670Y-69801102D01*
X82939706Y-69419453D01*
X83115687Y-69042720D01*
X83300510Y-68671020D01*
X83493982Y-68304447D01*
X83696020Y-67943199D01*
X83906446Y-67587393D01*
X84125167Y-67237133D01*
X84352026Y-66892559D01*
X84586892Y-66553866D01*
X84829612Y-66221109D01*
X85080140Y-65894451D01*
X85177642Y-65773388D01*
X85591321Y-65773388D01*
X85732324Y-66020499D01*
X87103014Y-65900579D01*
X86983095Y-64529889D01*
X86921298Y-64507751D01*
X87236128Y-64507751D01*
X87356048Y-65878441D01*
X88726738Y-65758522D01*
X88822689Y-65490680D01*
X88501218Y-64925230D01*
X88430223Y-64870000D01*
X92431594Y-64870000D01*
X92431594Y-66370000D01*
X92454395Y-66491179D01*
X92526012Y-66602474D01*
X92635286Y-66677138D01*
X92765000Y-66703406D01*
X93365000Y-66703406D01*
X93486179Y-66680605D01*
X93597474Y-66608988D01*
X93672138Y-66499714D01*
X93698406Y-66370000D01*
X93698406Y-64870000D01*
X93675605Y-64748821D01*
X93603988Y-64637526D01*
X93494714Y-64562862D01*
X93365000Y-64536594D01*
X92765000Y-64536594D01*
X92643821Y-64559395D01*
X92532526Y-64631012D01*
X92457862Y-64740286D01*
X92431594Y-64870000D01*
X88430223Y-64870000D01*
X87987829Y-64525844D01*
X87483239Y-64366748D01*
X87236128Y-64507751D01*
X86921298Y-64507751D01*
X86715253Y-64433938D01*
X86149803Y-64755409D01*
X85750417Y-65268798D01*
X85591321Y-65773388D01*
X85177642Y-65773388D01*
X85338176Y-65574064D01*
X85603740Y-65260062D01*
X85876599Y-64952559D01*
X86156689Y-64651713D01*
X86443805Y-64357669D01*
X86737854Y-64070520D01*
X87038683Y-63790503D01*
X87346201Y-63517600D01*
X87660209Y-63252062D01*
X87980591Y-62993977D01*
X88307258Y-62743494D01*
X88639998Y-62500757D01*
X88978699Y-62265886D01*
X89323273Y-62039027D01*
X89673533Y-61820306D01*
X90029335Y-61609883D01*
X90390592Y-61407869D01*
X90757161Y-61214370D01*
X91128869Y-61029573D01*
X91505606Y-60853561D01*
X91887230Y-60686523D01*
X92273583Y-60528578D01*
X92664616Y-60379831D01*
X93060079Y-60240468D01*
X93459993Y-60110529D01*
X93864059Y-59990260D01*
X94272241Y-59879703D01*
X94684377Y-59779069D01*
X95100337Y-59688439D01*
X95519989Y-59607961D01*
X95943257Y-59537778D01*
X96369889Y-59478022D01*
X96799884Y-59428819D01*
X97232977Y-59390309D01*
X97669254Y-59362648D01*
X98108333Y-59345944D01*
X98549199Y-59340348D01*
X99190376Y-59352172D01*
X99824345Y-59387283D01*
X100451809Y-59445257D01*
X101072443Y-59525709D01*
X101685791Y-59628192D01*
X102291490Y-59752332D01*
X102889145Y-59897681D01*
X103478383Y-60063809D01*
X104058766Y-60250335D01*
X104629903Y-60456834D01*
X105191419Y-60682920D01*
X105742957Y-60928136D01*
X106283997Y-61192097D01*
X106814236Y-61474357D01*
X107333217Y-61774544D01*
X107840567Y-62092211D01*
X108335843Y-62426955D01*
X108818697Y-62778380D01*
X109288640Y-63146045D01*
X109745314Y-63529533D01*
X110188301Y-63928453D01*
X110617228Y-64342376D01*
X111031639Y-64770850D01*
X111431132Y-65213473D01*
X111815290Y-65669853D01*
X112183751Y-66139545D01*
X112536066Y-66622158D01*
X112871833Y-67117221D01*
X113190687Y-67624347D01*
X113492152Y-68143140D01*
X113670892Y-68477023D01*
X113091935Y-67898065D01*
X112953406Y-67805503D01*
X112790000Y-67772999D01*
X112789995Y-67773000D01*
X107116869Y-67773000D01*
X105651935Y-66308065D01*
X105513406Y-66215503D01*
X105350000Y-66182999D01*
X105349995Y-66183000D01*
X103596869Y-66183000D01*
X102731935Y-65318065D01*
X102593406Y-65225503D01*
X102588406Y-65224508D01*
X102588406Y-64870000D01*
X102565605Y-64748821D01*
X102493988Y-64637526D01*
X102384714Y-64562862D01*
X102382000Y-64562312D01*
X102382000Y-64385005D01*
X102382001Y-64385000D01*
X102349497Y-64221594D01*
X102256935Y-64083065D01*
X102111935Y-63938065D01*
X101973406Y-63845503D01*
X101810000Y-63812999D01*
X101809995Y-63813000D01*
X99644229Y-63813000D01*
X100000169Y-63575169D01*
X100461598Y-62884591D01*
X100623630Y-62070000D01*
X100461598Y-61255409D01*
X100000169Y-60564831D01*
X99309591Y-60103402D01*
X98495000Y-59941370D01*
X97680409Y-60103402D01*
X96989831Y-60564831D01*
X96528402Y-61255409D01*
X96366370Y-62070000D01*
X96528402Y-62884591D01*
X96989831Y-63575169D01*
X97345771Y-63813000D01*
X94510000Y-63813000D01*
X94346594Y-63845503D01*
X94208065Y-63938065D01*
X94208063Y-63938068D01*
X94033065Y-64113065D01*
X93940503Y-64251594D01*
X93907999Y-64415000D01*
X93908000Y-64415005D01*
X93908000Y-64563141D01*
X93802526Y-64631012D01*
X93727862Y-64740286D01*
X93701594Y-64870000D01*
X93701594Y-66370000D01*
X93724395Y-66491179D01*
X93796012Y-66602474D01*
X93882021Y-66661241D01*
X93808765Y-66734369D01*
X93713109Y-66964735D01*
X93712891Y-67214171D01*
X93808145Y-67444703D01*
X93984369Y-67621235D01*
X94214735Y-67716891D01*
X94464171Y-67717109D01*
X94694703Y-67621855D01*
X94871235Y-67445631D01*
X94966891Y-67215265D01*
X94967109Y-66965829D01*
X94871855Y-66735297D01*
X94793369Y-66656674D01*
X94867474Y-66608988D01*
X94942138Y-66499714D01*
X94968406Y-66370000D01*
X94968406Y-64870000D01*
X94945605Y-64748821D01*
X94892954Y-64667000D01*
X95047936Y-64667000D01*
X94997862Y-64740286D01*
X94971594Y-64870000D01*
X94971594Y-66370000D01*
X94994395Y-66491179D01*
X95066012Y-66602474D01*
X95093000Y-66620914D01*
X95093000Y-67330316D01*
X94988765Y-67434369D01*
X94893109Y-67664735D01*
X94892979Y-67813151D01*
X94823130Y-67883000D01*
X93532917Y-67883000D01*
X93556891Y-67825265D01*
X93557109Y-67575829D01*
X93461855Y-67345297D01*
X93285631Y-67168765D01*
X93055265Y-67073109D01*
X92805829Y-67072891D01*
X92575297Y-67168145D01*
X92530364Y-67213000D01*
X91849684Y-67213000D01*
X91745631Y-67108765D01*
X91515265Y-67013109D01*
X91265829Y-67012891D01*
X91035297Y-67108145D01*
X90858765Y-67284369D01*
X90763109Y-67514735D01*
X90762891Y-67764171D01*
X90858145Y-67994703D01*
X91034369Y-68171235D01*
X91264735Y-68266891D01*
X91514171Y-68267109D01*
X91726933Y-68179197D01*
X91648065Y-68258065D01*
X91555503Y-68396594D01*
X91522999Y-68560000D01*
X91523000Y-68560005D01*
X91523000Y-70863130D01*
X91183130Y-71203000D01*
X89350000Y-71203000D01*
X89186594Y-71235503D01*
X89048065Y-71328065D01*
X89048063Y-71328068D01*
X88878065Y-71498065D01*
X88785503Y-71636594D01*
X88752999Y-71800000D01*
X88753000Y-71800005D01*
X88753000Y-89649130D01*
X88497000Y-89393130D01*
X88497000Y-79390000D01*
X88464497Y-79226594D01*
X88371935Y-79088065D01*
X88371932Y-79088063D01*
X87972504Y-78688634D01*
X87955605Y-78598821D01*
X87953105Y-78594937D01*
X87978406Y-78470000D01*
X87978406Y-78070000D01*
X87955605Y-77948821D01*
X87953105Y-77944937D01*
X87978406Y-77820000D01*
X87978406Y-77719218D01*
X88004699Y-77708327D01*
X88183327Y-77529698D01*
X88280000Y-77296309D01*
X88280000Y-77228750D01*
X88121250Y-77070000D01*
X87976518Y-77070000D01*
X88004699Y-77058327D01*
X88183327Y-76879698D01*
X88234080Y-76757170D01*
X88280000Y-76711250D01*
X88280000Y-76578750D01*
X88234080Y-76532830D01*
X88183327Y-76410302D01*
X88004699Y-76231673D01*
X87976518Y-76220000D01*
X88121250Y-76220000D01*
X88280000Y-76061250D01*
X88280000Y-75993691D01*
X88183327Y-75760302D01*
X88004699Y-75581673D01*
X87930199Y-75550814D01*
X88021817Y-75330174D01*
X88022182Y-74911662D01*
X87862362Y-74524868D01*
X87566688Y-74228678D01*
X87180174Y-74068183D01*
X86761662Y-74067818D01*
X86374868Y-74227638D01*
X86078678Y-74523312D01*
X85918183Y-74909826D01*
X85917818Y-75328338D01*
X86009752Y-75550834D01*
X85935301Y-75581673D01*
X85756673Y-75760302D01*
X85660000Y-75993691D01*
X85660000Y-76061250D01*
X85818750Y-76220000D01*
X85963482Y-76220000D01*
X85935301Y-76231673D01*
X85756673Y-76410302D01*
X85705920Y-76532830D01*
X85660000Y-76578750D01*
X85660000Y-76711250D01*
X85705920Y-76757170D01*
X85756673Y-76879698D01*
X85935301Y-77058327D01*
X85963482Y-77070000D01*
X85818750Y-77070000D01*
X85660000Y-77228750D01*
X85660000Y-77296309D01*
X85756673Y-77529698D01*
X85935301Y-77708327D01*
X85961594Y-77719218D01*
X85961594Y-77820000D01*
X85984395Y-77941179D01*
X85986895Y-77945063D01*
X85961594Y-78070000D01*
X85961594Y-78470000D01*
X85984395Y-78591179D01*
X85986895Y-78595063D01*
X85961594Y-78720000D01*
X85961594Y-79120000D01*
X85984395Y-79241179D01*
X86056012Y-79352474D01*
X86165286Y-79427138D01*
X86173378Y-79428777D01*
X86078678Y-79523312D01*
X85918183Y-79909826D01*
X85917818Y-80328338D01*
X86077638Y-80715132D01*
X86373312Y-81011322D01*
X86759826Y-81171817D01*
X87178338Y-81172182D01*
X87565132Y-81012362D01*
X87643000Y-80934630D01*
X87643000Y-89569995D01*
X87642999Y-89570000D01*
X87675503Y-89733406D01*
X87768065Y-89871935D01*
X89423020Y-91526889D01*
X89422891Y-91674171D01*
X89518145Y-91904703D01*
X89623000Y-92009741D01*
X89623000Y-93030281D01*
X89538765Y-93114369D01*
X89443109Y-93344735D01*
X89442891Y-93594171D01*
X89538145Y-93824703D01*
X89714369Y-94001235D01*
X89944735Y-94096891D01*
X90194171Y-94097109D01*
X90424703Y-94001855D01*
X90601235Y-93825631D01*
X90696891Y-93595265D01*
X90697109Y-93345829D01*
X90601855Y-93115297D01*
X90477000Y-92990224D01*
X90477000Y-92009684D01*
X90581235Y-91905631D01*
X90676891Y-91675265D01*
X90677109Y-91425829D01*
X90581855Y-91195297D01*
X90523660Y-91137000D01*
X91283435Y-91137000D01*
X91212862Y-91240286D01*
X91186594Y-91370000D01*
X91186594Y-93370000D01*
X91209395Y-93491179D01*
X91281012Y-93602474D01*
X91343000Y-93644829D01*
X91343000Y-95799995D01*
X91342999Y-95800000D01*
X91375503Y-95963406D01*
X91468065Y-96101935D01*
X92098063Y-96731932D01*
X92098065Y-96731935D01*
X92179868Y-96786594D01*
X92236594Y-96824497D01*
X92400000Y-96857001D01*
X92400005Y-96857000D01*
X96183130Y-96857000D01*
X96333000Y-97006869D01*
X96333000Y-98379995D01*
X96332999Y-98380000D01*
X96365503Y-98543406D01*
X96458065Y-98681935D01*
X98578063Y-100801932D01*
X98578065Y-100801935D01*
X98626798Y-100834497D01*
X98716594Y-100894497D01*
X98880000Y-100927001D01*
X98880005Y-100927000D01*
X103969995Y-100927000D01*
X103970000Y-100927001D01*
X104133406Y-100894497D01*
X104271935Y-100801935D01*
X104331932Y-100741937D01*
X104331935Y-100741935D01*
X104424497Y-100603406D01*
X104428691Y-100582321D01*
X104457001Y-100440000D01*
X104457000Y-100439995D01*
X104457000Y-100405579D01*
X104528065Y-100511935D01*
X108038063Y-104021932D01*
X108038065Y-104021935D01*
X108176594Y-104114497D01*
X108340000Y-104147001D01*
X108340005Y-104147000D01*
X119619995Y-104147000D01*
X119620000Y-104147001D01*
X119783406Y-104114497D01*
X119921935Y-104021935D01*
X120886869Y-103057000D01*
X129499995Y-103057000D01*
X129500000Y-103057001D01*
X129663406Y-103024497D01*
X129801935Y-102931935D01*
X130721932Y-102011937D01*
X130721935Y-102011935D01*
X130814497Y-101873406D01*
X130847000Y-101710000D01*
X130847000Y-99410005D01*
X130847001Y-99410000D01*
X130814497Y-99246594D01*
X130721935Y-99108065D01*
X130351935Y-98738065D01*
X130213406Y-98645503D01*
X130050000Y-98612999D01*
X130049995Y-98613000D01*
X128510000Y-98613000D01*
X128346594Y-98645503D01*
X128208065Y-98738065D01*
X128208063Y-98738068D01*
X128028065Y-98918065D01*
X127935503Y-99056594D01*
X127902999Y-99220000D01*
X127903000Y-99220005D01*
X127903000Y-99313141D01*
X127797526Y-99381012D01*
X127722862Y-99490286D01*
X127696594Y-99620000D01*
X127696594Y-101620000D01*
X127719395Y-101741179D01*
X127746306Y-101783000D01*
X127644395Y-101783000D01*
X127667138Y-101749714D01*
X127693406Y-101620000D01*
X127693406Y-99620000D01*
X127670605Y-99498821D01*
X127598988Y-99387526D01*
X127489714Y-99312862D01*
X127360000Y-99286594D01*
X127220463Y-99286594D01*
X126831935Y-98898065D01*
X126693406Y-98805503D01*
X126530000Y-98772999D01*
X126529995Y-98773000D01*
X125636869Y-98773000D01*
X123552674Y-96688804D01*
X123714703Y-96621855D01*
X123891235Y-96445631D01*
X123986891Y-96215265D01*
X123987109Y-95965829D01*
X123891855Y-95735297D01*
X123715631Y-95558765D01*
X123485265Y-95463109D01*
X123235829Y-95462891D01*
X123005297Y-95558145D01*
X122900259Y-95663000D01*
X119877000Y-95663000D01*
X119877000Y-95540000D01*
X119844497Y-95376594D01*
X119751935Y-95238065D01*
X119751932Y-95238063D01*
X118858055Y-94344185D01*
X118984703Y-94291855D01*
X119161235Y-94115631D01*
X119256891Y-93885265D01*
X119257109Y-93635829D01*
X119161855Y-93405297D01*
X118985631Y-93228765D01*
X118755265Y-93133109D01*
X118606849Y-93132979D01*
X118521933Y-93048063D01*
X118383404Y-92955501D01*
X118219998Y-92922997D01*
X118219993Y-92922998D01*
X114569848Y-92922998D01*
X114569848Y-92752848D01*
X114537345Y-92589442D01*
X114444783Y-92450913D01*
X114444780Y-92450911D01*
X112321933Y-90328063D01*
X112183404Y-90235501D01*
X112105477Y-90220000D01*
X118806594Y-90220000D01*
X118806594Y-92220000D01*
X118829395Y-92341179D01*
X118901012Y-92452474D01*
X119010286Y-92527138D01*
X119140000Y-92553406D01*
X119740000Y-92553406D01*
X119861179Y-92530605D01*
X119972474Y-92458988D01*
X120047138Y-92349714D01*
X120073406Y-92220000D01*
X120073406Y-90220000D01*
X120050605Y-90098821D01*
X119978988Y-89987526D01*
X119869714Y-89912862D01*
X119867000Y-89912312D01*
X119867000Y-89419684D01*
X119971235Y-89315631D01*
X120066891Y-89085265D01*
X120067109Y-88835829D01*
X119971855Y-88605297D01*
X119795631Y-88428765D01*
X119565265Y-88333109D01*
X119315829Y-88332891D01*
X119085297Y-88428145D01*
X118908765Y-88604369D01*
X118813109Y-88834735D01*
X118812891Y-89084171D01*
X118908145Y-89314703D01*
X119013000Y-89419741D01*
X119013000Y-89913141D01*
X118907526Y-89981012D01*
X118832862Y-90090286D01*
X118806594Y-90220000D01*
X112105477Y-90220000D01*
X112019998Y-90202997D01*
X112019993Y-90202998D01*
X110826868Y-90202998D01*
X110577000Y-89953130D01*
X110577000Y-89200000D01*
X110574417Y-89187013D01*
X110684171Y-89187109D01*
X110914703Y-89091855D01*
X111091235Y-88915631D01*
X111186891Y-88685265D01*
X111187109Y-88435829D01*
X111121482Y-88277000D01*
X111710316Y-88277000D01*
X111814369Y-88381235D01*
X112044735Y-88476891D01*
X112294171Y-88477109D01*
X112524703Y-88381855D01*
X112701235Y-88205631D01*
X112796891Y-87975265D01*
X112797109Y-87725829D01*
X112701855Y-87495297D01*
X112525631Y-87318765D01*
X112295265Y-87223109D01*
X112045829Y-87222891D01*
X111815297Y-87318145D01*
X111710259Y-87423000D01*
X105380000Y-87423000D01*
X105375381Y-87423919D01*
X105325265Y-87403109D01*
X105075829Y-87402891D01*
X104845297Y-87498145D01*
X104668765Y-87674369D01*
X104573109Y-87904735D01*
X104573061Y-87959192D01*
X104291935Y-87678065D01*
X104153406Y-87585503D01*
X103990000Y-87552999D01*
X103989995Y-87553000D01*
X100690000Y-87553000D01*
X100526594Y-87585503D01*
X100388065Y-87678065D01*
X100388063Y-87678068D01*
X100202906Y-87863224D01*
X100202906Y-87249880D01*
X100180105Y-87128701D01*
X100108488Y-87017406D01*
X99999214Y-86942742D01*
X99869500Y-86916474D01*
X98868740Y-86916474D01*
X98747561Y-86939275D01*
X98636266Y-87010892D01*
X98561602Y-87120166D01*
X98535334Y-87249880D01*
X98535334Y-88250640D01*
X98558135Y-88371819D01*
X98629752Y-88483114D01*
X98739026Y-88557778D01*
X98868740Y-88584046D01*
X99869500Y-88584046D01*
X99990679Y-88561245D01*
X100023000Y-88540447D01*
X100023000Y-89183131D01*
X98683130Y-90523000D01*
X97680000Y-90523000D01*
X97516594Y-90555503D01*
X97378065Y-90648065D01*
X97378063Y-90648068D01*
X96828065Y-91198065D01*
X96735503Y-91336594D01*
X96702999Y-91500000D01*
X96703000Y-91500005D01*
X96703000Y-92270316D01*
X96598765Y-92374369D01*
X96503109Y-92604735D01*
X96502891Y-92854171D01*
X96598145Y-93084703D01*
X96774369Y-93261235D01*
X97004735Y-93356891D01*
X97254171Y-93357109D01*
X97484703Y-93261855D01*
X97661235Y-93085631D01*
X97756891Y-92855265D01*
X97757109Y-92605829D01*
X97661855Y-92375297D01*
X97557000Y-92270259D01*
X97557000Y-91676870D01*
X97856869Y-91377000D01*
X98859995Y-91377000D01*
X98860000Y-91377001D01*
X99000263Y-91349100D01*
X98974623Y-91387474D01*
X98942119Y-91550880D01*
X98942120Y-91550885D01*
X98942120Y-92915954D01*
X98868740Y-92915954D01*
X98747561Y-92938755D01*
X98636266Y-93010372D01*
X98561602Y-93119646D01*
X98535334Y-93249360D01*
X98535334Y-93322740D01*
X97680260Y-93322740D01*
X97516854Y-93355243D01*
X97378325Y-93447805D01*
X96486550Y-94339580D01*
X96504666Y-94250120D01*
X96504666Y-93249360D01*
X96481865Y-93128181D01*
X96410248Y-93016886D01*
X96300974Y-92942222D01*
X96171260Y-92915954D01*
X95170500Y-92915954D01*
X95067000Y-92935429D01*
X95067000Y-89940005D01*
X95067001Y-89940000D01*
X95034497Y-89776594D01*
X94999687Y-89724497D01*
X94941935Y-89638065D01*
X94941932Y-89638063D01*
X94353406Y-89049536D01*
X94353406Y-88070000D01*
X94347011Y-88036010D01*
X94535500Y-88036010D01*
X94535500Y-88376949D01*
X94632173Y-88610338D01*
X94810801Y-88788967D01*
X95044190Y-88885640D01*
X95385130Y-88885640D01*
X95543880Y-88726890D01*
X95543880Y-87877260D01*
X95797880Y-87877260D01*
X95797880Y-88726890D01*
X95956630Y-88885640D01*
X96297570Y-88885640D01*
X96530959Y-88788967D01*
X96709587Y-88610338D01*
X96806260Y-88376949D01*
X96806260Y-88036010D01*
X96647510Y-87877260D01*
X95797880Y-87877260D01*
X95543880Y-87877260D01*
X94694250Y-87877260D01*
X94535500Y-88036010D01*
X94347011Y-88036010D01*
X94330605Y-87948821D01*
X94258988Y-87837526D01*
X94149714Y-87762862D01*
X94020000Y-87736594D01*
X93569218Y-87736594D01*
X93558327Y-87710302D01*
X93379699Y-87531673D01*
X93146310Y-87435000D01*
X93053750Y-87435000D01*
X92895000Y-87593750D01*
X92895000Y-88943000D01*
X92917000Y-88943000D01*
X92917000Y-89197000D01*
X92895000Y-89197000D01*
X92895000Y-89217000D01*
X92645000Y-89217000D01*
X92645000Y-89197000D01*
X92623000Y-89197000D01*
X92623000Y-88943000D01*
X92645000Y-88943000D01*
X92645000Y-87593750D01*
X92486250Y-87435000D01*
X92393690Y-87435000D01*
X92160301Y-87531673D01*
X91981673Y-87710302D01*
X91970782Y-87736594D01*
X91520000Y-87736594D01*
X91398821Y-87759395D01*
X91287526Y-87831012D01*
X91212862Y-87940286D01*
X91205156Y-87978341D01*
X91175631Y-87948765D01*
X90945265Y-87853109D01*
X90695829Y-87852891D01*
X90465297Y-87948145D01*
X90288765Y-88124369D01*
X90193109Y-88354735D01*
X90192891Y-88604171D01*
X90288145Y-88834703D01*
X90464369Y-89011235D01*
X90694735Y-89106891D01*
X90843151Y-89107021D01*
X91108065Y-89371935D01*
X91186594Y-89424406D01*
X91186594Y-90070000D01*
X91209395Y-90191179D01*
X91268481Y-90283000D01*
X90136869Y-90283000D01*
X89607000Y-89753130D01*
X89607000Y-87123571D01*
X94535500Y-87123571D01*
X94535500Y-87464510D01*
X94694250Y-87623260D01*
X95543880Y-87623260D01*
X95543880Y-86773630D01*
X95797880Y-86773630D01*
X95797880Y-87623260D01*
X96647510Y-87623260D01*
X96806260Y-87464510D01*
X96806260Y-87123571D01*
X96709587Y-86890182D01*
X96530959Y-86711553D01*
X96297570Y-86614880D01*
X95956630Y-86614880D01*
X95797880Y-86773630D01*
X95543880Y-86773630D01*
X95385130Y-86614880D01*
X95044190Y-86614880D01*
X94810801Y-86711553D01*
X94632173Y-86890182D01*
X94535500Y-87123571D01*
X89607000Y-87123571D01*
X89607000Y-86360460D01*
X89694735Y-86396891D01*
X89944171Y-86397109D01*
X90174703Y-86301855D01*
X90254698Y-86222000D01*
X92535272Y-86222000D01*
X92614369Y-86301235D01*
X92844735Y-86396891D01*
X93094171Y-86397109D01*
X93324703Y-86301855D01*
X93404698Y-86222000D01*
X95685272Y-86222000D01*
X95764369Y-86301235D01*
X95994735Y-86396891D01*
X96244171Y-86397109D01*
X96474703Y-86301855D01*
X96554698Y-86222000D01*
X98835272Y-86222000D01*
X98914369Y-86301235D01*
X99144735Y-86396891D01*
X99394171Y-86397109D01*
X99624703Y-86301855D01*
X99704698Y-86222000D01*
X101985272Y-86222000D01*
X102064369Y-86301235D01*
X102294735Y-86396891D01*
X102544171Y-86397109D01*
X102774703Y-86301855D01*
X102854698Y-86222000D01*
X105135272Y-86222000D01*
X105214369Y-86301235D01*
X105444735Y-86396891D01*
X105694171Y-86397109D01*
X105924703Y-86301855D01*
X106004698Y-86222000D01*
X108310272Y-86222000D01*
X108389369Y-86301235D01*
X108619735Y-86396891D01*
X108869171Y-86397109D01*
X109099703Y-86301855D01*
X109179698Y-86222000D01*
X111460272Y-86222000D01*
X111539369Y-86301235D01*
X111769735Y-86396891D01*
X112019171Y-86397109D01*
X112249703Y-86301855D01*
X112329698Y-86222000D01*
X114635272Y-86222000D01*
X114714369Y-86301235D01*
X114944735Y-86396891D01*
X115194171Y-86397109D01*
X115424703Y-86301855D01*
X115504698Y-86222000D01*
X117785272Y-86222000D01*
X117864369Y-86301235D01*
X118094735Y-86396891D01*
X118344171Y-86397109D01*
X118574703Y-86301855D01*
X118654698Y-86222000D01*
X120985272Y-86222000D01*
X120993000Y-86229741D01*
X120993000Y-86423131D01*
X120408065Y-87008065D01*
X120315503Y-87146594D01*
X120282999Y-87310000D01*
X120283000Y-87310005D01*
X120283000Y-89913141D01*
X120177526Y-89981012D01*
X120102862Y-90090286D01*
X120076594Y-90220000D01*
X120076594Y-92220000D01*
X120099395Y-92341179D01*
X120171012Y-92452474D01*
X120280286Y-92527138D01*
X120410000Y-92553406D01*
X121010000Y-92553406D01*
X121131179Y-92530605D01*
X121242474Y-92458988D01*
X121317138Y-92349714D01*
X121343406Y-92220000D01*
X121343406Y-90220000D01*
X121320605Y-90098821D01*
X121248988Y-89987526D01*
X121139714Y-89912862D01*
X121137000Y-89912312D01*
X121137000Y-87486870D01*
X121721932Y-86901937D01*
X121721935Y-86901935D01*
X121814497Y-86763406D01*
X121820660Y-86732424D01*
X121847001Y-86600000D01*
X121847000Y-86599995D01*
X121847000Y-86229684D01*
X121854698Y-86222000D01*
X122534131Y-86222000D01*
X121678065Y-87078065D01*
X121585503Y-87216594D01*
X121552999Y-87380000D01*
X121553000Y-87380005D01*
X121553000Y-89913141D01*
X121447526Y-89981012D01*
X121372862Y-90090286D01*
X121346594Y-90220000D01*
X121346594Y-92220000D01*
X121369395Y-92341179D01*
X121441012Y-92452474D01*
X121550286Y-92527138D01*
X121680000Y-92553406D01*
X122280000Y-92553406D01*
X122401179Y-92530605D01*
X122512474Y-92458988D01*
X122587138Y-92349714D01*
X122613406Y-92220000D01*
X122613406Y-90220000D01*
X122590605Y-90098821D01*
X122518988Y-89987526D01*
X122409714Y-89912862D01*
X122407000Y-89912312D01*
X122407000Y-87556870D01*
X123016869Y-86947000D01*
X123089130Y-86947000D01*
X122948065Y-87088065D01*
X122855503Y-87226594D01*
X122822999Y-87390000D01*
X122823000Y-87390005D01*
X122823000Y-89913141D01*
X122717526Y-89981012D01*
X122642862Y-90090286D01*
X122616594Y-90220000D01*
X122616594Y-92220000D01*
X122639395Y-92341179D01*
X122711012Y-92452474D01*
X122820286Y-92527138D01*
X122950000Y-92553406D01*
X123550000Y-92553406D01*
X123671179Y-92530605D01*
X123782474Y-92458988D01*
X123857138Y-92349714D01*
X123883406Y-92220000D01*
X123883406Y-90220000D01*
X123860605Y-90098821D01*
X123788988Y-89987526D01*
X123679714Y-89912862D01*
X123677000Y-89912312D01*
X123677000Y-87566870D01*
X123896867Y-87347002D01*
X124198733Y-87347002D01*
X124125503Y-87456598D01*
X124092999Y-87620004D01*
X124093000Y-87620009D01*
X124093000Y-89913141D01*
X123987526Y-89981012D01*
X123912862Y-90090286D01*
X123886594Y-90220000D01*
X123886594Y-92220000D01*
X123909395Y-92341179D01*
X123981012Y-92452474D01*
X124090286Y-92527138D01*
X124220000Y-92553406D01*
X124820000Y-92553406D01*
X124941179Y-92530605D01*
X125052474Y-92458988D01*
X125127138Y-92349714D01*
X125153406Y-92220000D01*
X125153406Y-90220000D01*
X125130605Y-90098821D01*
X125058988Y-89987526D01*
X124949714Y-89912862D01*
X124947000Y-89912312D01*
X124947000Y-87796874D01*
X124996870Y-87747004D01*
X125442001Y-87747004D01*
X125395503Y-87816594D01*
X125362999Y-87980000D01*
X125363000Y-87980005D01*
X125363000Y-89913141D01*
X125257526Y-89981012D01*
X125182862Y-90090286D01*
X125156594Y-90220000D01*
X125156594Y-92220000D01*
X125179395Y-92341179D01*
X125251012Y-92452474D01*
X125360286Y-92527138D01*
X125490000Y-92553406D01*
X126090000Y-92553406D01*
X126211179Y-92530605D01*
X126322474Y-92458988D01*
X126397138Y-92349714D01*
X126423406Y-92220000D01*
X126423406Y-90220000D01*
X126400605Y-90098821D01*
X126328988Y-89987526D01*
X126219714Y-89912862D01*
X126217000Y-89912312D01*
X126217000Y-88187000D01*
X126869130Y-88187000D01*
X126758065Y-88298065D01*
X126665503Y-88436594D01*
X126632999Y-88600000D01*
X126633000Y-88600005D01*
X126633000Y-89913141D01*
X126527526Y-89981012D01*
X126452862Y-90090286D01*
X126426594Y-90220000D01*
X126426594Y-92220000D01*
X126449395Y-92341179D01*
X126521012Y-92452474D01*
X126630286Y-92527138D01*
X126760000Y-92553406D01*
X127360000Y-92553406D01*
X127481179Y-92530605D01*
X127592474Y-92458988D01*
X127667138Y-92349714D01*
X127693406Y-92220000D01*
X127693406Y-90220000D01*
X127670605Y-90098821D01*
X127598988Y-89987526D01*
X127489714Y-89912862D01*
X127487000Y-89912312D01*
X127487000Y-88776870D01*
X127656869Y-88607000D01*
X128159130Y-88607000D01*
X128028065Y-88738065D01*
X127935503Y-88876594D01*
X127902999Y-89040000D01*
X127903000Y-89040005D01*
X127903000Y-89913141D01*
X127797526Y-89981012D01*
X127722862Y-90090286D01*
X127696594Y-90220000D01*
X127696594Y-92220000D01*
X127719395Y-92341179D01*
X127791012Y-92452474D01*
X127900286Y-92527138D01*
X128030000Y-92553406D01*
X128630000Y-92553406D01*
X128751179Y-92530605D01*
X128862474Y-92458988D01*
X128937138Y-92349714D01*
X128963406Y-92220000D01*
X128963406Y-90220000D01*
X128940605Y-90098821D01*
X128868988Y-89987526D01*
X128759714Y-89912862D01*
X128757000Y-89912312D01*
X128757000Y-89216870D01*
X128916869Y-89057000D01*
X129399130Y-89057000D01*
X129298065Y-89158065D01*
X129205503Y-89296594D01*
X129172999Y-89460000D01*
X129173000Y-89460005D01*
X129173000Y-89913141D01*
X129067526Y-89981012D01*
X128992862Y-90090286D01*
X128966594Y-90220000D01*
X128966594Y-92220000D01*
X128989395Y-92341179D01*
X129061012Y-92452474D01*
X129170286Y-92527138D01*
X129300000Y-92553406D01*
X129900000Y-92553406D01*
X130021179Y-92530605D01*
X130132474Y-92458988D01*
X130207138Y-92349714D01*
X130233406Y-92220000D01*
X130233406Y-90220000D01*
X130210605Y-90098821D01*
X130138988Y-89987526D01*
X130029714Y-89912862D01*
X130027000Y-89912312D01*
X130027000Y-89636870D01*
X130176869Y-89487000D01*
X138769995Y-89487000D01*
X138770000Y-89487001D01*
X138933406Y-89454497D01*
X139071935Y-89361935D01*
X141231932Y-87201937D01*
X141231935Y-87201935D01*
X141324497Y-87063406D01*
X141357000Y-86900000D01*
X141357000Y-79270000D01*
X143318000Y-79270000D01*
X143386661Y-79615180D01*
X143582190Y-79907810D01*
X143874820Y-80103339D01*
X144220000Y-80172000D01*
X144565180Y-80103339D01*
X144857810Y-79907810D01*
X145053339Y-79615180D01*
X145122000Y-79270000D01*
X145053339Y-78924820D01*
X144857810Y-78632190D01*
X144565180Y-78436661D01*
X144220000Y-78368000D01*
X143874820Y-78436661D01*
X143582190Y-78632190D01*
X143386661Y-78924820D01*
X143318000Y-79270000D01*
X141357000Y-79270000D01*
X141357000Y-76270000D01*
X143318000Y-76270000D01*
X143386661Y-76615180D01*
X143582190Y-76907810D01*
X143874820Y-77103339D01*
X144220000Y-77172000D01*
X144565180Y-77103339D01*
X144857810Y-76907810D01*
X145053339Y-76615180D01*
X145122000Y-76270000D01*
X145053339Y-75924820D01*
X144857810Y-75632190D01*
X144565180Y-75436661D01*
X144220000Y-75368000D01*
X143874820Y-75436661D01*
X143582190Y-75632190D01*
X143386661Y-75924820D01*
X143318000Y-76270000D01*
X141357000Y-76270000D01*
X141357000Y-76030005D01*
X141357001Y-76030000D01*
X141324497Y-75866594D01*
X141297041Y-75825503D01*
X141231935Y-75728065D01*
X141231932Y-75728063D01*
X137896980Y-72393110D01*
X137897109Y-72245829D01*
X137801855Y-72015297D01*
X137625631Y-71838765D01*
X137395265Y-71743109D01*
X137145829Y-71742891D01*
X136915297Y-71838145D01*
X136835302Y-71918000D01*
X136202811Y-71918000D01*
X136222138Y-71889714D01*
X136248406Y-71760000D01*
X136248406Y-70260000D01*
X136225605Y-70138821D01*
X136153988Y-70027526D01*
X136044714Y-69952862D01*
X136043982Y-69952714D01*
X136141235Y-69855631D01*
X136236891Y-69625265D01*
X136237109Y-69375829D01*
X136141855Y-69145297D01*
X135965631Y-68968765D01*
X135735265Y-68873109D01*
X135485829Y-68872891D01*
X135255297Y-68968145D01*
X135078765Y-69144369D01*
X134984887Y-69370452D01*
X134891855Y-69145297D01*
X134715631Y-68968765D01*
X134485265Y-68873109D01*
X134235829Y-68872891D01*
X134005297Y-68968145D01*
X133828765Y-69144369D01*
X133733109Y-69374735D01*
X133732891Y-69624171D01*
X133828145Y-69854703D01*
X133918000Y-69944715D01*
X133918000Y-69953141D01*
X133812526Y-70021012D01*
X133737862Y-70130286D01*
X133711594Y-70260000D01*
X133711594Y-71760000D01*
X133730883Y-71862516D01*
X133675302Y-71918000D01*
X133662811Y-71918000D01*
X133682138Y-71889714D01*
X133708406Y-71760000D01*
X133708406Y-70260000D01*
X133685605Y-70138821D01*
X133613988Y-70027526D01*
X133522022Y-69964688D01*
X133611235Y-69875631D01*
X133706891Y-69645265D01*
X133707109Y-69395829D01*
X133611855Y-69165297D01*
X133435631Y-68988765D01*
X133205265Y-68893109D01*
X132955829Y-68892891D01*
X132725297Y-68988145D01*
X132548765Y-69164369D01*
X132453109Y-69394735D01*
X132452891Y-69644171D01*
X132548145Y-69874703D01*
X132634876Y-69961586D01*
X132542526Y-70021012D01*
X132467862Y-70130286D01*
X132441594Y-70260000D01*
X132441594Y-71760000D01*
X132464395Y-71881179D01*
X132488089Y-71918000D01*
X132392811Y-71918000D01*
X132412138Y-71889714D01*
X132438406Y-71760000D01*
X132438406Y-70260000D01*
X132415605Y-70138821D01*
X132343988Y-70027526D01*
X132234714Y-69952862D01*
X132232000Y-69952312D01*
X132232000Y-69814675D01*
X132341235Y-69705631D01*
X132436891Y-69475265D01*
X132437109Y-69225829D01*
X132341855Y-68995297D01*
X132165631Y-68818765D01*
X131935265Y-68723109D01*
X131685829Y-68722891D01*
X131455297Y-68818145D01*
X131278765Y-68994369D01*
X131183109Y-69224735D01*
X131182891Y-69474171D01*
X131278145Y-69704703D01*
X131378000Y-69804733D01*
X131378000Y-69953141D01*
X131272526Y-70021012D01*
X131197862Y-70130286D01*
X131171594Y-70260000D01*
X131171594Y-71760000D01*
X131176734Y-71787319D01*
X131163949Y-71782010D01*
X131168406Y-71760000D01*
X131168406Y-70260000D01*
X131145605Y-70138821D01*
X131073988Y-70027526D01*
X130964714Y-69952862D01*
X130962000Y-69952312D01*
X130962000Y-69374658D01*
X131081235Y-69255631D01*
X131176891Y-69025265D01*
X131177109Y-68775829D01*
X131081855Y-68545297D01*
X130905631Y-68368765D01*
X130675265Y-68273109D01*
X130425829Y-68272891D01*
X130195297Y-68368145D01*
X130018765Y-68544369D01*
X129923109Y-68774735D01*
X129922891Y-69024171D01*
X130018145Y-69254703D01*
X130108000Y-69344715D01*
X130108000Y-69953141D01*
X130002526Y-70021012D01*
X129927862Y-70130286D01*
X129901594Y-70260000D01*
X129901594Y-71760000D01*
X129924395Y-71881179D01*
X129948089Y-71918000D01*
X129852811Y-71918000D01*
X129872138Y-71889714D01*
X129898406Y-71760000D01*
X129898406Y-70260000D01*
X129875605Y-70138821D01*
X129803988Y-70027526D01*
X129694714Y-69952862D01*
X129692000Y-69952312D01*
X129692000Y-68884693D01*
X129791235Y-68785631D01*
X129886891Y-68555265D01*
X129887109Y-68305829D01*
X129791855Y-68075297D01*
X129615631Y-67898765D01*
X129385265Y-67803109D01*
X129135829Y-67802891D01*
X128905297Y-67898145D01*
X128728765Y-68074369D01*
X128633109Y-68304735D01*
X128632891Y-68554171D01*
X128728145Y-68784703D01*
X128838000Y-68894750D01*
X128838000Y-69953141D01*
X128732526Y-70021012D01*
X128657862Y-70130286D01*
X128631594Y-70260000D01*
X128631594Y-71760000D01*
X128654395Y-71881179D01*
X128678089Y-71918000D01*
X128582811Y-71918000D01*
X128602138Y-71889714D01*
X128628406Y-71760000D01*
X128628406Y-70260000D01*
X128605605Y-70138821D01*
X128533988Y-70027526D01*
X128424714Y-69952862D01*
X128422000Y-69952312D01*
X128422000Y-68444710D01*
X128511235Y-68355631D01*
X128606891Y-68125265D01*
X128607109Y-67875829D01*
X128511855Y-67645297D01*
X128335631Y-67468765D01*
X128105265Y-67373109D01*
X127855829Y-67372891D01*
X127625297Y-67468145D01*
X127448765Y-67644369D01*
X127353109Y-67874735D01*
X127352891Y-68124171D01*
X127448145Y-68354703D01*
X127568000Y-68474767D01*
X127568000Y-69911584D01*
X127563327Y-69900302D01*
X127384699Y-69721673D01*
X127151310Y-69625000D01*
X127010750Y-69625000D01*
X126852000Y-69783750D01*
X126852000Y-70883000D01*
X126872000Y-70883000D01*
X126872000Y-71137000D01*
X126852000Y-71137000D01*
X126852000Y-71157000D01*
X126598000Y-71157000D01*
X126598000Y-71137000D01*
X126578000Y-71137000D01*
X126578000Y-70883000D01*
X126598000Y-70883000D01*
X126598000Y-69783750D01*
X126439250Y-69625000D01*
X126298690Y-69625000D01*
X126267000Y-69638126D01*
X126267000Y-69076870D01*
X127026935Y-68316935D01*
X127119497Y-68178406D01*
X127152001Y-68015000D01*
X127152000Y-68014995D01*
X127152000Y-66894171D01*
X129882891Y-66894171D01*
X129978145Y-67124703D01*
X130154369Y-67301235D01*
X130384735Y-67396891D01*
X130634171Y-67397109D01*
X130864703Y-67301855D01*
X131041235Y-67125631D01*
X131136891Y-66895265D01*
X131136896Y-66889922D01*
X131145301Y-66898327D01*
X131378690Y-66995000D01*
X131519250Y-66995000D01*
X131678000Y-66836250D01*
X131678000Y-65737000D01*
X131658000Y-65737000D01*
X131658000Y-65483000D01*
X131678000Y-65483000D01*
X131678000Y-64383750D01*
X131932000Y-64383750D01*
X131932000Y-65483000D01*
X131952000Y-65483000D01*
X131952000Y-65737000D01*
X131932000Y-65737000D01*
X131932000Y-66836250D01*
X132090750Y-66995000D01*
X132231310Y-66995000D01*
X132464699Y-66898327D01*
X132643327Y-66719698D01*
X132648000Y-66708416D01*
X132648000Y-66944995D01*
X132647999Y-66945000D01*
X132680503Y-67108406D01*
X132773065Y-67246935D01*
X133558063Y-68031932D01*
X133558065Y-68031935D01*
X133691823Y-68121309D01*
X133696594Y-68124497D01*
X133860000Y-68157001D01*
X133860005Y-68157000D01*
X134720368Y-68157000D01*
X134854369Y-68291235D01*
X135084735Y-68386891D01*
X135334171Y-68387109D01*
X135564703Y-68291855D01*
X135741235Y-68115631D01*
X135836891Y-67885265D01*
X135837047Y-67707059D01*
X135894171Y-67707109D01*
X136124703Y-67611855D01*
X136301235Y-67435631D01*
X136396891Y-67205265D01*
X136397109Y-66955829D01*
X136301855Y-66725297D01*
X136158970Y-66582163D01*
X136222138Y-66489714D01*
X136248406Y-66360000D01*
X136248406Y-64860000D01*
X136225605Y-64738821D01*
X136153988Y-64627526D01*
X136044714Y-64552862D01*
X136031080Y-64550101D01*
X136009497Y-64441594D01*
X135916935Y-64303065D01*
X135916932Y-64303063D01*
X135786980Y-64173111D01*
X135787109Y-64025829D01*
X135691855Y-63795297D01*
X135515631Y-63618765D01*
X135285265Y-63523109D01*
X135035829Y-63522891D01*
X134805297Y-63618145D01*
X134628765Y-63794369D01*
X134533109Y-64024735D01*
X134532891Y-64274171D01*
X134628145Y-64504703D01*
X134651264Y-64527863D01*
X134645000Y-64526594D01*
X134045000Y-64526594D01*
X133923821Y-64549395D01*
X133812526Y-64621012D01*
X133737862Y-64730286D01*
X133711594Y-64860000D01*
X133711594Y-66360000D01*
X133734395Y-66481179D01*
X133806012Y-66592474D01*
X133880137Y-66643122D01*
X133808765Y-66714369D01*
X133713109Y-66944735D01*
X133713079Y-66979209D01*
X133502000Y-66768130D01*
X133502000Y-66666859D01*
X133607474Y-66598988D01*
X133682138Y-66489714D01*
X133708406Y-66360000D01*
X133708406Y-64860000D01*
X133685605Y-64738821D01*
X133613988Y-64627526D01*
X133504714Y-64552862D01*
X133375000Y-64526594D01*
X132775000Y-64526594D01*
X132662950Y-64547677D01*
X132643327Y-64500302D01*
X132464699Y-64321673D01*
X132231310Y-64225000D01*
X132090750Y-64225000D01*
X131932000Y-64383750D01*
X131678000Y-64383750D01*
X131519250Y-64225000D01*
X131378690Y-64225000D01*
X131145301Y-64321673D01*
X130966673Y-64500302D01*
X130946435Y-64549160D01*
X130835000Y-64526594D01*
X130235000Y-64526594D01*
X130113821Y-64549395D01*
X130002526Y-64621012D01*
X129927862Y-64730286D01*
X129901594Y-64860000D01*
X129901594Y-66360000D01*
X129924395Y-66481179D01*
X129940579Y-66506330D01*
X129883109Y-66644735D01*
X129882891Y-66894171D01*
X127152000Y-66894171D01*
X127152000Y-66666859D01*
X127257474Y-66598988D01*
X127332138Y-66489714D01*
X127358406Y-66360000D01*
X127358406Y-64860000D01*
X127335605Y-64738821D01*
X127263988Y-64627526D01*
X127154714Y-64552862D01*
X127025000Y-64526594D01*
X126425000Y-64526594D01*
X126303821Y-64549395D01*
X126192526Y-64621012D01*
X126117862Y-64730286D01*
X126091594Y-64860000D01*
X126091594Y-66336327D01*
X125915265Y-66263109D01*
X125665829Y-66262891D01*
X125435297Y-66358145D01*
X125258765Y-66534369D01*
X125163109Y-66764735D01*
X125162979Y-66913151D01*
X124908130Y-67168000D01*
X124398326Y-67168000D01*
X124380605Y-67073821D01*
X124308988Y-66962526D01*
X124199714Y-66887862D01*
X124070000Y-66861594D01*
X123320000Y-66861594D01*
X123198821Y-66884395D01*
X123087526Y-66956012D01*
X123012862Y-67065286D01*
X122986594Y-67195000D01*
X122986594Y-67995000D01*
X123009395Y-68116179D01*
X123019637Y-68132095D01*
X122960301Y-68156673D01*
X122781673Y-68335302D01*
X122685000Y-68568691D01*
X122685000Y-68809250D01*
X122843750Y-68968000D01*
X123568000Y-68968000D01*
X123568000Y-68948000D01*
X123822000Y-68948000D01*
X123822000Y-68968000D01*
X124546250Y-68968000D01*
X124705000Y-68809250D01*
X124705000Y-68568691D01*
X124608327Y-68335302D01*
X124429699Y-68156673D01*
X124371713Y-68132654D01*
X124377138Y-68124714D01*
X124397938Y-68022000D01*
X124798130Y-68022000D01*
X124923000Y-68146870D01*
X124923000Y-70113131D01*
X124473130Y-70563000D01*
X122534578Y-70563000D01*
X122567000Y-70400000D01*
X122567000Y-69380750D01*
X122685000Y-69380750D01*
X122685000Y-69621309D01*
X122781673Y-69854698D01*
X122960301Y-70033327D01*
X123193690Y-70130000D01*
X123409250Y-70130000D01*
X123568000Y-69971250D01*
X123568000Y-69222000D01*
X123822000Y-69222000D01*
X123822000Y-69971250D01*
X123980750Y-70130000D01*
X124196310Y-70130000D01*
X124429699Y-70033327D01*
X124608327Y-69854698D01*
X124705000Y-69621309D01*
X124705000Y-69380750D01*
X124546250Y-69222000D01*
X123822000Y-69222000D01*
X123568000Y-69222000D01*
X122843750Y-69222000D01*
X122685000Y-69380750D01*
X122567000Y-69380750D01*
X122567000Y-66726870D01*
X125451932Y-63841937D01*
X125451935Y-63841935D01*
X125506870Y-63787000D01*
X127617673Y-63787000D01*
X127523109Y-64014735D01*
X127522891Y-64264171D01*
X127568000Y-64373343D01*
X127568000Y-64553141D01*
X127462526Y-64621012D01*
X127387862Y-64730286D01*
X127361594Y-64860000D01*
X127361594Y-66360000D01*
X127384395Y-66481179D01*
X127456012Y-66592474D01*
X127565286Y-66667138D01*
X127695000Y-66693406D01*
X128295000Y-66693406D01*
X128416179Y-66670605D01*
X128527474Y-66598988D01*
X128602138Y-66489714D01*
X128628406Y-66360000D01*
X128628406Y-64860000D01*
X128605605Y-64738821D01*
X128539902Y-64636717D01*
X128681235Y-64495631D01*
X128776891Y-64265265D01*
X128777052Y-64080921D01*
X128838000Y-64141869D01*
X128838000Y-64553141D01*
X128732526Y-64621012D01*
X128657862Y-64730286D01*
X128631594Y-64860000D01*
X128631594Y-66360000D01*
X128654395Y-66481179D01*
X128726012Y-66592474D01*
X128835286Y-66667138D01*
X128965000Y-66693406D01*
X129565000Y-66693406D01*
X129686179Y-66670605D01*
X129797474Y-66598988D01*
X129872138Y-66489714D01*
X129898406Y-66360000D01*
X129898406Y-64860000D01*
X129875605Y-64738821D01*
X129803988Y-64627526D01*
X129694714Y-64552862D01*
X129692000Y-64552312D01*
X129692000Y-64112199D01*
X130420000Y-64257007D01*
X131256931Y-64090531D01*
X131966447Y-63616447D01*
X132440531Y-62906931D01*
X132607007Y-62070000D01*
X132440531Y-61233069D01*
X131966447Y-60523553D01*
X131256931Y-60049469D01*
X130420000Y-59882993D01*
X129583069Y-60049469D01*
X128873553Y-60523553D01*
X128399469Y-61233069D01*
X128232993Y-62070000D01*
X128399469Y-62906931D01*
X128416888Y-62933000D01*
X125330000Y-62933000D01*
X125166594Y-62965503D01*
X125028065Y-63058065D01*
X125028063Y-63058068D01*
X124848065Y-63238065D01*
X124848063Y-63238068D01*
X123867089Y-64219042D01*
X123867109Y-64195829D01*
X123771855Y-63965297D01*
X123595631Y-63788765D01*
X123365265Y-63693109D01*
X123115829Y-63692891D01*
X122885297Y-63788145D01*
X122708765Y-63964369D01*
X122613109Y-64194735D01*
X122612979Y-64343151D01*
X121418065Y-65538065D01*
X121325503Y-65676594D01*
X121292999Y-65840000D01*
X121293000Y-65840005D01*
X121293000Y-69663000D01*
X114087000Y-69663000D01*
X114087000Y-69280770D01*
X114099745Y-69302761D01*
X114119002Y-69317486D01*
X114133727Y-69336743D01*
X114176931Y-69361782D01*
X114216596Y-69392113D01*
X114240023Y-69398348D01*
X114260995Y-69410503D01*
X114310486Y-69417103D01*
X114358745Y-69429948D01*
X114382774Y-69426743D01*
X114406803Y-69429948D01*
X114455062Y-69417103D01*
X114504553Y-69410503D01*
X114525525Y-69398348D01*
X114548952Y-69392113D01*
X114588617Y-69361782D01*
X114631821Y-69336743D01*
X114646546Y-69317486D01*
X114665803Y-69302761D01*
X114690842Y-69259557D01*
X114721173Y-69219892D01*
X114989673Y-68673127D01*
X115273390Y-68143150D01*
X115574894Y-67624341D01*
X115893717Y-67117219D01*
X116229492Y-66622145D01*
X116581797Y-66139545D01*
X116950258Y-65669853D01*
X117334428Y-65213458D01*
X117733908Y-64770851D01*
X118148321Y-64342375D01*
X118577231Y-63928467D01*
X119020234Y-63529533D01*
X119476918Y-63146036D01*
X119946906Y-62778361D01*
X120429719Y-62426944D01*
X120924994Y-62092203D01*
X121432341Y-61774539D01*
X121951334Y-61474361D01*
X122481555Y-61192095D01*
X123022632Y-60928131D01*
X123574111Y-60682927D01*
X124135645Y-60456834D01*
X124706802Y-60250328D01*
X125287186Y-60063812D01*
X125876416Y-59897678D01*
X126474064Y-59752330D01*
X127079757Y-59628192D01*
X127693105Y-59525709D01*
X128313739Y-59445256D01*
X128941225Y-59387284D01*
X129575203Y-59352172D01*
X130216349Y-59340348D01*
X130657216Y-59345944D01*
X130657216Y-59345944D01*
G37*
X130657216Y-59345944D02*
X131096292Y-59362648D01*
X131532568Y-59390308D01*
X131965679Y-59428820D01*
X132395682Y-59478020D01*
X132822332Y-59537780D01*
X133245545Y-59607958D01*
X133665236Y-59688439D01*
X134081218Y-59779072D01*
X134493284Y-59879697D01*
X134901491Y-59990260D01*
X135305597Y-60110532D01*
X135705450Y-60240461D01*
X136100932Y-60379831D01*
X136491965Y-60528578D01*
X136878336Y-60686530D01*
X137259970Y-60853560D01*
X137636679Y-61029572D01*
X138008387Y-61214370D01*
X138374967Y-61407875D01*
X138736227Y-61609873D01*
X139092045Y-61820306D01*
X139442302Y-62039025D01*
X139786847Y-62265884D01*
X140125566Y-62500747D01*
X140458297Y-62743500D01*
X140784957Y-62993977D01*
X141105339Y-63252062D01*
X141419327Y-63517583D01*
X141726865Y-63790503D01*
X142027694Y-64070520D01*
X142321763Y-64357689D01*
X142608880Y-64651734D01*
X142888968Y-64952580D01*
X143161838Y-65260061D01*
X143427381Y-65574075D01*
X143685436Y-65894449D01*
X143935929Y-66221099D01*
X144178656Y-66553866D01*
X144413522Y-66892559D01*
X144640381Y-67237133D01*
X144859102Y-67587393D01*
X145069546Y-67943230D01*
X145271570Y-68304454D01*
X145465068Y-68671021D01*
X145649864Y-69042728D01*
X145825842Y-69419453D01*
X145992884Y-69801117D01*
X146150832Y-70187476D01*
X146299578Y-70578477D01*
X146438986Y-70973985D01*
X146568869Y-71373819D01*
X146689176Y-71777911D01*
X146799699Y-72186079D01*
X146900373Y-72598254D01*
X146990994Y-73014177D01*
X147071448Y-73433851D01*
X147141662Y-73857135D01*
X147201418Y-74283761D01*
X147250613Y-74713719D01*
X147289103Y-75146913D01*
X147316790Y-75583116D01*
X147333494Y-76022193D01*
X147339064Y-76463323D01*
X147324328Y-77333560D01*
X147280571Y-78184152D01*
X147208487Y-79016555D01*
X147108690Y-79831463D01*
X146981865Y-80629623D01*
X146828652Y-81411584D01*
X146649682Y-82178105D01*
X146445568Y-82929861D01*
X146216967Y-83667512D01*
X145964434Y-84391777D01*
X145688597Y-85103249D01*
X145390083Y-85802634D01*
X145069436Y-86490555D01*
X144727286Y-87167674D01*
X144364209Y-87834590D01*
X143980816Y-88491946D01*
X143577690Y-89140410D01*
X143155425Y-89780487D01*
X142714674Y-90412849D01*
X142256009Y-91038056D01*
X141780022Y-91656727D01*
X141287349Y-92269435D01*
X140778622Y-92876830D01*
X140254474Y-93479422D01*
X139715529Y-94077814D01*
X139162381Y-94672609D01*
X138595733Y-95264385D01*
X138016165Y-95853736D01*
X137424368Y-96441235D01*
X136821516Y-97026960D01*
X135581830Y-98198668D01*
X134304218Y-99371770D01*
X132993300Y-100551638D01*
X130291851Y-102951180D01*
X130291340Y-102951854D01*
X130290611Y-102952286D01*
X127901831Y-105093000D01*
X100450061Y-105093000D01*
X99524736Y-104272210D01*
X99523933Y-104271740D01*
X99523368Y-104271003D01*
X98148047Y-103062902D01*
X98148046Y-103062901D01*
X95464909Y-100703864D01*
X94168019Y-99543661D01*
X92907014Y-98389132D01*
X91686019Y-97234474D01*
X91093293Y-96656718D01*
X90512022Y-96076671D01*
X89943261Y-95494167D01*
X89387701Y-94908607D01*
X88845907Y-94319388D01*
X88318448Y-93725792D01*
X87805921Y-93127289D01*
X87308880Y-92523181D01*
X86827888Y-91912814D01*
X86363566Y-91295537D01*
X85916434Y-90670743D01*
X85487056Y-90037755D01*
X85076010Y-89395948D01*
X84683828Y-88744659D01*
X84311053Y-88083143D01*
X83958201Y-87410777D01*
X83625917Y-86726948D01*
X83314646Y-86030820D01*
X83024981Y-85321803D01*
X82757457Y-84599125D01*
X82512657Y-83862155D01*
X82291101Y-83110040D01*
X82093415Y-82342227D01*
X81920155Y-81557848D01*
X81771851Y-80756204D01*
X81649168Y-79936626D01*
X81552672Y-79098307D01*
X81482980Y-78240650D01*
X81440731Y-77362807D01*
X81426482Y-76463541D01*
X81432084Y-76022192D01*
X81448790Y-75583082D01*
X81476445Y-75146905D01*
X81514960Y-74713759D01*
X81564160Y-74283756D01*
X81587096Y-74120000D01*
X82967982Y-74120000D01*
X82986594Y-74213569D01*
X82986594Y-75320000D01*
X83009395Y-75441179D01*
X83081012Y-75552474D01*
X83143367Y-75595079D01*
X83087526Y-75631012D01*
X83012862Y-75740286D01*
X82986594Y-75870000D01*
X82986594Y-77370000D01*
X83009395Y-77491179D01*
X83081012Y-77602474D01*
X83105681Y-77619330D01*
X83087526Y-77631012D01*
X83012862Y-77740286D01*
X82986594Y-77870000D01*
X82986594Y-79370000D01*
X83009395Y-79491179D01*
X83081012Y-79602474D01*
X83143367Y-79645079D01*
X83087526Y-79681012D01*
X83012862Y-79790286D01*
X82986594Y-79920000D01*
X82986594Y-81026431D01*
X82967982Y-81120000D01*
X83038546Y-81474748D01*
X83239494Y-81775488D01*
X83540234Y-81976436D01*
X83894982Y-82047000D01*
X84645018Y-82047000D01*
X84999766Y-81976436D01*
X85300506Y-81775488D01*
X85501454Y-81474748D01*
X85572018Y-81120000D01*
X85553406Y-81026431D01*
X85553406Y-79920000D01*
X85530605Y-79798821D01*
X85458988Y-79687526D01*
X85396633Y-79644921D01*
X85452474Y-79608988D01*
X85527138Y-79499714D01*
X85553406Y-79370000D01*
X85553406Y-77870000D01*
X85530605Y-77748821D01*
X85458988Y-77637526D01*
X85434319Y-77620670D01*
X85452474Y-77608988D01*
X85527138Y-77499714D01*
X85553406Y-77370000D01*
X85553406Y-75870000D01*
X85530605Y-75748821D01*
X85458988Y-75637526D01*
X85396633Y-75594921D01*
X85452474Y-75558988D01*
X85527138Y-75449714D01*
X85553406Y-75320000D01*
X85553406Y-74213569D01*
X85572018Y-74120000D01*
X85501454Y-73765252D01*
X85300506Y-73464512D01*
X84999766Y-73263564D01*
X84645018Y-73193000D01*
X83894982Y-73193000D01*
X83540234Y-73263564D01*
X83239494Y-73464512D01*
X83038546Y-73765252D01*
X82967982Y-74120000D01*
X81587096Y-74120000D01*
X81623918Y-73857117D01*
X81694099Y-73433856D01*
X81774579Y-73014198D01*
X81865209Y-72598237D01*
X81965851Y-72186069D01*
X82076362Y-71777948D01*
X82196679Y-71373818D01*
X82326562Y-70973985D01*
X82465970Y-70578477D01*
X82608049Y-70205000D01*
X83676594Y-70205000D01*
X83676594Y-70955000D01*
X83699395Y-71076179D01*
X83771012Y-71187474D01*
X83880286Y-71262138D01*
X83914148Y-71268995D01*
X83908765Y-71274369D01*
X83813109Y-71504735D01*
X83812891Y-71754171D01*
X83908145Y-71984703D01*
X84084369Y-72161235D01*
X84314735Y-72256891D01*
X84564171Y-72257109D01*
X84794703Y-72161855D01*
X84971235Y-71985631D01*
X85066891Y-71755265D01*
X85067109Y-71505829D01*
X84999727Y-71342753D01*
X85150302Y-71493327D01*
X85383691Y-71590000D01*
X85624250Y-71590000D01*
X85783000Y-71431250D01*
X85783000Y-70707000D01*
X86037000Y-70707000D01*
X86037000Y-71431250D01*
X86195750Y-71590000D01*
X86436309Y-71590000D01*
X86669698Y-71493327D01*
X86848327Y-71314699D01*
X86945000Y-71081310D01*
X86945000Y-70865750D01*
X86786250Y-70707000D01*
X86037000Y-70707000D01*
X85783000Y-70707000D01*
X85763000Y-70707000D01*
X85763000Y-70453000D01*
X85783000Y-70453000D01*
X85783000Y-69728750D01*
X86037000Y-69728750D01*
X86037000Y-70453000D01*
X86786250Y-70453000D01*
X86945000Y-70294250D01*
X86945000Y-70078690D01*
X86848327Y-69845301D01*
X86669698Y-69666673D01*
X86436309Y-69570000D01*
X86195750Y-69570000D01*
X86037000Y-69728750D01*
X85783000Y-69728750D01*
X85632046Y-69577796D01*
X86114363Y-69378507D01*
X86487979Y-69005542D01*
X86690429Y-68517991D01*
X86690889Y-67990078D01*
X86489817Y-67503445D01*
X86493371Y-67506210D01*
X86997961Y-67665306D01*
X87245072Y-67524303D01*
X87137821Y-66298414D01*
X87226459Y-66209776D01*
X87148158Y-66131475D01*
X87378186Y-66131475D01*
X87498105Y-67502165D01*
X87765947Y-67598116D01*
X88331397Y-67276645D01*
X88730783Y-66763256D01*
X88889879Y-66258666D01*
X88748876Y-66011555D01*
X87378186Y-66131475D01*
X87148158Y-66131475D01*
X87046851Y-66030168D01*
X86904063Y-66172956D01*
X85754462Y-66273532D01*
X85658511Y-66541374D01*
X85954022Y-67061162D01*
X85628775Y-66926107D01*
X85100862Y-66925647D01*
X84612957Y-67127245D01*
X84239341Y-67500210D01*
X84036891Y-67987761D01*
X84036431Y-68515674D01*
X84171091Y-68841575D01*
X84108065Y-68904601D01*
X84015503Y-69043130D01*
X83982999Y-69206536D01*
X83983000Y-69206541D01*
X83983000Y-69876674D01*
X83888821Y-69894395D01*
X83777526Y-69966012D01*
X83702862Y-70075286D01*
X83676594Y-70205000D01*
X82608049Y-70205000D01*
X82614716Y-70187476D01*
X82772670Y-69801102D01*
X82939706Y-69419453D01*
X83115687Y-69042720D01*
X83300510Y-68671020D01*
X83493982Y-68304447D01*
X83696020Y-67943199D01*
X83906446Y-67587393D01*
X84125167Y-67237133D01*
X84352026Y-66892559D01*
X84586892Y-66553866D01*
X84829612Y-66221109D01*
X85080140Y-65894451D01*
X85177642Y-65773388D01*
X85591321Y-65773388D01*
X85732324Y-66020499D01*
X87103014Y-65900579D01*
X86983095Y-64529889D01*
X86921298Y-64507751D01*
X87236128Y-64507751D01*
X87356048Y-65878441D01*
X88726738Y-65758522D01*
X88822689Y-65490680D01*
X88501218Y-64925230D01*
X88430223Y-64870000D01*
X92431594Y-64870000D01*
X92431594Y-66370000D01*
X92454395Y-66491179D01*
X92526012Y-66602474D01*
X92635286Y-66677138D01*
X92765000Y-66703406D01*
X93365000Y-66703406D01*
X93486179Y-66680605D01*
X93597474Y-66608988D01*
X93672138Y-66499714D01*
X93698406Y-66370000D01*
X93698406Y-64870000D01*
X93675605Y-64748821D01*
X93603988Y-64637526D01*
X93494714Y-64562862D01*
X93365000Y-64536594D01*
X92765000Y-64536594D01*
X92643821Y-64559395D01*
X92532526Y-64631012D01*
X92457862Y-64740286D01*
X92431594Y-64870000D01*
X88430223Y-64870000D01*
X87987829Y-64525844D01*
X87483239Y-64366748D01*
X87236128Y-64507751D01*
X86921298Y-64507751D01*
X86715253Y-64433938D01*
X86149803Y-64755409D01*
X85750417Y-65268798D01*
X85591321Y-65773388D01*
X85177642Y-65773388D01*
X85338176Y-65574064D01*
X85603740Y-65260062D01*
X85876599Y-64952559D01*
X86156689Y-64651713D01*
X86443805Y-64357669D01*
X86737854Y-64070520D01*
X87038683Y-63790503D01*
X87346201Y-63517600D01*
X87660209Y-63252062D01*
X87980591Y-62993977D01*
X88307258Y-62743494D01*
X88639998Y-62500757D01*
X88978699Y-62265886D01*
X89323273Y-62039027D01*
X89673533Y-61820306D01*
X90029335Y-61609883D01*
X90390592Y-61407869D01*
X90757161Y-61214370D01*
X91128869Y-61029573D01*
X91505606Y-60853561D01*
X91887230Y-60686523D01*
X92273583Y-60528578D01*
X92664616Y-60379831D01*
X93060079Y-60240468D01*
X93459993Y-60110529D01*
X93864059Y-59990260D01*
X94272241Y-59879703D01*
X94684377Y-59779069D01*
X95100337Y-59688439D01*
X95519989Y-59607961D01*
X95943257Y-59537778D01*
X96369889Y-59478022D01*
X96799884Y-59428819D01*
X97232977Y-59390309D01*
X97669254Y-59362648D01*
X98108333Y-59345944D01*
X98549199Y-59340348D01*
X99190376Y-59352172D01*
X99824345Y-59387283D01*
X100451809Y-59445257D01*
X101072443Y-59525709D01*
X101685791Y-59628192D01*
X102291490Y-59752332D01*
X102889145Y-59897681D01*
X103478383Y-60063809D01*
X104058766Y-60250335D01*
X104629903Y-60456834D01*
X105191419Y-60682920D01*
X105742957Y-60928136D01*
X106283997Y-61192097D01*
X106814236Y-61474357D01*
X107333217Y-61774544D01*
X107840567Y-62092211D01*
X108335843Y-62426955D01*
X108818697Y-62778380D01*
X109288640Y-63146045D01*
X109745314Y-63529533D01*
X110188301Y-63928453D01*
X110617228Y-64342376D01*
X111031639Y-64770850D01*
X111431132Y-65213473D01*
X111815290Y-65669853D01*
X112183751Y-66139545D01*
X112536066Y-66622158D01*
X112871833Y-67117221D01*
X113190687Y-67624347D01*
X113492152Y-68143140D01*
X113670892Y-68477023D01*
X113091935Y-67898065D01*
X112953406Y-67805503D01*
X112790000Y-67772999D01*
X112789995Y-67773000D01*
X107116869Y-67773000D01*
X105651935Y-66308065D01*
X105513406Y-66215503D01*
X105350000Y-66182999D01*
X105349995Y-66183000D01*
X103596869Y-66183000D01*
X102731935Y-65318065D01*
X102593406Y-65225503D01*
X102588406Y-65224508D01*
X102588406Y-64870000D01*
X102565605Y-64748821D01*
X102493988Y-64637526D01*
X102384714Y-64562862D01*
X102382000Y-64562312D01*
X102382000Y-64385005D01*
X102382001Y-64385000D01*
X102349497Y-64221594D01*
X102256935Y-64083065D01*
X102111935Y-63938065D01*
X101973406Y-63845503D01*
X101810000Y-63812999D01*
X101809995Y-63813000D01*
X99644229Y-63813000D01*
X100000169Y-63575169D01*
X100461598Y-62884591D01*
X100623630Y-62070000D01*
X100461598Y-61255409D01*
X100000169Y-60564831D01*
X99309591Y-60103402D01*
X98495000Y-59941370D01*
X97680409Y-60103402D01*
X96989831Y-60564831D01*
X96528402Y-61255409D01*
X96366370Y-62070000D01*
X96528402Y-62884591D01*
X96989831Y-63575169D01*
X97345771Y-63813000D01*
X94510000Y-63813000D01*
X94346594Y-63845503D01*
X94208065Y-63938065D01*
X94208063Y-63938068D01*
X94033065Y-64113065D01*
X93940503Y-64251594D01*
X93907999Y-64415000D01*
X93908000Y-64415005D01*
X93908000Y-64563141D01*
X93802526Y-64631012D01*
X93727862Y-64740286D01*
X93701594Y-64870000D01*
X93701594Y-66370000D01*
X93724395Y-66491179D01*
X93796012Y-66602474D01*
X93882021Y-66661241D01*
X93808765Y-66734369D01*
X93713109Y-66964735D01*
X93712891Y-67214171D01*
X93808145Y-67444703D01*
X93984369Y-67621235D01*
X94214735Y-67716891D01*
X94464171Y-67717109D01*
X94694703Y-67621855D01*
X94871235Y-67445631D01*
X94966891Y-67215265D01*
X94967109Y-66965829D01*
X94871855Y-66735297D01*
X94793369Y-66656674D01*
X94867474Y-66608988D01*
X94942138Y-66499714D01*
X94968406Y-66370000D01*
X94968406Y-64870000D01*
X94945605Y-64748821D01*
X94892954Y-64667000D01*
X95047936Y-64667000D01*
X94997862Y-64740286D01*
X94971594Y-64870000D01*
X94971594Y-66370000D01*
X94994395Y-66491179D01*
X95066012Y-66602474D01*
X95093000Y-66620914D01*
X95093000Y-67330316D01*
X94988765Y-67434369D01*
X94893109Y-67664735D01*
X94892979Y-67813151D01*
X94823130Y-67883000D01*
X93532917Y-67883000D01*
X93556891Y-67825265D01*
X93557109Y-67575829D01*
X93461855Y-67345297D01*
X93285631Y-67168765D01*
X93055265Y-67073109D01*
X92805829Y-67072891D01*
X92575297Y-67168145D01*
X92530364Y-67213000D01*
X91849684Y-67213000D01*
X91745631Y-67108765D01*
X91515265Y-67013109D01*
X91265829Y-67012891D01*
X91035297Y-67108145D01*
X90858765Y-67284369D01*
X90763109Y-67514735D01*
X90762891Y-67764171D01*
X90858145Y-67994703D01*
X91034369Y-68171235D01*
X91264735Y-68266891D01*
X91514171Y-68267109D01*
X91726933Y-68179197D01*
X91648065Y-68258065D01*
X91555503Y-68396594D01*
X91522999Y-68560000D01*
X91523000Y-68560005D01*
X91523000Y-70863130D01*
X91183130Y-71203000D01*
X89350000Y-71203000D01*
X89186594Y-71235503D01*
X89048065Y-71328065D01*
X89048063Y-71328068D01*
X88878065Y-71498065D01*
X88785503Y-71636594D01*
X88752999Y-71800000D01*
X88753000Y-71800005D01*
X88753000Y-89649130D01*
X88497000Y-89393130D01*
X88497000Y-79390000D01*
X88464497Y-79226594D01*
X88371935Y-79088065D01*
X88371932Y-79088063D01*
X87972504Y-78688634D01*
X87955605Y-78598821D01*
X87953105Y-78594937D01*
X87978406Y-78470000D01*
X87978406Y-78070000D01*
X87955605Y-77948821D01*
X87953105Y-77944937D01*
X87978406Y-77820000D01*
X87978406Y-77719218D01*
X88004699Y-77708327D01*
X88183327Y-77529698D01*
X88280000Y-77296309D01*
X88280000Y-77228750D01*
X88121250Y-77070000D01*
X87976518Y-77070000D01*
X88004699Y-77058327D01*
X88183327Y-76879698D01*
X88234080Y-76757170D01*
X88280000Y-76711250D01*
X88280000Y-76578750D01*
X88234080Y-76532830D01*
X88183327Y-76410302D01*
X88004699Y-76231673D01*
X87976518Y-76220000D01*
X88121250Y-76220000D01*
X88280000Y-76061250D01*
X88280000Y-75993691D01*
X88183327Y-75760302D01*
X88004699Y-75581673D01*
X87930199Y-75550814D01*
X88021817Y-75330174D01*
X88022182Y-74911662D01*
X87862362Y-74524868D01*
X87566688Y-74228678D01*
X87180174Y-74068183D01*
X86761662Y-74067818D01*
X86374868Y-74227638D01*
X86078678Y-74523312D01*
X85918183Y-74909826D01*
X85917818Y-75328338D01*
X86009752Y-75550834D01*
X85935301Y-75581673D01*
X85756673Y-75760302D01*
X85660000Y-75993691D01*
X85660000Y-76061250D01*
X85818750Y-76220000D01*
X85963482Y-76220000D01*
X85935301Y-76231673D01*
X85756673Y-76410302D01*
X85705920Y-76532830D01*
X85660000Y-76578750D01*
X85660000Y-76711250D01*
X85705920Y-76757170D01*
X85756673Y-76879698D01*
X85935301Y-77058327D01*
X85963482Y-77070000D01*
X85818750Y-77070000D01*
X85660000Y-77228750D01*
X85660000Y-77296309D01*
X85756673Y-77529698D01*
X85935301Y-77708327D01*
X85961594Y-77719218D01*
X85961594Y-77820000D01*
X85984395Y-77941179D01*
X85986895Y-77945063D01*
X85961594Y-78070000D01*
X85961594Y-78470000D01*
X85984395Y-78591179D01*
X85986895Y-78595063D01*
X85961594Y-78720000D01*
X85961594Y-79120000D01*
X85984395Y-79241179D01*
X86056012Y-79352474D01*
X86165286Y-79427138D01*
X86173378Y-79428777D01*
X86078678Y-79523312D01*
X85918183Y-79909826D01*
X85917818Y-80328338D01*
X86077638Y-80715132D01*
X86373312Y-81011322D01*
X86759826Y-81171817D01*
X87178338Y-81172182D01*
X87565132Y-81012362D01*
X87643000Y-80934630D01*
X87643000Y-89569995D01*
X87642999Y-89570000D01*
X87675503Y-89733406D01*
X87768065Y-89871935D01*
X89423020Y-91526889D01*
X89422891Y-91674171D01*
X89518145Y-91904703D01*
X89623000Y-92009741D01*
X89623000Y-93030281D01*
X89538765Y-93114369D01*
X89443109Y-93344735D01*
X89442891Y-93594171D01*
X89538145Y-93824703D01*
X89714369Y-94001235D01*
X89944735Y-94096891D01*
X90194171Y-94097109D01*
X90424703Y-94001855D01*
X90601235Y-93825631D01*
X90696891Y-93595265D01*
X90697109Y-93345829D01*
X90601855Y-93115297D01*
X90477000Y-92990224D01*
X90477000Y-92009684D01*
X90581235Y-91905631D01*
X90676891Y-91675265D01*
X90677109Y-91425829D01*
X90581855Y-91195297D01*
X90523660Y-91137000D01*
X91283435Y-91137000D01*
X91212862Y-91240286D01*
X91186594Y-91370000D01*
X91186594Y-93370000D01*
X91209395Y-93491179D01*
X91281012Y-93602474D01*
X91343000Y-93644829D01*
X91343000Y-95799995D01*
X91342999Y-95800000D01*
X91375503Y-95963406D01*
X91468065Y-96101935D01*
X92098063Y-96731932D01*
X92098065Y-96731935D01*
X92179868Y-96786594D01*
X92236594Y-96824497D01*
X92400000Y-96857001D01*
X92400005Y-96857000D01*
X96183130Y-96857000D01*
X96333000Y-97006869D01*
X96333000Y-98379995D01*
X96332999Y-98380000D01*
X96365503Y-98543406D01*
X96458065Y-98681935D01*
X98578063Y-100801932D01*
X98578065Y-100801935D01*
X98626798Y-100834497D01*
X98716594Y-100894497D01*
X98880000Y-100927001D01*
X98880005Y-100927000D01*
X103969995Y-100927000D01*
X103970000Y-100927001D01*
X104133406Y-100894497D01*
X104271935Y-100801935D01*
X104331932Y-100741937D01*
X104331935Y-100741935D01*
X104424497Y-100603406D01*
X104428691Y-100582321D01*
X104457001Y-100440000D01*
X104457000Y-100439995D01*
X104457000Y-100405579D01*
X104528065Y-100511935D01*
X108038063Y-104021932D01*
X108038065Y-104021935D01*
X108176594Y-104114497D01*
X108340000Y-104147001D01*
X108340005Y-104147000D01*
X119619995Y-104147000D01*
X119620000Y-104147001D01*
X119783406Y-104114497D01*
X119921935Y-104021935D01*
X120886869Y-103057000D01*
X129499995Y-103057000D01*
X129500000Y-103057001D01*
X129663406Y-103024497D01*
X129801935Y-102931935D01*
X130721932Y-102011937D01*
X130721935Y-102011935D01*
X130814497Y-101873406D01*
X130847000Y-101710000D01*
X130847000Y-99410005D01*
X130847001Y-99410000D01*
X130814497Y-99246594D01*
X130721935Y-99108065D01*
X130351935Y-98738065D01*
X130213406Y-98645503D01*
X130050000Y-98612999D01*
X130049995Y-98613000D01*
X128510000Y-98613000D01*
X128346594Y-98645503D01*
X128208065Y-98738065D01*
X128208063Y-98738068D01*
X128028065Y-98918065D01*
X127935503Y-99056594D01*
X127902999Y-99220000D01*
X127903000Y-99220005D01*
X127903000Y-99313141D01*
X127797526Y-99381012D01*
X127722862Y-99490286D01*
X127696594Y-99620000D01*
X127696594Y-101620000D01*
X127719395Y-101741179D01*
X127746306Y-101783000D01*
X127644395Y-101783000D01*
X127667138Y-101749714D01*
X127693406Y-101620000D01*
X127693406Y-99620000D01*
X127670605Y-99498821D01*
X127598988Y-99387526D01*
X127489714Y-99312862D01*
X127360000Y-99286594D01*
X127220463Y-99286594D01*
X126831935Y-98898065D01*
X126693406Y-98805503D01*
X126530000Y-98772999D01*
X126529995Y-98773000D01*
X125636869Y-98773000D01*
X123552674Y-96688804D01*
X123714703Y-96621855D01*
X123891235Y-96445631D01*
X123986891Y-96215265D01*
X123987109Y-95965829D01*
X123891855Y-95735297D01*
X123715631Y-95558765D01*
X123485265Y-95463109D01*
X123235829Y-95462891D01*
X123005297Y-95558145D01*
X122900259Y-95663000D01*
X119877000Y-95663000D01*
X119877000Y-95540000D01*
X119844497Y-95376594D01*
X119751935Y-95238065D01*
X119751932Y-95238063D01*
X118858055Y-94344185D01*
X118984703Y-94291855D01*
X119161235Y-94115631D01*
X119256891Y-93885265D01*
X119257109Y-93635829D01*
X119161855Y-93405297D01*
X118985631Y-93228765D01*
X118755265Y-93133109D01*
X118606849Y-93132979D01*
X118521933Y-93048063D01*
X118383404Y-92955501D01*
X118219998Y-92922997D01*
X118219993Y-92922998D01*
X114569848Y-92922998D01*
X114569848Y-92752848D01*
X114537345Y-92589442D01*
X114444783Y-92450913D01*
X114444780Y-92450911D01*
X112321933Y-90328063D01*
X112183404Y-90235501D01*
X112105477Y-90220000D01*
X118806594Y-90220000D01*
X118806594Y-92220000D01*
X118829395Y-92341179D01*
X118901012Y-92452474D01*
X119010286Y-92527138D01*
X119140000Y-92553406D01*
X119740000Y-92553406D01*
X119861179Y-92530605D01*
X119972474Y-92458988D01*
X120047138Y-92349714D01*
X120073406Y-92220000D01*
X120073406Y-90220000D01*
X120050605Y-90098821D01*
X119978988Y-89987526D01*
X119869714Y-89912862D01*
X119867000Y-89912312D01*
X119867000Y-89419684D01*
X119971235Y-89315631D01*
X120066891Y-89085265D01*
X120067109Y-88835829D01*
X119971855Y-88605297D01*
X119795631Y-88428765D01*
X119565265Y-88333109D01*
X119315829Y-88332891D01*
X119085297Y-88428145D01*
X118908765Y-88604369D01*
X118813109Y-88834735D01*
X118812891Y-89084171D01*
X118908145Y-89314703D01*
X119013000Y-89419741D01*
X119013000Y-89913141D01*
X118907526Y-89981012D01*
X118832862Y-90090286D01*
X118806594Y-90220000D01*
X112105477Y-90220000D01*
X112019998Y-90202997D01*
X112019993Y-90202998D01*
X110826868Y-90202998D01*
X110577000Y-89953130D01*
X110577000Y-89200000D01*
X110574417Y-89187013D01*
X110684171Y-89187109D01*
X110914703Y-89091855D01*
X111091235Y-88915631D01*
X111186891Y-88685265D01*
X111187109Y-88435829D01*
X111121482Y-88277000D01*
X111710316Y-88277000D01*
X111814369Y-88381235D01*
X112044735Y-88476891D01*
X112294171Y-88477109D01*
X112524703Y-88381855D01*
X112701235Y-88205631D01*
X112796891Y-87975265D01*
X112797109Y-87725829D01*
X112701855Y-87495297D01*
X112525631Y-87318765D01*
X112295265Y-87223109D01*
X112045829Y-87222891D01*
X111815297Y-87318145D01*
X111710259Y-87423000D01*
X105380000Y-87423000D01*
X105375381Y-87423919D01*
X105325265Y-87403109D01*
X105075829Y-87402891D01*
X104845297Y-87498145D01*
X104668765Y-87674369D01*
X104573109Y-87904735D01*
X104573061Y-87959192D01*
X104291935Y-87678065D01*
X104153406Y-87585503D01*
X103990000Y-87552999D01*
X103989995Y-87553000D01*
X100690000Y-87553000D01*
X100526594Y-87585503D01*
X100388065Y-87678065D01*
X100388063Y-87678068D01*
X100202906Y-87863224D01*
X100202906Y-87249880D01*
X100180105Y-87128701D01*
X100108488Y-87017406D01*
X99999214Y-86942742D01*
X99869500Y-86916474D01*
X98868740Y-86916474D01*
X98747561Y-86939275D01*
X98636266Y-87010892D01*
X98561602Y-87120166D01*
X98535334Y-87249880D01*
X98535334Y-88250640D01*
X98558135Y-88371819D01*
X98629752Y-88483114D01*
X98739026Y-88557778D01*
X98868740Y-88584046D01*
X99869500Y-88584046D01*
X99990679Y-88561245D01*
X100023000Y-88540447D01*
X100023000Y-89183131D01*
X98683130Y-90523000D01*
X97680000Y-90523000D01*
X97516594Y-90555503D01*
X97378065Y-90648065D01*
X97378063Y-90648068D01*
X96828065Y-91198065D01*
X96735503Y-91336594D01*
X96702999Y-91500000D01*
X96703000Y-91500005D01*
X96703000Y-92270316D01*
X96598765Y-92374369D01*
X96503109Y-92604735D01*
X96502891Y-92854171D01*
X96598145Y-93084703D01*
X96774369Y-93261235D01*
X97004735Y-93356891D01*
X97254171Y-93357109D01*
X97484703Y-93261855D01*
X97661235Y-93085631D01*
X97756891Y-92855265D01*
X97757109Y-92605829D01*
X97661855Y-92375297D01*
X97557000Y-92270259D01*
X97557000Y-91676870D01*
X97856869Y-91377000D01*
X98859995Y-91377000D01*
X98860000Y-91377001D01*
X99000263Y-91349100D01*
X98974623Y-91387474D01*
X98942119Y-91550880D01*
X98942120Y-91550885D01*
X98942120Y-92915954D01*
X98868740Y-92915954D01*
X98747561Y-92938755D01*
X98636266Y-93010372D01*
X98561602Y-93119646D01*
X98535334Y-93249360D01*
X98535334Y-93322740D01*
X97680260Y-93322740D01*
X97516854Y-93355243D01*
X97378325Y-93447805D01*
X96486550Y-94339580D01*
X96504666Y-94250120D01*
X96504666Y-93249360D01*
X96481865Y-93128181D01*
X96410248Y-93016886D01*
X96300974Y-92942222D01*
X96171260Y-92915954D01*
X95170500Y-92915954D01*
X95067000Y-92935429D01*
X95067000Y-89940005D01*
X95067001Y-89940000D01*
X95034497Y-89776594D01*
X94999687Y-89724497D01*
X94941935Y-89638065D01*
X94941932Y-89638063D01*
X94353406Y-89049536D01*
X94353406Y-88070000D01*
X94347011Y-88036010D01*
X94535500Y-88036010D01*
X94535500Y-88376949D01*
X94632173Y-88610338D01*
X94810801Y-88788967D01*
X95044190Y-88885640D01*
X95385130Y-88885640D01*
X95543880Y-88726890D01*
X95543880Y-87877260D01*
X95797880Y-87877260D01*
X95797880Y-88726890D01*
X95956630Y-88885640D01*
X96297570Y-88885640D01*
X96530959Y-88788967D01*
X96709587Y-88610338D01*
X96806260Y-88376949D01*
X96806260Y-88036010D01*
X96647510Y-87877260D01*
X95797880Y-87877260D01*
X95543880Y-87877260D01*
X94694250Y-87877260D01*
X94535500Y-88036010D01*
X94347011Y-88036010D01*
X94330605Y-87948821D01*
X94258988Y-87837526D01*
X94149714Y-87762862D01*
X94020000Y-87736594D01*
X93569218Y-87736594D01*
X93558327Y-87710302D01*
X93379699Y-87531673D01*
X93146310Y-87435000D01*
X93053750Y-87435000D01*
X92895000Y-87593750D01*
X92895000Y-88943000D01*
X92917000Y-88943000D01*
X92917000Y-89197000D01*
X92895000Y-89197000D01*
X92895000Y-89217000D01*
X92645000Y-89217000D01*
X92645000Y-89197000D01*
X92623000Y-89197000D01*
X92623000Y-88943000D01*
X92645000Y-88943000D01*
X92645000Y-87593750D01*
X92486250Y-87435000D01*
X92393690Y-87435000D01*
X92160301Y-87531673D01*
X91981673Y-87710302D01*
X91970782Y-87736594D01*
X91520000Y-87736594D01*
X91398821Y-87759395D01*
X91287526Y-87831012D01*
X91212862Y-87940286D01*
X91205156Y-87978341D01*
X91175631Y-87948765D01*
X90945265Y-87853109D01*
X90695829Y-87852891D01*
X90465297Y-87948145D01*
X90288765Y-88124369D01*
X90193109Y-88354735D01*
X90192891Y-88604171D01*
X90288145Y-88834703D01*
X90464369Y-89011235D01*
X90694735Y-89106891D01*
X90843151Y-89107021D01*
X91108065Y-89371935D01*
X91186594Y-89424406D01*
X91186594Y-90070000D01*
X91209395Y-90191179D01*
X91268481Y-90283000D01*
X90136869Y-90283000D01*
X89607000Y-89753130D01*
X89607000Y-87123571D01*
X94535500Y-87123571D01*
X94535500Y-87464510D01*
X94694250Y-87623260D01*
X95543880Y-87623260D01*
X95543880Y-86773630D01*
X95797880Y-86773630D01*
X95797880Y-87623260D01*
X96647510Y-87623260D01*
X96806260Y-87464510D01*
X96806260Y-87123571D01*
X96709587Y-86890182D01*
X96530959Y-86711553D01*
X96297570Y-86614880D01*
X95956630Y-86614880D01*
X95797880Y-86773630D01*
X95543880Y-86773630D01*
X95385130Y-86614880D01*
X95044190Y-86614880D01*
X94810801Y-86711553D01*
X94632173Y-86890182D01*
X94535500Y-87123571D01*
X89607000Y-87123571D01*
X89607000Y-86360460D01*
X89694735Y-86396891D01*
X89944171Y-86397109D01*
X90174703Y-86301855D01*
X90254698Y-86222000D01*
X92535272Y-86222000D01*
X92614369Y-86301235D01*
X92844735Y-86396891D01*
X93094171Y-86397109D01*
X93324703Y-86301855D01*
X93404698Y-86222000D01*
X95685272Y-86222000D01*
X95764369Y-86301235D01*
X95994735Y-86396891D01*
X96244171Y-86397109D01*
X96474703Y-86301855D01*
X96554698Y-86222000D01*
X98835272Y-86222000D01*
X98914369Y-86301235D01*
X99144735Y-86396891D01*
X99394171Y-86397109D01*
X99624703Y-86301855D01*
X99704698Y-86222000D01*
X101985272Y-86222000D01*
X102064369Y-86301235D01*
X102294735Y-86396891D01*
X102544171Y-86397109D01*
X102774703Y-86301855D01*
X102854698Y-86222000D01*
X105135272Y-86222000D01*
X105214369Y-86301235D01*
X105444735Y-86396891D01*
X105694171Y-86397109D01*
X105924703Y-86301855D01*
X106004698Y-86222000D01*
X108310272Y-86222000D01*
X108389369Y-86301235D01*
X108619735Y-86396891D01*
X108869171Y-86397109D01*
X109099703Y-86301855D01*
X109179698Y-86222000D01*
X111460272Y-86222000D01*
X111539369Y-86301235D01*
X111769735Y-86396891D01*
X112019171Y-86397109D01*
X112249703Y-86301855D01*
X112329698Y-86222000D01*
X114635272Y-86222000D01*
X114714369Y-86301235D01*
X114944735Y-86396891D01*
X115194171Y-86397109D01*
X115424703Y-86301855D01*
X115504698Y-86222000D01*
X117785272Y-86222000D01*
X117864369Y-86301235D01*
X118094735Y-86396891D01*
X118344171Y-86397109D01*
X118574703Y-86301855D01*
X118654698Y-86222000D01*
X120985272Y-86222000D01*
X120993000Y-86229741D01*
X120993000Y-86423131D01*
X120408065Y-87008065D01*
X120315503Y-87146594D01*
X120282999Y-87310000D01*
X120283000Y-87310005D01*
X120283000Y-89913141D01*
X120177526Y-89981012D01*
X120102862Y-90090286D01*
X120076594Y-90220000D01*
X120076594Y-92220000D01*
X120099395Y-92341179D01*
X120171012Y-92452474D01*
X120280286Y-92527138D01*
X120410000Y-92553406D01*
X121010000Y-92553406D01*
X121131179Y-92530605D01*
X121242474Y-92458988D01*
X121317138Y-92349714D01*
X121343406Y-92220000D01*
X121343406Y-90220000D01*
X121320605Y-90098821D01*
X121248988Y-89987526D01*
X121139714Y-89912862D01*
X121137000Y-89912312D01*
X121137000Y-87486870D01*
X121721932Y-86901937D01*
X121721935Y-86901935D01*
X121814497Y-86763406D01*
X121820660Y-86732424D01*
X121847001Y-86600000D01*
X121847000Y-86599995D01*
X121847000Y-86229684D01*
X121854698Y-86222000D01*
X122534131Y-86222000D01*
X121678065Y-87078065D01*
X121585503Y-87216594D01*
X121552999Y-87380000D01*
X121553000Y-87380005D01*
X121553000Y-89913141D01*
X121447526Y-89981012D01*
X121372862Y-90090286D01*
X121346594Y-90220000D01*
X121346594Y-92220000D01*
X121369395Y-92341179D01*
X121441012Y-92452474D01*
X121550286Y-92527138D01*
X121680000Y-92553406D01*
X122280000Y-92553406D01*
X122401179Y-92530605D01*
X122512474Y-92458988D01*
X122587138Y-92349714D01*
X122613406Y-92220000D01*
X122613406Y-90220000D01*
X122590605Y-90098821D01*
X122518988Y-89987526D01*
X122409714Y-89912862D01*
X122407000Y-89912312D01*
X122407000Y-87556870D01*
X123016869Y-86947000D01*
X123089130Y-86947000D01*
X122948065Y-87088065D01*
X122855503Y-87226594D01*
X122822999Y-87390000D01*
X122823000Y-87390005D01*
X122823000Y-89913141D01*
X122717526Y-89981012D01*
X122642862Y-90090286D01*
X122616594Y-90220000D01*
X122616594Y-92220000D01*
X122639395Y-92341179D01*
X122711012Y-92452474D01*
X122820286Y-92527138D01*
X122950000Y-92553406D01*
X123550000Y-92553406D01*
X123671179Y-92530605D01*
X123782474Y-92458988D01*
X123857138Y-92349714D01*
X123883406Y-92220000D01*
X123883406Y-90220000D01*
X123860605Y-90098821D01*
X123788988Y-89987526D01*
X123679714Y-89912862D01*
X123677000Y-89912312D01*
X123677000Y-87566870D01*
X123896867Y-87347002D01*
X124198733Y-87347002D01*
X124125503Y-87456598D01*
X124092999Y-87620004D01*
X124093000Y-87620009D01*
X124093000Y-89913141D01*
X123987526Y-89981012D01*
X123912862Y-90090286D01*
X123886594Y-90220000D01*
X123886594Y-92220000D01*
X123909395Y-92341179D01*
X123981012Y-92452474D01*
X124090286Y-92527138D01*
X124220000Y-92553406D01*
X124820000Y-92553406D01*
X124941179Y-92530605D01*
X125052474Y-92458988D01*
X125127138Y-92349714D01*
X125153406Y-92220000D01*
X125153406Y-90220000D01*
X125130605Y-90098821D01*
X125058988Y-89987526D01*
X124949714Y-89912862D01*
X124947000Y-89912312D01*
X124947000Y-87796874D01*
X124996870Y-87747004D01*
X125442001Y-87747004D01*
X125395503Y-87816594D01*
X125362999Y-87980000D01*
X125363000Y-87980005D01*
X125363000Y-89913141D01*
X125257526Y-89981012D01*
X125182862Y-90090286D01*
X125156594Y-90220000D01*
X125156594Y-92220000D01*
X125179395Y-92341179D01*
X125251012Y-92452474D01*
X125360286Y-92527138D01*
X125490000Y-92553406D01*
X126090000Y-92553406D01*
X126211179Y-92530605D01*
X126322474Y-92458988D01*
X126397138Y-92349714D01*
X126423406Y-92220000D01*
X126423406Y-90220000D01*
X126400605Y-90098821D01*
X126328988Y-89987526D01*
X126219714Y-89912862D01*
X126217000Y-89912312D01*
X126217000Y-88187000D01*
X126869130Y-88187000D01*
X126758065Y-88298065D01*
X126665503Y-88436594D01*
X126632999Y-88600000D01*
X126633000Y-88600005D01*
X126633000Y-89913141D01*
X126527526Y-89981012D01*
X126452862Y-90090286D01*
X126426594Y-90220000D01*
X126426594Y-92220000D01*
X126449395Y-92341179D01*
X126521012Y-92452474D01*
X126630286Y-92527138D01*
X126760000Y-92553406D01*
X127360000Y-92553406D01*
X127481179Y-92530605D01*
X127592474Y-92458988D01*
X127667138Y-92349714D01*
X127693406Y-92220000D01*
X127693406Y-90220000D01*
X127670605Y-90098821D01*
X127598988Y-89987526D01*
X127489714Y-89912862D01*
X127487000Y-89912312D01*
X127487000Y-88776870D01*
X127656869Y-88607000D01*
X128159130Y-88607000D01*
X128028065Y-88738065D01*
X127935503Y-88876594D01*
X127902999Y-89040000D01*
X127903000Y-89040005D01*
X127903000Y-89913141D01*
X127797526Y-89981012D01*
X127722862Y-90090286D01*
X127696594Y-90220000D01*
X127696594Y-92220000D01*
X127719395Y-92341179D01*
X127791012Y-92452474D01*
X127900286Y-92527138D01*
X128030000Y-92553406D01*
X128630000Y-92553406D01*
X128751179Y-92530605D01*
X128862474Y-92458988D01*
X128937138Y-92349714D01*
X128963406Y-92220000D01*
X128963406Y-90220000D01*
X128940605Y-90098821D01*
X128868988Y-89987526D01*
X128759714Y-89912862D01*
X128757000Y-89912312D01*
X128757000Y-89216870D01*
X128916869Y-89057000D01*
X129399130Y-89057000D01*
X129298065Y-89158065D01*
X129205503Y-89296594D01*
X129172999Y-89460000D01*
X129173000Y-89460005D01*
X129173000Y-89913141D01*
X129067526Y-89981012D01*
X128992862Y-90090286D01*
X128966594Y-90220000D01*
X128966594Y-92220000D01*
X128989395Y-92341179D01*
X129061012Y-92452474D01*
X129170286Y-92527138D01*
X129300000Y-92553406D01*
X129900000Y-92553406D01*
X130021179Y-92530605D01*
X130132474Y-92458988D01*
X130207138Y-92349714D01*
X130233406Y-92220000D01*
X130233406Y-90220000D01*
X130210605Y-90098821D01*
X130138988Y-89987526D01*
X130029714Y-89912862D01*
X130027000Y-89912312D01*
X130027000Y-89636870D01*
X130176869Y-89487000D01*
X138769995Y-89487000D01*
X138770000Y-89487001D01*
X138933406Y-89454497D01*
X139071935Y-89361935D01*
X141231932Y-87201937D01*
X141231935Y-87201935D01*
X141324497Y-87063406D01*
X141357000Y-86900000D01*
X141357000Y-79270000D01*
X143318000Y-79270000D01*
X143386661Y-79615180D01*
X143582190Y-79907810D01*
X143874820Y-80103339D01*
X144220000Y-80172000D01*
X144565180Y-80103339D01*
X144857810Y-79907810D01*
X145053339Y-79615180D01*
X145122000Y-79270000D01*
X145053339Y-78924820D01*
X144857810Y-78632190D01*
X144565180Y-78436661D01*
X144220000Y-78368000D01*
X143874820Y-78436661D01*
X143582190Y-78632190D01*
X143386661Y-78924820D01*
X143318000Y-79270000D01*
X141357000Y-79270000D01*
X141357000Y-76270000D01*
X143318000Y-76270000D01*
X143386661Y-76615180D01*
X143582190Y-76907810D01*
X143874820Y-77103339D01*
X144220000Y-77172000D01*
X144565180Y-77103339D01*
X144857810Y-76907810D01*
X145053339Y-76615180D01*
X145122000Y-76270000D01*
X145053339Y-75924820D01*
X144857810Y-75632190D01*
X144565180Y-75436661D01*
X144220000Y-75368000D01*
X143874820Y-75436661D01*
X143582190Y-75632190D01*
X143386661Y-75924820D01*
X143318000Y-76270000D01*
X141357000Y-76270000D01*
X141357000Y-76030005D01*
X141357001Y-76030000D01*
X141324497Y-75866594D01*
X141297041Y-75825503D01*
X141231935Y-75728065D01*
X141231932Y-75728063D01*
X137896980Y-72393110D01*
X137897109Y-72245829D01*
X137801855Y-72015297D01*
X137625631Y-71838765D01*
X137395265Y-71743109D01*
X137145829Y-71742891D01*
X136915297Y-71838145D01*
X136835302Y-71918000D01*
X136202811Y-71918000D01*
X136222138Y-71889714D01*
X136248406Y-71760000D01*
X136248406Y-70260000D01*
X136225605Y-70138821D01*
X136153988Y-70027526D01*
X136044714Y-69952862D01*
X136043982Y-69952714D01*
X136141235Y-69855631D01*
X136236891Y-69625265D01*
X136237109Y-69375829D01*
X136141855Y-69145297D01*
X135965631Y-68968765D01*
X135735265Y-68873109D01*
X135485829Y-68872891D01*
X135255297Y-68968145D01*
X135078765Y-69144369D01*
X134984887Y-69370452D01*
X134891855Y-69145297D01*
X134715631Y-68968765D01*
X134485265Y-68873109D01*
X134235829Y-68872891D01*
X134005297Y-68968145D01*
X133828765Y-69144369D01*
X133733109Y-69374735D01*
X133732891Y-69624171D01*
X133828145Y-69854703D01*
X133918000Y-69944715D01*
X133918000Y-69953141D01*
X133812526Y-70021012D01*
X133737862Y-70130286D01*
X133711594Y-70260000D01*
X133711594Y-71760000D01*
X133730883Y-71862516D01*
X133675302Y-71918000D01*
X133662811Y-71918000D01*
X133682138Y-71889714D01*
X133708406Y-71760000D01*
X133708406Y-70260000D01*
X133685605Y-70138821D01*
X133613988Y-70027526D01*
X133522022Y-69964688D01*
X133611235Y-69875631D01*
X133706891Y-69645265D01*
X133707109Y-69395829D01*
X133611855Y-69165297D01*
X133435631Y-68988765D01*
X133205265Y-68893109D01*
X132955829Y-68892891D01*
X132725297Y-68988145D01*
X132548765Y-69164369D01*
X132453109Y-69394735D01*
X132452891Y-69644171D01*
X132548145Y-69874703D01*
X132634876Y-69961586D01*
X132542526Y-70021012D01*
X132467862Y-70130286D01*
X132441594Y-70260000D01*
X132441594Y-71760000D01*
X132464395Y-71881179D01*
X132488089Y-71918000D01*
X132392811Y-71918000D01*
X132412138Y-71889714D01*
X132438406Y-71760000D01*
X132438406Y-70260000D01*
X132415605Y-70138821D01*
X132343988Y-70027526D01*
X132234714Y-69952862D01*
X132232000Y-69952312D01*
X132232000Y-69814675D01*
X132341235Y-69705631D01*
X132436891Y-69475265D01*
X132437109Y-69225829D01*
X132341855Y-68995297D01*
X132165631Y-68818765D01*
X131935265Y-68723109D01*
X131685829Y-68722891D01*
X131455297Y-68818145D01*
X131278765Y-68994369D01*
X131183109Y-69224735D01*
X131182891Y-69474171D01*
X131278145Y-69704703D01*
X131378000Y-69804733D01*
X131378000Y-69953141D01*
X131272526Y-70021012D01*
X131197862Y-70130286D01*
X131171594Y-70260000D01*
X131171594Y-71760000D01*
X131176734Y-71787319D01*
X131163949Y-71782010D01*
X131168406Y-71760000D01*
X131168406Y-70260000D01*
X131145605Y-70138821D01*
X131073988Y-70027526D01*
X130964714Y-69952862D01*
X130962000Y-69952312D01*
X130962000Y-69374658D01*
X131081235Y-69255631D01*
X131176891Y-69025265D01*
X131177109Y-68775829D01*
X131081855Y-68545297D01*
X130905631Y-68368765D01*
X130675265Y-68273109D01*
X130425829Y-68272891D01*
X130195297Y-68368145D01*
X130018765Y-68544369D01*
X129923109Y-68774735D01*
X129922891Y-69024171D01*
X130018145Y-69254703D01*
X130108000Y-69344715D01*
X130108000Y-69953141D01*
X130002526Y-70021012D01*
X129927862Y-70130286D01*
X129901594Y-70260000D01*
X129901594Y-71760000D01*
X129924395Y-71881179D01*
X129948089Y-71918000D01*
X129852811Y-71918000D01*
X129872138Y-71889714D01*
X129898406Y-71760000D01*
X129898406Y-70260000D01*
X129875605Y-70138821D01*
X129803988Y-70027526D01*
X129694714Y-69952862D01*
X129692000Y-69952312D01*
X129692000Y-68884693D01*
X129791235Y-68785631D01*
X129886891Y-68555265D01*
X129887109Y-68305829D01*
X129791855Y-68075297D01*
X129615631Y-67898765D01*
X129385265Y-67803109D01*
X129135829Y-67802891D01*
X128905297Y-67898145D01*
X128728765Y-68074369D01*
X128633109Y-68304735D01*
X128632891Y-68554171D01*
X128728145Y-68784703D01*
X128838000Y-68894750D01*
X128838000Y-69953141D01*
X128732526Y-70021012D01*
X128657862Y-70130286D01*
X128631594Y-70260000D01*
X128631594Y-71760000D01*
X128654395Y-71881179D01*
X128678089Y-71918000D01*
X128582811Y-71918000D01*
X128602138Y-71889714D01*
X128628406Y-71760000D01*
X128628406Y-70260000D01*
X128605605Y-70138821D01*
X128533988Y-70027526D01*
X128424714Y-69952862D01*
X128422000Y-69952312D01*
X128422000Y-68444710D01*
X128511235Y-68355631D01*
X128606891Y-68125265D01*
X128607109Y-67875829D01*
X128511855Y-67645297D01*
X128335631Y-67468765D01*
X128105265Y-67373109D01*
X127855829Y-67372891D01*
X127625297Y-67468145D01*
X127448765Y-67644369D01*
X127353109Y-67874735D01*
X127352891Y-68124171D01*
X127448145Y-68354703D01*
X127568000Y-68474767D01*
X127568000Y-69911584D01*
X127563327Y-69900302D01*
X127384699Y-69721673D01*
X127151310Y-69625000D01*
X127010750Y-69625000D01*
X126852000Y-69783750D01*
X126852000Y-70883000D01*
X126872000Y-70883000D01*
X126872000Y-71137000D01*
X126852000Y-71137000D01*
X126852000Y-71157000D01*
X126598000Y-71157000D01*
X126598000Y-71137000D01*
X126578000Y-71137000D01*
X126578000Y-70883000D01*
X126598000Y-70883000D01*
X126598000Y-69783750D01*
X126439250Y-69625000D01*
X126298690Y-69625000D01*
X126267000Y-69638126D01*
X126267000Y-69076870D01*
X127026935Y-68316935D01*
X127119497Y-68178406D01*
X127152001Y-68015000D01*
X127152000Y-68014995D01*
X127152000Y-66894171D01*
X129882891Y-66894171D01*
X129978145Y-67124703D01*
X130154369Y-67301235D01*
X130384735Y-67396891D01*
X130634171Y-67397109D01*
X130864703Y-67301855D01*
X131041235Y-67125631D01*
X131136891Y-66895265D01*
X131136896Y-66889922D01*
X131145301Y-66898327D01*
X131378690Y-66995000D01*
X131519250Y-66995000D01*
X131678000Y-66836250D01*
X131678000Y-65737000D01*
X131658000Y-65737000D01*
X131658000Y-65483000D01*
X131678000Y-65483000D01*
X131678000Y-64383750D01*
X131932000Y-64383750D01*
X131932000Y-65483000D01*
X131952000Y-65483000D01*
X131952000Y-65737000D01*
X131932000Y-65737000D01*
X131932000Y-66836250D01*
X132090750Y-66995000D01*
X132231310Y-66995000D01*
X132464699Y-66898327D01*
X132643327Y-66719698D01*
X132648000Y-66708416D01*
X132648000Y-66944995D01*
X132647999Y-66945000D01*
X132680503Y-67108406D01*
X132773065Y-67246935D01*
X133558063Y-68031932D01*
X133558065Y-68031935D01*
X133691823Y-68121309D01*
X133696594Y-68124497D01*
X133860000Y-68157001D01*
X133860005Y-68157000D01*
X134720368Y-68157000D01*
X134854369Y-68291235D01*
X135084735Y-68386891D01*
X135334171Y-68387109D01*
X135564703Y-68291855D01*
X135741235Y-68115631D01*
X135836891Y-67885265D01*
X135837047Y-67707059D01*
X135894171Y-67707109D01*
X136124703Y-67611855D01*
X136301235Y-67435631D01*
X136396891Y-67205265D01*
X136397109Y-66955829D01*
X136301855Y-66725297D01*
X136158970Y-66582163D01*
X136222138Y-66489714D01*
X136248406Y-66360000D01*
X136248406Y-64860000D01*
X136225605Y-64738821D01*
X136153988Y-64627526D01*
X136044714Y-64552862D01*
X136031080Y-64550101D01*
X136009497Y-64441594D01*
X135916935Y-64303065D01*
X135916932Y-64303063D01*
X135786980Y-64173111D01*
X135787109Y-64025829D01*
X135691855Y-63795297D01*
X135515631Y-63618765D01*
X135285265Y-63523109D01*
X135035829Y-63522891D01*
X134805297Y-63618145D01*
X134628765Y-63794369D01*
X134533109Y-64024735D01*
X134532891Y-64274171D01*
X134628145Y-64504703D01*
X134651264Y-64527863D01*
X134645000Y-64526594D01*
X134045000Y-64526594D01*
X133923821Y-64549395D01*
X133812526Y-64621012D01*
X133737862Y-64730286D01*
X133711594Y-64860000D01*
X133711594Y-66360000D01*
X133734395Y-66481179D01*
X133806012Y-66592474D01*
X133880137Y-66643122D01*
X133808765Y-66714369D01*
X133713109Y-66944735D01*
X133713079Y-66979209D01*
X133502000Y-66768130D01*
X133502000Y-66666859D01*
X133607474Y-66598988D01*
X133682138Y-66489714D01*
X133708406Y-66360000D01*
X133708406Y-64860000D01*
X133685605Y-64738821D01*
X133613988Y-64627526D01*
X133504714Y-64552862D01*
X133375000Y-64526594D01*
X132775000Y-64526594D01*
X132662950Y-64547677D01*
X132643327Y-64500302D01*
X132464699Y-64321673D01*
X132231310Y-64225000D01*
X132090750Y-64225000D01*
X131932000Y-64383750D01*
X131678000Y-64383750D01*
X131519250Y-64225000D01*
X131378690Y-64225000D01*
X131145301Y-64321673D01*
X130966673Y-64500302D01*
X130946435Y-64549160D01*
X130835000Y-64526594D01*
X130235000Y-64526594D01*
X130113821Y-64549395D01*
X130002526Y-64621012D01*
X129927862Y-64730286D01*
X129901594Y-64860000D01*
X129901594Y-66360000D01*
X129924395Y-66481179D01*
X129940579Y-66506330D01*
X129883109Y-66644735D01*
X129882891Y-66894171D01*
X127152000Y-66894171D01*
X127152000Y-66666859D01*
X127257474Y-66598988D01*
X127332138Y-66489714D01*
X127358406Y-66360000D01*
X127358406Y-64860000D01*
X127335605Y-64738821D01*
X127263988Y-64627526D01*
X127154714Y-64552862D01*
X127025000Y-64526594D01*
X126425000Y-64526594D01*
X126303821Y-64549395D01*
X126192526Y-64621012D01*
X126117862Y-64730286D01*
X126091594Y-64860000D01*
X126091594Y-66336327D01*
X125915265Y-66263109D01*
X125665829Y-66262891D01*
X125435297Y-66358145D01*
X125258765Y-66534369D01*
X125163109Y-66764735D01*
X125162979Y-66913151D01*
X124908130Y-67168000D01*
X124398326Y-67168000D01*
X124380605Y-67073821D01*
X124308988Y-66962526D01*
X124199714Y-66887862D01*
X124070000Y-66861594D01*
X123320000Y-66861594D01*
X123198821Y-66884395D01*
X123087526Y-66956012D01*
X123012862Y-67065286D01*
X122986594Y-67195000D01*
X122986594Y-67995000D01*
X123009395Y-68116179D01*
X123019637Y-68132095D01*
X122960301Y-68156673D01*
X122781673Y-68335302D01*
X122685000Y-68568691D01*
X122685000Y-68809250D01*
X122843750Y-68968000D01*
X123568000Y-68968000D01*
X123568000Y-68948000D01*
X123822000Y-68948000D01*
X123822000Y-68968000D01*
X124546250Y-68968000D01*
X124705000Y-68809250D01*
X124705000Y-68568691D01*
X124608327Y-68335302D01*
X124429699Y-68156673D01*
X124371713Y-68132654D01*
X124377138Y-68124714D01*
X124397938Y-68022000D01*
X124798130Y-68022000D01*
X124923000Y-68146870D01*
X124923000Y-70113131D01*
X124473130Y-70563000D01*
X122534578Y-70563000D01*
X122567000Y-70400000D01*
X122567000Y-69380750D01*
X122685000Y-69380750D01*
X122685000Y-69621309D01*
X122781673Y-69854698D01*
X122960301Y-70033327D01*
X123193690Y-70130000D01*
X123409250Y-70130000D01*
X123568000Y-69971250D01*
X123568000Y-69222000D01*
X123822000Y-69222000D01*
X123822000Y-69971250D01*
X123980750Y-70130000D01*
X124196310Y-70130000D01*
X124429699Y-70033327D01*
X124608327Y-69854698D01*
X124705000Y-69621309D01*
X124705000Y-69380750D01*
X124546250Y-69222000D01*
X123822000Y-69222000D01*
X123568000Y-69222000D01*
X122843750Y-69222000D01*
X122685000Y-69380750D01*
X122567000Y-69380750D01*
X122567000Y-66726870D01*
X125451932Y-63841937D01*
X125451935Y-63841935D01*
X125506870Y-63787000D01*
X127617673Y-63787000D01*
X127523109Y-64014735D01*
X127522891Y-64264171D01*
X127568000Y-64373343D01*
X127568000Y-64553141D01*
X127462526Y-64621012D01*
X127387862Y-64730286D01*
X127361594Y-64860000D01*
X127361594Y-66360000D01*
X127384395Y-66481179D01*
X127456012Y-66592474D01*
X127565286Y-66667138D01*
X127695000Y-66693406D01*
X128295000Y-66693406D01*
X128416179Y-66670605D01*
X128527474Y-66598988D01*
X128602138Y-66489714D01*
X128628406Y-66360000D01*
X128628406Y-64860000D01*
X128605605Y-64738821D01*
X128539902Y-64636717D01*
X128681235Y-64495631D01*
X128776891Y-64265265D01*
X128777052Y-64080921D01*
X128838000Y-64141869D01*
X128838000Y-64553141D01*
X128732526Y-64621012D01*
X128657862Y-64730286D01*
X128631594Y-64860000D01*
X128631594Y-66360000D01*
X128654395Y-66481179D01*
X128726012Y-66592474D01*
X128835286Y-66667138D01*
X128965000Y-66693406D01*
X129565000Y-66693406D01*
X129686179Y-66670605D01*
X129797474Y-66598988D01*
X129872138Y-66489714D01*
X129898406Y-66360000D01*
X129898406Y-64860000D01*
X129875605Y-64738821D01*
X129803988Y-64627526D01*
X129694714Y-64552862D01*
X129692000Y-64552312D01*
X129692000Y-64112199D01*
X130420000Y-64257007D01*
X131256931Y-64090531D01*
X131966447Y-63616447D01*
X132440531Y-62906931D01*
X132607007Y-62070000D01*
X132440531Y-61233069D01*
X131966447Y-60523553D01*
X131256931Y-60049469D01*
X130420000Y-59882993D01*
X129583069Y-60049469D01*
X128873553Y-60523553D01*
X128399469Y-61233069D01*
X128232993Y-62070000D01*
X128399469Y-62906931D01*
X128416888Y-62933000D01*
X125330000Y-62933000D01*
X125166594Y-62965503D01*
X125028065Y-63058065D01*
X125028063Y-63058068D01*
X124848065Y-63238065D01*
X124848063Y-63238068D01*
X123867089Y-64219042D01*
X123867109Y-64195829D01*
X123771855Y-63965297D01*
X123595631Y-63788765D01*
X123365265Y-63693109D01*
X123115829Y-63692891D01*
X122885297Y-63788145D01*
X122708765Y-63964369D01*
X122613109Y-64194735D01*
X122612979Y-64343151D01*
X121418065Y-65538065D01*
X121325503Y-65676594D01*
X121292999Y-65840000D01*
X121293000Y-65840005D01*
X121293000Y-69663000D01*
X114087000Y-69663000D01*
X114087000Y-69280770D01*
X114099745Y-69302761D01*
X114119002Y-69317486D01*
X114133727Y-69336743D01*
X114176931Y-69361782D01*
X114216596Y-69392113D01*
X114240023Y-69398348D01*
X114260995Y-69410503D01*
X114310486Y-69417103D01*
X114358745Y-69429948D01*
X114382774Y-69426743D01*
X114406803Y-69429948D01*
X114455062Y-69417103D01*
X114504553Y-69410503D01*
X114525525Y-69398348D01*
X114548952Y-69392113D01*
X114588617Y-69361782D01*
X114631821Y-69336743D01*
X114646546Y-69317486D01*
X114665803Y-69302761D01*
X114690842Y-69259557D01*
X114721173Y-69219892D01*
X114989673Y-68673127D01*
X115273390Y-68143150D01*
X115574894Y-67624341D01*
X115893717Y-67117219D01*
X116229492Y-66622145D01*
X116581797Y-66139545D01*
X116950258Y-65669853D01*
X117334428Y-65213458D01*
X117733908Y-64770851D01*
X118148321Y-64342375D01*
X118577231Y-63928467D01*
X119020234Y-63529533D01*
X119476918Y-63146036D01*
X119946906Y-62778361D01*
X120429719Y-62426944D01*
X120924994Y-62092203D01*
X121432341Y-61774539D01*
X121951334Y-61474361D01*
X122481555Y-61192095D01*
X123022632Y-60928131D01*
X123574111Y-60682927D01*
X124135645Y-60456834D01*
X124706802Y-60250328D01*
X125287186Y-60063812D01*
X125876416Y-59897678D01*
X126474064Y-59752330D01*
X127079757Y-59628192D01*
X127693105Y-59525709D01*
X128313739Y-59445256D01*
X128941225Y-59387284D01*
X129575203Y-59352172D01*
X130216349Y-59340348D01*
X130657216Y-59345944D01*
G36*
X118601673Y-101979698D02*
X118780301Y-102158327D01*
X119013690Y-102255000D01*
X119154250Y-102255000D01*
X119312998Y-102096252D01*
X119312998Y-102173132D01*
X119103130Y-102383000D01*
X117090870Y-102383000D01*
X117471932Y-102001937D01*
X117471935Y-102001935D01*
X117726869Y-101747000D01*
X118505286Y-101747000D01*
X118601673Y-101979698D01*
X118601673Y-101979698D01*
G37*
X118601673Y-101979698D02*
X118780301Y-102158327D01*
X119013690Y-102255000D01*
X119154250Y-102255000D01*
X119312998Y-102096252D01*
X119312998Y-102173132D01*
X119103130Y-102383000D01*
X117090870Y-102383000D01*
X117471932Y-102001937D01*
X117471935Y-102001935D01*
X117726869Y-101747000D01*
X118505286Y-101747000D01*
X118601673Y-101979698D01*
G36*
X102621594Y-91460000D02*
X102631378Y-91511998D01*
X102580000Y-91501594D01*
X100980000Y-91501594D01*
X100858821Y-91524395D01*
X100747526Y-91596012D01*
X100672862Y-91705286D01*
X100646594Y-91835000D01*
X100646594Y-92385000D01*
X100669395Y-92506179D01*
X100671895Y-92510063D01*
X100646594Y-92635000D01*
X100646594Y-93185000D01*
X100669395Y-93306179D01*
X100671895Y-93310063D01*
X100646594Y-93435000D01*
X100646594Y-93685782D01*
X100620302Y-93696673D01*
X100441673Y-93875301D01*
X100345000Y-94108690D01*
X100345000Y-94224250D01*
X100503750Y-94383000D01*
X101653000Y-94383000D01*
X101653000Y-94363000D01*
X101907000Y-94363000D01*
X101907000Y-94383000D01*
X103056250Y-94383000D01*
X103215000Y-94224250D01*
X103215000Y-94108690D01*
X103118327Y-93875301D01*
X102939698Y-93696673D01*
X102913406Y-93685782D01*
X102913406Y-93435000D01*
X102890605Y-93313821D01*
X102888105Y-93309937D01*
X102913406Y-93185000D01*
X102913406Y-93071597D01*
X103094735Y-93146891D01*
X103344171Y-93147109D01*
X103574703Y-93051855D01*
X103679741Y-92947000D01*
X104030421Y-92947000D01*
X104194369Y-93111235D01*
X104424735Y-93206891D01*
X104674171Y-93207109D01*
X104893000Y-93116691D01*
X104893000Y-94050316D01*
X104788765Y-94154369D01*
X104693109Y-94384735D01*
X104692891Y-94634171D01*
X104788145Y-94864703D01*
X104964369Y-95041235D01*
X105194735Y-95136891D01*
X105444171Y-95137109D01*
X105674703Y-95041855D01*
X105851235Y-94865631D01*
X105946891Y-94635265D01*
X105947109Y-94385829D01*
X105851855Y-94155297D01*
X105747000Y-94050259D01*
X105747000Y-92669684D01*
X105851235Y-92565631D01*
X105946891Y-92335265D01*
X105947109Y-92085829D01*
X105851855Y-91855297D01*
X105790072Y-91793406D01*
X105905000Y-91793406D01*
X106026179Y-91770605D01*
X106030063Y-91768105D01*
X106155000Y-91793406D01*
X106705000Y-91793406D01*
X106826179Y-91770605D01*
X106830063Y-91768105D01*
X106955000Y-91793406D01*
X107505000Y-91793406D01*
X107626179Y-91770605D01*
X107630063Y-91768105D01*
X107755000Y-91793406D01*
X108305000Y-91793406D01*
X108426179Y-91770605D01*
X108430063Y-91768105D01*
X108555000Y-91793406D01*
X109105000Y-91793406D01*
X109156998Y-91783622D01*
X109146594Y-91835000D01*
X109146594Y-92385000D01*
X109169395Y-92506179D01*
X109171895Y-92510063D01*
X109146594Y-92635000D01*
X109146594Y-92885782D01*
X109120302Y-92896673D01*
X108941673Y-93075301D01*
X108845000Y-93308690D01*
X108845000Y-93424250D01*
X109003750Y-93583000D01*
X110153000Y-93583000D01*
X110153000Y-93563000D01*
X110407000Y-93563000D01*
X110407000Y-93583000D01*
X111556250Y-93583000D01*
X111715000Y-93424250D01*
X111715000Y-93337000D01*
X111743130Y-93337000D01*
X112053000Y-93646869D01*
X112053000Y-94229995D01*
X112052999Y-94230000D01*
X112085503Y-94393406D01*
X112178065Y-94531935D01*
X113018063Y-95371932D01*
X113018065Y-95371935D01*
X113156594Y-95464497D01*
X113320000Y-95497000D01*
X117003130Y-95497000D01*
X117773000Y-96266869D01*
X117773000Y-97269995D01*
X117772999Y-97270000D01*
X117805503Y-97433406D01*
X117898065Y-97571935D01*
X118468063Y-98141932D01*
X118468065Y-98141935D01*
X118565279Y-98206891D01*
X118606594Y-98234497D01*
X118770000Y-98267001D01*
X118770005Y-98267000D01*
X122683130Y-98267000D01*
X122791193Y-98375063D01*
X122630000Y-98342999D01*
X122629995Y-98343000D01*
X118910005Y-98343000D01*
X118910000Y-98342999D01*
X118746594Y-98375503D01*
X118608065Y-98468065D01*
X117998063Y-99078067D01*
X117905501Y-99216596D01*
X117872997Y-99380002D01*
X117872998Y-99380007D01*
X117872998Y-100443132D01*
X117833130Y-100483000D01*
X117360000Y-100483000D01*
X117196594Y-100515503D01*
X117058065Y-100608065D01*
X117058063Y-100608068D01*
X116153132Y-101512998D01*
X114586869Y-101512998D01*
X113851937Y-100778065D01*
X113713408Y-100685503D01*
X113550002Y-100652999D01*
X113549997Y-100653000D01*
X109356869Y-100653000D01*
X109257000Y-100553130D01*
X109257000Y-100250772D01*
X109337474Y-100198988D01*
X109412138Y-100089714D01*
X109438406Y-99960000D01*
X109438406Y-98360000D01*
X109428622Y-98308002D01*
X109480000Y-98318406D01*
X111080000Y-98318406D01*
X111201179Y-98295605D01*
X111312474Y-98223988D01*
X111319636Y-98213506D01*
X112408063Y-99301932D01*
X112408065Y-99301935D01*
X112546594Y-99394497D01*
X112710000Y-99427000D01*
X112851082Y-99427000D01*
X112859395Y-99471179D01*
X112931012Y-99582474D01*
X113040286Y-99657138D01*
X113170000Y-99683406D01*
X115570000Y-99683406D01*
X115691179Y-99660605D01*
X115802474Y-99588988D01*
X115877138Y-99479714D01*
X115903406Y-99350000D01*
X115903406Y-98699218D01*
X115929699Y-98688327D01*
X116108327Y-98509698D01*
X116205000Y-98276309D01*
X116205000Y-98085750D01*
X116046250Y-97927000D01*
X114497000Y-97927000D01*
X114497000Y-97947000D01*
X114243000Y-97947000D01*
X114243000Y-97927000D01*
X112693750Y-97927000D01*
X112535000Y-98085750D01*
X112535000Y-98221131D01*
X111721935Y-97408065D01*
X111615579Y-97337000D01*
X111999995Y-97337000D01*
X112000000Y-97337001D01*
X112163406Y-97304497D01*
X112301935Y-97211935D01*
X112486869Y-97027000D01*
X112694975Y-97027000D01*
X112631673Y-97090302D01*
X112535000Y-97323691D01*
X112535000Y-97514250D01*
X112693750Y-97673000D01*
X114243000Y-97673000D01*
X114243000Y-97653000D01*
X114497000Y-97653000D01*
X114497000Y-97673000D01*
X116046250Y-97673000D01*
X116205000Y-97514250D01*
X116205000Y-97323691D01*
X116108327Y-97090302D01*
X115929699Y-96911673D01*
X115903406Y-96900782D01*
X115903406Y-96250000D01*
X115880605Y-96128821D01*
X115808988Y-96017526D01*
X115699714Y-95942862D01*
X115570000Y-95916594D01*
X113170000Y-95916594D01*
X113048821Y-95939395D01*
X112937526Y-96011012D01*
X112862862Y-96120286D01*
X112852187Y-96173000D01*
X112310000Y-96173000D01*
X112146594Y-96205503D01*
X112008065Y-96298065D01*
X112008063Y-96298068D01*
X111823130Y-96483000D01*
X111745579Y-96483000D01*
X111851935Y-96411935D01*
X112121932Y-96141937D01*
X112121935Y-96141935D01*
X112214497Y-96003406D01*
X112216503Y-95993319D01*
X112247001Y-95840000D01*
X112247000Y-95839995D01*
X112247000Y-94910000D01*
X112214497Y-94746594D01*
X112121935Y-94608065D01*
X112121932Y-94608063D01*
X111721935Y-94208065D01*
X111685114Y-94183462D01*
X111715000Y-94111310D01*
X111715000Y-93995750D01*
X111556250Y-93837000D01*
X110407000Y-93837000D01*
X110407000Y-93857000D01*
X110153000Y-93857000D01*
X110153000Y-93837000D01*
X109003750Y-93837000D01*
X108845000Y-93995750D01*
X108845000Y-94111310D01*
X108941673Y-94344699D01*
X109106975Y-94510000D01*
X108941673Y-94675301D01*
X108845000Y-94908690D01*
X108845000Y-95024250D01*
X109003750Y-95183000D01*
X110153000Y-95183000D01*
X110153000Y-95163000D01*
X110407000Y-95163000D01*
X110407000Y-95183000D01*
X110427000Y-95183000D01*
X110427000Y-95437000D01*
X110407000Y-95437000D01*
X110407000Y-95457000D01*
X110153000Y-95457000D01*
X110153000Y-95437000D01*
X109003750Y-95437000D01*
X108845000Y-95595750D01*
X108845000Y-95683000D01*
X108660005Y-95683000D01*
X108660000Y-95682999D01*
X108505050Y-95713821D01*
X108496594Y-95715503D01*
X108358065Y-95808065D01*
X108358063Y-95808068D01*
X107683130Y-96483000D01*
X102893560Y-96483000D01*
X102913406Y-96385000D01*
X102913406Y-95835000D01*
X102890605Y-95713821D01*
X102888105Y-95709937D01*
X102913406Y-95585000D01*
X102913406Y-95334218D01*
X102939698Y-95323327D01*
X103118327Y-95144699D01*
X103215000Y-94911310D01*
X103215000Y-94795750D01*
X103056250Y-94637000D01*
X101907000Y-94637000D01*
X101907000Y-94657000D01*
X101653000Y-94657000D01*
X101653000Y-94637000D01*
X100503750Y-94637000D01*
X100345000Y-94795750D01*
X100345000Y-94911310D01*
X100418171Y-95087960D01*
X100280000Y-95226131D01*
X100280000Y-95182998D01*
X100121252Y-95182998D01*
X100280000Y-95024250D01*
X100280000Y-94783691D01*
X100183327Y-94550302D01*
X100110157Y-94477132D01*
X100176638Y-94379834D01*
X100202906Y-94250120D01*
X100202906Y-93249360D01*
X100180105Y-93128181D01*
X100108488Y-93016886D01*
X99999214Y-92942222D01*
X99869500Y-92915954D01*
X99796120Y-92915954D01*
X99796120Y-91727750D01*
X100716869Y-90807000D01*
X100725315Y-90807000D01*
X100761012Y-90862474D01*
X100870286Y-90937138D01*
X101000000Y-90963406D01*
X101900000Y-90963406D01*
X102021179Y-90940605D01*
X102132474Y-90868988D01*
X102207138Y-90759714D01*
X102233406Y-90630000D01*
X102233406Y-90130000D01*
X102219670Y-90057000D01*
X102289995Y-90057000D01*
X102290000Y-90057001D01*
X102453406Y-90024497D01*
X102591935Y-89931935D01*
X102621594Y-89902276D01*
X102621594Y-91460000D01*
X102621594Y-91460000D01*
G37*
X102621594Y-91460000D02*
X102631378Y-91511998D01*
X102580000Y-91501594D01*
X100980000Y-91501594D01*
X100858821Y-91524395D01*
X100747526Y-91596012D01*
X100672862Y-91705286D01*
X100646594Y-91835000D01*
X100646594Y-92385000D01*
X100669395Y-92506179D01*
X100671895Y-92510063D01*
X100646594Y-92635000D01*
X100646594Y-93185000D01*
X100669395Y-93306179D01*
X100671895Y-93310063D01*
X100646594Y-93435000D01*
X100646594Y-93685782D01*
X100620302Y-93696673D01*
X100441673Y-93875301D01*
X100345000Y-94108690D01*
X100345000Y-94224250D01*
X100503750Y-94383000D01*
X101653000Y-94383000D01*
X101653000Y-94363000D01*
X101907000Y-94363000D01*
X101907000Y-94383000D01*
X103056250Y-94383000D01*
X103215000Y-94224250D01*
X103215000Y-94108690D01*
X103118327Y-93875301D01*
X102939698Y-93696673D01*
X102913406Y-93685782D01*
X102913406Y-93435000D01*
X102890605Y-93313821D01*
X102888105Y-93309937D01*
X102913406Y-93185000D01*
X102913406Y-93071597D01*
X103094735Y-93146891D01*
X103344171Y-93147109D01*
X103574703Y-93051855D01*
X103679741Y-92947000D01*
X104030421Y-92947000D01*
X104194369Y-93111235D01*
X104424735Y-93206891D01*
X104674171Y-93207109D01*
X104893000Y-93116691D01*
X104893000Y-94050316D01*
X104788765Y-94154369D01*
X104693109Y-94384735D01*
X104692891Y-94634171D01*
X104788145Y-94864703D01*
X104964369Y-95041235D01*
X105194735Y-95136891D01*
X105444171Y-95137109D01*
X105674703Y-95041855D01*
X105851235Y-94865631D01*
X105946891Y-94635265D01*
X105947109Y-94385829D01*
X105851855Y-94155297D01*
X105747000Y-94050259D01*
X105747000Y-92669684D01*
X105851235Y-92565631D01*
X105946891Y-92335265D01*
X105947109Y-92085829D01*
X105851855Y-91855297D01*
X105790072Y-91793406D01*
X105905000Y-91793406D01*
X106026179Y-91770605D01*
X106030063Y-91768105D01*
X106155000Y-91793406D01*
X106705000Y-91793406D01*
X106826179Y-91770605D01*
X106830063Y-91768105D01*
X106955000Y-91793406D01*
X107505000Y-91793406D01*
X107626179Y-91770605D01*
X107630063Y-91768105D01*
X107755000Y-91793406D01*
X108305000Y-91793406D01*
X108426179Y-91770605D01*
X108430063Y-91768105D01*
X108555000Y-91793406D01*
X109105000Y-91793406D01*
X109156998Y-91783622D01*
X109146594Y-91835000D01*
X109146594Y-92385000D01*
X109169395Y-92506179D01*
X109171895Y-92510063D01*
X109146594Y-92635000D01*
X109146594Y-92885782D01*
X109120302Y-92896673D01*
X108941673Y-93075301D01*
X108845000Y-93308690D01*
X108845000Y-93424250D01*
X109003750Y-93583000D01*
X110153000Y-93583000D01*
X110153000Y-93563000D01*
X110407000Y-93563000D01*
X110407000Y-93583000D01*
X111556250Y-93583000D01*
X111715000Y-93424250D01*
X111715000Y-93337000D01*
X111743130Y-93337000D01*
X112053000Y-93646869D01*
X112053000Y-94229995D01*
X112052999Y-94230000D01*
X112085503Y-94393406D01*
X112178065Y-94531935D01*
X113018063Y-95371932D01*
X113018065Y-95371935D01*
X113156594Y-95464497D01*
X113320000Y-95497000D01*
X117003130Y-95497000D01*
X117773000Y-96266869D01*
X117773000Y-97269995D01*
X117772999Y-97270000D01*
X117805503Y-97433406D01*
X117898065Y-97571935D01*
X118468063Y-98141932D01*
X118468065Y-98141935D01*
X118565279Y-98206891D01*
X118606594Y-98234497D01*
X118770000Y-98267001D01*
X118770005Y-98267000D01*
X122683130Y-98267000D01*
X122791193Y-98375063D01*
X122630000Y-98342999D01*
X122629995Y-98343000D01*
X118910005Y-98343000D01*
X118910000Y-98342999D01*
X118746594Y-98375503D01*
X118608065Y-98468065D01*
X117998063Y-99078067D01*
X117905501Y-99216596D01*
X117872997Y-99380002D01*
X117872998Y-99380007D01*
X117872998Y-100443132D01*
X117833130Y-100483000D01*
X117360000Y-100483000D01*
X117196594Y-100515503D01*
X117058065Y-100608065D01*
X117058063Y-100608068D01*
X116153132Y-101512998D01*
X114586869Y-101512998D01*
X113851937Y-100778065D01*
X113713408Y-100685503D01*
X113550002Y-100652999D01*
X113549997Y-100653000D01*
X109356869Y-100653000D01*
X109257000Y-100553130D01*
X109257000Y-100250772D01*
X109337474Y-100198988D01*
X109412138Y-100089714D01*
X109438406Y-99960000D01*
X109438406Y-98360000D01*
X109428622Y-98308002D01*
X109480000Y-98318406D01*
X111080000Y-98318406D01*
X111201179Y-98295605D01*
X111312474Y-98223988D01*
X111319636Y-98213506D01*
X112408063Y-99301932D01*
X112408065Y-99301935D01*
X112546594Y-99394497D01*
X112710000Y-99427000D01*
X112851082Y-99427000D01*
X112859395Y-99471179D01*
X112931012Y-99582474D01*
X113040286Y-99657138D01*
X113170000Y-99683406D01*
X115570000Y-99683406D01*
X115691179Y-99660605D01*
X115802474Y-99588988D01*
X115877138Y-99479714D01*
X115903406Y-99350000D01*
X115903406Y-98699218D01*
X115929699Y-98688327D01*
X116108327Y-98509698D01*
X116205000Y-98276309D01*
X116205000Y-98085750D01*
X116046250Y-97927000D01*
X114497000Y-97927000D01*
X114497000Y-97947000D01*
X114243000Y-97947000D01*
X114243000Y-97927000D01*
X112693750Y-97927000D01*
X112535000Y-98085750D01*
X112535000Y-98221131D01*
X111721935Y-97408065D01*
X111615579Y-97337000D01*
X111999995Y-97337000D01*
X112000000Y-97337001D01*
X112163406Y-97304497D01*
X112301935Y-97211935D01*
X112486869Y-97027000D01*
X112694975Y-97027000D01*
X112631673Y-97090302D01*
X112535000Y-97323691D01*
X112535000Y-97514250D01*
X112693750Y-97673000D01*
X114243000Y-97673000D01*
X114243000Y-97653000D01*
X114497000Y-97653000D01*
X114497000Y-97673000D01*
X116046250Y-97673000D01*
X116205000Y-97514250D01*
X116205000Y-97323691D01*
X116108327Y-97090302D01*
X115929699Y-96911673D01*
X115903406Y-96900782D01*
X115903406Y-96250000D01*
X115880605Y-96128821D01*
X115808988Y-96017526D01*
X115699714Y-95942862D01*
X115570000Y-95916594D01*
X113170000Y-95916594D01*
X113048821Y-95939395D01*
X112937526Y-96011012D01*
X112862862Y-96120286D01*
X112852187Y-96173000D01*
X112310000Y-96173000D01*
X112146594Y-96205503D01*
X112008065Y-96298065D01*
X112008063Y-96298068D01*
X111823130Y-96483000D01*
X111745579Y-96483000D01*
X111851935Y-96411935D01*
X112121932Y-96141937D01*
X112121935Y-96141935D01*
X112214497Y-96003406D01*
X112216503Y-95993319D01*
X112247001Y-95840000D01*
X112247000Y-95839995D01*
X112247000Y-94910000D01*
X112214497Y-94746594D01*
X112121935Y-94608065D01*
X112121932Y-94608063D01*
X111721935Y-94208065D01*
X111685114Y-94183462D01*
X111715000Y-94111310D01*
X111715000Y-93995750D01*
X111556250Y-93837000D01*
X110407000Y-93837000D01*
X110407000Y-93857000D01*
X110153000Y-93857000D01*
X110153000Y-93837000D01*
X109003750Y-93837000D01*
X108845000Y-93995750D01*
X108845000Y-94111310D01*
X108941673Y-94344699D01*
X109106975Y-94510000D01*
X108941673Y-94675301D01*
X108845000Y-94908690D01*
X108845000Y-95024250D01*
X109003750Y-95183000D01*
X110153000Y-95183000D01*
X110153000Y-95163000D01*
X110407000Y-95163000D01*
X110407000Y-95183000D01*
X110427000Y-95183000D01*
X110427000Y-95437000D01*
X110407000Y-95437000D01*
X110407000Y-95457000D01*
X110153000Y-95457000D01*
X110153000Y-95437000D01*
X109003750Y-95437000D01*
X108845000Y-95595750D01*
X108845000Y-95683000D01*
X108660005Y-95683000D01*
X108660000Y-95682999D01*
X108505050Y-95713821D01*
X108496594Y-95715503D01*
X108358065Y-95808065D01*
X108358063Y-95808068D01*
X107683130Y-96483000D01*
X102893560Y-96483000D01*
X102913406Y-96385000D01*
X102913406Y-95835000D01*
X102890605Y-95713821D01*
X102888105Y-95709937D01*
X102913406Y-95585000D01*
X102913406Y-95334218D01*
X102939698Y-95323327D01*
X103118327Y-95144699D01*
X103215000Y-94911310D01*
X103215000Y-94795750D01*
X103056250Y-94637000D01*
X101907000Y-94637000D01*
X101907000Y-94657000D01*
X101653000Y-94657000D01*
X101653000Y-94637000D01*
X100503750Y-94637000D01*
X100345000Y-94795750D01*
X100345000Y-94911310D01*
X100418171Y-95087960D01*
X100280000Y-95226131D01*
X100280000Y-95182998D01*
X100121252Y-95182998D01*
X100280000Y-95024250D01*
X100280000Y-94783691D01*
X100183327Y-94550302D01*
X100110157Y-94477132D01*
X100176638Y-94379834D01*
X100202906Y-94250120D01*
X100202906Y-93249360D01*
X100180105Y-93128181D01*
X100108488Y-93016886D01*
X99999214Y-92942222D01*
X99869500Y-92915954D01*
X99796120Y-92915954D01*
X99796120Y-91727750D01*
X100716869Y-90807000D01*
X100725315Y-90807000D01*
X100761012Y-90862474D01*
X100870286Y-90937138D01*
X101000000Y-90963406D01*
X101900000Y-90963406D01*
X102021179Y-90940605D01*
X102132474Y-90868988D01*
X102207138Y-90759714D01*
X102233406Y-90630000D01*
X102233406Y-90130000D01*
X102219670Y-90057000D01*
X102289995Y-90057000D01*
X102290000Y-90057001D01*
X102453406Y-90024497D01*
X102591935Y-89931935D01*
X102621594Y-89902276D01*
X102621594Y-91460000D01*
G36*
X119567000Y-100493000D02*
X119587000Y-100493000D01*
X119587000Y-100747000D01*
X119567000Y-100747000D01*
X119567000Y-100767000D01*
X119313000Y-100767000D01*
X119313000Y-100747000D01*
X119293000Y-100747000D01*
X119293000Y-100493000D01*
X119313000Y-100493000D01*
X119313000Y-100473000D01*
X119567000Y-100473000D01*
X119567000Y-100493000D01*
X119567000Y-100493000D01*
G37*
X119567000Y-100493000D02*
X119587000Y-100493000D01*
X119587000Y-100747000D01*
X119567000Y-100747000D01*
X119567000Y-100767000D01*
X119313000Y-100767000D01*
X119313000Y-100747000D01*
X119293000Y-100747000D01*
X119293000Y-100493000D01*
X119313000Y-100493000D01*
X119313000Y-100473000D01*
X119567000Y-100473000D01*
X119567000Y-100493000D01*
G36*
X98535334Y-94250120D02*
X98556549Y-94362872D01*
X98535301Y-94371673D01*
X98356673Y-94550302D01*
X98260000Y-94783691D01*
X98260000Y-95024250D01*
X98418750Y-95183000D01*
X99143000Y-95183000D01*
X99143000Y-95163000D01*
X99397000Y-95163000D01*
X99397000Y-95183000D01*
X99417000Y-95183000D01*
X99417000Y-95437000D01*
X99397000Y-95437000D01*
X99397000Y-95457000D01*
X99143000Y-95457000D01*
X99143000Y-95437000D01*
X98418750Y-95437000D01*
X98260000Y-95595750D01*
X98260000Y-95836309D01*
X98356673Y-96069698D01*
X98535301Y-96248327D01*
X98593287Y-96272346D01*
X98587862Y-96280286D01*
X98561594Y-96410000D01*
X98561594Y-97210000D01*
X98584395Y-97331179D01*
X98656012Y-97442474D01*
X98765286Y-97517138D01*
X98895000Y-97543406D01*
X99645000Y-97543406D01*
X99722931Y-97528743D01*
X99722891Y-97574171D01*
X99818145Y-97804703D01*
X99994369Y-97981235D01*
X100224735Y-98076891D01*
X100474171Y-98077109D01*
X100650237Y-98004360D01*
X100669395Y-98106179D01*
X100741012Y-98217474D01*
X100850286Y-98292138D01*
X100980000Y-98318406D01*
X101207724Y-98318406D01*
X99973130Y-99553000D01*
X99166869Y-99553000D01*
X97667000Y-98053130D01*
X97667000Y-96250005D01*
X97667001Y-96250000D01*
X97634497Y-96086594D01*
X97586716Y-96015085D01*
X97541935Y-95948065D01*
X97541932Y-95948063D01*
X97131935Y-95538065D01*
X97035332Y-95473517D01*
X97096891Y-95325265D01*
X97097109Y-95075829D01*
X97056448Y-94977422D01*
X97857130Y-94176740D01*
X98535334Y-94176740D01*
X98535334Y-94250120D01*
X98535334Y-94250120D01*
G37*
X98535334Y-94250120D02*
X98556549Y-94362872D01*
X98535301Y-94371673D01*
X98356673Y-94550302D01*
X98260000Y-94783691D01*
X98260000Y-95024250D01*
X98418750Y-95183000D01*
X99143000Y-95183000D01*
X99143000Y-95163000D01*
X99397000Y-95163000D01*
X99397000Y-95183000D01*
X99417000Y-95183000D01*
X99417000Y-95437000D01*
X99397000Y-95437000D01*
X99397000Y-95457000D01*
X99143000Y-95457000D01*
X99143000Y-95437000D01*
X98418750Y-95437000D01*
X98260000Y-95595750D01*
X98260000Y-95836309D01*
X98356673Y-96069698D01*
X98535301Y-96248327D01*
X98593287Y-96272346D01*
X98587862Y-96280286D01*
X98561594Y-96410000D01*
X98561594Y-97210000D01*
X98584395Y-97331179D01*
X98656012Y-97442474D01*
X98765286Y-97517138D01*
X98895000Y-97543406D01*
X99645000Y-97543406D01*
X99722931Y-97528743D01*
X99722891Y-97574171D01*
X99818145Y-97804703D01*
X99994369Y-97981235D01*
X100224735Y-98076891D01*
X100474171Y-98077109D01*
X100650237Y-98004360D01*
X100669395Y-98106179D01*
X100741012Y-98217474D01*
X100850286Y-98292138D01*
X100980000Y-98318406D01*
X101207724Y-98318406D01*
X99973130Y-99553000D01*
X99166869Y-99553000D01*
X97667000Y-98053130D01*
X97667000Y-96250005D01*
X97667001Y-96250000D01*
X97634497Y-96086594D01*
X97586716Y-96015085D01*
X97541935Y-95948065D01*
X97541932Y-95948063D01*
X97131935Y-95538065D01*
X97035332Y-95473517D01*
X97096891Y-95325265D01*
X97097109Y-95075829D01*
X97056448Y-94977422D01*
X97857130Y-94176740D01*
X98535334Y-94176740D01*
X98535334Y-94250120D01*
G36*
X96267862Y-64740286D02*
X96241594Y-64870000D01*
X96241594Y-66370000D01*
X96264395Y-66491179D01*
X96336012Y-66602474D01*
X96445286Y-66677138D01*
X96448000Y-66677688D01*
X96448000Y-67424995D01*
X96447999Y-67425000D01*
X96480503Y-67588406D01*
X96573065Y-67726935D01*
X96883020Y-68036889D01*
X96882891Y-68184171D01*
X96978145Y-68414703D01*
X97154369Y-68591235D01*
X97384735Y-68686891D01*
X97634171Y-68687109D01*
X97864703Y-68591855D01*
X98041235Y-68415631D01*
X98136891Y-68185265D01*
X98137109Y-67935829D01*
X98041855Y-67705297D01*
X97865631Y-67528765D01*
X97635265Y-67433109D01*
X97486849Y-67432979D01*
X97302000Y-67248130D01*
X97302000Y-66718416D01*
X97306673Y-66729698D01*
X97485301Y-66908327D01*
X97718690Y-67005000D01*
X97859250Y-67005000D01*
X98018000Y-66846250D01*
X98018000Y-65747000D01*
X97998000Y-65747000D01*
X97998000Y-65493000D01*
X98018000Y-65493000D01*
X98018000Y-65473000D01*
X98272000Y-65473000D01*
X98272000Y-65493000D01*
X98292000Y-65493000D01*
X98292000Y-65747000D01*
X98272000Y-65747000D01*
X98272000Y-66846250D01*
X98430750Y-67005000D01*
X98571310Y-67005000D01*
X98804699Y-66908327D01*
X98983327Y-66729698D01*
X98988000Y-66718416D01*
X98988000Y-67554995D01*
X98987999Y-67555000D01*
X99020503Y-67718406D01*
X99113065Y-67856935D01*
X99798063Y-68541932D01*
X99798065Y-68541935D01*
X99925537Y-68627109D01*
X99936594Y-68634497D01*
X100100000Y-68667000D01*
X101379540Y-68667000D01*
X101343109Y-68754735D01*
X101342891Y-69004171D01*
X101438145Y-69234703D01*
X101528000Y-69324715D01*
X101528000Y-69963141D01*
X101422526Y-70031012D01*
X101347862Y-70140286D01*
X101321594Y-70270000D01*
X101321594Y-71770000D01*
X101344395Y-71891179D01*
X101377741Y-71943000D01*
X101262562Y-71943000D01*
X101292138Y-71899714D01*
X101318406Y-71770000D01*
X101318406Y-70270000D01*
X101295605Y-70148821D01*
X101223988Y-70037526D01*
X101114714Y-69962862D01*
X101112000Y-69962312D01*
X101112000Y-69804675D01*
X101221235Y-69695631D01*
X101316891Y-69465265D01*
X101317109Y-69215829D01*
X101221855Y-68985297D01*
X101045631Y-68808765D01*
X100815265Y-68713109D01*
X100565829Y-68712891D01*
X100335297Y-68808145D01*
X100158765Y-68984369D01*
X100063109Y-69214735D01*
X100062891Y-69464171D01*
X100158145Y-69694703D01*
X100258000Y-69794733D01*
X100258000Y-69963141D01*
X100152526Y-70031012D01*
X100077862Y-70140286D01*
X100051594Y-70270000D01*
X100051594Y-71770000D01*
X100074395Y-71891179D01*
X100107741Y-71943000D01*
X99992562Y-71943000D01*
X100022138Y-71899714D01*
X100048406Y-71770000D01*
X100048406Y-70270000D01*
X100025605Y-70148821D01*
X99953988Y-70037526D01*
X99873916Y-69982815D01*
X99951235Y-69905631D01*
X100046891Y-69675265D01*
X100047109Y-69425829D01*
X99951855Y-69195297D01*
X99775631Y-69018765D01*
X99545265Y-68923109D01*
X99295829Y-68922891D01*
X99065297Y-69018145D01*
X98888765Y-69194369D01*
X98793109Y-69424735D01*
X98792891Y-69674171D01*
X98888145Y-69904703D01*
X98962720Y-69979408D01*
X98882526Y-70031012D01*
X98807862Y-70140286D01*
X98781594Y-70270000D01*
X98781594Y-71770000D01*
X98804395Y-71891179D01*
X98836787Y-71941518D01*
X98835302Y-71943000D01*
X98722562Y-71943000D01*
X98752138Y-71899714D01*
X98778406Y-71770000D01*
X98778406Y-70270000D01*
X98755605Y-70148821D01*
X98683988Y-70037526D01*
X98603906Y-69982808D01*
X98691235Y-69895631D01*
X98786891Y-69665265D01*
X98787109Y-69415829D01*
X98691855Y-69185297D01*
X98515631Y-69008765D01*
X98285265Y-68913109D01*
X98035829Y-68912891D01*
X97805297Y-69008145D01*
X97628765Y-69184369D01*
X97533109Y-69414735D01*
X97532891Y-69664171D01*
X97628145Y-69894703D01*
X97704887Y-69971579D01*
X97612526Y-70031012D01*
X97537862Y-70140286D01*
X97511594Y-70270000D01*
X97511594Y-71770000D01*
X97534395Y-71891179D01*
X97567741Y-71943000D01*
X97452562Y-71943000D01*
X97482138Y-71899714D01*
X97508406Y-71770000D01*
X97508406Y-70270000D01*
X97485605Y-70148821D01*
X97413988Y-70037526D01*
X97310128Y-69966561D01*
X97411235Y-69865631D01*
X97506891Y-69635265D01*
X97507109Y-69385829D01*
X97411855Y-69155297D01*
X97235631Y-68978765D01*
X97005265Y-68883109D01*
X96755829Y-68882891D01*
X96525297Y-68978145D01*
X96348765Y-69154369D01*
X96253109Y-69384735D01*
X96252891Y-69634171D01*
X96348145Y-69864703D01*
X96447032Y-69963763D01*
X96342526Y-70031012D01*
X96267862Y-70140286D01*
X96241594Y-70270000D01*
X96241594Y-71768106D01*
X96238406Y-71768103D01*
X96238406Y-70270000D01*
X96215605Y-70148821D01*
X96143988Y-70037526D01*
X96040139Y-69966568D01*
X96131235Y-69875631D01*
X96226891Y-69645265D01*
X96227109Y-69395829D01*
X96131855Y-69165297D01*
X95955631Y-68988765D01*
X95725265Y-68893109D01*
X95475829Y-68892891D01*
X95245297Y-68988145D01*
X95068765Y-69164369D01*
X94977092Y-69385143D01*
X94977109Y-69365829D01*
X94881855Y-69135297D01*
X94705631Y-68958765D01*
X94475265Y-68863109D01*
X94225829Y-68862891D01*
X93995297Y-68958145D01*
X93818765Y-69134369D01*
X93723109Y-69364735D01*
X93722891Y-69614171D01*
X93804356Y-69811330D01*
X93724699Y-69731673D01*
X93491310Y-69635000D01*
X93350750Y-69635000D01*
X93192000Y-69793750D01*
X93192000Y-70893000D01*
X93212000Y-70893000D01*
X93212000Y-71147000D01*
X93192000Y-71147000D01*
X93192000Y-71167000D01*
X92938000Y-71167000D01*
X92938000Y-71147000D01*
X92918000Y-71147000D01*
X92918000Y-70893000D01*
X92938000Y-70893000D01*
X92938000Y-69793750D01*
X92779250Y-69635000D01*
X92638690Y-69635000D01*
X92405301Y-69731673D01*
X92377000Y-69759974D01*
X92377000Y-68737000D01*
X94999995Y-68737000D01*
X95000000Y-68737001D01*
X95163406Y-68704497D01*
X95301935Y-68611935D01*
X95496890Y-68416980D01*
X95644171Y-68417109D01*
X95874703Y-68321855D01*
X96051235Y-68145631D01*
X96146891Y-67915265D01*
X96147109Y-67665829D01*
X96051855Y-67435297D01*
X95947000Y-67330259D01*
X95947000Y-66695503D01*
X96026179Y-66680605D01*
X96137474Y-66608988D01*
X96212138Y-66499714D01*
X96238406Y-66370000D01*
X96238406Y-64870000D01*
X96215605Y-64748821D01*
X96162954Y-64667000D01*
X96317936Y-64667000D01*
X96267862Y-64740286D01*
X96267862Y-64740286D01*
G37*
X96267862Y-64740286D02*
X96241594Y-64870000D01*
X96241594Y-66370000D01*
X96264395Y-66491179D01*
X96336012Y-66602474D01*
X96445286Y-66677138D01*
X96448000Y-66677688D01*
X96448000Y-67424995D01*
X96447999Y-67425000D01*
X96480503Y-67588406D01*
X96573065Y-67726935D01*
X96883020Y-68036889D01*
X96882891Y-68184171D01*
X96978145Y-68414703D01*
X97154369Y-68591235D01*
X97384735Y-68686891D01*
X97634171Y-68687109D01*
X97864703Y-68591855D01*
X98041235Y-68415631D01*
X98136891Y-68185265D01*
X98137109Y-67935829D01*
X98041855Y-67705297D01*
X97865631Y-67528765D01*
X97635265Y-67433109D01*
X97486849Y-67432979D01*
X97302000Y-67248130D01*
X97302000Y-66718416D01*
X97306673Y-66729698D01*
X97485301Y-66908327D01*
X97718690Y-67005000D01*
X97859250Y-67005000D01*
X98018000Y-66846250D01*
X98018000Y-65747000D01*
X97998000Y-65747000D01*
X97998000Y-65493000D01*
X98018000Y-65493000D01*
X98018000Y-65473000D01*
X98272000Y-65473000D01*
X98272000Y-65493000D01*
X98292000Y-65493000D01*
X98292000Y-65747000D01*
X98272000Y-65747000D01*
X98272000Y-66846250D01*
X98430750Y-67005000D01*
X98571310Y-67005000D01*
X98804699Y-66908327D01*
X98983327Y-66729698D01*
X98988000Y-66718416D01*
X98988000Y-67554995D01*
X98987999Y-67555000D01*
X99020503Y-67718406D01*
X99113065Y-67856935D01*
X99798063Y-68541932D01*
X99798065Y-68541935D01*
X99925537Y-68627109D01*
X99936594Y-68634497D01*
X100100000Y-68667000D01*
X101379540Y-68667000D01*
X101343109Y-68754735D01*
X101342891Y-69004171D01*
X101438145Y-69234703D01*
X101528000Y-69324715D01*
X101528000Y-69963141D01*
X101422526Y-70031012D01*
X101347862Y-70140286D01*
X101321594Y-70270000D01*
X101321594Y-71770000D01*
X101344395Y-71891179D01*
X101377741Y-71943000D01*
X101262562Y-71943000D01*
X101292138Y-71899714D01*
X101318406Y-71770000D01*
X101318406Y-70270000D01*
X101295605Y-70148821D01*
X101223988Y-70037526D01*
X101114714Y-69962862D01*
X101112000Y-69962312D01*
X101112000Y-69804675D01*
X101221235Y-69695631D01*
X101316891Y-69465265D01*
X101317109Y-69215829D01*
X101221855Y-68985297D01*
X101045631Y-68808765D01*
X100815265Y-68713109D01*
X100565829Y-68712891D01*
X100335297Y-68808145D01*
X100158765Y-68984369D01*
X100063109Y-69214735D01*
X100062891Y-69464171D01*
X100158145Y-69694703D01*
X100258000Y-69794733D01*
X100258000Y-69963141D01*
X100152526Y-70031012D01*
X100077862Y-70140286D01*
X100051594Y-70270000D01*
X100051594Y-71770000D01*
X100074395Y-71891179D01*
X100107741Y-71943000D01*
X99992562Y-71943000D01*
X100022138Y-71899714D01*
X100048406Y-71770000D01*
X100048406Y-70270000D01*
X100025605Y-70148821D01*
X99953988Y-70037526D01*
X99873916Y-69982815D01*
X99951235Y-69905631D01*
X100046891Y-69675265D01*
X100047109Y-69425829D01*
X99951855Y-69195297D01*
X99775631Y-69018765D01*
X99545265Y-68923109D01*
X99295829Y-68922891D01*
X99065297Y-69018145D01*
X98888765Y-69194369D01*
X98793109Y-69424735D01*
X98792891Y-69674171D01*
X98888145Y-69904703D01*
X98962720Y-69979408D01*
X98882526Y-70031012D01*
X98807862Y-70140286D01*
X98781594Y-70270000D01*
X98781594Y-71770000D01*
X98804395Y-71891179D01*
X98836787Y-71941518D01*
X98835302Y-71943000D01*
X98722562Y-71943000D01*
X98752138Y-71899714D01*
X98778406Y-71770000D01*
X98778406Y-70270000D01*
X98755605Y-70148821D01*
X98683988Y-70037526D01*
X98603906Y-69982808D01*
X98691235Y-69895631D01*
X98786891Y-69665265D01*
X98787109Y-69415829D01*
X98691855Y-69185297D01*
X98515631Y-69008765D01*
X98285265Y-68913109D01*
X98035829Y-68912891D01*
X97805297Y-69008145D01*
X97628765Y-69184369D01*
X97533109Y-69414735D01*
X97532891Y-69664171D01*
X97628145Y-69894703D01*
X97704887Y-69971579D01*
X97612526Y-70031012D01*
X97537862Y-70140286D01*
X97511594Y-70270000D01*
X97511594Y-71770000D01*
X97534395Y-71891179D01*
X97567741Y-71943000D01*
X97452562Y-71943000D01*
X97482138Y-71899714D01*
X97508406Y-71770000D01*
X97508406Y-70270000D01*
X97485605Y-70148821D01*
X97413988Y-70037526D01*
X97310128Y-69966561D01*
X97411235Y-69865631D01*
X97506891Y-69635265D01*
X97507109Y-69385829D01*
X97411855Y-69155297D01*
X97235631Y-68978765D01*
X97005265Y-68883109D01*
X96755829Y-68882891D01*
X96525297Y-68978145D01*
X96348765Y-69154369D01*
X96253109Y-69384735D01*
X96252891Y-69634171D01*
X96348145Y-69864703D01*
X96447032Y-69963763D01*
X96342526Y-70031012D01*
X96267862Y-70140286D01*
X96241594Y-70270000D01*
X96241594Y-71768106D01*
X96238406Y-71768103D01*
X96238406Y-70270000D01*
X96215605Y-70148821D01*
X96143988Y-70037526D01*
X96040139Y-69966568D01*
X96131235Y-69875631D01*
X96226891Y-69645265D01*
X96227109Y-69395829D01*
X96131855Y-69165297D01*
X95955631Y-68988765D01*
X95725265Y-68893109D01*
X95475829Y-68892891D01*
X95245297Y-68988145D01*
X95068765Y-69164369D01*
X94977092Y-69385143D01*
X94977109Y-69365829D01*
X94881855Y-69135297D01*
X94705631Y-68958765D01*
X94475265Y-68863109D01*
X94225829Y-68862891D01*
X93995297Y-68958145D01*
X93818765Y-69134369D01*
X93723109Y-69364735D01*
X93722891Y-69614171D01*
X93804356Y-69811330D01*
X93724699Y-69731673D01*
X93491310Y-69635000D01*
X93350750Y-69635000D01*
X93192000Y-69793750D01*
X93192000Y-70893000D01*
X93212000Y-70893000D01*
X93212000Y-71147000D01*
X93192000Y-71147000D01*
X93192000Y-71167000D01*
X92938000Y-71167000D01*
X92938000Y-71147000D01*
X92918000Y-71147000D01*
X92918000Y-70893000D01*
X92938000Y-70893000D01*
X92938000Y-69793750D01*
X92779250Y-69635000D01*
X92638690Y-69635000D01*
X92405301Y-69731673D01*
X92377000Y-69759974D01*
X92377000Y-68737000D01*
X94999995Y-68737000D01*
X95000000Y-68737001D01*
X95163406Y-68704497D01*
X95301935Y-68611935D01*
X95496890Y-68416980D01*
X95644171Y-68417109D01*
X95874703Y-68321855D01*
X96051235Y-68145631D01*
X96146891Y-67915265D01*
X96147109Y-67665829D01*
X96051855Y-67435297D01*
X95947000Y-67330259D01*
X95947000Y-66695503D01*
X96026179Y-66680605D01*
X96137474Y-66608988D01*
X96212138Y-66499714D01*
X96238406Y-66370000D01*
X96238406Y-64870000D01*
X96215605Y-64748821D01*
X96162954Y-64667000D01*
X96317936Y-64667000D01*
X96267862Y-64740286D01*
G36*
X101347862Y-64740286D02*
X101321594Y-64870000D01*
X101321594Y-66370000D01*
X101344395Y-66491179D01*
X101416012Y-66602474D01*
X101525286Y-66677138D01*
X101655000Y-66703406D01*
X102255000Y-66703406D01*
X102376179Y-66680605D01*
X102487474Y-66608988D01*
X102562138Y-66499714D01*
X102586339Y-66380208D01*
X103118063Y-66911932D01*
X103118065Y-66911935D01*
X103222946Y-66982014D01*
X103256594Y-67004497D01*
X103420000Y-67037000D01*
X103623127Y-67037000D01*
X103610000Y-67068691D01*
X103610000Y-67309250D01*
X103768750Y-67468000D01*
X104493000Y-67468000D01*
X104493000Y-67448000D01*
X104747000Y-67448000D01*
X104747000Y-67468000D01*
X105471250Y-67468000D01*
X105537690Y-67401560D01*
X105959199Y-67823069D01*
X105755829Y-67822891D01*
X105625848Y-67876598D01*
X105471250Y-67722000D01*
X104747000Y-67722000D01*
X104747000Y-67742000D01*
X104493000Y-67742000D01*
X104493000Y-67722000D01*
X103768750Y-67722000D01*
X103610000Y-67880750D01*
X103610000Y-68121309D01*
X103641694Y-68197825D01*
X102961935Y-67518065D01*
X102823406Y-67425503D01*
X102660000Y-67392999D01*
X102659995Y-67393000D01*
X101112000Y-67393000D01*
X101112000Y-67105141D01*
X101117001Y-67080000D01*
X101112000Y-67054859D01*
X101112000Y-66676859D01*
X101217474Y-66608988D01*
X101292138Y-66499714D01*
X101318406Y-66370000D01*
X101318406Y-64870000D01*
X101295605Y-64748821D01*
X101242954Y-64667000D01*
X101397936Y-64667000D01*
X101347862Y-64740286D01*
X101347862Y-64740286D01*
G37*
X101347862Y-64740286D02*
X101321594Y-64870000D01*
X101321594Y-66370000D01*
X101344395Y-66491179D01*
X101416012Y-66602474D01*
X101525286Y-66677138D01*
X101655000Y-66703406D01*
X102255000Y-66703406D01*
X102376179Y-66680605D01*
X102487474Y-66608988D01*
X102562138Y-66499714D01*
X102586339Y-66380208D01*
X103118063Y-66911932D01*
X103118065Y-66911935D01*
X103222946Y-66982014D01*
X103256594Y-67004497D01*
X103420000Y-67037000D01*
X103623127Y-67037000D01*
X103610000Y-67068691D01*
X103610000Y-67309250D01*
X103768750Y-67468000D01*
X104493000Y-67468000D01*
X104493000Y-67448000D01*
X104747000Y-67448000D01*
X104747000Y-67468000D01*
X105471250Y-67468000D01*
X105537690Y-67401560D01*
X105959199Y-67823069D01*
X105755829Y-67822891D01*
X105625848Y-67876598D01*
X105471250Y-67722000D01*
X104747000Y-67722000D01*
X104747000Y-67742000D01*
X104493000Y-67742000D01*
X104493000Y-67722000D01*
X103768750Y-67722000D01*
X103610000Y-67880750D01*
X103610000Y-68121309D01*
X103641694Y-68197825D01*
X102961935Y-67518065D01*
X102823406Y-67425503D01*
X102660000Y-67392999D01*
X102659995Y-67393000D01*
X101112000Y-67393000D01*
X101112000Y-67105141D01*
X101117001Y-67080000D01*
X101112000Y-67054859D01*
X101112000Y-66676859D01*
X101217474Y-66608988D01*
X101292138Y-66499714D01*
X101318406Y-66370000D01*
X101318406Y-64870000D01*
X101295605Y-64748821D01*
X101242954Y-64667000D01*
X101397936Y-64667000D01*
X101347862Y-64740286D01*
M02*
