G04 #@! TF.FileFunction,Soldermask,Bot*
%FSLAX46Y46*%
G04 Gerber Fmt 4.6, Leading zero omitted, Abs format (unit mm)*
G04 Created by KiCad (PCBNEW 4.0.7) date Tue Feb  6 08:28:50 2018*
%MOMM*%
%LPD*%
G01*
G04 APERTURE LIST*
%ADD10C,0.100000*%
%ADD11C,0.010000*%
%ADD12R,1.150000X1.200000*%
%ADD13R,1.300000X0.900000*%
%ADD14R,1.400760X1.400760*%
%ADD15R,2.000000X0.950000*%
%ADD16R,0.950000X2.000000*%
%ADD17R,1.000000X2.400000*%
%ADD18R,1.000000X1.900000*%
%ADD19R,1.200000X1.150000*%
%ADD20R,2.300000X1.900000*%
%ADD21C,1.850000*%
%ADD22R,1.750000X0.800000*%
%ADD23O,2.300000X1.600000*%
%ADD24R,2.300000X1.600000*%
%ADD25R,0.900000X2.400000*%
%ADD26C,2.400000*%
%ADD27R,2.800000X1.100000*%
G04 APERTURE END LIST*
D10*
D11*
G36*
X136735308Y-94867786D02*
X136685698Y-94889843D01*
X136643168Y-94922480D01*
X136610448Y-94964899D01*
X136593120Y-95005515D01*
X136589511Y-95025039D01*
X136585857Y-95057442D01*
X136582526Y-95098678D01*
X136579881Y-95144697D01*
X136579275Y-95158867D01*
X136578035Y-95247235D01*
X136581950Y-95320458D01*
X136591145Y-95379560D01*
X136605750Y-95425565D01*
X136614675Y-95443221D01*
X136649532Y-95486975D01*
X136694285Y-95519281D01*
X136745879Y-95539601D01*
X136801258Y-95547396D01*
X136857368Y-95542128D01*
X136911154Y-95523257D01*
X136945871Y-95501601D01*
X136964208Y-95488429D01*
X136976453Y-95481123D01*
X136978202Y-95480600D01*
X136979404Y-95488722D01*
X136980496Y-95511707D01*
X136981439Y-95547486D01*
X136982193Y-95593989D01*
X136982719Y-95649146D01*
X136982979Y-95710887D01*
X136983000Y-95734544D01*
X136983000Y-95988488D01*
X136944707Y-95959258D01*
X136916994Y-95941290D01*
X136888468Y-95927649D01*
X136874857Y-95923431D01*
X136832372Y-95918268D01*
X136786601Y-95918620D01*
X136744625Y-95924115D01*
X136719352Y-95931612D01*
X136678887Y-95955572D01*
X136640203Y-95990459D01*
X136609042Y-96030740D01*
X136600378Y-96046288D01*
X136594865Y-96058056D01*
X136590471Y-96069858D01*
X136587045Y-96083738D01*
X136584434Y-96101739D01*
X136582487Y-96125907D01*
X136581052Y-96158285D01*
X136579977Y-96200917D01*
X136579110Y-96255847D01*
X136578298Y-96325120D01*
X136578071Y-96346317D01*
X136575309Y-96606667D01*
X136720533Y-96606667D01*
X136720533Y-96393866D01*
X136720984Y-96314148D01*
X136722318Y-96248765D01*
X136724507Y-96198397D01*
X136727524Y-96163727D01*
X136730462Y-96147926D01*
X136748773Y-96112642D01*
X136778346Y-96082865D01*
X136813891Y-96063413D01*
X136827223Y-96059848D01*
X136862444Y-96060328D01*
X136900450Y-96071702D01*
X136934083Y-96091172D01*
X136951348Y-96108334D01*
X136960394Y-96122764D01*
X136967545Y-96140381D01*
X136973015Y-96163220D01*
X136977019Y-96193318D01*
X136979771Y-96232709D01*
X136981485Y-96283430D01*
X136982375Y-96347516D01*
X136982631Y-96405583D01*
X136983000Y-96606667D01*
X137049322Y-96606667D01*
X137081357Y-96605992D01*
X137106504Y-96604202D01*
X137120243Y-96601654D01*
X137121289Y-96601022D01*
X137122069Y-96591951D01*
X137122816Y-96567077D01*
X137123525Y-96527530D01*
X137124186Y-96474440D01*
X137124795Y-96408939D01*
X137125341Y-96332155D01*
X137125820Y-96245220D01*
X137126223Y-96149263D01*
X137126542Y-96045416D01*
X137126772Y-95934807D01*
X137126903Y-95818568D01*
X137126933Y-95728956D01*
X137126933Y-95205820D01*
X136970300Y-95205820D01*
X136969986Y-95255071D01*
X136968823Y-95290508D01*
X136966474Y-95315243D01*
X136962608Y-95332386D01*
X136956888Y-95345049D01*
X136955023Y-95348041D01*
X136925437Y-95378796D01*
X136887180Y-95397952D01*
X136844780Y-95404485D01*
X136802761Y-95397375D01*
X136781407Y-95387250D01*
X136760058Y-95370912D01*
X136744596Y-95350044D01*
X136734196Y-95321928D01*
X136728033Y-95283848D01*
X136725282Y-95233086D01*
X136724926Y-95201200D01*
X136725238Y-95154673D01*
X136726653Y-95121256D01*
X136729645Y-95097138D01*
X136734688Y-95078507D01*
X136742254Y-95061553D01*
X136742281Y-95061500D01*
X136768096Y-95028544D01*
X136803135Y-95007019D01*
X136843237Y-94997981D01*
X136884243Y-95002486D01*
X136916131Y-95017366D01*
X136935912Y-95032466D01*
X136950269Y-95049056D01*
X136960043Y-95070055D01*
X136966073Y-95098385D01*
X136969198Y-95136967D01*
X136970259Y-95188721D01*
X136970300Y-95205820D01*
X137126933Y-95205820D01*
X137126933Y-94862534D01*
X136984022Y-94862534D01*
X136981395Y-94892592D01*
X136978767Y-94922650D01*
X136949936Y-94901302D01*
X136899312Y-94873066D01*
X136844846Y-94858600D01*
X136789268Y-94857105D01*
X136735308Y-94867786D01*
X136735308Y-94867786D01*
G37*
X136735308Y-94867786D02*
X136685698Y-94889843D01*
X136643168Y-94922480D01*
X136610448Y-94964899D01*
X136593120Y-95005515D01*
X136589511Y-95025039D01*
X136585857Y-95057442D01*
X136582526Y-95098678D01*
X136579881Y-95144697D01*
X136579275Y-95158867D01*
X136578035Y-95247235D01*
X136581950Y-95320458D01*
X136591145Y-95379560D01*
X136605750Y-95425565D01*
X136614675Y-95443221D01*
X136649532Y-95486975D01*
X136694285Y-95519281D01*
X136745879Y-95539601D01*
X136801258Y-95547396D01*
X136857368Y-95542128D01*
X136911154Y-95523257D01*
X136945871Y-95501601D01*
X136964208Y-95488429D01*
X136976453Y-95481123D01*
X136978202Y-95480600D01*
X136979404Y-95488722D01*
X136980496Y-95511707D01*
X136981439Y-95547486D01*
X136982193Y-95593989D01*
X136982719Y-95649146D01*
X136982979Y-95710887D01*
X136983000Y-95734544D01*
X136983000Y-95988488D01*
X136944707Y-95959258D01*
X136916994Y-95941290D01*
X136888468Y-95927649D01*
X136874857Y-95923431D01*
X136832372Y-95918268D01*
X136786601Y-95918620D01*
X136744625Y-95924115D01*
X136719352Y-95931612D01*
X136678887Y-95955572D01*
X136640203Y-95990459D01*
X136609042Y-96030740D01*
X136600378Y-96046288D01*
X136594865Y-96058056D01*
X136590471Y-96069858D01*
X136587045Y-96083738D01*
X136584434Y-96101739D01*
X136582487Y-96125907D01*
X136581052Y-96158285D01*
X136579977Y-96200917D01*
X136579110Y-96255847D01*
X136578298Y-96325120D01*
X136578071Y-96346317D01*
X136575309Y-96606667D01*
X136720533Y-96606667D01*
X136720533Y-96393866D01*
X136720984Y-96314148D01*
X136722318Y-96248765D01*
X136724507Y-96198397D01*
X136727524Y-96163727D01*
X136730462Y-96147926D01*
X136748773Y-96112642D01*
X136778346Y-96082865D01*
X136813891Y-96063413D01*
X136827223Y-96059848D01*
X136862444Y-96060328D01*
X136900450Y-96071702D01*
X136934083Y-96091172D01*
X136951348Y-96108334D01*
X136960394Y-96122764D01*
X136967545Y-96140381D01*
X136973015Y-96163220D01*
X136977019Y-96193318D01*
X136979771Y-96232709D01*
X136981485Y-96283430D01*
X136982375Y-96347516D01*
X136982631Y-96405583D01*
X136983000Y-96606667D01*
X137049322Y-96606667D01*
X137081357Y-96605992D01*
X137106504Y-96604202D01*
X137120243Y-96601654D01*
X137121289Y-96601022D01*
X137122069Y-96591951D01*
X137122816Y-96567077D01*
X137123525Y-96527530D01*
X137124186Y-96474440D01*
X137124795Y-96408939D01*
X137125341Y-96332155D01*
X137125820Y-96245220D01*
X137126223Y-96149263D01*
X137126542Y-96045416D01*
X137126772Y-95934807D01*
X137126903Y-95818568D01*
X137126933Y-95728956D01*
X137126933Y-95205820D01*
X136970300Y-95205820D01*
X136969986Y-95255071D01*
X136968823Y-95290508D01*
X136966474Y-95315243D01*
X136962608Y-95332386D01*
X136956888Y-95345049D01*
X136955023Y-95348041D01*
X136925437Y-95378796D01*
X136887180Y-95397952D01*
X136844780Y-95404485D01*
X136802761Y-95397375D01*
X136781407Y-95387250D01*
X136760058Y-95370912D01*
X136744596Y-95350044D01*
X136734196Y-95321928D01*
X136728033Y-95283848D01*
X136725282Y-95233086D01*
X136724926Y-95201200D01*
X136725238Y-95154673D01*
X136726653Y-95121256D01*
X136729645Y-95097138D01*
X136734688Y-95078507D01*
X136742254Y-95061553D01*
X136742281Y-95061500D01*
X136768096Y-95028544D01*
X136803135Y-95007019D01*
X136843237Y-94997981D01*
X136884243Y-95002486D01*
X136916131Y-95017366D01*
X136935912Y-95032466D01*
X136950269Y-95049056D01*
X136960043Y-95070055D01*
X136966073Y-95098385D01*
X136969198Y-95136967D01*
X136970259Y-95188721D01*
X136970300Y-95205820D01*
X137126933Y-95205820D01*
X137126933Y-94862534D01*
X136984022Y-94862534D01*
X136981395Y-94892592D01*
X136978767Y-94922650D01*
X136949936Y-94901302D01*
X136899312Y-94873066D01*
X136844846Y-94858600D01*
X136789268Y-94857105D01*
X136735308Y-94867786D01*
G36*
X136165119Y-95919297D02*
X136129177Y-95922707D01*
X136099314Y-95929086D01*
X136075225Y-95937194D01*
X136026234Y-95963750D01*
X135986816Y-96000886D01*
X135959730Y-96045567D01*
X135950656Y-96074206D01*
X135948099Y-96094866D01*
X135945867Y-96130200D01*
X135944031Y-96177952D01*
X135942661Y-96235863D01*
X135941830Y-96301678D01*
X135941600Y-96361550D01*
X135941600Y-96606667D01*
X136085534Y-96606667D01*
X136085534Y-96555005D01*
X136116404Y-96578551D01*
X136131934Y-96589412D01*
X136147092Y-96596446D01*
X136166228Y-96600608D01*
X136193691Y-96602852D01*
X136232821Y-96604110D01*
X136271544Y-96604301D01*
X136305892Y-96603175D01*
X136331025Y-96600952D01*
X136339588Y-96599211D01*
X136392598Y-96574187D01*
X136435004Y-96538635D01*
X136466060Y-96495118D01*
X136485023Y-96446196D01*
X136491147Y-96394430D01*
X136490895Y-96392671D01*
X136352293Y-96392671D01*
X136346362Y-96422442D01*
X136327017Y-96447497D01*
X136311651Y-96457427D01*
X136287046Y-96464671D01*
X136251718Y-96469290D01*
X136211698Y-96471102D01*
X136173020Y-96469928D01*
X136141715Y-96465588D01*
X136132242Y-96462787D01*
X136110884Y-96446176D01*
X136095141Y-96416712D01*
X136086605Y-96377988D01*
X136085534Y-96357172D01*
X136085534Y-96318800D01*
X136180182Y-96318800D01*
X136235592Y-96319995D01*
X136276843Y-96324052D01*
X136306569Y-96331679D01*
X136327407Y-96343586D01*
X136341994Y-96360480D01*
X136343316Y-96362650D01*
X136352293Y-96392671D01*
X136490895Y-96392671D01*
X136483688Y-96342380D01*
X136461899Y-96292607D01*
X136438026Y-96260826D01*
X136417844Y-96241109D01*
X136396226Y-96226426D01*
X136370236Y-96215986D01*
X136336934Y-96208997D01*
X136293383Y-96204666D01*
X136236643Y-96202202D01*
X136218883Y-96201759D01*
X136085534Y-96198779D01*
X136085534Y-96153428D01*
X136089972Y-96113653D01*
X136104642Y-96085651D01*
X136131570Y-96067093D01*
X136170200Y-96056113D01*
X136227102Y-96051294D01*
X136277382Y-96058481D01*
X136318062Y-96077217D01*
X136320979Y-96079325D01*
X136348990Y-96100284D01*
X136380245Y-96078422D01*
X136406719Y-96059237D01*
X136432428Y-96039606D01*
X136436900Y-96036036D01*
X136462300Y-96015513D01*
X136426868Y-95981753D01*
X136392309Y-95954362D01*
X136353402Y-95935370D01*
X136306791Y-95923780D01*
X136249118Y-95918595D01*
X136212533Y-95918106D01*
X136165119Y-95919297D01*
X136165119Y-95919297D01*
G37*
X136165119Y-95919297D02*
X136129177Y-95922707D01*
X136099314Y-95929086D01*
X136075225Y-95937194D01*
X136026234Y-95963750D01*
X135986816Y-96000886D01*
X135959730Y-96045567D01*
X135950656Y-96074206D01*
X135948099Y-96094866D01*
X135945867Y-96130200D01*
X135944031Y-96177952D01*
X135942661Y-96235863D01*
X135941830Y-96301678D01*
X135941600Y-96361550D01*
X135941600Y-96606667D01*
X136085534Y-96606667D01*
X136085534Y-96555005D01*
X136116404Y-96578551D01*
X136131934Y-96589412D01*
X136147092Y-96596446D01*
X136166228Y-96600608D01*
X136193691Y-96602852D01*
X136232821Y-96604110D01*
X136271544Y-96604301D01*
X136305892Y-96603175D01*
X136331025Y-96600952D01*
X136339588Y-96599211D01*
X136392598Y-96574187D01*
X136435004Y-96538635D01*
X136466060Y-96495118D01*
X136485023Y-96446196D01*
X136491147Y-96394430D01*
X136490895Y-96392671D01*
X136352293Y-96392671D01*
X136346362Y-96422442D01*
X136327017Y-96447497D01*
X136311651Y-96457427D01*
X136287046Y-96464671D01*
X136251718Y-96469290D01*
X136211698Y-96471102D01*
X136173020Y-96469928D01*
X136141715Y-96465588D01*
X136132242Y-96462787D01*
X136110884Y-96446176D01*
X136095141Y-96416712D01*
X136086605Y-96377988D01*
X136085534Y-96357172D01*
X136085534Y-96318800D01*
X136180182Y-96318800D01*
X136235592Y-96319995D01*
X136276843Y-96324052D01*
X136306569Y-96331679D01*
X136327407Y-96343586D01*
X136341994Y-96360480D01*
X136343316Y-96362650D01*
X136352293Y-96392671D01*
X136490895Y-96392671D01*
X136483688Y-96342380D01*
X136461899Y-96292607D01*
X136438026Y-96260826D01*
X136417844Y-96241109D01*
X136396226Y-96226426D01*
X136370236Y-96215986D01*
X136336934Y-96208997D01*
X136293383Y-96204666D01*
X136236643Y-96202202D01*
X136218883Y-96201759D01*
X136085534Y-96198779D01*
X136085534Y-96153428D01*
X136089972Y-96113653D01*
X136104642Y-96085651D01*
X136131570Y-96067093D01*
X136170200Y-96056113D01*
X136227102Y-96051294D01*
X136277382Y-96058481D01*
X136318062Y-96077217D01*
X136320979Y-96079325D01*
X136348990Y-96100284D01*
X136380245Y-96078422D01*
X136406719Y-96059237D01*
X136432428Y-96039606D01*
X136436900Y-96036036D01*
X136462300Y-96015513D01*
X136426868Y-95981753D01*
X136392309Y-95954362D01*
X136353402Y-95935370D01*
X136306791Y-95923780D01*
X136249118Y-95918595D01*
X136212533Y-95918106D01*
X136165119Y-95919297D01*
G36*
X135460322Y-95918119D02*
X135403418Y-95932614D01*
X135384917Y-95940944D01*
X135361176Y-95953715D01*
X135345048Y-95963790D01*
X135340467Y-95968186D01*
X135345478Y-95976527D01*
X135358530Y-95993891D01*
X135376652Y-96016672D01*
X135396871Y-96041269D01*
X135416217Y-96064076D01*
X135431719Y-96081492D01*
X135440403Y-96089912D01*
X135441082Y-96090200D01*
X135450465Y-96086823D01*
X135469669Y-96078241D01*
X135481710Y-96072520D01*
X135525027Y-96059932D01*
X135566921Y-96063327D01*
X135604711Y-96081804D01*
X135635716Y-96114458D01*
X135643319Y-96126931D01*
X135647828Y-96137081D01*
X135651399Y-96150551D01*
X135654176Y-96169421D01*
X135656299Y-96195773D01*
X135657914Y-96231687D01*
X135659162Y-96279245D01*
X135660186Y-96340529D01*
X135660698Y-96380183D01*
X135663429Y-96606667D01*
X135729137Y-96606667D01*
X135761019Y-96605985D01*
X135786001Y-96604181D01*
X135799538Y-96601614D01*
X135800489Y-96601022D01*
X135801725Y-96591589D01*
X135802867Y-96567060D01*
X135803886Y-96529269D01*
X135804751Y-96480054D01*
X135805431Y-96421251D01*
X135805897Y-96354696D01*
X135806119Y-96282226D01*
X135806134Y-96258122D01*
X135806134Y-95920867D01*
X135662200Y-95920867D01*
X135662200Y-95988488D01*
X135623907Y-95959258D01*
X135574493Y-95931742D01*
X135518656Y-95917928D01*
X135460322Y-95918119D01*
X135460322Y-95918119D01*
G37*
X135460322Y-95918119D02*
X135403418Y-95932614D01*
X135384917Y-95940944D01*
X135361176Y-95953715D01*
X135345048Y-95963790D01*
X135340467Y-95968186D01*
X135345478Y-95976527D01*
X135358530Y-95993891D01*
X135376652Y-96016672D01*
X135396871Y-96041269D01*
X135416217Y-96064076D01*
X135431719Y-96081492D01*
X135440403Y-96089912D01*
X135441082Y-96090200D01*
X135450465Y-96086823D01*
X135469669Y-96078241D01*
X135481710Y-96072520D01*
X135525027Y-96059932D01*
X135566921Y-96063327D01*
X135604711Y-96081804D01*
X135635716Y-96114458D01*
X135643319Y-96126931D01*
X135647828Y-96137081D01*
X135651399Y-96150551D01*
X135654176Y-96169421D01*
X135656299Y-96195773D01*
X135657914Y-96231687D01*
X135659162Y-96279245D01*
X135660186Y-96340529D01*
X135660698Y-96380183D01*
X135663429Y-96606667D01*
X135729137Y-96606667D01*
X135761019Y-96605985D01*
X135786001Y-96604181D01*
X135799538Y-96601614D01*
X135800489Y-96601022D01*
X135801725Y-96591589D01*
X135802867Y-96567060D01*
X135803886Y-96529269D01*
X135804751Y-96480054D01*
X135805431Y-96421251D01*
X135805897Y-96354696D01*
X135806119Y-96282226D01*
X135806134Y-96258122D01*
X135806134Y-95920867D01*
X135662200Y-95920867D01*
X135662200Y-95988488D01*
X135623907Y-95959258D01*
X135574493Y-95931742D01*
X135518656Y-95917928D01*
X135460322Y-95918119D01*
G36*
X134798600Y-96606667D02*
X134942533Y-96606667D01*
X134942533Y-96535982D01*
X134961583Y-96553865D01*
X135003132Y-96582114D01*
X135053958Y-96600046D01*
X135109513Y-96607119D01*
X135165248Y-96602789D01*
X135216611Y-96586515D01*
X135220284Y-96584736D01*
X135269641Y-96551410D01*
X135306680Y-96507451D01*
X135327300Y-96463002D01*
X135336554Y-96422817D01*
X135342766Y-96371797D01*
X135346031Y-96313649D01*
X135346268Y-96278397D01*
X135202177Y-96278397D01*
X135198486Y-96327715D01*
X135188424Y-96380671D01*
X135172734Y-96418911D01*
X135149842Y-96444163D01*
X135118174Y-96458153D01*
X135076155Y-96462606D01*
X135075463Y-96462609D01*
X135045441Y-96460077D01*
X135018451Y-96453573D01*
X135011104Y-96450466D01*
X134987529Y-96433595D01*
X134970476Y-96409181D01*
X134958389Y-96374090D01*
X134950003Y-96327372D01*
X134946146Y-96278782D01*
X134946720Y-96228508D01*
X134951277Y-96181065D01*
X134959366Y-96140967D01*
X134970537Y-96112730D01*
X134971541Y-96111134D01*
X134999405Y-96081440D01*
X135036125Y-96065150D01*
X135073767Y-96061172D01*
X135118991Y-96067203D01*
X135153897Y-96085908D01*
X135176066Y-96111246D01*
X135187872Y-96139092D01*
X135196466Y-96179198D01*
X135201388Y-96227116D01*
X135202177Y-96278397D01*
X135346268Y-96278397D01*
X135346445Y-96252076D01*
X135344103Y-96190785D01*
X135339101Y-96133481D01*
X135331536Y-96083870D01*
X135321502Y-96045657D01*
X135316202Y-96033158D01*
X135282896Y-95985643D01*
X135238358Y-95949976D01*
X135184419Y-95927230D01*
X135122909Y-95918476D01*
X135120333Y-95918433D01*
X135065101Y-95923931D01*
X135013182Y-95940525D01*
X134970015Y-95966325D01*
X134961689Y-95973556D01*
X134942533Y-95991552D01*
X134942533Y-95649934D01*
X134798600Y-95649934D01*
X134798600Y-96606667D01*
X134798600Y-96606667D01*
G37*
X134798600Y-96606667D02*
X134942533Y-96606667D01*
X134942533Y-96535982D01*
X134961583Y-96553865D01*
X135003132Y-96582114D01*
X135053958Y-96600046D01*
X135109513Y-96607119D01*
X135165248Y-96602789D01*
X135216611Y-96586515D01*
X135220284Y-96584736D01*
X135269641Y-96551410D01*
X135306680Y-96507451D01*
X135327300Y-96463002D01*
X135336554Y-96422817D01*
X135342766Y-96371797D01*
X135346031Y-96313649D01*
X135346268Y-96278397D01*
X135202177Y-96278397D01*
X135198486Y-96327715D01*
X135188424Y-96380671D01*
X135172734Y-96418911D01*
X135149842Y-96444163D01*
X135118174Y-96458153D01*
X135076155Y-96462606D01*
X135075463Y-96462609D01*
X135045441Y-96460077D01*
X135018451Y-96453573D01*
X135011104Y-96450466D01*
X134987529Y-96433595D01*
X134970476Y-96409181D01*
X134958389Y-96374090D01*
X134950003Y-96327372D01*
X134946146Y-96278782D01*
X134946720Y-96228508D01*
X134951277Y-96181065D01*
X134959366Y-96140967D01*
X134970537Y-96112730D01*
X134971541Y-96111134D01*
X134999405Y-96081440D01*
X135036125Y-96065150D01*
X135073767Y-96061172D01*
X135118991Y-96067203D01*
X135153897Y-96085908D01*
X135176066Y-96111246D01*
X135187872Y-96139092D01*
X135196466Y-96179198D01*
X135201388Y-96227116D01*
X135202177Y-96278397D01*
X135346268Y-96278397D01*
X135346445Y-96252076D01*
X135344103Y-96190785D01*
X135339101Y-96133481D01*
X135331536Y-96083870D01*
X135321502Y-96045657D01*
X135316202Y-96033158D01*
X135282896Y-95985643D01*
X135238358Y-95949976D01*
X135184419Y-95927230D01*
X135122909Y-95918476D01*
X135120333Y-95918433D01*
X135065101Y-95923931D01*
X135013182Y-95940525D01*
X134970015Y-95966325D01*
X134961689Y-95973556D01*
X134942533Y-95991552D01*
X134942533Y-95649934D01*
X134798600Y-95649934D01*
X134798600Y-96606667D01*
G36*
X134575662Y-95963662D02*
X134569711Y-95984562D01*
X134560193Y-96018697D01*
X134547969Y-96062959D01*
X134533894Y-96114237D01*
X134518827Y-96169422D01*
X134513764Y-96188029D01*
X134499284Y-96240559D01*
X134486058Y-96287127D01*
X134474781Y-96325408D01*
X134466144Y-96353077D01*
X134460840Y-96367808D01*
X134459691Y-96369600D01*
X134455962Y-96361876D01*
X134447804Y-96340074D01*
X134435924Y-96306254D01*
X134421032Y-96262471D01*
X134403837Y-96210785D01*
X134385047Y-96153254D01*
X134383137Y-96147350D01*
X134311305Y-95925100D01*
X134203329Y-95925100D01*
X134130823Y-96151473D01*
X134111950Y-96209443D01*
X134094510Y-96261195D01*
X134079198Y-96304809D01*
X134066712Y-96338365D01*
X134057745Y-96359941D01*
X134052993Y-96367617D01*
X134052639Y-96367373D01*
X134048970Y-96356636D01*
X134041586Y-96331835D01*
X134031135Y-96295267D01*
X134018266Y-96249231D01*
X134003630Y-96196024D01*
X133989841Y-96145234D01*
X133974204Y-96087867D01*
X133959740Y-96035887D01*
X133947096Y-95991541D01*
X133936921Y-95957074D01*
X133929866Y-95934731D01*
X133926738Y-95926868D01*
X133916067Y-95924091D01*
X133892805Y-95922493D01*
X133861268Y-95922308D01*
X133848657Y-95922634D01*
X133776560Y-95925100D01*
X133884573Y-96263767D01*
X133992586Y-96602433D01*
X134118816Y-96607335D01*
X134184618Y-96384751D01*
X134202071Y-96326134D01*
X134218168Y-96272871D01*
X134232239Y-96227116D01*
X134243613Y-96191021D01*
X134251621Y-96166740D01*
X134255594Y-96156426D01*
X134255694Y-96156293D01*
X134259354Y-96162523D01*
X134267082Y-96183030D01*
X134278224Y-96215828D01*
X134292129Y-96258932D01*
X134308143Y-96310356D01*
X134325614Y-96368115D01*
X134328700Y-96378483D01*
X134396434Y-96606546D01*
X134457317Y-96606606D01*
X134487640Y-96605816D01*
X134510630Y-96603677D01*
X134521708Y-96600635D01*
X134521973Y-96600317D01*
X134525282Y-96591115D01*
X134533142Y-96567515D01*
X134544990Y-96531263D01*
X134560260Y-96484103D01*
X134578389Y-96427779D01*
X134598813Y-96364038D01*
X134620968Y-96294623D01*
X134629443Y-96268000D01*
X134652127Y-96196742D01*
X134673293Y-96130343D01*
X134692375Y-96070577D01*
X134708804Y-96019217D01*
X134722012Y-95978039D01*
X134731432Y-95948815D01*
X134736497Y-95933321D01*
X134737142Y-95931450D01*
X134734774Y-95926173D01*
X134721427Y-95922864D01*
X134694957Y-95921210D01*
X134664676Y-95920867D01*
X134588207Y-95920867D01*
X134575662Y-95963662D01*
X134575662Y-95963662D01*
G37*
X134575662Y-95963662D02*
X134569711Y-95984562D01*
X134560193Y-96018697D01*
X134547969Y-96062959D01*
X134533894Y-96114237D01*
X134518827Y-96169422D01*
X134513764Y-96188029D01*
X134499284Y-96240559D01*
X134486058Y-96287127D01*
X134474781Y-96325408D01*
X134466144Y-96353077D01*
X134460840Y-96367808D01*
X134459691Y-96369600D01*
X134455962Y-96361876D01*
X134447804Y-96340074D01*
X134435924Y-96306254D01*
X134421032Y-96262471D01*
X134403837Y-96210785D01*
X134385047Y-96153254D01*
X134383137Y-96147350D01*
X134311305Y-95925100D01*
X134203329Y-95925100D01*
X134130823Y-96151473D01*
X134111950Y-96209443D01*
X134094510Y-96261195D01*
X134079198Y-96304809D01*
X134066712Y-96338365D01*
X134057745Y-96359941D01*
X134052993Y-96367617D01*
X134052639Y-96367373D01*
X134048970Y-96356636D01*
X134041586Y-96331835D01*
X134031135Y-96295267D01*
X134018266Y-96249231D01*
X134003630Y-96196024D01*
X133989841Y-96145234D01*
X133974204Y-96087867D01*
X133959740Y-96035887D01*
X133947096Y-95991541D01*
X133936921Y-95957074D01*
X133929866Y-95934731D01*
X133926738Y-95926868D01*
X133916067Y-95924091D01*
X133892805Y-95922493D01*
X133861268Y-95922308D01*
X133848657Y-95922634D01*
X133776560Y-95925100D01*
X133884573Y-96263767D01*
X133992586Y-96602433D01*
X134118816Y-96607335D01*
X134184618Y-96384751D01*
X134202071Y-96326134D01*
X134218168Y-96272871D01*
X134232239Y-96227116D01*
X134243613Y-96191021D01*
X134251621Y-96166740D01*
X134255594Y-96156426D01*
X134255694Y-96156293D01*
X134259354Y-96162523D01*
X134267082Y-96183030D01*
X134278224Y-96215828D01*
X134292129Y-96258932D01*
X134308143Y-96310356D01*
X134325614Y-96368115D01*
X134328700Y-96378483D01*
X134396434Y-96606546D01*
X134457317Y-96606606D01*
X134487640Y-96605816D01*
X134510630Y-96603677D01*
X134521708Y-96600635D01*
X134521973Y-96600317D01*
X134525282Y-96591115D01*
X134533142Y-96567515D01*
X134544990Y-96531263D01*
X134560260Y-96484103D01*
X134578389Y-96427779D01*
X134598813Y-96364038D01*
X134620968Y-96294623D01*
X134629443Y-96268000D01*
X134652127Y-96196742D01*
X134673293Y-96130343D01*
X134692375Y-96070577D01*
X134708804Y-96019217D01*
X134722012Y-95978039D01*
X134731432Y-95948815D01*
X134736497Y-95933321D01*
X134737142Y-95931450D01*
X134734774Y-95926173D01*
X134721427Y-95922864D01*
X134694957Y-95921210D01*
X134664676Y-95920867D01*
X134588207Y-95920867D01*
X134575662Y-95963662D01*
G36*
X133422265Y-95922260D02*
X133376875Y-95931327D01*
X133375973Y-95931595D01*
X133327230Y-95953108D01*
X133284950Y-95984929D01*
X133253404Y-96023500D01*
X133244184Y-96041323D01*
X133239760Y-96053270D01*
X133236193Y-96067558D01*
X133233358Y-96086172D01*
X133231135Y-96111096D01*
X133229398Y-96144315D01*
X133228026Y-96187813D01*
X133226894Y-96243574D01*
X133225881Y-96313584D01*
X133225528Y-96342083D01*
X133222348Y-96606667D01*
X133367733Y-96606667D01*
X133367991Y-96574917D01*
X133368850Y-96555659D01*
X133371763Y-96551289D01*
X133377328Y-96558787D01*
X133390405Y-96571801D01*
X133412396Y-96585838D01*
X133421521Y-96590351D01*
X133454787Y-96600017D01*
X133498518Y-96605304D01*
X133546806Y-96606148D01*
X133593741Y-96602487D01*
X133633414Y-96594259D01*
X133638314Y-96592648D01*
X133690359Y-96566261D01*
X133730796Y-96528710D01*
X133758631Y-96482026D01*
X133772872Y-96428239D01*
X133772600Y-96382079D01*
X133636517Y-96382079D01*
X133636073Y-96411298D01*
X133621632Y-96438470D01*
X133602456Y-96454498D01*
X133576311Y-96464141D01*
X133539484Y-96469998D01*
X133497823Y-96471947D01*
X133457180Y-96469867D01*
X133423402Y-96463638D01*
X133410041Y-96458487D01*
X133387940Y-96437772D01*
X133373650Y-96403475D01*
X133367871Y-96357378D01*
X133367781Y-96350550D01*
X133367733Y-96318800D01*
X133467217Y-96318813D01*
X133514952Y-96319438D01*
X133549406Y-96321575D01*
X133574193Y-96325639D01*
X133592930Y-96332045D01*
X133596243Y-96333630D01*
X133623171Y-96354846D01*
X133636517Y-96382079D01*
X133772600Y-96382079D01*
X133772525Y-96369377D01*
X133765158Y-96333385D01*
X133747122Y-96295012D01*
X133716777Y-96258397D01*
X133678444Y-96228497D01*
X133669102Y-96223171D01*
X133653923Y-96216023D01*
X133637343Y-96210833D01*
X133616188Y-96207198D01*
X133587282Y-96204715D01*
X133547450Y-96202982D01*
X133500121Y-96201742D01*
X133365808Y-96198745D01*
X133369452Y-96148377D01*
X133375299Y-96109994D01*
X133388289Y-96084288D01*
X133411550Y-96067783D01*
X133448212Y-96057004D01*
X133452465Y-96056159D01*
X133504872Y-96050878D01*
X133552227Y-96055362D01*
X133590602Y-96069039D01*
X133604258Y-96078343D01*
X133621441Y-96091616D01*
X133633015Y-96098428D01*
X133634182Y-96098667D01*
X133644119Y-96093737D01*
X133662433Y-96081082D01*
X133685088Y-96063906D01*
X133708045Y-96045413D01*
X133727267Y-96028807D01*
X133738717Y-96017291D01*
X133740267Y-96014491D01*
X133733347Y-96001697D01*
X133715292Y-95984396D01*
X133690156Y-95965560D01*
X133661997Y-95948159D01*
X133634870Y-95935168D01*
X133629236Y-95933127D01*
X133586240Y-95923416D01*
X133533227Y-95918343D01*
X133476475Y-95917945D01*
X133422265Y-95922260D01*
X133422265Y-95922260D01*
G37*
X133422265Y-95922260D02*
X133376875Y-95931327D01*
X133375973Y-95931595D01*
X133327230Y-95953108D01*
X133284950Y-95984929D01*
X133253404Y-96023500D01*
X133244184Y-96041323D01*
X133239760Y-96053270D01*
X133236193Y-96067558D01*
X133233358Y-96086172D01*
X133231135Y-96111096D01*
X133229398Y-96144315D01*
X133228026Y-96187813D01*
X133226894Y-96243574D01*
X133225881Y-96313584D01*
X133225528Y-96342083D01*
X133222348Y-96606667D01*
X133367733Y-96606667D01*
X133367991Y-96574917D01*
X133368850Y-96555659D01*
X133371763Y-96551289D01*
X133377328Y-96558787D01*
X133390405Y-96571801D01*
X133412396Y-96585838D01*
X133421521Y-96590351D01*
X133454787Y-96600017D01*
X133498518Y-96605304D01*
X133546806Y-96606148D01*
X133593741Y-96602487D01*
X133633414Y-96594259D01*
X133638314Y-96592648D01*
X133690359Y-96566261D01*
X133730796Y-96528710D01*
X133758631Y-96482026D01*
X133772872Y-96428239D01*
X133772600Y-96382079D01*
X133636517Y-96382079D01*
X133636073Y-96411298D01*
X133621632Y-96438470D01*
X133602456Y-96454498D01*
X133576311Y-96464141D01*
X133539484Y-96469998D01*
X133497823Y-96471947D01*
X133457180Y-96469867D01*
X133423402Y-96463638D01*
X133410041Y-96458487D01*
X133387940Y-96437772D01*
X133373650Y-96403475D01*
X133367871Y-96357378D01*
X133367781Y-96350550D01*
X133367733Y-96318800D01*
X133467217Y-96318813D01*
X133514952Y-96319438D01*
X133549406Y-96321575D01*
X133574193Y-96325639D01*
X133592930Y-96332045D01*
X133596243Y-96333630D01*
X133623171Y-96354846D01*
X133636517Y-96382079D01*
X133772600Y-96382079D01*
X133772525Y-96369377D01*
X133765158Y-96333385D01*
X133747122Y-96295012D01*
X133716777Y-96258397D01*
X133678444Y-96228497D01*
X133669102Y-96223171D01*
X133653923Y-96216023D01*
X133637343Y-96210833D01*
X133616188Y-96207198D01*
X133587282Y-96204715D01*
X133547450Y-96202982D01*
X133500121Y-96201742D01*
X133365808Y-96198745D01*
X133369452Y-96148377D01*
X133375299Y-96109994D01*
X133388289Y-96084288D01*
X133411550Y-96067783D01*
X133448212Y-96057004D01*
X133452465Y-96056159D01*
X133504872Y-96050878D01*
X133552227Y-96055362D01*
X133590602Y-96069039D01*
X133604258Y-96078343D01*
X133621441Y-96091616D01*
X133633015Y-96098428D01*
X133634182Y-96098667D01*
X133644119Y-96093737D01*
X133662433Y-96081082D01*
X133685088Y-96063906D01*
X133708045Y-96045413D01*
X133727267Y-96028807D01*
X133738717Y-96017291D01*
X133740267Y-96014491D01*
X133733347Y-96001697D01*
X133715292Y-95984396D01*
X133690156Y-95965560D01*
X133661997Y-95948159D01*
X133634870Y-95935168D01*
X133629236Y-95933127D01*
X133586240Y-95923416D01*
X133533227Y-95918343D01*
X133476475Y-95917945D01*
X133422265Y-95922260D01*
G36*
X132697798Y-95929035D02*
X132653473Y-95949270D01*
X132621073Y-95968824D01*
X132670013Y-96027396D01*
X132691962Y-96053699D01*
X132709471Y-96074747D01*
X132719934Y-96087404D01*
X132721670Y-96089554D01*
X132730060Y-96088161D01*
X132748602Y-96080693D01*
X132763203Y-96073756D01*
X132806963Y-96059677D01*
X132848131Y-96062291D01*
X132886417Y-96081518D01*
X132921531Y-96117276D01*
X132922710Y-96118841D01*
X132927905Y-96126633D01*
X132931993Y-96135856D01*
X132935135Y-96148571D01*
X132937495Y-96166840D01*
X132939234Y-96192727D01*
X132940513Y-96228293D01*
X132941495Y-96275600D01*
X132942343Y-96336710D01*
X132942781Y-96374435D01*
X132945395Y-96606667D01*
X133088333Y-96606667D01*
X133088333Y-95920867D01*
X132944400Y-95920867D01*
X132944400Y-95991768D01*
X132921117Y-95970052D01*
X132894115Y-95948110D01*
X132865889Y-95933608D01*
X132829648Y-95923360D01*
X132815565Y-95920519D01*
X132756463Y-95917373D01*
X132697798Y-95929035D01*
X132697798Y-95929035D01*
G37*
X132697798Y-95929035D02*
X132653473Y-95949270D01*
X132621073Y-95968824D01*
X132670013Y-96027396D01*
X132691962Y-96053699D01*
X132709471Y-96074747D01*
X132719934Y-96087404D01*
X132721670Y-96089554D01*
X132730060Y-96088161D01*
X132748602Y-96080693D01*
X132763203Y-96073756D01*
X132806963Y-96059677D01*
X132848131Y-96062291D01*
X132886417Y-96081518D01*
X132921531Y-96117276D01*
X132922710Y-96118841D01*
X132927905Y-96126633D01*
X132931993Y-96135856D01*
X132935135Y-96148571D01*
X132937495Y-96166840D01*
X132939234Y-96192727D01*
X132940513Y-96228293D01*
X132941495Y-96275600D01*
X132942343Y-96336710D01*
X132942781Y-96374435D01*
X132945395Y-96606667D01*
X133088333Y-96606667D01*
X133088333Y-95920867D01*
X132944400Y-95920867D01*
X132944400Y-95991768D01*
X132921117Y-95970052D01*
X132894115Y-95948110D01*
X132865889Y-95933608D01*
X132829648Y-95923360D01*
X132815565Y-95920519D01*
X132756463Y-95917373D01*
X132697798Y-95929035D01*
G36*
X132286030Y-95922862D02*
X132226203Y-95942627D01*
X132189356Y-95963156D01*
X132143065Y-96002196D01*
X132108798Y-96050573D01*
X132086048Y-96109446D01*
X132074307Y-96179971D01*
X132072333Y-96229991D01*
X132072333Y-96318800D01*
X132489085Y-96318800D01*
X132483198Y-96350550D01*
X132466810Y-96398423D01*
X132438203Y-96435038D01*
X132398641Y-96459382D01*
X132349390Y-96470439D01*
X132333021Y-96471014D01*
X132293126Y-96466572D01*
X132254424Y-96454995D01*
X132222828Y-96438429D01*
X132208880Y-96425975D01*
X132199560Y-96416509D01*
X132189880Y-96413073D01*
X132177247Y-96416837D01*
X132159068Y-96428972D01*
X132132747Y-96450646D01*
X132109669Y-96470736D01*
X132078810Y-96497830D01*
X132103008Y-96523087D01*
X132123294Y-96539935D01*
X132152537Y-96559157D01*
X132182085Y-96575389D01*
X132209699Y-96588190D01*
X132233332Y-96596338D01*
X132258620Y-96600993D01*
X132291198Y-96603317D01*
X132321865Y-96604189D01*
X132360456Y-96604276D01*
X132394666Y-96603073D01*
X132419632Y-96600812D01*
X132427933Y-96599116D01*
X132490277Y-96570317D01*
X132543715Y-96527705D01*
X132583625Y-96476958D01*
X132606201Y-96427471D01*
X132621034Y-96366879D01*
X132628057Y-96299171D01*
X132627202Y-96228337D01*
X132623672Y-96200267D01*
X132489085Y-96200267D01*
X132216267Y-96200267D01*
X132216267Y-96180894D01*
X132223484Y-96146682D01*
X132242625Y-96111755D01*
X132269925Y-96081768D01*
X132292467Y-96066438D01*
X132336181Y-96052408D01*
X132378848Y-96053799D01*
X132417789Y-96069177D01*
X132450324Y-96097109D01*
X132473774Y-96136160D01*
X132483198Y-96168517D01*
X132489085Y-96200267D01*
X132623672Y-96200267D01*
X132618401Y-96158367D01*
X132601587Y-96093249D01*
X132590612Y-96064800D01*
X132559498Y-96013466D01*
X132517010Y-95972312D01*
X132465784Y-95942008D01*
X132408455Y-95923220D01*
X132347659Y-95916615D01*
X132286030Y-95922862D01*
X132286030Y-95922862D01*
G37*
X132286030Y-95922862D02*
X132226203Y-95942627D01*
X132189356Y-95963156D01*
X132143065Y-96002196D01*
X132108798Y-96050573D01*
X132086048Y-96109446D01*
X132074307Y-96179971D01*
X132072333Y-96229991D01*
X132072333Y-96318800D01*
X132489085Y-96318800D01*
X132483198Y-96350550D01*
X132466810Y-96398423D01*
X132438203Y-96435038D01*
X132398641Y-96459382D01*
X132349390Y-96470439D01*
X132333021Y-96471014D01*
X132293126Y-96466572D01*
X132254424Y-96454995D01*
X132222828Y-96438429D01*
X132208880Y-96425975D01*
X132199560Y-96416509D01*
X132189880Y-96413073D01*
X132177247Y-96416837D01*
X132159068Y-96428972D01*
X132132747Y-96450646D01*
X132109669Y-96470736D01*
X132078810Y-96497830D01*
X132103008Y-96523087D01*
X132123294Y-96539935D01*
X132152537Y-96559157D01*
X132182085Y-96575389D01*
X132209699Y-96588190D01*
X132233332Y-96596338D01*
X132258620Y-96600993D01*
X132291198Y-96603317D01*
X132321865Y-96604189D01*
X132360456Y-96604276D01*
X132394666Y-96603073D01*
X132419632Y-96600812D01*
X132427933Y-96599116D01*
X132490277Y-96570317D01*
X132543715Y-96527705D01*
X132583625Y-96476958D01*
X132606201Y-96427471D01*
X132621034Y-96366879D01*
X132628057Y-96299171D01*
X132627202Y-96228337D01*
X132623672Y-96200267D01*
X132489085Y-96200267D01*
X132216267Y-96200267D01*
X132216267Y-96180894D01*
X132223484Y-96146682D01*
X132242625Y-96111755D01*
X132269925Y-96081768D01*
X132292467Y-96066438D01*
X132336181Y-96052408D01*
X132378848Y-96053799D01*
X132417789Y-96069177D01*
X132450324Y-96097109D01*
X132473774Y-96136160D01*
X132483198Y-96168517D01*
X132489085Y-96200267D01*
X132623672Y-96200267D01*
X132618401Y-96158367D01*
X132601587Y-96093249D01*
X132590612Y-96064800D01*
X132559498Y-96013466D01*
X132517010Y-95972312D01*
X132465784Y-95942008D01*
X132408455Y-95923220D01*
X132347659Y-95916615D01*
X132286030Y-95922862D01*
G36*
X137460256Y-94858911D02*
X137397087Y-94876213D01*
X137341809Y-94906632D01*
X137296201Y-94948950D01*
X137262042Y-95001952D01*
X137244162Y-95051194D01*
X137238550Y-95084474D01*
X137234897Y-95129576D01*
X137233202Y-95181502D01*
X137233465Y-95235255D01*
X137235687Y-95285837D01*
X137239867Y-95328250D01*
X137244162Y-95351207D01*
X137267607Y-95410814D01*
X137303781Y-95461119D01*
X137350591Y-95501009D01*
X137405944Y-95529370D01*
X137467747Y-95545089D01*
X137533907Y-95547052D01*
X137593019Y-95536802D01*
X137652998Y-95512101D01*
X137704846Y-95473295D01*
X137746669Y-95422023D01*
X137765272Y-95387897D01*
X137771827Y-95372185D01*
X137776561Y-95355709D01*
X137779765Y-95335444D01*
X137781727Y-95308360D01*
X137782736Y-95271431D01*
X137783082Y-95221629D01*
X137783099Y-95202263D01*
X137644416Y-95202263D01*
X137643952Y-95245925D01*
X137642121Y-95277133D01*
X137638265Y-95300349D01*
X137631723Y-95320038D01*
X137624858Y-95334780D01*
X137599254Y-95371742D01*
X137566263Y-95394029D01*
X137524223Y-95402546D01*
X137501232Y-95402079D01*
X137464295Y-95395565D01*
X137435894Y-95383304D01*
X137433499Y-95381623D01*
X137411372Y-95362583D01*
X137395685Y-95341587D01*
X137385414Y-95315379D01*
X137379534Y-95280705D01*
X137377020Y-95234309D01*
X137376700Y-95201200D01*
X137377197Y-95153082D01*
X137378938Y-95118482D01*
X137382297Y-95094011D01*
X137387652Y-95076276D01*
X137391389Y-95068518D01*
X137419887Y-95032633D01*
X137457436Y-95009542D01*
X137501005Y-95000173D01*
X137547564Y-95005454D01*
X137570494Y-95013645D01*
X137598330Y-95029595D01*
X137618613Y-95050870D01*
X137632332Y-95079996D01*
X137640478Y-95119503D01*
X137644042Y-95171917D01*
X137644416Y-95202263D01*
X137783099Y-95202263D01*
X137783100Y-95201200D01*
X137782919Y-95146410D01*
X137782181Y-95105512D01*
X137780591Y-95075468D01*
X137777856Y-95053240D01*
X137773683Y-95035789D01*
X137767778Y-95020076D01*
X137765004Y-95013897D01*
X137729511Y-94956078D01*
X137682751Y-94910478D01*
X137626032Y-94877974D01*
X137560661Y-94859442D01*
X137529539Y-94855943D01*
X137460256Y-94858911D01*
X137460256Y-94858911D01*
G37*
X137460256Y-94858911D02*
X137397087Y-94876213D01*
X137341809Y-94906632D01*
X137296201Y-94948950D01*
X137262042Y-95001952D01*
X137244162Y-95051194D01*
X137238550Y-95084474D01*
X137234897Y-95129576D01*
X137233202Y-95181502D01*
X137233465Y-95235255D01*
X137235687Y-95285837D01*
X137239867Y-95328250D01*
X137244162Y-95351207D01*
X137267607Y-95410814D01*
X137303781Y-95461119D01*
X137350591Y-95501009D01*
X137405944Y-95529370D01*
X137467747Y-95545089D01*
X137533907Y-95547052D01*
X137593019Y-95536802D01*
X137652998Y-95512101D01*
X137704846Y-95473295D01*
X137746669Y-95422023D01*
X137765272Y-95387897D01*
X137771827Y-95372185D01*
X137776561Y-95355709D01*
X137779765Y-95335444D01*
X137781727Y-95308360D01*
X137782736Y-95271431D01*
X137783082Y-95221629D01*
X137783099Y-95202263D01*
X137644416Y-95202263D01*
X137643952Y-95245925D01*
X137642121Y-95277133D01*
X137638265Y-95300349D01*
X137631723Y-95320038D01*
X137624858Y-95334780D01*
X137599254Y-95371742D01*
X137566263Y-95394029D01*
X137524223Y-95402546D01*
X137501232Y-95402079D01*
X137464295Y-95395565D01*
X137435894Y-95383304D01*
X137433499Y-95381623D01*
X137411372Y-95362583D01*
X137395685Y-95341587D01*
X137385414Y-95315379D01*
X137379534Y-95280705D01*
X137377020Y-95234309D01*
X137376700Y-95201200D01*
X137377197Y-95153082D01*
X137378938Y-95118482D01*
X137382297Y-95094011D01*
X137387652Y-95076276D01*
X137391389Y-95068518D01*
X137419887Y-95032633D01*
X137457436Y-95009542D01*
X137501005Y-95000173D01*
X137547564Y-95005454D01*
X137570494Y-95013645D01*
X137598330Y-95029595D01*
X137618613Y-95050870D01*
X137632332Y-95079996D01*
X137640478Y-95119503D01*
X137644042Y-95171917D01*
X137644416Y-95202263D01*
X137783099Y-95202263D01*
X137783100Y-95201200D01*
X137782919Y-95146410D01*
X137782181Y-95105512D01*
X137780591Y-95075468D01*
X137777856Y-95053240D01*
X137773683Y-95035789D01*
X137767778Y-95020076D01*
X137765004Y-95013897D01*
X137729511Y-94956078D01*
X137682751Y-94910478D01*
X137626032Y-94877974D01*
X137560661Y-94859442D01*
X137529539Y-94855943D01*
X137460256Y-94858911D01*
G36*
X136180728Y-94855937D02*
X136118677Y-94870600D01*
X136061525Y-94898778D01*
X136011852Y-94939411D01*
X135972237Y-94991439D01*
X135959910Y-95014934D01*
X135950008Y-95038656D01*
X135943267Y-95062344D01*
X135938889Y-95090613D01*
X135936076Y-95128077D01*
X135934657Y-95160984D01*
X135931046Y-95260467D01*
X136348000Y-95260467D01*
X136348000Y-95279840D01*
X136344221Y-95298808D01*
X136334657Y-95324519D01*
X136328950Y-95336619D01*
X136301444Y-95373671D01*
X136264553Y-95398509D01*
X136220936Y-95410822D01*
X136173253Y-95410296D01*
X136124163Y-95396621D01*
X136076327Y-95369483D01*
X136072601Y-95366697D01*
X136046057Y-95346451D01*
X135995945Y-95391516D01*
X135945834Y-95436582D01*
X135971153Y-95463296D01*
X135992392Y-95481242D01*
X136022189Y-95501072D01*
X136049241Y-95515989D01*
X136080054Y-95529753D01*
X136108145Y-95538152D01*
X136140400Y-95542748D01*
X136176322Y-95544835D01*
X136214629Y-95545236D01*
X136250491Y-95543757D01*
X136277563Y-95540708D01*
X136282659Y-95539627D01*
X136330954Y-95522507D01*
X136374899Y-95495262D01*
X136399919Y-95474349D01*
X136438962Y-95428810D01*
X136467079Y-95372237D01*
X136484545Y-95303820D01*
X136491636Y-95222748D01*
X136491833Y-95204130D01*
X136487105Y-95133467D01*
X136350216Y-95133467D01*
X136213641Y-95133467D01*
X136162582Y-95133332D01*
X136126052Y-95132750D01*
X136101651Y-95131454D01*
X136086977Y-95129179D01*
X136079627Y-95125658D01*
X136077199Y-95120624D01*
X136077067Y-95118327D01*
X136082353Y-95095685D01*
X136095840Y-95067000D01*
X136113973Y-95038416D01*
X136133196Y-95016077D01*
X136139071Y-95011196D01*
X136168446Y-94998221D01*
X136205763Y-94993002D01*
X136244154Y-94995537D01*
X136276749Y-95005824D01*
X136285473Y-95011223D01*
X136321397Y-95046265D01*
X136341593Y-95086385D01*
X136345096Y-95101915D01*
X136350216Y-95133467D01*
X136487105Y-95133467D01*
X136485954Y-95116280D01*
X136468545Y-95040823D01*
X136439607Y-94977764D01*
X136399142Y-94927105D01*
X136347152Y-94888850D01*
X136309213Y-94871393D01*
X136245099Y-94855848D01*
X136180728Y-94855937D01*
X136180728Y-94855937D01*
G37*
X136180728Y-94855937D02*
X136118677Y-94870600D01*
X136061525Y-94898778D01*
X136011852Y-94939411D01*
X135972237Y-94991439D01*
X135959910Y-95014934D01*
X135950008Y-95038656D01*
X135943267Y-95062344D01*
X135938889Y-95090613D01*
X135936076Y-95128077D01*
X135934657Y-95160984D01*
X135931046Y-95260467D01*
X136348000Y-95260467D01*
X136348000Y-95279840D01*
X136344221Y-95298808D01*
X136334657Y-95324519D01*
X136328950Y-95336619D01*
X136301444Y-95373671D01*
X136264553Y-95398509D01*
X136220936Y-95410822D01*
X136173253Y-95410296D01*
X136124163Y-95396621D01*
X136076327Y-95369483D01*
X136072601Y-95366697D01*
X136046057Y-95346451D01*
X135995945Y-95391516D01*
X135945834Y-95436582D01*
X135971153Y-95463296D01*
X135992392Y-95481242D01*
X136022189Y-95501072D01*
X136049241Y-95515989D01*
X136080054Y-95529753D01*
X136108145Y-95538152D01*
X136140400Y-95542748D01*
X136176322Y-95544835D01*
X136214629Y-95545236D01*
X136250491Y-95543757D01*
X136277563Y-95540708D01*
X136282659Y-95539627D01*
X136330954Y-95522507D01*
X136374899Y-95495262D01*
X136399919Y-95474349D01*
X136438962Y-95428810D01*
X136467079Y-95372237D01*
X136484545Y-95303820D01*
X136491636Y-95222748D01*
X136491833Y-95204130D01*
X136487105Y-95133467D01*
X136350216Y-95133467D01*
X136213641Y-95133467D01*
X136162582Y-95133332D01*
X136126052Y-95132750D01*
X136101651Y-95131454D01*
X136086977Y-95129179D01*
X136079627Y-95125658D01*
X136077199Y-95120624D01*
X136077067Y-95118327D01*
X136082353Y-95095685D01*
X136095840Y-95067000D01*
X136113973Y-95038416D01*
X136133196Y-95016077D01*
X136139071Y-95011196D01*
X136168446Y-94998221D01*
X136205763Y-94993002D01*
X136244154Y-94995537D01*
X136276749Y-95005824D01*
X136285473Y-95011223D01*
X136321397Y-95046265D01*
X136341593Y-95086385D01*
X136345096Y-95101915D01*
X136350216Y-95133467D01*
X136487105Y-95133467D01*
X136485954Y-95116280D01*
X136468545Y-95040823D01*
X136439607Y-94977764D01*
X136399142Y-94927105D01*
X136347152Y-94888850D01*
X136309213Y-94871393D01*
X136245099Y-94855848D01*
X136180728Y-94855937D01*
G36*
X134572083Y-94857684D02*
X134540680Y-94861635D01*
X134503076Y-94871533D01*
X134460422Y-94887102D01*
X134418876Y-94905710D01*
X134384596Y-94924729D01*
X134371926Y-94933714D01*
X134364892Y-94939861D01*
X134361917Y-94946114D01*
X134364314Y-94955024D01*
X134373393Y-94969142D01*
X134390468Y-94991015D01*
X134416849Y-95023196D01*
X134419802Y-95026778D01*
X134440031Y-95051323D01*
X134495134Y-95024196D01*
X134537909Y-95006616D01*
X134580767Y-94994825D01*
X134598148Y-94992124D01*
X134643892Y-94992011D01*
X134682444Y-95000763D01*
X134711671Y-95016958D01*
X134729439Y-95039177D01*
X134733614Y-95065997D01*
X134730181Y-95080041D01*
X134721995Y-95094387D01*
X134707802Y-95105489D01*
X134685127Y-95114176D01*
X134651490Y-95121282D01*
X134604414Y-95127639D01*
X134580783Y-95130209D01*
X134537722Y-95135538D01*
X134498213Y-95141979D01*
X134466787Y-95148698D01*
X134448639Y-95154534D01*
X134404088Y-95184382D01*
X134370764Y-95225103D01*
X134354142Y-95262967D01*
X134342942Y-95325294D01*
X134347543Y-95382080D01*
X134367525Y-95432399D01*
X134402471Y-95475324D01*
X134451962Y-95509929D01*
X134469643Y-95518576D01*
X134501940Y-95531448D01*
X134532765Y-95539287D01*
X134569019Y-95543498D01*
X134599295Y-95544972D01*
X134639003Y-95545254D01*
X134677152Y-95543748D01*
X134707073Y-95540765D01*
X134713456Y-95539628D01*
X134748569Y-95529010D01*
X134790910Y-95511511D01*
X134834427Y-95490087D01*
X134873064Y-95467691D01*
X134898351Y-95449412D01*
X134926135Y-95425566D01*
X134876160Y-95376113D01*
X134826185Y-95326659D01*
X134782677Y-95357916D01*
X134723344Y-95391613D01*
X134660564Y-95409238D01*
X134613105Y-95412460D01*
X134567286Y-95407188D01*
X134529794Y-95393304D01*
X134502764Y-95372436D01*
X134488330Y-95346214D01*
X134488365Y-95317275D01*
X134494547Y-95302035D01*
X134506052Y-95290394D01*
X134525378Y-95281423D01*
X134555022Y-95274194D01*
X134597483Y-95267778D01*
X134632635Y-95263660D01*
X134704827Y-95252796D01*
X134762103Y-95237087D01*
X134806050Y-95215480D01*
X134838255Y-95186923D01*
X134860304Y-95150363D01*
X134873784Y-95104750D01*
X134873996Y-95103636D01*
X134878135Y-95043131D01*
X134867210Y-94989248D01*
X134842144Y-94943027D01*
X134803860Y-94905508D01*
X134753279Y-94877730D01*
X134691326Y-94860734D01*
X134654667Y-94856484D01*
X134614305Y-94855632D01*
X134572083Y-94857684D01*
X134572083Y-94857684D01*
G37*
X134572083Y-94857684D02*
X134540680Y-94861635D01*
X134503076Y-94871533D01*
X134460422Y-94887102D01*
X134418876Y-94905710D01*
X134384596Y-94924729D01*
X134371926Y-94933714D01*
X134364892Y-94939861D01*
X134361917Y-94946114D01*
X134364314Y-94955024D01*
X134373393Y-94969142D01*
X134390468Y-94991015D01*
X134416849Y-95023196D01*
X134419802Y-95026778D01*
X134440031Y-95051323D01*
X134495134Y-95024196D01*
X134537909Y-95006616D01*
X134580767Y-94994825D01*
X134598148Y-94992124D01*
X134643892Y-94992011D01*
X134682444Y-95000763D01*
X134711671Y-95016958D01*
X134729439Y-95039177D01*
X134733614Y-95065997D01*
X134730181Y-95080041D01*
X134721995Y-95094387D01*
X134707802Y-95105489D01*
X134685127Y-95114176D01*
X134651490Y-95121282D01*
X134604414Y-95127639D01*
X134580783Y-95130209D01*
X134537722Y-95135538D01*
X134498213Y-95141979D01*
X134466787Y-95148698D01*
X134448639Y-95154534D01*
X134404088Y-95184382D01*
X134370764Y-95225103D01*
X134354142Y-95262967D01*
X134342942Y-95325294D01*
X134347543Y-95382080D01*
X134367525Y-95432399D01*
X134402471Y-95475324D01*
X134451962Y-95509929D01*
X134469643Y-95518576D01*
X134501940Y-95531448D01*
X134532765Y-95539287D01*
X134569019Y-95543498D01*
X134599295Y-95544972D01*
X134639003Y-95545254D01*
X134677152Y-95543748D01*
X134707073Y-95540765D01*
X134713456Y-95539628D01*
X134748569Y-95529010D01*
X134790910Y-95511511D01*
X134834427Y-95490087D01*
X134873064Y-95467691D01*
X134898351Y-95449412D01*
X134926135Y-95425566D01*
X134876160Y-95376113D01*
X134826185Y-95326659D01*
X134782677Y-95357916D01*
X134723344Y-95391613D01*
X134660564Y-95409238D01*
X134613105Y-95412460D01*
X134567286Y-95407188D01*
X134529794Y-95393304D01*
X134502764Y-95372436D01*
X134488330Y-95346214D01*
X134488365Y-95317275D01*
X134494547Y-95302035D01*
X134506052Y-95290394D01*
X134525378Y-95281423D01*
X134555022Y-95274194D01*
X134597483Y-95267778D01*
X134632635Y-95263660D01*
X134704827Y-95252796D01*
X134762103Y-95237087D01*
X134806050Y-95215480D01*
X134838255Y-95186923D01*
X134860304Y-95150363D01*
X134873784Y-95104750D01*
X134873996Y-95103636D01*
X134878135Y-95043131D01*
X134867210Y-94989248D01*
X134842144Y-94943027D01*
X134803860Y-94905508D01*
X134753279Y-94877730D01*
X134691326Y-94860734D01*
X134654667Y-94856484D01*
X134614305Y-94855632D01*
X134572083Y-94857684D01*
G36*
X133972662Y-94855943D02*
X133903903Y-94868059D01*
X133843221Y-94894532D01*
X133791924Y-94934486D01*
X133751320Y-94987044D01*
X133737196Y-95013897D01*
X133730552Y-95029748D01*
X133725752Y-95046176D01*
X133722503Y-95066221D01*
X133720511Y-95092921D01*
X133719481Y-95129314D01*
X133719122Y-95178440D01*
X133719100Y-95201200D01*
X133719281Y-95255991D01*
X133720020Y-95296888D01*
X133721610Y-95326932D01*
X133724344Y-95349160D01*
X133728517Y-95366611D01*
X133734422Y-95382324D01*
X133737196Y-95388503D01*
X133772583Y-95446651D01*
X133818623Y-95491777D01*
X133874614Y-95523417D01*
X133939854Y-95541113D01*
X133974758Y-95544543D01*
X134010261Y-95545218D01*
X134042363Y-95544079D01*
X134064670Y-95541374D01*
X134066234Y-95540996D01*
X134122703Y-95518996D01*
X134173335Y-95485602D01*
X134214379Y-95443825D01*
X134240073Y-95401430D01*
X134255486Y-95353813D01*
X134266037Y-95294871D01*
X134271543Y-95229555D01*
X134271709Y-95188704D01*
X134129557Y-95188704D01*
X134127891Y-95239506D01*
X134121838Y-95286982D01*
X134111499Y-95326312D01*
X134101492Y-95346823D01*
X134070609Y-95378897D01*
X134031418Y-95398008D01*
X133987381Y-95403366D01*
X133941960Y-95394181D01*
X133925560Y-95386970D01*
X133900233Y-95370436D01*
X133881896Y-95348807D01*
X133869608Y-95319453D01*
X133862430Y-95279741D01*
X133859420Y-95227041D01*
X133859172Y-95201200D01*
X133860644Y-95142640D01*
X133865737Y-95098192D01*
X133875465Y-95065236D01*
X133890842Y-95041152D01*
X133912881Y-95023322D01*
X133931786Y-95013610D01*
X133979631Y-95000233D01*
X134024880Y-95002415D01*
X134065157Y-95019468D01*
X134098087Y-95050702D01*
X134107254Y-95064543D01*
X134119336Y-95096402D01*
X134126738Y-95139396D01*
X134129557Y-95188704D01*
X134271709Y-95188704D01*
X134271815Y-95162815D01*
X134266670Y-95099600D01*
X134255922Y-95044861D01*
X134253724Y-95037393D01*
X134226921Y-94977765D01*
X134187757Y-94928732D01*
X134137857Y-94891345D01*
X134078844Y-94866651D01*
X134012342Y-94855698D01*
X133972662Y-94855943D01*
X133972662Y-94855943D01*
G37*
X133972662Y-94855943D02*
X133903903Y-94868059D01*
X133843221Y-94894532D01*
X133791924Y-94934486D01*
X133751320Y-94987044D01*
X133737196Y-95013897D01*
X133730552Y-95029748D01*
X133725752Y-95046176D01*
X133722503Y-95066221D01*
X133720511Y-95092921D01*
X133719481Y-95129314D01*
X133719122Y-95178440D01*
X133719100Y-95201200D01*
X133719281Y-95255991D01*
X133720020Y-95296888D01*
X133721610Y-95326932D01*
X133724344Y-95349160D01*
X133728517Y-95366611D01*
X133734422Y-95382324D01*
X133737196Y-95388503D01*
X133772583Y-95446651D01*
X133818623Y-95491777D01*
X133874614Y-95523417D01*
X133939854Y-95541113D01*
X133974758Y-95544543D01*
X134010261Y-95545218D01*
X134042363Y-95544079D01*
X134064670Y-95541374D01*
X134066234Y-95540996D01*
X134122703Y-95518996D01*
X134173335Y-95485602D01*
X134214379Y-95443825D01*
X134240073Y-95401430D01*
X134255486Y-95353813D01*
X134266037Y-95294871D01*
X134271543Y-95229555D01*
X134271709Y-95188704D01*
X134129557Y-95188704D01*
X134127891Y-95239506D01*
X134121838Y-95286982D01*
X134111499Y-95326312D01*
X134101492Y-95346823D01*
X134070609Y-95378897D01*
X134031418Y-95398008D01*
X133987381Y-95403366D01*
X133941960Y-95394181D01*
X133925560Y-95386970D01*
X133900233Y-95370436D01*
X133881896Y-95348807D01*
X133869608Y-95319453D01*
X133862430Y-95279741D01*
X133859420Y-95227041D01*
X133859172Y-95201200D01*
X133860644Y-95142640D01*
X133865737Y-95098192D01*
X133875465Y-95065236D01*
X133890842Y-95041152D01*
X133912881Y-95023322D01*
X133931786Y-95013610D01*
X133979631Y-95000233D01*
X134024880Y-95002415D01*
X134065157Y-95019468D01*
X134098087Y-95050702D01*
X134107254Y-95064543D01*
X134119336Y-95096402D01*
X134126738Y-95139396D01*
X134129557Y-95188704D01*
X134271709Y-95188704D01*
X134271815Y-95162815D01*
X134266670Y-95099600D01*
X134255922Y-95044861D01*
X134253724Y-95037393D01*
X134226921Y-94977765D01*
X134187757Y-94928732D01*
X134137857Y-94891345D01*
X134078844Y-94866651D01*
X134012342Y-94855698D01*
X133972662Y-94855943D01*
G36*
X133460867Y-95081335D02*
X133460811Y-95148071D01*
X133460529Y-95200133D01*
X133459851Y-95239780D01*
X133458606Y-95269274D01*
X133456624Y-95290872D01*
X133453734Y-95306835D01*
X133449766Y-95319421D01*
X133444548Y-95330892D01*
X133441606Y-95336560D01*
X133414462Y-95372253D01*
X133379882Y-95394767D01*
X133341060Y-95404098D01*
X133301192Y-95400247D01*
X133263474Y-95383213D01*
X133231101Y-95352993D01*
X133220025Y-95336638D01*
X133214724Y-95326583D01*
X133210569Y-95315161D01*
X133207383Y-95300196D01*
X133204990Y-95279511D01*
X133203216Y-95250929D01*
X133201884Y-95212273D01*
X133200819Y-95161366D01*
X133199844Y-95096031D01*
X133199694Y-95084784D01*
X133196755Y-94862534D01*
X133062933Y-94862534D01*
X133062933Y-95539867D01*
X133198400Y-95539867D01*
X133198400Y-95470814D01*
X133232203Y-95499748D01*
X133280966Y-95530900D01*
X133335412Y-95546916D01*
X133393259Y-95547603D01*
X133452225Y-95532768D01*
X133479177Y-95520637D01*
X133530371Y-95485645D01*
X133567946Y-95440626D01*
X133591756Y-95385769D01*
X133595602Y-95370255D01*
X133598291Y-95348919D01*
X133600617Y-95312976D01*
X133602504Y-95264747D01*
X133603875Y-95206556D01*
X133604651Y-95140725D01*
X133604800Y-95094950D01*
X133604800Y-94862534D01*
X133460867Y-94862534D01*
X133460867Y-95081335D01*
X133460867Y-95081335D01*
G37*
X133460867Y-95081335D02*
X133460811Y-95148071D01*
X133460529Y-95200133D01*
X133459851Y-95239780D01*
X133458606Y-95269274D01*
X133456624Y-95290872D01*
X133453734Y-95306835D01*
X133449766Y-95319421D01*
X133444548Y-95330892D01*
X133441606Y-95336560D01*
X133414462Y-95372253D01*
X133379882Y-95394767D01*
X133341060Y-95404098D01*
X133301192Y-95400247D01*
X133263474Y-95383213D01*
X133231101Y-95352993D01*
X133220025Y-95336638D01*
X133214724Y-95326583D01*
X133210569Y-95315161D01*
X133207383Y-95300196D01*
X133204990Y-95279511D01*
X133203216Y-95250929D01*
X133201884Y-95212273D01*
X133200819Y-95161366D01*
X133199844Y-95096031D01*
X133199694Y-95084784D01*
X133196755Y-94862534D01*
X133062933Y-94862534D01*
X133062933Y-95539867D01*
X133198400Y-95539867D01*
X133198400Y-95470814D01*
X133232203Y-95499748D01*
X133280966Y-95530900D01*
X133335412Y-95546916D01*
X133393259Y-95547603D01*
X133452225Y-95532768D01*
X133479177Y-95520637D01*
X133530371Y-95485645D01*
X133567946Y-95440626D01*
X133591756Y-95385769D01*
X133595602Y-95370255D01*
X133598291Y-95348919D01*
X133600617Y-95312976D01*
X133602504Y-95264747D01*
X133603875Y-95206556D01*
X133604651Y-95140725D01*
X133604800Y-95094950D01*
X133604800Y-94862534D01*
X133460867Y-94862534D01*
X133460867Y-95081335D01*
G36*
X132141525Y-94856383D02*
X132075279Y-94871697D01*
X132011560Y-94901261D01*
X131952642Y-94945035D01*
X131951683Y-94945913D01*
X131936504Y-94961328D01*
X131928685Y-94972142D01*
X131928400Y-94973346D01*
X131934367Y-94981350D01*
X131950197Y-94997187D01*
X131972790Y-95017799D01*
X131979150Y-95023357D01*
X132029901Y-95067323D01*
X132057467Y-95044078D01*
X132105030Y-95013650D01*
X132155541Y-94999310D01*
X132207285Y-95001329D01*
X132246738Y-95014133D01*
X132283746Y-95038176D01*
X132310273Y-95072605D01*
X132326923Y-95118699D01*
X132334298Y-95177739D01*
X132334800Y-95201200D01*
X132330467Y-95264975D01*
X132317066Y-95315365D01*
X132293994Y-95353650D01*
X132260649Y-95381111D01*
X132246738Y-95388267D01*
X132195213Y-95403010D01*
X132143591Y-95401198D01*
X132093629Y-95383108D01*
X132057617Y-95358448D01*
X132030200Y-95335330D01*
X131979300Y-95379601D01*
X131955467Y-95401097D01*
X131937608Y-95418663D01*
X131928818Y-95429210D01*
X131928400Y-95430410D01*
X131935107Y-95441360D01*
X131952778Y-95458028D01*
X131977741Y-95477617D01*
X132006322Y-95497331D01*
X132034848Y-95514375D01*
X132046618Y-95520395D01*
X132102331Y-95538957D01*
X132165400Y-95546619D01*
X132229997Y-95543109D01*
X132281012Y-95531381D01*
X132338746Y-95504137D01*
X132376730Y-95475122D01*
X132417997Y-95430622D01*
X132447874Y-95380502D01*
X132467126Y-95322470D01*
X132476517Y-95254241D01*
X132476885Y-95175167D01*
X132471290Y-95108830D01*
X132460002Y-95054990D01*
X132441528Y-95009741D01*
X132414374Y-94969176D01*
X132386340Y-94938406D01*
X132332707Y-94896330D01*
X132272512Y-94868660D01*
X132208027Y-94855358D01*
X132141525Y-94856383D01*
X132141525Y-94856383D01*
G37*
X132141525Y-94856383D02*
X132075279Y-94871697D01*
X132011560Y-94901261D01*
X131952642Y-94945035D01*
X131951683Y-94945913D01*
X131936504Y-94961328D01*
X131928685Y-94972142D01*
X131928400Y-94973346D01*
X131934367Y-94981350D01*
X131950197Y-94997187D01*
X131972790Y-95017799D01*
X131979150Y-95023357D01*
X132029901Y-95067323D01*
X132057467Y-95044078D01*
X132105030Y-95013650D01*
X132155541Y-94999310D01*
X132207285Y-95001329D01*
X132246738Y-95014133D01*
X132283746Y-95038176D01*
X132310273Y-95072605D01*
X132326923Y-95118699D01*
X132334298Y-95177739D01*
X132334800Y-95201200D01*
X132330467Y-95264975D01*
X132317066Y-95315365D01*
X132293994Y-95353650D01*
X132260649Y-95381111D01*
X132246738Y-95388267D01*
X132195213Y-95403010D01*
X132143591Y-95401198D01*
X132093629Y-95383108D01*
X132057617Y-95358448D01*
X132030200Y-95335330D01*
X131979300Y-95379601D01*
X131955467Y-95401097D01*
X131937608Y-95418663D01*
X131928818Y-95429210D01*
X131928400Y-95430410D01*
X131935107Y-95441360D01*
X131952778Y-95458028D01*
X131977741Y-95477617D01*
X132006322Y-95497331D01*
X132034848Y-95514375D01*
X132046618Y-95520395D01*
X132102331Y-95538957D01*
X132165400Y-95546619D01*
X132229997Y-95543109D01*
X132281012Y-95531381D01*
X132338746Y-95504137D01*
X132376730Y-95475122D01*
X132417997Y-95430622D01*
X132447874Y-95380502D01*
X132467126Y-95322470D01*
X132476517Y-95254241D01*
X132476885Y-95175167D01*
X132471290Y-95108830D01*
X132460002Y-95054990D01*
X132441528Y-95009741D01*
X132414374Y-94969176D01*
X132386340Y-94938406D01*
X132332707Y-94896330D01*
X132272512Y-94868660D01*
X132208027Y-94855358D01*
X132141525Y-94856383D01*
G36*
X131579706Y-94859026D02*
X131550878Y-94861900D01*
X131526812Y-94868118D01*
X131501439Y-94878837D01*
X131494785Y-94882059D01*
X131441869Y-94916899D01*
X131397571Y-94963722D01*
X131365570Y-95018479D01*
X131361416Y-95028822D01*
X131352840Y-95056320D01*
X131347522Y-95086466D01*
X131344850Y-95124197D01*
X131344200Y-95167651D01*
X131344200Y-95260467D01*
X131551633Y-95260467D01*
X131618220Y-95260439D01*
X131669597Y-95260695D01*
X131707483Y-95261744D01*
X131733602Y-95264094D01*
X131749673Y-95268254D01*
X131757419Y-95274733D01*
X131758559Y-95284039D01*
X131754816Y-95296681D01*
X131747911Y-95313168D01*
X131745918Y-95317889D01*
X131719655Y-95362087D01*
X131683529Y-95392526D01*
X131637518Y-95409220D01*
X131598200Y-95412737D01*
X131571326Y-95408525D01*
X131538579Y-95397745D01*
X131506329Y-95383105D01*
X131480947Y-95367309D01*
X131472364Y-95359282D01*
X131465070Y-95352844D01*
X131456132Y-95352077D01*
X131443065Y-95358323D01*
X131423382Y-95372925D01*
X131394599Y-95397226D01*
X131382300Y-95407935D01*
X131348433Y-95437538D01*
X131373833Y-95459362D01*
X131438617Y-95504898D01*
X131507829Y-95534533D01*
X131580197Y-95547991D01*
X131654445Y-95544999D01*
X131710587Y-95531798D01*
X131769782Y-95504667D01*
X131818027Y-95464643D01*
X131855278Y-95411785D01*
X131881493Y-95346154D01*
X131895588Y-95276416D01*
X131900397Y-95195948D01*
X131895452Y-95133467D01*
X131760412Y-95133467D01*
X131485918Y-95133467D01*
X131491038Y-95101915D01*
X131505137Y-95060235D01*
X131530385Y-95027715D01*
X131563620Y-95005073D01*
X131601675Y-94993023D01*
X131641386Y-94992282D01*
X131679589Y-95003565D01*
X131713119Y-95027588D01*
X131729415Y-95048007D01*
X131743652Y-95074655D01*
X131753657Y-95101475D01*
X131754732Y-95105950D01*
X131760412Y-95133467D01*
X131895452Y-95133467D01*
X131894323Y-95119207D01*
X131878015Y-95048893D01*
X131852123Y-94987710D01*
X131817295Y-94938357D01*
X131813326Y-94934156D01*
X131774387Y-94899406D01*
X131734632Y-94876430D01*
X131689398Y-94863406D01*
X131634021Y-94858511D01*
X131619367Y-94858343D01*
X131579706Y-94859026D01*
X131579706Y-94859026D01*
G37*
X131579706Y-94859026D02*
X131550878Y-94861900D01*
X131526812Y-94868118D01*
X131501439Y-94878837D01*
X131494785Y-94882059D01*
X131441869Y-94916899D01*
X131397571Y-94963722D01*
X131365570Y-95018479D01*
X131361416Y-95028822D01*
X131352840Y-95056320D01*
X131347522Y-95086466D01*
X131344850Y-95124197D01*
X131344200Y-95167651D01*
X131344200Y-95260467D01*
X131551633Y-95260467D01*
X131618220Y-95260439D01*
X131669597Y-95260695D01*
X131707483Y-95261744D01*
X131733602Y-95264094D01*
X131749673Y-95268254D01*
X131757419Y-95274733D01*
X131758559Y-95284039D01*
X131754816Y-95296681D01*
X131747911Y-95313168D01*
X131745918Y-95317889D01*
X131719655Y-95362087D01*
X131683529Y-95392526D01*
X131637518Y-95409220D01*
X131598200Y-95412737D01*
X131571326Y-95408525D01*
X131538579Y-95397745D01*
X131506329Y-95383105D01*
X131480947Y-95367309D01*
X131472364Y-95359282D01*
X131465070Y-95352844D01*
X131456132Y-95352077D01*
X131443065Y-95358323D01*
X131423382Y-95372925D01*
X131394599Y-95397226D01*
X131382300Y-95407935D01*
X131348433Y-95437538D01*
X131373833Y-95459362D01*
X131438617Y-95504898D01*
X131507829Y-95534533D01*
X131580197Y-95547991D01*
X131654445Y-95544999D01*
X131710587Y-95531798D01*
X131769782Y-95504667D01*
X131818027Y-95464643D01*
X131855278Y-95411785D01*
X131881493Y-95346154D01*
X131895588Y-95276416D01*
X131900397Y-95195948D01*
X131895452Y-95133467D01*
X131760412Y-95133467D01*
X131485918Y-95133467D01*
X131491038Y-95101915D01*
X131505137Y-95060235D01*
X131530385Y-95027715D01*
X131563620Y-95005073D01*
X131601675Y-94993023D01*
X131641386Y-94992282D01*
X131679589Y-95003565D01*
X131713119Y-95027588D01*
X131729415Y-95048007D01*
X131743652Y-95074655D01*
X131753657Y-95101475D01*
X131754732Y-95105950D01*
X131760412Y-95133467D01*
X131895452Y-95133467D01*
X131894323Y-95119207D01*
X131878015Y-95048893D01*
X131852123Y-94987710D01*
X131817295Y-94938357D01*
X131813326Y-94934156D01*
X131774387Y-94899406D01*
X131734632Y-94876430D01*
X131689398Y-94863406D01*
X131634021Y-94858511D01*
X131619367Y-94858343D01*
X131579706Y-94859026D01*
G36*
X135455016Y-94860339D02*
X135445526Y-94862750D01*
X135399221Y-94883131D01*
X135355500Y-94915599D01*
X135319914Y-94955570D01*
X135306600Y-94977533D01*
X135300647Y-94989590D01*
X135295909Y-95001102D01*
X135292227Y-95014118D01*
X135289439Y-95030687D01*
X135287384Y-95052855D01*
X135285901Y-95082671D01*
X135284829Y-95122184D01*
X135284007Y-95173441D01*
X135283275Y-95238491D01*
X135282865Y-95279517D01*
X135280297Y-95539867D01*
X135425133Y-95539867D01*
X135425133Y-95321527D01*
X135425194Y-95254797D01*
X135425489Y-95202722D01*
X135426188Y-95163025D01*
X135427460Y-95133427D01*
X135429474Y-95111653D01*
X135432400Y-95095422D01*
X135436408Y-95082459D01*
X135441666Y-95070485D01*
X135444183Y-95065411D01*
X135470195Y-95028941D01*
X135504324Y-95007222D01*
X135547218Y-94999903D01*
X135563348Y-95000582D01*
X135608180Y-95011315D01*
X135642588Y-95035224D01*
X135664304Y-95066335D01*
X135668858Y-95076998D01*
X135672387Y-95090378D01*
X135675016Y-95108621D01*
X135676874Y-95133875D01*
X135678085Y-95168288D01*
X135678777Y-95214005D01*
X135679076Y-95273175D01*
X135679120Y-95317617D01*
X135679133Y-95539867D01*
X135823067Y-95539867D01*
X135823067Y-94862534D01*
X135679133Y-94862534D01*
X135679133Y-94924752D01*
X135660083Y-94907333D01*
X135617756Y-94879156D01*
X135566177Y-94861248D01*
X135510284Y-94854633D01*
X135455016Y-94860339D01*
X135455016Y-94860339D01*
G37*
X135455016Y-94860339D02*
X135445526Y-94862750D01*
X135399221Y-94883131D01*
X135355500Y-94915599D01*
X135319914Y-94955570D01*
X135306600Y-94977533D01*
X135300647Y-94989590D01*
X135295909Y-95001102D01*
X135292227Y-95014118D01*
X135289439Y-95030687D01*
X135287384Y-95052855D01*
X135285901Y-95082671D01*
X135284829Y-95122184D01*
X135284007Y-95173441D01*
X135283275Y-95238491D01*
X135282865Y-95279517D01*
X135280297Y-95539867D01*
X135425133Y-95539867D01*
X135425133Y-95321527D01*
X135425194Y-95254797D01*
X135425489Y-95202722D01*
X135426188Y-95163025D01*
X135427460Y-95133427D01*
X135429474Y-95111653D01*
X135432400Y-95095422D01*
X135436408Y-95082459D01*
X135441666Y-95070485D01*
X135444183Y-95065411D01*
X135470195Y-95028941D01*
X135504324Y-95007222D01*
X135547218Y-94999903D01*
X135563348Y-95000582D01*
X135608180Y-95011315D01*
X135642588Y-95035224D01*
X135664304Y-95066335D01*
X135668858Y-95076998D01*
X135672387Y-95090378D01*
X135675016Y-95108621D01*
X135676874Y-95133875D01*
X135678085Y-95168288D01*
X135678777Y-95214005D01*
X135679076Y-95273175D01*
X135679120Y-95317617D01*
X135679133Y-95539867D01*
X135823067Y-95539867D01*
X135823067Y-94862534D01*
X135679133Y-94862534D01*
X135679133Y-94924752D01*
X135660083Y-94907333D01*
X135617756Y-94879156D01*
X135566177Y-94861248D01*
X135510284Y-94854633D01*
X135455016Y-94860339D01*
G36*
X132557242Y-94860572D02*
X132525939Y-94869638D01*
X132496815Y-94881094D01*
X132474227Y-94893151D01*
X132462533Y-94904022D01*
X132461800Y-94906796D01*
X132466857Y-94916961D01*
X132480368Y-94936536D01*
X132499842Y-94962007D01*
X132509144Y-94973550D01*
X132556488Y-95031418D01*
X132591069Y-95013776D01*
X132634340Y-95000145D01*
X132677153Y-95001781D01*
X132716118Y-95017632D01*
X132747848Y-95046644D01*
X132760237Y-95066335D01*
X132764791Y-95076998D01*
X132768320Y-95090378D01*
X132770950Y-95108621D01*
X132772807Y-95133875D01*
X132774018Y-95168288D01*
X132774710Y-95214005D01*
X132775010Y-95273175D01*
X132775054Y-95317617D01*
X132775067Y-95539867D01*
X132919000Y-95539867D01*
X132919000Y-94862534D01*
X132775067Y-94862534D01*
X132775067Y-94921906D01*
X132741605Y-94897667D01*
X132688610Y-94869463D01*
X132629246Y-94855943D01*
X132586367Y-94855682D01*
X132557242Y-94860572D01*
X132557242Y-94860572D01*
G37*
X132557242Y-94860572D02*
X132525939Y-94869638D01*
X132496815Y-94881094D01*
X132474227Y-94893151D01*
X132462533Y-94904022D01*
X132461800Y-94906796D01*
X132466857Y-94916961D01*
X132480368Y-94936536D01*
X132499842Y-94962007D01*
X132509144Y-94973550D01*
X132556488Y-95031418D01*
X132591069Y-95013776D01*
X132634340Y-95000145D01*
X132677153Y-95001781D01*
X132716118Y-95017632D01*
X132747848Y-95046644D01*
X132760237Y-95066335D01*
X132764791Y-95076998D01*
X132768320Y-95090378D01*
X132770950Y-95108621D01*
X132772807Y-95133875D01*
X132774018Y-95168288D01*
X132774710Y-95214005D01*
X132775010Y-95273175D01*
X132775054Y-95317617D01*
X132775067Y-95539867D01*
X132919000Y-95539867D01*
X132919000Y-94862534D01*
X132775067Y-94862534D01*
X132775067Y-94921906D01*
X132741605Y-94897667D01*
X132688610Y-94869463D01*
X132629246Y-94855943D01*
X132586367Y-94855682D01*
X132557242Y-94860572D01*
G36*
X134215978Y-89856617D02*
X134212422Y-89870123D01*
X134206259Y-89898255D01*
X134197893Y-89938978D01*
X134187728Y-89990254D01*
X134176167Y-90050047D01*
X134163616Y-90116319D01*
X134150907Y-90184700D01*
X134137736Y-90255033D01*
X134125035Y-90320605D01*
X134113223Y-90379426D01*
X134102717Y-90429503D01*
X134093934Y-90468845D01*
X134087292Y-90495460D01*
X134083263Y-90507277D01*
X134070767Y-90517006D01*
X134042300Y-90532289D01*
X133997882Y-90553116D01*
X133937537Y-90579475D01*
X133861284Y-90611358D01*
X133851865Y-90615227D01*
X133794184Y-90638684D01*
X133741163Y-90659869D01*
X133694946Y-90677956D01*
X133657677Y-90692116D01*
X133631501Y-90701525D01*
X133618561Y-90705355D01*
X133618005Y-90705400D01*
X133608120Y-90700744D01*
X133585922Y-90687470D01*
X133553005Y-90666618D01*
X133510963Y-90639231D01*
X133461393Y-90606350D01*
X133405887Y-90569014D01*
X133346042Y-90528267D01*
X133332722Y-90519133D01*
X133271449Y-90477384D01*
X133214181Y-90438975D01*
X133162517Y-90404935D01*
X133118058Y-90376291D01*
X133082402Y-90354071D01*
X133057150Y-90339305D01*
X133043900Y-90333018D01*
X133042924Y-90332867D01*
X133032956Y-90337584D01*
X133014207Y-90352039D01*
X132986191Y-90376682D01*
X132948419Y-90411969D01*
X132900404Y-90458351D01*
X132841660Y-90516281D01*
X132789347Y-90568501D01*
X132730088Y-90627965D01*
X132681772Y-90676689D01*
X132643339Y-90715876D01*
X132613729Y-90746731D01*
X132591881Y-90770459D01*
X132576736Y-90788263D01*
X132567234Y-90801347D01*
X132562315Y-90810916D01*
X132560919Y-90818175D01*
X132561986Y-90824326D01*
X132562614Y-90826098D01*
X132569199Y-90837931D01*
X132584288Y-90861991D01*
X132606752Y-90896576D01*
X132635466Y-90939981D01*
X132669303Y-90990506D01*
X132707137Y-91046448D01*
X132747841Y-91106103D01*
X132749215Y-91108109D01*
X132789597Y-91167340D01*
X132826775Y-91222484D01*
X132859686Y-91271921D01*
X132887271Y-91314029D01*
X132908467Y-91347186D01*
X132922213Y-91369772D01*
X132927447Y-91380164D01*
X132927467Y-91380379D01*
X132924083Y-91393446D01*
X132914647Y-91419414D01*
X132900238Y-91455825D01*
X132881930Y-91500219D01*
X132860801Y-91550139D01*
X132837927Y-91603124D01*
X132814385Y-91656717D01*
X132791251Y-91708458D01*
X132769602Y-91755888D01*
X132750513Y-91796549D01*
X132735063Y-91827982D01*
X132724327Y-91847729D01*
X132720554Y-91852982D01*
X132712290Y-91858383D01*
X132697881Y-91864166D01*
X132675770Y-91870692D01*
X132644404Y-91878317D01*
X132602226Y-91887401D01*
X132547682Y-91898300D01*
X132479215Y-91911372D01*
X132414700Y-91923391D01*
X132329535Y-91939166D01*
X132259510Y-91952245D01*
X132203106Y-91962982D01*
X132158804Y-91971731D01*
X132125088Y-91978845D01*
X132100439Y-91984676D01*
X132083339Y-91989578D01*
X132072271Y-91993905D01*
X132065717Y-91998010D01*
X132062158Y-92002245D01*
X132060504Y-92005818D01*
X132059355Y-92017046D01*
X132058296Y-92043261D01*
X132057358Y-92082514D01*
X132056569Y-92132860D01*
X132055961Y-92192352D01*
X132055562Y-92259041D01*
X132055402Y-92330982D01*
X132055400Y-92339221D01*
X132055453Y-92421843D01*
X132055660Y-92489194D01*
X132056094Y-92542937D01*
X132056829Y-92584734D01*
X132057937Y-92616247D01*
X132059491Y-92639139D01*
X132061566Y-92655072D01*
X132064233Y-92665709D01*
X132067565Y-92672711D01*
X132070217Y-92676209D01*
X132076831Y-92681233D01*
X132088926Y-92686549D01*
X132108035Y-92692505D01*
X132135693Y-92699452D01*
X132173432Y-92707740D01*
X132222787Y-92717720D01*
X132285290Y-92729741D01*
X132362475Y-92744155D01*
X132389654Y-92749169D01*
X132475775Y-92765212D01*
X132546352Y-92778802D01*
X132602556Y-92790199D01*
X132645558Y-92799664D01*
X132676529Y-92807457D01*
X132696639Y-92813838D01*
X132707060Y-92819070D01*
X132708090Y-92820006D01*
X132715324Y-92832198D01*
X132727337Y-92857511D01*
X132743196Y-92893586D01*
X132761973Y-92938064D01*
X132782735Y-92988584D01*
X132804552Y-93042787D01*
X132826494Y-93098314D01*
X132847629Y-93152806D01*
X132867026Y-93203904D01*
X132883756Y-93249247D01*
X132896886Y-93286476D01*
X132905486Y-93313232D01*
X132908626Y-93327155D01*
X132908542Y-93328109D01*
X132902977Y-93338302D01*
X132888891Y-93360728D01*
X132867405Y-93393697D01*
X132839638Y-93435522D01*
X132806711Y-93484513D01*
X132769742Y-93538983D01*
X132734646Y-93590270D01*
X132694938Y-93648344D01*
X132658199Y-93702585D01*
X132625566Y-93751276D01*
X132598176Y-93792700D01*
X132577166Y-93825140D01*
X132563671Y-93846877D01*
X132558925Y-93855761D01*
X132558993Y-93861916D01*
X132563082Y-93870997D01*
X132572204Y-93884120D01*
X132587368Y-93902401D01*
X132609584Y-93926956D01*
X132639862Y-93958903D01*
X132679211Y-93999356D01*
X132728641Y-94049432D01*
X132788823Y-94109908D01*
X132857330Y-94178125D01*
X132915448Y-94235039D01*
X132962958Y-94280444D01*
X132999641Y-94314137D01*
X133025278Y-94335912D01*
X133039649Y-94345564D01*
X133041652Y-94346067D01*
X133052401Y-94341407D01*
X133075358Y-94328147D01*
X133108842Y-94307370D01*
X133151168Y-94280156D01*
X133200653Y-94247589D01*
X133255614Y-94210750D01*
X133311993Y-94172349D01*
X133381838Y-94124624D01*
X133439087Y-94086014D01*
X133484922Y-94055787D01*
X133520521Y-94033208D01*
X133547066Y-94017545D01*
X133565735Y-94008066D01*
X133577708Y-94004037D01*
X133582839Y-94004097D01*
X133596702Y-94010013D01*
X133622057Y-94022323D01*
X133655517Y-94039333D01*
X133693698Y-94059348D01*
X133701020Y-94063251D01*
X133747545Y-94088006D01*
X133781497Y-94105460D01*
X133805217Y-94116327D01*
X133821046Y-94121323D01*
X133831325Y-94121164D01*
X133838396Y-94116564D01*
X133844601Y-94108240D01*
X133845215Y-94107305D01*
X133852129Y-94093843D01*
X133864529Y-94066584D01*
X133881771Y-94027107D01*
X133903209Y-93976991D01*
X133928198Y-93917816D01*
X133956091Y-93851161D01*
X133986244Y-93778607D01*
X134018010Y-93701732D01*
X134050745Y-93622116D01*
X134083803Y-93541339D01*
X134116539Y-93460980D01*
X134148306Y-93382619D01*
X134178460Y-93307836D01*
X134206355Y-93238209D01*
X134231345Y-93175318D01*
X134252785Y-93120744D01*
X134270030Y-93076065D01*
X134282433Y-93042861D01*
X134289350Y-93022712D01*
X134290600Y-93017450D01*
X134286980Y-92998655D01*
X134273515Y-92983382D01*
X134258850Y-92973517D01*
X134158674Y-92904387D01*
X134073194Y-92827634D01*
X134002636Y-92743635D01*
X133947227Y-92652762D01*
X133907191Y-92555392D01*
X133882755Y-92451898D01*
X133874144Y-92342655D01*
X133874138Y-92335234D01*
X133882707Y-92228396D01*
X133907003Y-92126383D01*
X133946190Y-92030506D01*
X133999428Y-91942078D01*
X134065881Y-91862409D01*
X134144711Y-91792813D01*
X134235081Y-91734601D01*
X134268485Y-91717540D01*
X134335156Y-91688246D01*
X134395518Y-91668351D01*
X134455938Y-91656416D01*
X134522784Y-91650999D01*
X134565767Y-91650276D01*
X134639053Y-91652649D01*
X134702318Y-91660727D01*
X134761931Y-91675950D01*
X134824257Y-91699761D01*
X134863048Y-91717540D01*
X134957172Y-91771558D01*
X135040043Y-91837408D01*
X135110823Y-91913779D01*
X135168675Y-91999360D01*
X135212762Y-92092837D01*
X135242245Y-92192899D01*
X135256287Y-92298234D01*
X135257396Y-92335234D01*
X135249840Y-92444843D01*
X135226444Y-92548729D01*
X135187433Y-92646516D01*
X135133034Y-92737830D01*
X135063472Y-92822296D01*
X134978972Y-92899540D01*
X134879761Y-92969186D01*
X134872683Y-92973517D01*
X134851321Y-92989292D01*
X134842178Y-93005301D01*
X134840934Y-93017450D01*
X134844094Y-93028638D01*
X134853144Y-93053869D01*
X134867439Y-93091562D01*
X134886332Y-93140137D01*
X134909179Y-93198015D01*
X134935335Y-93263617D01*
X134964152Y-93335363D01*
X134994987Y-93411674D01*
X135027193Y-93490969D01*
X135060125Y-93571670D01*
X135093138Y-93652197D01*
X135125585Y-93730970D01*
X135156823Y-93806409D01*
X135186204Y-93876936D01*
X135213083Y-93940970D01*
X135236815Y-93996933D01*
X135256755Y-94043244D01*
X135272257Y-94078324D01*
X135282675Y-94100594D01*
X135286318Y-94107305D01*
X135292561Y-94115938D01*
X135299454Y-94120913D01*
X135309337Y-94121514D01*
X135324553Y-94117026D01*
X135347443Y-94106734D01*
X135380347Y-94089921D01*
X135425609Y-94065873D01*
X135430514Y-94063251D01*
X135469198Y-94042865D01*
X135503789Y-94025171D01*
X135530900Y-94011862D01*
X135547148Y-94004633D01*
X135548694Y-94004097D01*
X135556585Y-94004661D01*
X135570323Y-94010150D01*
X135591088Y-94021294D01*
X135620060Y-94038828D01*
X135658419Y-94063484D01*
X135707345Y-94095996D01*
X135768018Y-94137095D01*
X135819541Y-94172349D01*
X135878175Y-94212274D01*
X135932951Y-94248965D01*
X135982185Y-94281341D01*
X136024194Y-94308320D01*
X136057293Y-94328821D01*
X136079801Y-94341761D01*
X136089881Y-94346067D01*
X136101000Y-94339908D01*
X136123447Y-94321569D01*
X136157003Y-94291253D01*
X136201449Y-94249166D01*
X136256565Y-94195513D01*
X136322132Y-94130498D01*
X136342710Y-94109908D01*
X136403173Y-94049149D01*
X136452549Y-93999125D01*
X136491849Y-93958718D01*
X136522083Y-93926813D01*
X136544260Y-93902292D01*
X136559391Y-93884041D01*
X136568484Y-93870941D01*
X136572551Y-93861878D01*
X136572608Y-93855761D01*
X136566605Y-93844769D01*
X136552093Y-93821577D01*
X136530209Y-93787901D01*
X136502090Y-93745459D01*
X136468873Y-93695968D01*
X136431694Y-93641145D01*
X136396887Y-93590270D01*
X136357283Y-93532367D01*
X136320731Y-93478452D01*
X136288350Y-93430213D01*
X136261262Y-93389340D01*
X136240586Y-93357519D01*
X136227442Y-93336441D01*
X136222992Y-93328109D01*
X136225062Y-93316719D01*
X136232758Y-93292075D01*
X136245149Y-93256539D01*
X136261306Y-93212468D01*
X136280296Y-93162223D01*
X136301190Y-93108163D01*
X136323056Y-93052647D01*
X136344963Y-92998035D01*
X136365982Y-92946687D01*
X136385180Y-92900961D01*
X136401627Y-92863217D01*
X136414393Y-92835814D01*
X136422546Y-92821112D01*
X136423443Y-92820006D01*
X136432056Y-92814975D01*
X136450122Y-92808846D01*
X136478813Y-92801358D01*
X136519300Y-92792250D01*
X136572753Y-92781263D01*
X136640343Y-92768136D01*
X136723242Y-92752608D01*
X136741879Y-92749169D01*
X136823933Y-92733942D01*
X136890828Y-92721216D01*
X136944099Y-92710640D01*
X136985279Y-92701864D01*
X137015901Y-92694538D01*
X137037500Y-92688312D01*
X137051608Y-92682836D01*
X137059758Y-92677758D01*
X137061317Y-92676209D01*
X137065138Y-92670714D01*
X137068245Y-92662704D01*
X137070710Y-92650514D01*
X137072606Y-92632484D01*
X137074006Y-92606949D01*
X137074983Y-92572249D01*
X137075611Y-92526720D01*
X137075963Y-92468700D01*
X137076111Y-92396527D01*
X137076133Y-92339221D01*
X137076002Y-92266817D01*
X137075628Y-92199447D01*
X137075041Y-92139059D01*
X137074271Y-92087600D01*
X137073348Y-92047017D01*
X137072301Y-92019256D01*
X137071161Y-92006265D01*
X137071030Y-92005818D01*
X137068743Y-92001241D01*
X137064630Y-91997067D01*
X137057173Y-91992943D01*
X137044853Y-91988515D01*
X137026152Y-91983430D01*
X136999553Y-91977336D01*
X136963538Y-91969877D01*
X136916588Y-91960703D01*
X136857187Y-91949458D01*
X136783816Y-91935791D01*
X136716834Y-91923391D01*
X136636349Y-91908361D01*
X136571006Y-91895786D01*
X136519251Y-91885307D01*
X136479528Y-91876567D01*
X136450283Y-91869209D01*
X136429959Y-91862873D01*
X136417002Y-91857202D01*
X136410979Y-91852982D01*
X136403645Y-91841566D01*
X136390940Y-91816965D01*
X136373941Y-91781636D01*
X136353725Y-91738039D01*
X136331367Y-91688633D01*
X136307946Y-91635876D01*
X136284537Y-91582228D01*
X136262216Y-91530147D01*
X136242060Y-91482092D01*
X136225147Y-91440523D01*
X136212551Y-91407897D01*
X136205350Y-91386673D01*
X136204067Y-91380379D01*
X136208711Y-91370835D01*
X136221936Y-91348992D01*
X136242680Y-91316473D01*
X136269882Y-91274897D01*
X136302480Y-91225887D01*
X136339412Y-91171064D01*
X136379618Y-91112050D01*
X136382318Y-91108109D01*
X136423097Y-91048360D01*
X136461043Y-90992269D01*
X136495030Y-90941539D01*
X136523930Y-90897872D01*
X136546618Y-90862971D01*
X136561967Y-90838538D01*
X136568850Y-90826275D01*
X136568920Y-90826098D01*
X136570509Y-90820043D01*
X136569947Y-90813234D01*
X136566173Y-90804469D01*
X136558127Y-90792542D01*
X136544749Y-90776249D01*
X136524981Y-90754387D01*
X136497760Y-90725750D01*
X136462029Y-90689135D01*
X136416726Y-90643338D01*
X136360791Y-90587154D01*
X136342187Y-90568501D01*
X136274932Y-90501460D01*
X136218779Y-90446312D01*
X136173240Y-90402605D01*
X136137828Y-90369886D01*
X136112055Y-90347702D01*
X136095435Y-90335600D01*
X136088609Y-90332867D01*
X136077656Y-90337541D01*
X136054416Y-90350878D01*
X136020489Y-90371851D01*
X135977475Y-90399430D01*
X135926973Y-90432588D01*
X135870583Y-90470297D01*
X135809903Y-90511529D01*
X135798812Y-90519133D01*
X135738242Y-90560479D01*
X135681672Y-90598638D01*
X135630696Y-90632568D01*
X135586907Y-90661227D01*
X135551900Y-90683576D01*
X135527268Y-90698573D01*
X135514607Y-90705177D01*
X135513600Y-90705400D01*
X135500685Y-90702167D01*
X135474823Y-90693163D01*
X135438519Y-90679433D01*
X135394279Y-90662021D01*
X135344607Y-90641969D01*
X135292007Y-90620323D01*
X135238986Y-90598125D01*
X135188047Y-90576421D01*
X135141696Y-90556253D01*
X135102437Y-90538666D01*
X135072775Y-90524703D01*
X135055215Y-90515409D01*
X135051890Y-90512987D01*
X135046602Y-90502418D01*
X135039712Y-90479729D01*
X135031043Y-90444109D01*
X135020417Y-90394744D01*
X135007657Y-90330821D01*
X134992585Y-90251529D01*
X134981019Y-90188934D01*
X134967879Y-90117839D01*
X134955337Y-90051255D01*
X134943794Y-89991201D01*
X134933646Y-89939699D01*
X134925292Y-89898769D01*
X134919129Y-89870432D01*
X134915558Y-89856707D01*
X134915524Y-89856617D01*
X134906612Y-89833334D01*
X134224921Y-89833334D01*
X134215978Y-89856617D01*
X134215978Y-89856617D01*
G37*
X134215978Y-89856617D02*
X134212422Y-89870123D01*
X134206259Y-89898255D01*
X134197893Y-89938978D01*
X134187728Y-89990254D01*
X134176167Y-90050047D01*
X134163616Y-90116319D01*
X134150907Y-90184700D01*
X134137736Y-90255033D01*
X134125035Y-90320605D01*
X134113223Y-90379426D01*
X134102717Y-90429503D01*
X134093934Y-90468845D01*
X134087292Y-90495460D01*
X134083263Y-90507277D01*
X134070767Y-90517006D01*
X134042300Y-90532289D01*
X133997882Y-90553116D01*
X133937537Y-90579475D01*
X133861284Y-90611358D01*
X133851865Y-90615227D01*
X133794184Y-90638684D01*
X133741163Y-90659869D01*
X133694946Y-90677956D01*
X133657677Y-90692116D01*
X133631501Y-90701525D01*
X133618561Y-90705355D01*
X133618005Y-90705400D01*
X133608120Y-90700744D01*
X133585922Y-90687470D01*
X133553005Y-90666618D01*
X133510963Y-90639231D01*
X133461393Y-90606350D01*
X133405887Y-90569014D01*
X133346042Y-90528267D01*
X133332722Y-90519133D01*
X133271449Y-90477384D01*
X133214181Y-90438975D01*
X133162517Y-90404935D01*
X133118058Y-90376291D01*
X133082402Y-90354071D01*
X133057150Y-90339305D01*
X133043900Y-90333018D01*
X133042924Y-90332867D01*
X133032956Y-90337584D01*
X133014207Y-90352039D01*
X132986191Y-90376682D01*
X132948419Y-90411969D01*
X132900404Y-90458351D01*
X132841660Y-90516281D01*
X132789347Y-90568501D01*
X132730088Y-90627965D01*
X132681772Y-90676689D01*
X132643339Y-90715876D01*
X132613729Y-90746731D01*
X132591881Y-90770459D01*
X132576736Y-90788263D01*
X132567234Y-90801347D01*
X132562315Y-90810916D01*
X132560919Y-90818175D01*
X132561986Y-90824326D01*
X132562614Y-90826098D01*
X132569199Y-90837931D01*
X132584288Y-90861991D01*
X132606752Y-90896576D01*
X132635466Y-90939981D01*
X132669303Y-90990506D01*
X132707137Y-91046448D01*
X132747841Y-91106103D01*
X132749215Y-91108109D01*
X132789597Y-91167340D01*
X132826775Y-91222484D01*
X132859686Y-91271921D01*
X132887271Y-91314029D01*
X132908467Y-91347186D01*
X132922213Y-91369772D01*
X132927447Y-91380164D01*
X132927467Y-91380379D01*
X132924083Y-91393446D01*
X132914647Y-91419414D01*
X132900238Y-91455825D01*
X132881930Y-91500219D01*
X132860801Y-91550139D01*
X132837927Y-91603124D01*
X132814385Y-91656717D01*
X132791251Y-91708458D01*
X132769602Y-91755888D01*
X132750513Y-91796549D01*
X132735063Y-91827982D01*
X132724327Y-91847729D01*
X132720554Y-91852982D01*
X132712290Y-91858383D01*
X132697881Y-91864166D01*
X132675770Y-91870692D01*
X132644404Y-91878317D01*
X132602226Y-91887401D01*
X132547682Y-91898300D01*
X132479215Y-91911372D01*
X132414700Y-91923391D01*
X132329535Y-91939166D01*
X132259510Y-91952245D01*
X132203106Y-91962982D01*
X132158804Y-91971731D01*
X132125088Y-91978845D01*
X132100439Y-91984676D01*
X132083339Y-91989578D01*
X132072271Y-91993905D01*
X132065717Y-91998010D01*
X132062158Y-92002245D01*
X132060504Y-92005818D01*
X132059355Y-92017046D01*
X132058296Y-92043261D01*
X132057358Y-92082514D01*
X132056569Y-92132860D01*
X132055961Y-92192352D01*
X132055562Y-92259041D01*
X132055402Y-92330982D01*
X132055400Y-92339221D01*
X132055453Y-92421843D01*
X132055660Y-92489194D01*
X132056094Y-92542937D01*
X132056829Y-92584734D01*
X132057937Y-92616247D01*
X132059491Y-92639139D01*
X132061566Y-92655072D01*
X132064233Y-92665709D01*
X132067565Y-92672711D01*
X132070217Y-92676209D01*
X132076831Y-92681233D01*
X132088926Y-92686549D01*
X132108035Y-92692505D01*
X132135693Y-92699452D01*
X132173432Y-92707740D01*
X132222787Y-92717720D01*
X132285290Y-92729741D01*
X132362475Y-92744155D01*
X132389654Y-92749169D01*
X132475775Y-92765212D01*
X132546352Y-92778802D01*
X132602556Y-92790199D01*
X132645558Y-92799664D01*
X132676529Y-92807457D01*
X132696639Y-92813838D01*
X132707060Y-92819070D01*
X132708090Y-92820006D01*
X132715324Y-92832198D01*
X132727337Y-92857511D01*
X132743196Y-92893586D01*
X132761973Y-92938064D01*
X132782735Y-92988584D01*
X132804552Y-93042787D01*
X132826494Y-93098314D01*
X132847629Y-93152806D01*
X132867026Y-93203904D01*
X132883756Y-93249247D01*
X132896886Y-93286476D01*
X132905486Y-93313232D01*
X132908626Y-93327155D01*
X132908542Y-93328109D01*
X132902977Y-93338302D01*
X132888891Y-93360728D01*
X132867405Y-93393697D01*
X132839638Y-93435522D01*
X132806711Y-93484513D01*
X132769742Y-93538983D01*
X132734646Y-93590270D01*
X132694938Y-93648344D01*
X132658199Y-93702585D01*
X132625566Y-93751276D01*
X132598176Y-93792700D01*
X132577166Y-93825140D01*
X132563671Y-93846877D01*
X132558925Y-93855761D01*
X132558993Y-93861916D01*
X132563082Y-93870997D01*
X132572204Y-93884120D01*
X132587368Y-93902401D01*
X132609584Y-93926956D01*
X132639862Y-93958903D01*
X132679211Y-93999356D01*
X132728641Y-94049432D01*
X132788823Y-94109908D01*
X132857330Y-94178125D01*
X132915448Y-94235039D01*
X132962958Y-94280444D01*
X132999641Y-94314137D01*
X133025278Y-94335912D01*
X133039649Y-94345564D01*
X133041652Y-94346067D01*
X133052401Y-94341407D01*
X133075358Y-94328147D01*
X133108842Y-94307370D01*
X133151168Y-94280156D01*
X133200653Y-94247589D01*
X133255614Y-94210750D01*
X133311993Y-94172349D01*
X133381838Y-94124624D01*
X133439087Y-94086014D01*
X133484922Y-94055787D01*
X133520521Y-94033208D01*
X133547066Y-94017545D01*
X133565735Y-94008066D01*
X133577708Y-94004037D01*
X133582839Y-94004097D01*
X133596702Y-94010013D01*
X133622057Y-94022323D01*
X133655517Y-94039333D01*
X133693698Y-94059348D01*
X133701020Y-94063251D01*
X133747545Y-94088006D01*
X133781497Y-94105460D01*
X133805217Y-94116327D01*
X133821046Y-94121323D01*
X133831325Y-94121164D01*
X133838396Y-94116564D01*
X133844601Y-94108240D01*
X133845215Y-94107305D01*
X133852129Y-94093843D01*
X133864529Y-94066584D01*
X133881771Y-94027107D01*
X133903209Y-93976991D01*
X133928198Y-93917816D01*
X133956091Y-93851161D01*
X133986244Y-93778607D01*
X134018010Y-93701732D01*
X134050745Y-93622116D01*
X134083803Y-93541339D01*
X134116539Y-93460980D01*
X134148306Y-93382619D01*
X134178460Y-93307836D01*
X134206355Y-93238209D01*
X134231345Y-93175318D01*
X134252785Y-93120744D01*
X134270030Y-93076065D01*
X134282433Y-93042861D01*
X134289350Y-93022712D01*
X134290600Y-93017450D01*
X134286980Y-92998655D01*
X134273515Y-92983382D01*
X134258850Y-92973517D01*
X134158674Y-92904387D01*
X134073194Y-92827634D01*
X134002636Y-92743635D01*
X133947227Y-92652762D01*
X133907191Y-92555392D01*
X133882755Y-92451898D01*
X133874144Y-92342655D01*
X133874138Y-92335234D01*
X133882707Y-92228396D01*
X133907003Y-92126383D01*
X133946190Y-92030506D01*
X133999428Y-91942078D01*
X134065881Y-91862409D01*
X134144711Y-91792813D01*
X134235081Y-91734601D01*
X134268485Y-91717540D01*
X134335156Y-91688246D01*
X134395518Y-91668351D01*
X134455938Y-91656416D01*
X134522784Y-91650999D01*
X134565767Y-91650276D01*
X134639053Y-91652649D01*
X134702318Y-91660727D01*
X134761931Y-91675950D01*
X134824257Y-91699761D01*
X134863048Y-91717540D01*
X134957172Y-91771558D01*
X135040043Y-91837408D01*
X135110823Y-91913779D01*
X135168675Y-91999360D01*
X135212762Y-92092837D01*
X135242245Y-92192899D01*
X135256287Y-92298234D01*
X135257396Y-92335234D01*
X135249840Y-92444843D01*
X135226444Y-92548729D01*
X135187433Y-92646516D01*
X135133034Y-92737830D01*
X135063472Y-92822296D01*
X134978972Y-92899540D01*
X134879761Y-92969186D01*
X134872683Y-92973517D01*
X134851321Y-92989292D01*
X134842178Y-93005301D01*
X134840934Y-93017450D01*
X134844094Y-93028638D01*
X134853144Y-93053869D01*
X134867439Y-93091562D01*
X134886332Y-93140137D01*
X134909179Y-93198015D01*
X134935335Y-93263617D01*
X134964152Y-93335363D01*
X134994987Y-93411674D01*
X135027193Y-93490969D01*
X135060125Y-93571670D01*
X135093138Y-93652197D01*
X135125585Y-93730970D01*
X135156823Y-93806409D01*
X135186204Y-93876936D01*
X135213083Y-93940970D01*
X135236815Y-93996933D01*
X135256755Y-94043244D01*
X135272257Y-94078324D01*
X135282675Y-94100594D01*
X135286318Y-94107305D01*
X135292561Y-94115938D01*
X135299454Y-94120913D01*
X135309337Y-94121514D01*
X135324553Y-94117026D01*
X135347443Y-94106734D01*
X135380347Y-94089921D01*
X135425609Y-94065873D01*
X135430514Y-94063251D01*
X135469198Y-94042865D01*
X135503789Y-94025171D01*
X135530900Y-94011862D01*
X135547148Y-94004633D01*
X135548694Y-94004097D01*
X135556585Y-94004661D01*
X135570323Y-94010150D01*
X135591088Y-94021294D01*
X135620060Y-94038828D01*
X135658419Y-94063484D01*
X135707345Y-94095996D01*
X135768018Y-94137095D01*
X135819541Y-94172349D01*
X135878175Y-94212274D01*
X135932951Y-94248965D01*
X135982185Y-94281341D01*
X136024194Y-94308320D01*
X136057293Y-94328821D01*
X136079801Y-94341761D01*
X136089881Y-94346067D01*
X136101000Y-94339908D01*
X136123447Y-94321569D01*
X136157003Y-94291253D01*
X136201449Y-94249166D01*
X136256565Y-94195513D01*
X136322132Y-94130498D01*
X136342710Y-94109908D01*
X136403173Y-94049149D01*
X136452549Y-93999125D01*
X136491849Y-93958718D01*
X136522083Y-93926813D01*
X136544260Y-93902292D01*
X136559391Y-93884041D01*
X136568484Y-93870941D01*
X136572551Y-93861878D01*
X136572608Y-93855761D01*
X136566605Y-93844769D01*
X136552093Y-93821577D01*
X136530209Y-93787901D01*
X136502090Y-93745459D01*
X136468873Y-93695968D01*
X136431694Y-93641145D01*
X136396887Y-93590270D01*
X136357283Y-93532367D01*
X136320731Y-93478452D01*
X136288350Y-93430213D01*
X136261262Y-93389340D01*
X136240586Y-93357519D01*
X136227442Y-93336441D01*
X136222992Y-93328109D01*
X136225062Y-93316719D01*
X136232758Y-93292075D01*
X136245149Y-93256539D01*
X136261306Y-93212468D01*
X136280296Y-93162223D01*
X136301190Y-93108163D01*
X136323056Y-93052647D01*
X136344963Y-92998035D01*
X136365982Y-92946687D01*
X136385180Y-92900961D01*
X136401627Y-92863217D01*
X136414393Y-92835814D01*
X136422546Y-92821112D01*
X136423443Y-92820006D01*
X136432056Y-92814975D01*
X136450122Y-92808846D01*
X136478813Y-92801358D01*
X136519300Y-92792250D01*
X136572753Y-92781263D01*
X136640343Y-92768136D01*
X136723242Y-92752608D01*
X136741879Y-92749169D01*
X136823933Y-92733942D01*
X136890828Y-92721216D01*
X136944099Y-92710640D01*
X136985279Y-92701864D01*
X137015901Y-92694538D01*
X137037500Y-92688312D01*
X137051608Y-92682836D01*
X137059758Y-92677758D01*
X137061317Y-92676209D01*
X137065138Y-92670714D01*
X137068245Y-92662704D01*
X137070710Y-92650514D01*
X137072606Y-92632484D01*
X137074006Y-92606949D01*
X137074983Y-92572249D01*
X137075611Y-92526720D01*
X137075963Y-92468700D01*
X137076111Y-92396527D01*
X137076133Y-92339221D01*
X137076002Y-92266817D01*
X137075628Y-92199447D01*
X137075041Y-92139059D01*
X137074271Y-92087600D01*
X137073348Y-92047017D01*
X137072301Y-92019256D01*
X137071161Y-92006265D01*
X137071030Y-92005818D01*
X137068743Y-92001241D01*
X137064630Y-91997067D01*
X137057173Y-91992943D01*
X137044853Y-91988515D01*
X137026152Y-91983430D01*
X136999553Y-91977336D01*
X136963538Y-91969877D01*
X136916588Y-91960703D01*
X136857187Y-91949458D01*
X136783816Y-91935791D01*
X136716834Y-91923391D01*
X136636349Y-91908361D01*
X136571006Y-91895786D01*
X136519251Y-91885307D01*
X136479528Y-91876567D01*
X136450283Y-91869209D01*
X136429959Y-91862873D01*
X136417002Y-91857202D01*
X136410979Y-91852982D01*
X136403645Y-91841566D01*
X136390940Y-91816965D01*
X136373941Y-91781636D01*
X136353725Y-91738039D01*
X136331367Y-91688633D01*
X136307946Y-91635876D01*
X136284537Y-91582228D01*
X136262216Y-91530147D01*
X136242060Y-91482092D01*
X136225147Y-91440523D01*
X136212551Y-91407897D01*
X136205350Y-91386673D01*
X136204067Y-91380379D01*
X136208711Y-91370835D01*
X136221936Y-91348992D01*
X136242680Y-91316473D01*
X136269882Y-91274897D01*
X136302480Y-91225887D01*
X136339412Y-91171064D01*
X136379618Y-91112050D01*
X136382318Y-91108109D01*
X136423097Y-91048360D01*
X136461043Y-90992269D01*
X136495030Y-90941539D01*
X136523930Y-90897872D01*
X136546618Y-90862971D01*
X136561967Y-90838538D01*
X136568850Y-90826275D01*
X136568920Y-90826098D01*
X136570509Y-90820043D01*
X136569947Y-90813234D01*
X136566173Y-90804469D01*
X136558127Y-90792542D01*
X136544749Y-90776249D01*
X136524981Y-90754387D01*
X136497760Y-90725750D01*
X136462029Y-90689135D01*
X136416726Y-90643338D01*
X136360791Y-90587154D01*
X136342187Y-90568501D01*
X136274932Y-90501460D01*
X136218779Y-90446312D01*
X136173240Y-90402605D01*
X136137828Y-90369886D01*
X136112055Y-90347702D01*
X136095435Y-90335600D01*
X136088609Y-90332867D01*
X136077656Y-90337541D01*
X136054416Y-90350878D01*
X136020489Y-90371851D01*
X135977475Y-90399430D01*
X135926973Y-90432588D01*
X135870583Y-90470297D01*
X135809903Y-90511529D01*
X135798812Y-90519133D01*
X135738242Y-90560479D01*
X135681672Y-90598638D01*
X135630696Y-90632568D01*
X135586907Y-90661227D01*
X135551900Y-90683576D01*
X135527268Y-90698573D01*
X135514607Y-90705177D01*
X135513600Y-90705400D01*
X135500685Y-90702167D01*
X135474823Y-90693163D01*
X135438519Y-90679433D01*
X135394279Y-90662021D01*
X135344607Y-90641969D01*
X135292007Y-90620323D01*
X135238986Y-90598125D01*
X135188047Y-90576421D01*
X135141696Y-90556253D01*
X135102437Y-90538666D01*
X135072775Y-90524703D01*
X135055215Y-90515409D01*
X135051890Y-90512987D01*
X135046602Y-90502418D01*
X135039712Y-90479729D01*
X135031043Y-90444109D01*
X135020417Y-90394744D01*
X135007657Y-90330821D01*
X134992585Y-90251529D01*
X134981019Y-90188934D01*
X134967879Y-90117839D01*
X134955337Y-90051255D01*
X134943794Y-89991201D01*
X134933646Y-89939699D01*
X134925292Y-89898769D01*
X134919129Y-89870432D01*
X134915558Y-89856707D01*
X134915524Y-89856617D01*
X134906612Y-89833334D01*
X134224921Y-89833334D01*
X134215978Y-89856617D01*
D12*
X99270000Y-95310000D03*
X99270000Y-96810000D03*
X104620000Y-67595000D03*
X104620000Y-69095000D03*
D13*
X101450000Y-90380000D03*
X101450000Y-88880000D03*
D14*
X99369120Y-93749740D03*
X95670880Y-87750260D03*
X95670880Y-93749740D03*
X99369120Y-87750260D03*
D15*
X110280000Y-92110000D03*
X110280000Y-92910000D03*
X110280000Y-93710000D03*
X110280000Y-94510000D03*
X110280000Y-95310000D03*
X110280000Y-96110000D03*
X110280000Y-96910000D03*
X110280000Y-97710000D03*
D16*
X108830000Y-99160000D03*
X108030000Y-99160000D03*
X107230000Y-99160000D03*
X106430000Y-99160000D03*
X105630000Y-99160000D03*
X104830000Y-99160000D03*
X104030000Y-99160000D03*
X103230000Y-99160000D03*
D15*
X101780000Y-97710000D03*
X101780000Y-96910000D03*
X101780000Y-96110000D03*
X101780000Y-95310000D03*
X101780000Y-94510000D03*
X101780000Y-93710000D03*
X101780000Y-92910000D03*
X101780000Y-92110000D03*
D16*
X103230000Y-90660000D03*
X104030000Y-90660000D03*
X104830000Y-90660000D03*
X105630000Y-90660000D03*
X106430000Y-90660000D03*
X107230000Y-90660000D03*
X108030000Y-90660000D03*
X108830000Y-90660000D03*
D17*
X129600000Y-100620000D03*
X128330000Y-100620000D03*
X127060000Y-100620000D03*
X125790000Y-100620000D03*
X124520000Y-100620000D03*
X123250000Y-100620000D03*
X121980000Y-100620000D03*
X120710000Y-100620000D03*
X119440000Y-100620000D03*
X119440000Y-91220000D03*
X120710000Y-91220000D03*
X121980000Y-91220000D03*
X123250000Y-91220000D03*
X124520000Y-91220000D03*
X125790000Y-91220000D03*
X127060000Y-91220000D03*
X128330000Y-91220000D03*
X129600000Y-91220000D03*
D18*
X135615000Y-71010000D03*
X134345000Y-71010000D03*
X133075000Y-71010000D03*
X131805000Y-71010000D03*
X130535000Y-71010000D03*
X129265000Y-71010000D03*
X127995000Y-71010000D03*
X126725000Y-71010000D03*
X126725000Y-65610000D03*
X127995000Y-65610000D03*
X129265000Y-65610000D03*
X130535000Y-65610000D03*
X131805000Y-65610000D03*
X133075000Y-65610000D03*
X134345000Y-65610000D03*
X135615000Y-65610000D03*
D12*
X123695000Y-69095000D03*
X123695000Y-67595000D03*
D18*
X101955000Y-71020000D03*
X100685000Y-71020000D03*
X99415000Y-71020000D03*
X98145000Y-71020000D03*
X96875000Y-71020000D03*
X95605000Y-71020000D03*
X94335000Y-71020000D03*
X93065000Y-71020000D03*
X93065000Y-65620000D03*
X94335000Y-65620000D03*
X95605000Y-65620000D03*
X96875000Y-65620000D03*
X98145000Y-65620000D03*
X99415000Y-65620000D03*
X100685000Y-65620000D03*
X101955000Y-65620000D03*
D19*
X84410000Y-70580000D03*
X85910000Y-70580000D03*
D20*
X84270000Y-76620000D03*
D21*
X86970000Y-80120000D03*
D22*
X86970000Y-78270000D03*
X86970000Y-78920000D03*
X86970000Y-76320000D03*
X86970000Y-76970000D03*
X86970000Y-77620000D03*
D21*
X86970000Y-75120000D03*
D20*
X84270000Y-78620000D03*
D23*
X84270000Y-81120000D03*
X84270000Y-74120000D03*
D24*
X84270000Y-74720000D03*
X84270000Y-80520000D03*
D25*
X93770000Y-92370000D03*
X93770000Y-89070000D03*
X92770000Y-92370000D03*
X92770000Y-89070000D03*
X91770000Y-92370000D03*
X91770000Y-89070000D03*
D26*
X87240600Y-66016027D03*
X85363660Y-68252876D03*
X85363660Y-68252876D03*
X87240600Y-66016027D03*
D27*
X114370000Y-97800000D03*
X114370000Y-99000000D03*
X114370000Y-96600000D03*
M02*
