G04 #@! TF.FileFunction,Legend,Top*
%FSLAX46Y46*%
G04 Gerber Fmt 4.6, Leading zero omitted, Abs format (unit mm)*
G04 Created by KiCad (PCBNEW 4.0.7) date Tue Feb  6 08:28:50 2018*
%MOMM*%
%LPD*%
G01*
G04 APERTURE LIST*
%ADD10C,0.100000*%
%ADD11C,0.200000*%
%ADD12C,0.120000*%
%ADD13C,0.500000*%
%ADD14C,0.150000*%
G04 APERTURE END LIST*
D10*
X86750953Y-89698571D02*
X86727143Y-89722381D01*
X86655715Y-89746190D01*
X86608096Y-89746190D01*
X86536667Y-89722381D01*
X86489048Y-89674762D01*
X86465239Y-89627143D01*
X86441429Y-89531905D01*
X86441429Y-89460476D01*
X86465239Y-89365238D01*
X86489048Y-89317619D01*
X86536667Y-89270000D01*
X86608096Y-89246190D01*
X86655715Y-89246190D01*
X86727143Y-89270000D01*
X86750953Y-89293810D01*
X86965239Y-89746190D02*
X86965239Y-89246190D01*
X87179524Y-89746190D02*
X87179524Y-89484286D01*
X87155715Y-89436667D01*
X87108096Y-89412857D01*
X87036667Y-89412857D01*
X86989048Y-89436667D01*
X86965239Y-89460476D01*
X87631905Y-89746190D02*
X87631905Y-89484286D01*
X87608096Y-89436667D01*
X87560477Y-89412857D01*
X87465239Y-89412857D01*
X87417620Y-89436667D01*
X87631905Y-89722381D02*
X87584286Y-89746190D01*
X87465239Y-89746190D01*
X87417620Y-89722381D01*
X87393810Y-89674762D01*
X87393810Y-89627143D01*
X87417620Y-89579524D01*
X87465239Y-89555714D01*
X87584286Y-89555714D01*
X87631905Y-89531905D01*
X87870001Y-89746190D02*
X87870001Y-89412857D01*
X87870001Y-89508095D02*
X87893810Y-89460476D01*
X87917620Y-89436667D01*
X87965239Y-89412857D01*
X88012858Y-89412857D01*
X88393810Y-89412857D02*
X88393810Y-89817619D01*
X88370001Y-89865238D01*
X88346191Y-89889048D01*
X88298572Y-89912857D01*
X88227144Y-89912857D01*
X88179525Y-89889048D01*
X88393810Y-89722381D02*
X88346191Y-89746190D01*
X88250953Y-89746190D01*
X88203334Y-89722381D01*
X88179525Y-89698571D01*
X88155715Y-89650952D01*
X88155715Y-89508095D01*
X88179525Y-89460476D01*
X88203334Y-89436667D01*
X88250953Y-89412857D01*
X88346191Y-89412857D01*
X88393810Y-89436667D01*
X88822382Y-89722381D02*
X88774763Y-89746190D01*
X88679525Y-89746190D01*
X88631906Y-89722381D01*
X88608096Y-89674762D01*
X88608096Y-89484286D01*
X88631906Y-89436667D01*
X88679525Y-89412857D01*
X88774763Y-89412857D01*
X88822382Y-89436667D01*
X88846191Y-89484286D01*
X88846191Y-89531905D01*
X88608096Y-89579524D01*
X89274762Y-89746190D02*
X89274762Y-89246190D01*
X89274762Y-89722381D02*
X89227143Y-89746190D01*
X89131905Y-89746190D01*
X89084286Y-89722381D01*
X89060477Y-89698571D01*
X89036667Y-89650952D01*
X89036667Y-89508095D01*
X89060477Y-89460476D01*
X89084286Y-89436667D01*
X89131905Y-89412857D01*
X89227143Y-89412857D01*
X89274762Y-89436667D01*
X86670000Y-91648571D02*
X86646190Y-91672381D01*
X86574762Y-91696190D01*
X86527143Y-91696190D01*
X86455714Y-91672381D01*
X86408095Y-91624762D01*
X86384286Y-91577143D01*
X86360476Y-91481905D01*
X86360476Y-91410476D01*
X86384286Y-91315238D01*
X86408095Y-91267619D01*
X86455714Y-91220000D01*
X86527143Y-91196190D01*
X86574762Y-91196190D01*
X86646190Y-91220000D01*
X86670000Y-91243810D01*
X86884286Y-91696190D02*
X86884286Y-91196190D01*
X87098571Y-91696190D02*
X87098571Y-91434286D01*
X87074762Y-91386667D01*
X87027143Y-91362857D01*
X86955714Y-91362857D01*
X86908095Y-91386667D01*
X86884286Y-91410476D01*
X87550952Y-91696190D02*
X87550952Y-91434286D01*
X87527143Y-91386667D01*
X87479524Y-91362857D01*
X87384286Y-91362857D01*
X87336667Y-91386667D01*
X87550952Y-91672381D02*
X87503333Y-91696190D01*
X87384286Y-91696190D01*
X87336667Y-91672381D01*
X87312857Y-91624762D01*
X87312857Y-91577143D01*
X87336667Y-91529524D01*
X87384286Y-91505714D01*
X87503333Y-91505714D01*
X87550952Y-91481905D01*
X87789048Y-91696190D02*
X87789048Y-91362857D01*
X87789048Y-91458095D02*
X87812857Y-91410476D01*
X87836667Y-91386667D01*
X87884286Y-91362857D01*
X87931905Y-91362857D01*
X88312857Y-91362857D02*
X88312857Y-91767619D01*
X88289048Y-91815238D01*
X88265238Y-91839048D01*
X88217619Y-91862857D01*
X88146191Y-91862857D01*
X88098572Y-91839048D01*
X88312857Y-91672381D02*
X88265238Y-91696190D01*
X88170000Y-91696190D01*
X88122381Y-91672381D01*
X88098572Y-91648571D01*
X88074762Y-91600952D01*
X88074762Y-91458095D01*
X88098572Y-91410476D01*
X88122381Y-91386667D01*
X88170000Y-91362857D01*
X88265238Y-91362857D01*
X88312857Y-91386667D01*
X88550953Y-91696190D02*
X88550953Y-91362857D01*
X88550953Y-91196190D02*
X88527143Y-91220000D01*
X88550953Y-91243810D01*
X88574762Y-91220000D01*
X88550953Y-91196190D01*
X88550953Y-91243810D01*
X88789048Y-91362857D02*
X88789048Y-91696190D01*
X88789048Y-91410476D02*
X88812857Y-91386667D01*
X88860476Y-91362857D01*
X88931905Y-91362857D01*
X88979524Y-91386667D01*
X89003333Y-91434286D01*
X89003333Y-91696190D01*
X89455714Y-91362857D02*
X89455714Y-91767619D01*
X89431905Y-91815238D01*
X89408095Y-91839048D01*
X89360476Y-91862857D01*
X89289048Y-91862857D01*
X89241429Y-91839048D01*
X89455714Y-91672381D02*
X89408095Y-91696190D01*
X89312857Y-91696190D01*
X89265238Y-91672381D01*
X89241429Y-91648571D01*
X89217619Y-91600952D01*
X89217619Y-91458095D01*
X89241429Y-91410476D01*
X89265238Y-91386667D01*
X89312857Y-91362857D01*
X89408095Y-91362857D01*
X89455714Y-91386667D01*
D11*
X143017619Y-83522381D02*
X143208096Y-83522381D01*
X143303334Y-83570000D01*
X143398572Y-83665238D01*
X143446191Y-83855714D01*
X143446191Y-84189048D01*
X143398572Y-84379524D01*
X143303334Y-84474762D01*
X143208096Y-84522381D01*
X143017619Y-84522381D01*
X142922381Y-84474762D01*
X142827143Y-84379524D01*
X142779524Y-84189048D01*
X142779524Y-83855714D01*
X142827143Y-83665238D01*
X142922381Y-83570000D01*
X143017619Y-83522381D01*
X144208096Y-83998571D02*
X143874762Y-83998571D01*
X143874762Y-84522381D02*
X143874762Y-83522381D01*
X144350953Y-83522381D01*
X145065239Y-83998571D02*
X144731905Y-83998571D01*
X144731905Y-84522381D02*
X144731905Y-83522381D01*
X145208096Y-83522381D01*
X143250952Y-71022381D02*
X143441429Y-71022381D01*
X143536667Y-71070000D01*
X143631905Y-71165238D01*
X143679524Y-71355714D01*
X143679524Y-71689048D01*
X143631905Y-71879524D01*
X143536667Y-71974762D01*
X143441429Y-72022381D01*
X143250952Y-72022381D01*
X143155714Y-71974762D01*
X143060476Y-71879524D01*
X143012857Y-71689048D01*
X143012857Y-71355714D01*
X143060476Y-71165238D01*
X143155714Y-71070000D01*
X143250952Y-71022381D01*
X144108095Y-72022381D02*
X144108095Y-71022381D01*
X144679524Y-72022381D01*
X144679524Y-71022381D01*
D12*
X91710000Y-93100000D02*
X92410000Y-93100000D01*
X92410000Y-94300000D02*
X91710000Y-94300000D01*
X90790000Y-89190000D02*
X90790000Y-90190000D01*
X90790000Y-90190000D02*
X92890000Y-90190000D01*
X90790000Y-89190000D02*
X92890000Y-89190000D01*
X93380000Y-92050000D02*
X93380000Y-91050000D01*
X93380000Y-91050000D02*
X91280000Y-91050000D01*
X93380000Y-92050000D02*
X91280000Y-92050000D01*
X136780000Y-72870000D02*
X136780000Y-73870000D01*
X136780000Y-73870000D02*
X138880000Y-73870000D01*
X136780000Y-72870000D02*
X138880000Y-72870000D01*
X136780000Y-74775000D02*
X136780000Y-75775000D01*
X136780000Y-75775000D02*
X138880000Y-75775000D01*
X136780000Y-74775000D02*
X138880000Y-74775000D01*
X136780000Y-76680000D02*
X136780000Y-77680000D01*
X136780000Y-77680000D02*
X138880000Y-77680000D01*
X136780000Y-76680000D02*
X138880000Y-76680000D01*
X136780000Y-78585000D02*
X136780000Y-79585000D01*
X136780000Y-79585000D02*
X138880000Y-79585000D01*
X136780000Y-78585000D02*
X138880000Y-78585000D01*
X136780000Y-80490000D02*
X136780000Y-81490000D01*
X136780000Y-81490000D02*
X138880000Y-81490000D01*
X136780000Y-80490000D02*
X138880000Y-80490000D01*
X136780000Y-82395000D02*
X136780000Y-83395000D01*
X136780000Y-83395000D02*
X138880000Y-83395000D01*
X136780000Y-82395000D02*
X138880000Y-82395000D01*
X136780000Y-84300000D02*
X136780000Y-85300000D01*
X136780000Y-85300000D02*
X138880000Y-85300000D01*
X136780000Y-84300000D02*
X138880000Y-84300000D01*
X136780000Y-86205000D02*
X136780000Y-87205000D01*
X136780000Y-87205000D02*
X138880000Y-87205000D01*
X136780000Y-86205000D02*
X138880000Y-86205000D01*
X133605000Y-72870000D02*
X133605000Y-73870000D01*
X133605000Y-73870000D02*
X135705000Y-73870000D01*
X133605000Y-72870000D02*
X135705000Y-72870000D01*
X133605000Y-74775000D02*
X133605000Y-75775000D01*
X133605000Y-75775000D02*
X135705000Y-75775000D01*
X133605000Y-74775000D02*
X135705000Y-74775000D01*
X133605000Y-76680000D02*
X133605000Y-77680000D01*
X133605000Y-77680000D02*
X135705000Y-77680000D01*
X133605000Y-76680000D02*
X135705000Y-76680000D01*
X133605000Y-78585000D02*
X133605000Y-79585000D01*
X133605000Y-79585000D02*
X135705000Y-79585000D01*
X133605000Y-78585000D02*
X135705000Y-78585000D01*
X133605000Y-80490000D02*
X133605000Y-81490000D01*
X133605000Y-81490000D02*
X135705000Y-81490000D01*
X133605000Y-80490000D02*
X135705000Y-80490000D01*
X133605000Y-82395000D02*
X133605000Y-83395000D01*
X133605000Y-83395000D02*
X135705000Y-83395000D01*
X133605000Y-82395000D02*
X135705000Y-82395000D01*
X133605000Y-84300000D02*
X133605000Y-85300000D01*
X133605000Y-85300000D02*
X135705000Y-85300000D01*
X133605000Y-84300000D02*
X135705000Y-84300000D01*
X133605000Y-86205000D02*
X133605000Y-87205000D01*
X133605000Y-87205000D02*
X135705000Y-87205000D01*
X133605000Y-86205000D02*
X135705000Y-86205000D01*
X130430000Y-72870000D02*
X130430000Y-73870000D01*
X130430000Y-73870000D02*
X132530000Y-73870000D01*
X130430000Y-72870000D02*
X132530000Y-72870000D01*
X130430000Y-74775000D02*
X130430000Y-75775000D01*
X130430000Y-75775000D02*
X132530000Y-75775000D01*
X130430000Y-74775000D02*
X132530000Y-74775000D01*
X130430000Y-76680000D02*
X130430000Y-77680000D01*
X130430000Y-77680000D02*
X132530000Y-77680000D01*
X130430000Y-76680000D02*
X132530000Y-76680000D01*
X130430000Y-78585000D02*
X130430000Y-79585000D01*
X130430000Y-79585000D02*
X132530000Y-79585000D01*
X130430000Y-78585000D02*
X132530000Y-78585000D01*
X130430000Y-80490000D02*
X130430000Y-81490000D01*
X130430000Y-81490000D02*
X132530000Y-81490000D01*
X130430000Y-80490000D02*
X132530000Y-80490000D01*
X130430000Y-82395000D02*
X130430000Y-83395000D01*
X130430000Y-83395000D02*
X132530000Y-83395000D01*
X130430000Y-82395000D02*
X132530000Y-82395000D01*
X130430000Y-84300000D02*
X130430000Y-85300000D01*
X130430000Y-85300000D02*
X132530000Y-85300000D01*
X130430000Y-84300000D02*
X132530000Y-84300000D01*
X130430000Y-86205000D02*
X130430000Y-87205000D01*
X130430000Y-87205000D02*
X132530000Y-87205000D01*
X130430000Y-86205000D02*
X132530000Y-86205000D01*
X127255000Y-72870000D02*
X127255000Y-73870000D01*
X127255000Y-73870000D02*
X129355000Y-73870000D01*
X127255000Y-72870000D02*
X129355000Y-72870000D01*
X127255000Y-74775000D02*
X127255000Y-75775000D01*
X127255000Y-75775000D02*
X129355000Y-75775000D01*
X127255000Y-74775000D02*
X129355000Y-74775000D01*
X127255000Y-76680000D02*
X127255000Y-77680000D01*
X127255000Y-77680000D02*
X129355000Y-77680000D01*
X127255000Y-76680000D02*
X129355000Y-76680000D01*
X127255000Y-78585000D02*
X127255000Y-79585000D01*
X127255000Y-79585000D02*
X129355000Y-79585000D01*
X127255000Y-78585000D02*
X129355000Y-78585000D01*
X127255000Y-80490000D02*
X127255000Y-81490000D01*
X127255000Y-81490000D02*
X129355000Y-81490000D01*
X127255000Y-80490000D02*
X129355000Y-80490000D01*
X127255000Y-82395000D02*
X127255000Y-83395000D01*
X127255000Y-83395000D02*
X129355000Y-83395000D01*
X127255000Y-82395000D02*
X129355000Y-82395000D01*
X127255000Y-84300000D02*
X127255000Y-85300000D01*
X127255000Y-85300000D02*
X129355000Y-85300000D01*
X127255000Y-84300000D02*
X129355000Y-84300000D01*
X127255000Y-86205000D02*
X127255000Y-87205000D01*
X127255000Y-87205000D02*
X129355000Y-87205000D01*
X127255000Y-86205000D02*
X129355000Y-86205000D01*
X124080000Y-72870000D02*
X124080000Y-73870000D01*
X124080000Y-73870000D02*
X126180000Y-73870000D01*
X124080000Y-72870000D02*
X126180000Y-72870000D01*
X124080000Y-74775000D02*
X124080000Y-75775000D01*
X124080000Y-75775000D02*
X126180000Y-75775000D01*
X124080000Y-74775000D02*
X126180000Y-74775000D01*
X124080000Y-76680000D02*
X124080000Y-77680000D01*
X124080000Y-77680000D02*
X126180000Y-77680000D01*
X124080000Y-76680000D02*
X126180000Y-76680000D01*
X124080000Y-78585000D02*
X124080000Y-79585000D01*
X124080000Y-79585000D02*
X126180000Y-79585000D01*
X124080000Y-78585000D02*
X126180000Y-78585000D01*
X124080000Y-80490000D02*
X124080000Y-81490000D01*
X124080000Y-81490000D02*
X126180000Y-81490000D01*
X124080000Y-80490000D02*
X126180000Y-80490000D01*
X124080000Y-82395000D02*
X124080000Y-83395000D01*
X124080000Y-83395000D02*
X126180000Y-83395000D01*
X124080000Y-82395000D02*
X126180000Y-82395000D01*
X124080000Y-84300000D02*
X124080000Y-85300000D01*
X124080000Y-85300000D02*
X126180000Y-85300000D01*
X124080000Y-84300000D02*
X126180000Y-84300000D01*
X124080000Y-86205000D02*
X124080000Y-87205000D01*
X124080000Y-87205000D02*
X126180000Y-87205000D01*
X124080000Y-86205000D02*
X126180000Y-86205000D01*
X120905000Y-72870000D02*
X120905000Y-73870000D01*
X120905000Y-73870000D02*
X123005000Y-73870000D01*
X120905000Y-72870000D02*
X123005000Y-72870000D01*
X120905000Y-74775000D02*
X120905000Y-75775000D01*
X120905000Y-75775000D02*
X123005000Y-75775000D01*
X120905000Y-74775000D02*
X123005000Y-74775000D01*
X120905000Y-76680000D02*
X120905000Y-77680000D01*
X120905000Y-77680000D02*
X123005000Y-77680000D01*
X120905000Y-76680000D02*
X123005000Y-76680000D01*
X120905000Y-78585000D02*
X120905000Y-79585000D01*
X120905000Y-79585000D02*
X123005000Y-79585000D01*
X120905000Y-78585000D02*
X123005000Y-78585000D01*
X120905000Y-80490000D02*
X120905000Y-81490000D01*
X120905000Y-81490000D02*
X123005000Y-81490000D01*
X120905000Y-80490000D02*
X123005000Y-80490000D01*
X120905000Y-82395000D02*
X120905000Y-83395000D01*
X120905000Y-83395000D02*
X123005000Y-83395000D01*
X120905000Y-82395000D02*
X123005000Y-82395000D01*
X120905000Y-84300000D02*
X120905000Y-85300000D01*
X120905000Y-85300000D02*
X123005000Y-85300000D01*
X120905000Y-84300000D02*
X123005000Y-84300000D01*
X120905000Y-86205000D02*
X120905000Y-87205000D01*
X120905000Y-87205000D02*
X123005000Y-87205000D01*
X120905000Y-86205000D02*
X123005000Y-86205000D01*
X117730000Y-72870000D02*
X117730000Y-73870000D01*
X117730000Y-73870000D02*
X119830000Y-73870000D01*
X117730000Y-72870000D02*
X119830000Y-72870000D01*
X117730000Y-74775000D02*
X117730000Y-75775000D01*
X117730000Y-75775000D02*
X119830000Y-75775000D01*
X117730000Y-74775000D02*
X119830000Y-74775000D01*
X117730000Y-76680000D02*
X117730000Y-77680000D01*
X117730000Y-77680000D02*
X119830000Y-77680000D01*
X117730000Y-76680000D02*
X119830000Y-76680000D01*
X117730000Y-78585000D02*
X117730000Y-79585000D01*
X117730000Y-79585000D02*
X119830000Y-79585000D01*
X117730000Y-78585000D02*
X119830000Y-78585000D01*
X117730000Y-80490000D02*
X117730000Y-81490000D01*
X117730000Y-81490000D02*
X119830000Y-81490000D01*
X117730000Y-80490000D02*
X119830000Y-80490000D01*
X117730000Y-82395000D02*
X117730000Y-83395000D01*
X117730000Y-83395000D02*
X119830000Y-83395000D01*
X117730000Y-82395000D02*
X119830000Y-82395000D01*
X117730000Y-84300000D02*
X117730000Y-85300000D01*
X117730000Y-85300000D02*
X119830000Y-85300000D01*
X117730000Y-84300000D02*
X119830000Y-84300000D01*
X117730000Y-86205000D02*
X117730000Y-87205000D01*
X117730000Y-87205000D02*
X119830000Y-87205000D01*
X117730000Y-86205000D02*
X119830000Y-86205000D01*
X114555000Y-72870000D02*
X114555000Y-73870000D01*
X114555000Y-73870000D02*
X116655000Y-73870000D01*
X114555000Y-72870000D02*
X116655000Y-72870000D01*
X114555000Y-74775000D02*
X114555000Y-75775000D01*
X114555000Y-75775000D02*
X116655000Y-75775000D01*
X114555000Y-74775000D02*
X116655000Y-74775000D01*
X114555000Y-76680000D02*
X114555000Y-77680000D01*
X114555000Y-77680000D02*
X116655000Y-77680000D01*
X114555000Y-76680000D02*
X116655000Y-76680000D01*
X114555000Y-78585000D02*
X114555000Y-79585000D01*
X114555000Y-79585000D02*
X116655000Y-79585000D01*
X114555000Y-78585000D02*
X116655000Y-78585000D01*
X114555000Y-80490000D02*
X114555000Y-81490000D01*
X114555000Y-81490000D02*
X116655000Y-81490000D01*
X114555000Y-80490000D02*
X116655000Y-80490000D01*
X114555000Y-82395000D02*
X114555000Y-83395000D01*
X114555000Y-83395000D02*
X116655000Y-83395000D01*
X114555000Y-82395000D02*
X116655000Y-82395000D01*
X114555000Y-84300000D02*
X114555000Y-85300000D01*
X114555000Y-85300000D02*
X116655000Y-85300000D01*
X114555000Y-84300000D02*
X116655000Y-84300000D01*
X114555000Y-86205000D02*
X114555000Y-87205000D01*
X114555000Y-87205000D02*
X116655000Y-87205000D01*
X114555000Y-86205000D02*
X116655000Y-86205000D01*
X94720000Y-89010000D02*
X95720000Y-89010000D01*
X95720000Y-90370000D02*
X94720000Y-90370000D01*
X95720000Y-92240000D02*
X94720000Y-92240000D01*
X94720000Y-90880000D02*
X95720000Y-90880000D01*
X94720000Y-93010000D02*
X95720000Y-93010000D01*
X95720000Y-94370000D02*
X94720000Y-94370000D01*
X137620000Y-70240000D02*
X138620000Y-70240000D01*
X138620000Y-71600000D02*
X137620000Y-71600000D01*
X134420000Y-70240000D02*
X135420000Y-70240000D01*
X135420000Y-71600000D02*
X134420000Y-71600000D01*
X131220000Y-70240000D02*
X132220000Y-70240000D01*
X132220000Y-71600000D02*
X131220000Y-71600000D01*
X128070000Y-70240000D02*
X129070000Y-70240000D01*
X129070000Y-71600000D02*
X128070000Y-71600000D01*
X124920000Y-70240000D02*
X125920000Y-70240000D01*
X125920000Y-71600000D02*
X124920000Y-71600000D01*
X122720000Y-71600000D02*
X121720000Y-71600000D01*
X121720000Y-70240000D02*
X122720000Y-70240000D01*
X119520000Y-71600000D02*
X118520000Y-71600000D01*
X118520000Y-70240000D02*
X119520000Y-70240000D01*
X116370000Y-71600000D02*
X115370000Y-71600000D01*
X115370000Y-70240000D02*
X116370000Y-70240000D01*
X99340000Y-94410000D02*
X101140000Y-94410000D01*
X101140000Y-91190000D02*
X98690000Y-91190000D01*
X111395000Y-72870000D02*
X111395000Y-73870000D01*
X111395000Y-73870000D02*
X113495000Y-73870000D01*
X111395000Y-72870000D02*
X113495000Y-72870000D01*
X111395000Y-74770000D02*
X111395000Y-75770000D01*
X111395000Y-75770000D02*
X113495000Y-75770000D01*
X111395000Y-74770000D02*
X113495000Y-74770000D01*
X111395000Y-76670000D02*
X111395000Y-77670000D01*
X111395000Y-77670000D02*
X113495000Y-77670000D01*
X111395000Y-76670000D02*
X113495000Y-76670000D01*
X111395000Y-78570000D02*
X111395000Y-79570000D01*
X111395000Y-79570000D02*
X113495000Y-79570000D01*
X111395000Y-78570000D02*
X113495000Y-78570000D01*
X111395000Y-80470000D02*
X111395000Y-81470000D01*
X111395000Y-81470000D02*
X113495000Y-81470000D01*
X111395000Y-80470000D02*
X113495000Y-80470000D01*
X111395000Y-82395000D02*
X111395000Y-83395000D01*
X111395000Y-83395000D02*
X113495000Y-83395000D01*
X111395000Y-82395000D02*
X113495000Y-82395000D01*
X111395000Y-84295000D02*
X111395000Y-85295000D01*
X111395000Y-85295000D02*
X113495000Y-85295000D01*
X111395000Y-84295000D02*
X113495000Y-84295000D01*
X111395000Y-86195000D02*
X111395000Y-87195000D01*
X111395000Y-87195000D02*
X113495000Y-87195000D01*
X111395000Y-86195000D02*
X113495000Y-86195000D01*
X108245000Y-72870000D02*
X108245000Y-73870000D01*
X108245000Y-73870000D02*
X110345000Y-73870000D01*
X108245000Y-72870000D02*
X110345000Y-72870000D01*
X108245000Y-74770000D02*
X108245000Y-75770000D01*
X108245000Y-75770000D02*
X110345000Y-75770000D01*
X108245000Y-74770000D02*
X110345000Y-74770000D01*
X108245000Y-76670000D02*
X108245000Y-77670000D01*
X108245000Y-77670000D02*
X110345000Y-77670000D01*
X108245000Y-76670000D02*
X110345000Y-76670000D01*
X108245000Y-78570000D02*
X108245000Y-79570000D01*
X108245000Y-79570000D02*
X110345000Y-79570000D01*
X108245000Y-78570000D02*
X110345000Y-78570000D01*
X108245000Y-80470000D02*
X108245000Y-81470000D01*
X108245000Y-81470000D02*
X110345000Y-81470000D01*
X108245000Y-80470000D02*
X110345000Y-80470000D01*
X108245000Y-82395000D02*
X108245000Y-83395000D01*
X108245000Y-83395000D02*
X110345000Y-83395000D01*
X108245000Y-82395000D02*
X110345000Y-82395000D01*
X108245000Y-84295000D02*
X108245000Y-85295000D01*
X108245000Y-85295000D02*
X110345000Y-85295000D01*
X108245000Y-84295000D02*
X110345000Y-84295000D01*
X108245000Y-86195000D02*
X108245000Y-87195000D01*
X108245000Y-87195000D02*
X110345000Y-87195000D01*
X108245000Y-86195000D02*
X110345000Y-86195000D01*
X105070000Y-72870000D02*
X105070000Y-73870000D01*
X105070000Y-73870000D02*
X107170000Y-73870000D01*
X105070000Y-72870000D02*
X107170000Y-72870000D01*
X105070000Y-74770000D02*
X105070000Y-75770000D01*
X105070000Y-75770000D02*
X107170000Y-75770000D01*
X105070000Y-74770000D02*
X107170000Y-74770000D01*
X105070000Y-76670000D02*
X105070000Y-77670000D01*
X105070000Y-77670000D02*
X107170000Y-77670000D01*
X105070000Y-76670000D02*
X107170000Y-76670000D01*
X105070000Y-78570000D02*
X105070000Y-79570000D01*
X105070000Y-79570000D02*
X107170000Y-79570000D01*
X105070000Y-78570000D02*
X107170000Y-78570000D01*
X105070000Y-80470000D02*
X105070000Y-81470000D01*
X105070000Y-81470000D02*
X107170000Y-81470000D01*
X105070000Y-80470000D02*
X107170000Y-80470000D01*
X105070000Y-82395000D02*
X105070000Y-83395000D01*
X105070000Y-83395000D02*
X107170000Y-83395000D01*
X105070000Y-82395000D02*
X107170000Y-82395000D01*
X105070000Y-84295000D02*
X105070000Y-85295000D01*
X105070000Y-85295000D02*
X107170000Y-85295000D01*
X105070000Y-84295000D02*
X107170000Y-84295000D01*
X105070000Y-86195000D02*
X105070000Y-87195000D01*
X105070000Y-87195000D02*
X107170000Y-87195000D01*
X105070000Y-86195000D02*
X107170000Y-86195000D01*
X101920000Y-72870000D02*
X101920000Y-73870000D01*
X101920000Y-73870000D02*
X104020000Y-73870000D01*
X101920000Y-72870000D02*
X104020000Y-72870000D01*
X101920000Y-74770000D02*
X101920000Y-75770000D01*
X101920000Y-75770000D02*
X104020000Y-75770000D01*
X101920000Y-74770000D02*
X104020000Y-74770000D01*
X101920000Y-76670000D02*
X101920000Y-77670000D01*
X101920000Y-77670000D02*
X104020000Y-77670000D01*
X101920000Y-76670000D02*
X104020000Y-76670000D01*
X101920000Y-78570000D02*
X101920000Y-79570000D01*
X101920000Y-79570000D02*
X104020000Y-79570000D01*
X101920000Y-78570000D02*
X104020000Y-78570000D01*
X101920000Y-80470000D02*
X101920000Y-81470000D01*
X101920000Y-81470000D02*
X104020000Y-81470000D01*
X101920000Y-80470000D02*
X104020000Y-80470000D01*
X101920000Y-82395000D02*
X101920000Y-83395000D01*
X101920000Y-83395000D02*
X104020000Y-83395000D01*
X101920000Y-82395000D02*
X104020000Y-82395000D01*
X101920000Y-84295000D02*
X101920000Y-85295000D01*
X101920000Y-85295000D02*
X104020000Y-85295000D01*
X101920000Y-84295000D02*
X104020000Y-84295000D01*
X101920000Y-86195000D02*
X101920000Y-87195000D01*
X101920000Y-87195000D02*
X104020000Y-87195000D01*
X101920000Y-86195000D02*
X104020000Y-86195000D01*
X98770000Y-72870000D02*
X98770000Y-73870000D01*
X98770000Y-73870000D02*
X100870000Y-73870000D01*
X98770000Y-72870000D02*
X100870000Y-72870000D01*
X98770000Y-74770000D02*
X98770000Y-75770000D01*
X98770000Y-75770000D02*
X100870000Y-75770000D01*
X98770000Y-74770000D02*
X100870000Y-74770000D01*
X98770000Y-76670000D02*
X98770000Y-77670000D01*
X98770000Y-77670000D02*
X100870000Y-77670000D01*
X98770000Y-76670000D02*
X100870000Y-76670000D01*
X98770000Y-78570000D02*
X98770000Y-79570000D01*
X98770000Y-79570000D02*
X100870000Y-79570000D01*
X98770000Y-78570000D02*
X100870000Y-78570000D01*
X98770000Y-80470000D02*
X98770000Y-81470000D01*
X98770000Y-81470000D02*
X100870000Y-81470000D01*
X98770000Y-80470000D02*
X100870000Y-80470000D01*
X98770000Y-82395000D02*
X98770000Y-83395000D01*
X98770000Y-83395000D02*
X100870000Y-83395000D01*
X98770000Y-82395000D02*
X100870000Y-82395000D01*
X98770000Y-84295000D02*
X98770000Y-85295000D01*
X98770000Y-85295000D02*
X100870000Y-85295000D01*
X98770000Y-84295000D02*
X100870000Y-84295000D01*
X98770000Y-86195000D02*
X98770000Y-87195000D01*
X98770000Y-87195000D02*
X100870000Y-87195000D01*
X98770000Y-86195000D02*
X100870000Y-86195000D01*
X95620000Y-72870000D02*
X95620000Y-73870000D01*
X95620000Y-73870000D02*
X97720000Y-73870000D01*
X95620000Y-72870000D02*
X97720000Y-72870000D01*
X95620000Y-74770000D02*
X95620000Y-75770000D01*
X95620000Y-75770000D02*
X97720000Y-75770000D01*
X95620000Y-74770000D02*
X97720000Y-74770000D01*
X95620000Y-76670000D02*
X95620000Y-77670000D01*
X95620000Y-77670000D02*
X97720000Y-77670000D01*
X95620000Y-76670000D02*
X97720000Y-76670000D01*
X95620000Y-78570000D02*
X95620000Y-79570000D01*
X95620000Y-79570000D02*
X97720000Y-79570000D01*
X95620000Y-78570000D02*
X97720000Y-78570000D01*
X95620000Y-80470000D02*
X95620000Y-81470000D01*
X95620000Y-81470000D02*
X97720000Y-81470000D01*
X95620000Y-80470000D02*
X97720000Y-80470000D01*
X95620000Y-82395000D02*
X95620000Y-83395000D01*
X95620000Y-83395000D02*
X97720000Y-83395000D01*
X95620000Y-82395000D02*
X97720000Y-82395000D01*
X95620000Y-84295000D02*
X95620000Y-85295000D01*
X95620000Y-85295000D02*
X97720000Y-85295000D01*
X95620000Y-84295000D02*
X97720000Y-84295000D01*
X95620000Y-86195000D02*
X95620000Y-87195000D01*
X95620000Y-87195000D02*
X97720000Y-87195000D01*
X95620000Y-86195000D02*
X97720000Y-86195000D01*
X92470000Y-72870000D02*
X92470000Y-73870000D01*
X92470000Y-73870000D02*
X94570000Y-73870000D01*
X92470000Y-72870000D02*
X94570000Y-72870000D01*
X92470000Y-74770000D02*
X92470000Y-75770000D01*
X92470000Y-75770000D02*
X94570000Y-75770000D01*
X92470000Y-74770000D02*
X94570000Y-74770000D01*
X92470000Y-76670000D02*
X92470000Y-77670000D01*
X92470000Y-77670000D02*
X94570000Y-77670000D01*
X92470000Y-76670000D02*
X94570000Y-76670000D01*
X92470000Y-78570000D02*
X92470000Y-79570000D01*
X92470000Y-79570000D02*
X94570000Y-79570000D01*
X92470000Y-78570000D02*
X94570000Y-78570000D01*
X92470000Y-80470000D02*
X92470000Y-81470000D01*
X92470000Y-81470000D02*
X94570000Y-81470000D01*
X92470000Y-80470000D02*
X94570000Y-80470000D01*
X92470000Y-82395000D02*
X92470000Y-83395000D01*
X92470000Y-83395000D02*
X94570000Y-83395000D01*
X92470000Y-82395000D02*
X94570000Y-82395000D01*
X92470000Y-84295000D02*
X92470000Y-85295000D01*
X92470000Y-85295000D02*
X94570000Y-85295000D01*
X92470000Y-84295000D02*
X94570000Y-84295000D01*
X92470000Y-86195000D02*
X92470000Y-87195000D01*
X92470000Y-87195000D02*
X94570000Y-87195000D01*
X92470000Y-86195000D02*
X94570000Y-86195000D01*
X89320000Y-72870000D02*
X89320000Y-73870000D01*
X89320000Y-73870000D02*
X91420000Y-73870000D01*
X89320000Y-72870000D02*
X91420000Y-72870000D01*
X89320000Y-74770000D02*
X89320000Y-75770000D01*
X89320000Y-75770000D02*
X91420000Y-75770000D01*
X89320000Y-74770000D02*
X91420000Y-74770000D01*
X89320000Y-76670000D02*
X89320000Y-77670000D01*
X89320000Y-77670000D02*
X91420000Y-77670000D01*
X89320000Y-76670000D02*
X91420000Y-76670000D01*
X89320000Y-78570000D02*
X89320000Y-79570000D01*
X89320000Y-79570000D02*
X91420000Y-79570000D01*
X89320000Y-78570000D02*
X91420000Y-78570000D01*
X89320000Y-80470000D02*
X89320000Y-81470000D01*
X89320000Y-81470000D02*
X91420000Y-81470000D01*
X89320000Y-80470000D02*
X91420000Y-80470000D01*
X89320000Y-82395000D02*
X89320000Y-83395000D01*
X89320000Y-83395000D02*
X91420000Y-83395000D01*
X89320000Y-82395000D02*
X91420000Y-82395000D01*
X89320000Y-84295000D02*
X89320000Y-85295000D01*
X89320000Y-85295000D02*
X91420000Y-85295000D01*
X89320000Y-84295000D02*
X91420000Y-84295000D01*
X89320000Y-86195000D02*
X89320000Y-87195000D01*
X89320000Y-87195000D02*
X91420000Y-87195000D01*
X89320000Y-86195000D02*
X91420000Y-86195000D01*
X112170000Y-70240000D02*
X113170000Y-70240000D01*
X113170000Y-71600000D02*
X112170000Y-71600000D01*
X109020000Y-70240000D02*
X110020000Y-70240000D01*
X110020000Y-71600000D02*
X109020000Y-71600000D01*
X106820000Y-71600000D02*
X105820000Y-71600000D01*
X105820000Y-70240000D02*
X106820000Y-70240000D01*
X103620000Y-71600000D02*
X102620000Y-71600000D01*
X102620000Y-70240000D02*
X103620000Y-70240000D01*
X100570000Y-71600000D02*
X99570000Y-71600000D01*
X99570000Y-70240000D02*
X100570000Y-70240000D01*
X96420000Y-70240000D02*
X97420000Y-70240000D01*
X97420000Y-71600000D02*
X96420000Y-71600000D01*
X94110000Y-71610000D02*
X93110000Y-71610000D01*
X93110000Y-70250000D02*
X94110000Y-70250000D01*
X91120000Y-71600000D02*
X90120000Y-71600000D01*
X90120000Y-70240000D02*
X91120000Y-70240000D01*
X103620000Y-96170000D02*
X103620000Y-95470000D01*
X104820000Y-95470000D02*
X104820000Y-96170000D01*
X104720000Y-101320000D02*
X103720000Y-101320000D01*
X103720000Y-101320000D02*
X103720000Y-103420000D01*
X104720000Y-101320000D02*
X104720000Y-103420000D01*
X104900000Y-98620000D02*
X104900000Y-99620000D01*
X103540000Y-99620000D02*
X103540000Y-98620000D01*
X99290000Y-99070000D02*
X101090000Y-99070000D01*
X101090000Y-95850000D02*
X98640000Y-95850000D01*
D13*
X119220000Y-105720000D02*
X119220000Y-110220000D01*
X119220000Y-110220000D02*
X117220000Y-110220000D01*
X117220000Y-110220000D02*
X117220000Y-107220000D01*
X117220000Y-107220000D02*
X115220000Y-107220000D01*
X115220000Y-107220000D02*
X115220000Y-110220000D01*
X115220000Y-110220000D02*
X113220000Y-110220000D01*
X113220000Y-110220000D02*
X113220000Y-107220000D01*
X113220000Y-107220000D02*
X111220000Y-107220000D01*
X111220000Y-107220000D02*
X111220000Y-110220000D01*
X111220000Y-110220000D02*
X109220000Y-110220000D01*
X109220000Y-110220000D02*
X109220000Y-107220000D01*
D14*
X107320000Y-111220000D02*
X107320000Y-105320000D01*
X120820000Y-111220000D02*
X107320000Y-111220000D01*
X120820000Y-105320000D02*
X120820000Y-111220000D01*
X107320000Y-92720000D02*
X107320000Y-105320000D01*
X120820000Y-92720000D02*
X107320000Y-92720000D01*
X120820000Y-105320000D02*
X120820000Y-92720000D01*
D12*
X124020000Y-97230000D02*
X124020000Y-98230000D01*
X122660000Y-98230000D02*
X122660000Y-97230000D01*
X122650000Y-101040000D02*
X122650000Y-100040000D01*
X124010000Y-100040000D02*
X124010000Y-101040000D01*
D14*
X139324762Y-79353333D02*
X139372381Y-79210476D01*
X139372381Y-78972380D01*
X139324762Y-78877142D01*
X139277143Y-78829523D01*
X139181905Y-78781904D01*
X139086667Y-78781904D01*
X138991429Y-78829523D01*
X138943810Y-78877142D01*
X138896190Y-78972380D01*
X138848571Y-79162857D01*
X138800952Y-79258095D01*
X138753333Y-79305714D01*
X138658095Y-79353333D01*
X138562857Y-79353333D01*
X138467619Y-79305714D01*
X138420000Y-79258095D01*
X138372381Y-79162857D01*
X138372381Y-78924761D01*
X138420000Y-78781904D01*
X138372381Y-78448571D02*
X139372381Y-78210476D01*
X138658095Y-78019999D01*
X139372381Y-77829523D01*
X138372381Y-77591428D01*
X138467619Y-77258095D02*
X138420000Y-77210476D01*
X138372381Y-77115238D01*
X138372381Y-76877142D01*
X138420000Y-76781904D01*
X138467619Y-76734285D01*
X138562857Y-76686666D01*
X138658095Y-76686666D01*
X138800952Y-76734285D01*
X139372381Y-77305714D01*
X139372381Y-76686666D01*
M02*
