M48
;DRILL file {KiCad 4.0.7} date Tue Feb  6 08:28:57 2018
;FORMAT={-:-/ absolute / inch / decimal}
FMAT,2
INCH,TZ
T1C0.016
T2C0.024
T3C0.033
%
G90
G05
M72
T1
X3.3244Y-2.8201
X3.4724Y-3.0583
X3.5362Y-2.8502
X3.5362Y-2.925
X3.5362Y-3.0008
X3.5362Y-3.0756
X3.5362Y-3.1504
X3.5362Y-3.2252
X3.5362Y-3.301
X3.5362Y-3.3768
X3.5441Y-3.522
X3.5453Y-3.6043
X3.5461Y-3.6799
X3.5756Y-3.4835
X3.598Y-2.663
X3.6524Y-3.7476
X3.6587Y-2.6654
X3.6602Y-2.8502
X3.6602Y-2.925
X3.6602Y-3.0008
X3.6602Y-3.0756
X3.6602Y-3.1504
X3.6602Y-3.2252
X3.6602Y-3.301
X3.6602Y-3.3768
X3.6917Y-2.6646
X3.6917Y-3.772
X3.7142Y-2.6413
X3.7146Y-2.7358
X3.7606Y-2.6689
X3.7638Y-2.737
X3.7744Y-2.7028
X3.7843Y-2.8502
X3.7843Y-2.925
X3.7843Y-3.0008
X3.7843Y-3.0756
X3.7843Y-3.1504
X3.7843Y-3.2252
X3.7843Y-3.301
X3.7843Y-3.3768
X3.798Y-3.748
X3.8142Y-2.7366
X3.824Y-3.461
X3.824Y-3.6508
X3.8378Y-3.7591
X3.839Y-2.6795
X3.8646Y-2.7378
X3.889Y-2.6413
X3.8902Y-2.7118
X3.9083Y-2.8502
X3.9083Y-2.925
X3.9083Y-3.0008
X3.9083Y-3.0756
X3.9083Y-3.1504
X3.9083Y-3.2252
X3.9083Y-3.301
X3.9083Y-3.3768
X3.9142Y-2.7382
X3.9508Y-3.8366
X3.9642Y-2.7299
X4.0051Y-3.9252
X4.0146Y-2.7118
X4.0323Y-2.8502
X4.0323Y-2.925
X4.0323Y-3.0008
X4.0323Y-3.0756
X4.0323Y-3.1504
X4.0323Y-3.2252
X4.0323Y-3.301
X4.0323Y-3.3768
X4.0425Y-3.4917
X4.0488Y-2.6402
X4.0638Y-3.6425
X4.0638Y-3.7913
X4.0902Y-3.6701
X4.1161Y-3.6449
X4.1417Y-3.4657
X4.1429Y-3.8417
X4.1465Y-3.6303
X4.1465Y-3.7209
X4.1563Y-2.8502
X4.1563Y-2.925
X4.1563Y-3.0008
X4.1563Y-3.0756
X4.1563Y-3.1504
X4.1563Y-3.301
X4.1563Y-3.3768
X4.1573Y-3.2252
X4.1685Y-2.6949
X4.2813Y-2.8502
X4.2813Y-2.925
X4.2813Y-3.0008
X4.2813Y-3.0756
X4.2813Y-3.1514
X4.2813Y-3.2252
X4.2813Y-3.3768
X4.2823Y-3.301
X4.3303Y-3.9138
X4.3502Y-4.0421
X4.3528Y-3.4866
X4.3732Y-2.7453
X4.4053Y-2.8502
X4.4053Y-2.925
X4.4053Y-3.0008
X4.4053Y-3.0756
X4.4053Y-3.1504
X4.4053Y-3.3768
X4.4063Y-2.7461
X4.4063Y-3.2252
X4.4063Y-3.301
X4.4161Y-3.4587
X4.4161Y-3.9138
X4.5293Y-3.0756
X4.5293Y-3.1514
X4.5303Y-2.8502
X4.5303Y-3.0008
X4.5303Y-3.2262
X4.5303Y-3.301
X4.5303Y-3.3768
X4.5319Y-2.9248
X4.6366Y-4.0201
X4.6539Y-2.9248
X4.6543Y-2.8502
X4.6543Y-3.0756
X4.6543Y-3.1514
X4.6543Y-3.301
X4.6543Y-3.3768
X4.6553Y-3.0008
X4.6553Y-3.2262
X4.6681Y-4.1094
X4.6705Y-3.6913
X4.7024Y-3.5024
X4.7793Y-3.0008
X4.7793Y-3.1514
X4.7799Y-2.9248
X4.7803Y-2.8502
X4.7803Y-3.0756
X4.7803Y-3.2262
X4.7803Y-3.301
X4.7803Y-3.3768
X4.852Y-2.5323
X4.8551Y-4.0697
X4.8567Y-3.7831
X4.902Y-2.9248
X4.9043Y-2.8492
X4.9043Y-3.0756
X4.9043Y-3.301
X4.9053Y-3.0008
X4.9053Y-3.1504
X4.9053Y-3.2262
X4.9053Y-3.3768
X4.9488Y-2.5835
X4.9524Y-2.6335
X5.028Y-2.9248
X5.0293Y-3.0008
X5.0293Y-3.0756
X5.0293Y-3.1514
X5.0293Y-3.2262
X5.0293Y-3.301
X5.0303Y-2.8492
X5.0303Y-3.3758
X5.0386Y-2.6772
X5.0453Y-2.5252
X5.089Y-2.6941
X5.1382Y-2.6287
X5.1398Y-2.7126
X5.1539Y-2.9248
X5.1543Y-3.0008
X5.1543Y-3.0766
X5.1543Y-3.1504
X5.1543Y-3.3768
X5.1553Y-2.8492
X5.1553Y-3.2262
X5.1553Y-3.301
X5.189Y-2.6819
X5.1894Y-2.7303
X5.2394Y-2.737
X5.2793Y-3.0018
X5.2793Y-3.0766
X5.2793Y-3.1504
X5.2793Y-3.2262
X5.2799Y-2.8492
X5.2799Y-2.9248
X5.2803Y-3.301
X5.2803Y-3.3758
X5.289Y-2.6406
X5.2898Y-2.7362
X5.3213Y-2.5256
X5.3232Y-2.6677
X5.339Y-2.7362
X5.3453Y-2.6409
X5.4043Y-2.8492
X5.4043Y-3.0008
X5.4043Y-3.0756
X5.4043Y-3.1504
X5.4043Y-3.2262
X5.4043Y-3.301
X5.4053Y-3.3758
X5.4059Y-2.9248
T3
X3.424Y-2.9575
X3.424Y-3.1543
T2
X3.3039Y-2.9181G85X3.3315Y-2.9181
G05
X3.3315Y-3.1937G85X3.3039Y-3.1937
G05
T0
M30
