G04 #@! TF.FileFunction,Legend,Bot*
%FSLAX46Y46*%
G04 Gerber Fmt 4.6, Leading zero omitted, Abs format (unit mm)*
G04 Created by KiCad (PCBNEW 4.0.7) date Tue Feb  6 08:28:50 2018*
%MOMM*%
%LPD*%
G01*
G04 APERTURE LIST*
%ADD10C,0.100000*%
%ADD11C,0.120000*%
%ADD12C,0.254000*%
%ADD13C,0.150000*%
%ADD14C,0.050000*%
G04 APERTURE END LIST*
D10*
D11*
X98670000Y-95710000D02*
X98670000Y-96410000D01*
X99870000Y-96410000D02*
X99870000Y-95710000D01*
X104020000Y-67995000D02*
X104020000Y-68695000D01*
X105220000Y-68695000D02*
X105220000Y-67995000D01*
X100770000Y-89130000D02*
X100770000Y-90130000D01*
X102130000Y-90130000D02*
X102130000Y-89130000D01*
D12*
X99021140Y-88349700D02*
X99021140Y-87450540D01*
X99021140Y-87450540D02*
X99719640Y-87450540D01*
X99719640Y-87450540D02*
X99719640Y-89050740D01*
X95320360Y-89050740D02*
X95320360Y-87450540D01*
X95320360Y-87450540D02*
X96018860Y-87450540D01*
X96018860Y-87450540D02*
X96018860Y-88349700D01*
X96018860Y-94049460D02*
X95320360Y-94049460D01*
X95320360Y-94049460D02*
X95320360Y-92449260D01*
X96018860Y-94049460D02*
X96018860Y-93150300D01*
X99719640Y-92449260D02*
X99719640Y-94049460D01*
X99719640Y-94049460D02*
X99021140Y-94049460D01*
X99021140Y-94049460D02*
X99021140Y-93150300D01*
X96519240Y-92748980D02*
X95521020Y-91750760D01*
X95521020Y-91750760D02*
X95521020Y-89749240D01*
X95521020Y-89749240D02*
X96519240Y-88751020D01*
X96519240Y-88751020D02*
X98520760Y-88751020D01*
X98520760Y-88751020D02*
X99518980Y-89749240D01*
X99518980Y-89749240D02*
X99518980Y-91750760D01*
X99518980Y-91750760D02*
X98520760Y-92748980D01*
X98520760Y-92748980D02*
X96519240Y-92748980D01*
X94919040Y-92050480D02*
X94919040Y-89449520D01*
X98820480Y-93350960D02*
X96219520Y-93350960D01*
X94919040Y-89449520D02*
X96219520Y-88149040D01*
X96219520Y-88149040D02*
X98820480Y-88149040D01*
X98820480Y-88149040D02*
X100120960Y-89449520D01*
X100120960Y-89449520D02*
X100120960Y-92050480D01*
X96219520Y-93350960D02*
X94919040Y-92050480D01*
X100120960Y-92050480D02*
X98820480Y-93350960D01*
X98520760Y-90750000D02*
G75*
G03X98520760Y-90750000I-1000760J0D01*
G01*
D13*
X109655000Y-91285000D02*
X109655000Y-91510000D01*
X102405000Y-91285000D02*
X102405000Y-91610000D01*
X102405000Y-98535000D02*
X102405000Y-98210000D01*
X109655000Y-98535000D02*
X109655000Y-98210000D01*
X109655000Y-91285000D02*
X109330000Y-91285000D01*
X109655000Y-98535000D02*
X109330000Y-98535000D01*
X102405000Y-98535000D02*
X102730000Y-98535000D01*
X102405000Y-91285000D02*
X102730000Y-91285000D01*
X109655000Y-91510000D02*
X111080000Y-91510000D01*
X130470000Y-99795000D02*
X130220000Y-99795000D01*
X130470000Y-92045000D02*
X130125000Y-92045000D01*
X118570000Y-92045000D02*
X118915000Y-92045000D01*
X118570000Y-99795000D02*
X118915000Y-99795000D01*
X130470000Y-99795000D02*
X130470000Y-92045000D01*
X118570000Y-99795000D02*
X118570000Y-92045000D01*
X130220000Y-99795000D02*
X130220000Y-101620000D01*
X136245000Y-70385000D02*
X136220000Y-70385000D01*
X136245000Y-66235000D02*
X136140000Y-66235000D01*
X126095000Y-66235000D02*
X126200000Y-66235000D01*
X126095000Y-70385000D02*
X126200000Y-70385000D01*
X136245000Y-70385000D02*
X136245000Y-66235000D01*
X126095000Y-70385000D02*
X126095000Y-66235000D01*
X136220000Y-70385000D02*
X136220000Y-71760000D01*
D11*
X124295000Y-68695000D02*
X124295000Y-67995000D01*
X123095000Y-67995000D02*
X123095000Y-68695000D01*
D13*
X102585000Y-70395000D02*
X102560000Y-70395000D01*
X102585000Y-66245000D02*
X102480000Y-66245000D01*
X92435000Y-66245000D02*
X92540000Y-66245000D01*
X92435000Y-70395000D02*
X92540000Y-70395000D01*
X102585000Y-70395000D02*
X102585000Y-66245000D01*
X92435000Y-70395000D02*
X92435000Y-66245000D01*
X102560000Y-70395000D02*
X102560000Y-71770000D01*
D11*
X84810000Y-71180000D02*
X85510000Y-71180000D01*
X85510000Y-69980000D02*
X84810000Y-69980000D01*
X87270000Y-81520000D02*
X87270000Y-81070000D01*
X85420000Y-81520000D02*
X87270000Y-81520000D01*
X82870000Y-73720000D02*
X83120000Y-73720000D01*
X82870000Y-81520000D02*
X83120000Y-81520000D01*
X85420000Y-73720000D02*
X87270000Y-73720000D01*
X87270000Y-73720000D02*
X87270000Y-74170000D01*
X87820000Y-79320000D02*
X87820000Y-78870000D01*
X87820000Y-79320000D02*
X87370000Y-79320000D01*
X94330000Y-91930000D02*
X94330000Y-89510000D01*
X91210000Y-91930000D02*
X91210000Y-89510000D01*
X94280000Y-93310000D02*
X94280000Y-91930000D01*
X94330000Y-91930000D02*
X94280000Y-91930000D01*
X94330000Y-89510000D02*
X94280000Y-89510000D01*
X91260000Y-91930000D02*
X91210000Y-91930000D01*
X91260000Y-89510000D02*
X91210000Y-89510000D01*
X86567090Y-66025265D02*
X86528788Y-65993125D01*
X85011544Y-67879092D02*
X84973242Y-67846953D01*
X87386758Y-66713047D02*
X87348456Y-66680908D01*
X85831212Y-68566875D02*
X85792910Y-68534735D01*
X84905863Y-69591877D02*
X85792910Y-68534735D01*
X84973242Y-67846953D02*
X86528788Y-65993125D01*
X85831212Y-68566875D02*
X87386758Y-66713047D01*
X85831212Y-68566875D02*
X87386758Y-66713047D01*
X84973242Y-67846953D02*
X86528788Y-65993125D01*
X84905863Y-69591877D02*
X85792910Y-68534735D01*
X85831212Y-68566875D02*
X85792910Y-68534735D01*
X87386758Y-66713047D02*
X87348456Y-66680908D01*
X85011544Y-67879092D02*
X84973242Y-67846953D01*
X86567090Y-66025265D02*
X86528788Y-65993125D01*
D14*
X113570000Y-96200000D02*
X115170000Y-96200000D01*
X115170000Y-96200000D02*
X115170000Y-99400000D01*
X115170000Y-99400000D02*
X113570000Y-99400000D01*
X113570000Y-99400000D02*
X113570000Y-96200000D01*
M02*
